<?xml version="1.0" encoding="utf-8"?>
<!-- Generator: Adobe Illustrator 24.1.1, SVG Export Plug-In . SVG Version: 6.00 Build 0)  -->
<svg version="1.2" baseProfile="tiny" id="Слой_1"
	 xmlns="http://www.w3.org/2000/svg" xmlns:xlink="http://www.w3.org/1999/xlink" x="0px" y="0px" viewBox="0 0 141.7 23.7"
	 xml:space="preserve">
<g id="_x30_01_1_">
	<g>
		<path fill="#BA5BF4" d="M50.8,15.1H55l0.7,1.7c0.2,0.9,0.7,1.3,1.6,1.3c1.1,0,1.5-0.7,1-1.9l-4.1-9.7c-0.2-0.5-0.8-0.9-1.4-0.9
			c-0.6,0-1.1,0.3-1.4,0.9l-4.1,9.7c-0.5,1.2-0.1,1.9,1,1.9c0.9,0,1.3-0.4,1.6-1.3L50.8,15.1z M52.9,9.1l1.6,4.2h-3.2L52.9,9.1z"/>
		<path fill="#BA5BF4" d="M59.1,13.4c0,2.8,2.1,4.8,5,4.8c2.9,0,4.9-2,4.9-4.8V6.8c0-0.7-0.5-1.2-1.2-1.2c-0.7,0-1.2,0.5-1.2,1.2
			v2.8c-0.7-0.7-1.7-1.1-2.9-1.1C61,8.6,59.1,10.6,59.1,13.4z M61.6,13.4c0-1.8,1-2.9,2.5-2.9c1.4,0,2.5,1.1,2.5,2.9
			c0,1.7-1,2.9-2.5,2.9C62.7,16.2,61.6,15.1,61.6,13.4z"/>
		<path fill="#BA5BF4" d="M78.1,13.9c1.1,0,1.9-0.8,1.6-1.7c-0.4-2.1-2.2-3.5-4.5-3.5c-2.7,0-4.7,2-4.7,4.8c0,2.8,2,4.8,4.8,4.8
			c2.1,0,3.8-1.1,4.3-2.5c0.2-0.5-0.1-1.1-0.7-1.1c-0.3,0-0.7,0.2-1,0.4c-0.4,0.8-1.4,1.4-2.3,1.4c-1.4,0-2.4-1-2.5-2.4H78.1z
			 M73,12.5c0.1-1.4,1-2.3,2.1-2.3c1.1,0,2,0.9,2.1,2.3H73z"/>
		<path fill="#BA5BF4" d="M91.1,13.4c0-2.8-2.1-4.8-5-4.8c-2.9,0-4.9,2-4.9,4.8v6.5c0,0.7,0.5,1.2,1.2,1.2c0.7,0,1.2-0.5,1.2-1.2
			v-2.8c0.7,0.7,1.7,1,2.9,1C89.2,18.1,91.1,16.1,91.1,13.4z M88.6,13.4c0,1.7-1,2.9-2.5,2.9c-1.4,0-2.5-1.1-2.5-2.9
			c0-1.8,1-2.9,2.5-2.9C87.6,10.5,88.6,11.6,88.6,13.4z"/>
		<path fill="#BA5BF4" d="M92.5,8.7c-0.5,0-0.8,0.3-0.8,0.8c0,0.5,0.3,0.9,0.8,0.9h0.9v3.7c0,2.3,1.6,3.9,3.7,3.9H98
			c0.7,0,1.2-0.4,1.2-1.1c0-0.6-0.5-1.1-1.2-1.1c-1.2,0-2.1-0.8-2.1-2v-3.5H98c0.5,0,0.8-0.3,0.8-0.8c0-0.5-0.3-0.9-0.8-0.9h-2.1
			V6.9c0-0.7-0.5-1.2-1.2-1.2c-0.7,0-1.2,0.5-1.2,1.2v1.9H92.5z"/>
		<path fill="#BA5BF4" d="M100.1,6.5c0,0.8,0.6,1.4,1.5,1.4c0.8,0,1.4-0.6,1.4-1.4c0-0.8-0.6-1.4-1.4-1.4
			C100.7,5.1,100.1,5.7,100.1,6.5z M100.3,16.9c0,0.7,0.5,1.2,1.2,1.2c0.7,0,1.2-0.5,1.2-1.2V9.8c0-0.7-0.5-1.2-1.2-1.2
			c-0.7,0-1.2,0.5-1.2,1.2V16.9z"/>
		<linearGradient id="SVGID_1_" gradientUnits="userSpaceOnUse" x1="113.7806" y1="18.1194" x2="113.7806" y2="5.6361">
			<stop  offset="0" style="stop-color:#605DE9"/>
			<stop  offset="1" style="stop-color:#BA5BF4"/>
		</linearGradient>
		<path fill="url(#SVGID_1_)" d="M111.7,15.1h4.2l0.7,1.7c0.2,0.9,0.7,1.3,1.6,1.3c1.1,0,1.5-0.7,1-1.9l-4.1-9.7
			c-0.2-0.5-0.8-0.9-1.4-0.9c-0.6,0-1.1,0.3-1.4,0.9l-4.1,9.7c-0.5,1.2-0.1,1.9,1,1.9c0.9,0,1.3-0.4,1.6-1.3L111.7,15.1z M113.8,9.1
			l1.6,4.2h-3.2L113.8,9.1z"/>
		<linearGradient id="SVGID_2_" gradientUnits="userSpaceOnUse" x1="124.9586" y1="18.1194" x2="124.9586" y2="5.6361">
			<stop  offset="0" style="stop-color:#605DE9"/>
			<stop  offset="1" style="stop-color:#BA5BF4"/>
		</linearGradient>
		<path fill="url(#SVGID_2_)" d="M120,13.4c0,2.8,2.1,4.8,5,4.8c2.9,0,4.9-2,4.9-4.8V6.8c0-0.7-0.5-1.2-1.2-1.2
			c-0.7,0-1.2,0.5-1.2,1.2v2.8c-0.7-0.7-1.7-1.1-2.9-1.1C121.9,8.6,120,10.6,120,13.4z M122.5,13.4c0-1.8,1-2.9,2.5-2.9
			c1.4,0,2.5,1.1,2.5,2.9c0,1.7-1,2.9-2.5,2.9C123.5,16.2,122.5,15.1,122.5,13.4z"/>
		<linearGradient id="SVGID_3_" gradientUnits="userSpaceOnUse" x1="135.2639" y1="18.1194" x2="135.2639" y2="8.5821">
			<stop  offset="0" style="stop-color:#605DE9"/>
			<stop  offset="1" style="stop-color:#BA5BF4"/>
		</linearGradient>
		<path fill="url(#SVGID_3_)" d="M133.3,15.1c-0.1-0.2-0.4-0.5-1-0.5c-0.7,0-1.1,0.3-1.1,0.8c0,1.5,1.8,2.8,4.1,2.8
			c2.3,0,4-1.2,4-2.9c0-3.4-5.6-1.9-5.6-3.8c0-0.7,0.7-1.2,1.7-1.2c0.9,0,1.6,0.6,1.8,1.4c0.1,0.2,0.4,0.5,1.1,0.5
			c0.6,0,1-0.3,1-0.8c0-1.5-1.7-2.8-4-2.8c-2.3,0-4.1,1.2-4.1,2.9c0,3.4,5.6,2,5.6,3.8c0,0.7-0.7,1.2-1.7,1.2
			C134.2,16.4,133.4,15.9,133.3,15.1z"/>
	</g>
	<g>
		<linearGradient id="SVGID_4_" gradientUnits="userSpaceOnUse" x1="37.8042" y1="21.6832" x2="37.8042" y2="9.9933">
			<stop  offset="0" style="stop-color:#605DE9"/>
			<stop  offset="1" style="stop-color:#BA5BF4"/>
		</linearGradient>
		<path fill="url(#SVGID_4_)" d="M37.1,21.7c1.6-1.8,2.3-5.8,0-11.7V21.7z"/>
		<linearGradient id="SVGID_5_" gradientUnits="userSpaceOnUse" x1="34.9059" y1="22.9245" x2="34.9059" y2="4.0664">
			<stop  offset="0" style="stop-color:#605DE9"/>
			<stop  offset="1" style="stop-color:#BA5BF4"/>
		</linearGradient>
		<path fill="url(#SVGID_5_)" d="M35.6,6.7c-0.5-1-1-1.9-1.4-2.6v18.8c0.3,0,0.6,0,0.9,0c0.2,0,0.4-0.1,0.6-0.2V6.7z"/>
		<linearGradient id="SVGID_6_" gradientUnits="userSpaceOnUse" x1="32.0092" y1="22.3678" x2="32.0092" y2="1.2264">
			<stop  offset="0" style="stop-color:#605DE9"/>
			<stop  offset="1" style="stop-color:#BA5BF4"/>
		</linearGradient>
		<path fill="url(#SVGID_6_)" d="M31.3,21c0.4,0.6,0.9,1.1,1.4,1.4V2.2c-0.5-0.5-1-0.8-1.4-1V21z"/>
		<linearGradient id="SVGID_7_" gradientUnits="userSpaceOnUse" x1="29.1114" y1="18.6896" x2="29.1114" y2="1">
			<stop  offset="0" style="stop-color:#605DE9"/>
			<stop  offset="1" style="stop-color:#BA5BF4"/>
		</linearGradient>
		<path fill="url(#SVGID_7_)" d="M28.4,16.4c0.5,0.6,0.9,1.3,1.4,2.2c0,0,0,0.1,0,0.1V1c-0.5,0.1-1,0.2-1.4,0.5V16.4z"/>
		<linearGradient id="SVGID_8_" gradientUnits="userSpaceOnUse" x1="26.2136" y1="16.1243" x2="26.2136" y2="2.7625">
			<stop  offset="0" style="stop-color:#605DE9"/>
			<stop  offset="1" style="stop-color:#BA5BF4"/>
		</linearGradient>
		<path fill="url(#SVGID_8_)" d="M25.5,16.1c0.5-0.4,1-0.6,1.4-0.6V2.8c-0.5,0.5-1,1.1-1.4,1.9V16.1z"/>
		<linearGradient id="SVGID_9_" gradientUnits="userSpaceOnUse" x1="23.3158" y1="19.7988" x2="23.3158" y2="6.9546">
			<stop  offset="0" style="stop-color:#605DE9"/>
			<stop  offset="1" style="stop-color:#BA5BF4"/>
		</linearGradient>
		<path fill="url(#SVGID_9_)" d="M22.6,19.8c0.3-0.4,0.7-0.8,1-1.3c0.2-0.3,0.3-0.5,0.5-0.7V7c-0.5,0.8-1,1.4-1.4,2V19.8z"/>
		<linearGradient id="SVGID_10_" gradientUnits="userSpaceOnUse" x1="20.4179" y1="21.9952" x2="20.4179" y2="10.4359">
			<stop  offset="0" style="stop-color:#605DE9"/>
			<stop  offset="1" style="stop-color:#BA5BF4"/>
		</linearGradient>
		<path fill="url(#SVGID_10_)" d="M19.7,22c0.5-0.2,1-0.4,1.4-0.8V10.4c-0.5,0.4-1,0.7-1.4,1V22z"/>
		<linearGradient id="SVGID_11_" gradientUnits="userSpaceOnUse" x1="17.5191" y1="22.2086" x2="17.5191" y2="11.4953">
			<stop  offset="0" style="stop-color:#605DE9"/>
			<stop  offset="1" style="stop-color:#BA5BF4"/>
		</linearGradient>
		<path fill="url(#SVGID_11_)" d="M16.8,21.8c0.5,0.2,1,0.4,1.4,0.4V11.8c-0.5,0-1-0.1-1.4-0.3V21.8z"/>
		<linearGradient id="SVGID_12_" gradientUnits="userSpaceOnUse" x1="14.6223" y1="20.7733" x2="14.6223" y2="8.7275">
			<stop  offset="0" style="stop-color:#605DE9"/>
			<stop  offset="1" style="stop-color:#BA5BF4"/>
		</linearGradient>
		<path fill="url(#SVGID_12_)" d="M13.9,18.8c0.4,0.8,0.9,1.4,1.4,2V10.5c-0.5-0.4-0.9-1-1.4-1.6c0,0-0.1-0.1-0.1-0.1V18.8z"/>
		<g>
			<linearGradient id="SVGID_13_" gradientUnits="userSpaceOnUse" x1="11.7245" y1="16.4648" x2="11.7245" y2="5.9319">
				<stop  offset="0" style="stop-color:#605DE9"/>
				<stop  offset="1" style="stop-color:#BA5BF4"/>
			</linearGradient>
			<path fill="url(#SVGID_13_)" d="M12.4,7c-0.5-0.4-1-0.8-1.4-1.1v9.2c0.6,0.4,1.1,0.9,1.4,1.4V7z"/>
			<linearGradient id="SVGID_14_" gradientUnits="userSpaceOnUse" x1="11.5478" y1="22.2617" x2="11.5478" y2="18.6481">
				<stop  offset="0" style="stop-color:#605DE9"/>
				<stop  offset="1" style="stop-color:#BA5BF4"/>
			</linearGradient>
			<path fill="url(#SVGID_14_)" d="M11,18.6v3.6c0.6-0.5,1.1-1.1,1.1-1.8S11.6,19.1,11,18.6z"/>
		</g>
		<g>
			<linearGradient id="SVGID_15_" gradientUnits="userSpaceOnUse" x1="8.8267" y1="23" x2="8.8267" y2="17.9098">
				<stop  offset="0" style="stop-color:#605DE9"/>
				<stop  offset="1" style="stop-color:#BA5BF4"/>
			</linearGradient>
			<path fill="url(#SVGID_15_)" d="M9.6,22.9V18c-0.3-0.1-0.5-0.1-0.8-0.1c-0.2,0-0.5,0-0.7,0.1v4.9C8.3,23,8.6,23,8.8,23
				C9,23,9.3,23,9.6,22.9z"/>
			<linearGradient id="SVGID_16_" gradientUnits="userSpaceOnUse" x1="8.8267" y1="14.6203" x2="8.8267" y2="5.4235">
				<stop  offset="0" style="stop-color:#605DE9"/>
				<stop  offset="1" style="stop-color:#BA5BF4"/>
			</linearGradient>
			<path fill="url(#SVGID_16_)" d="M9.6,14.5V5.5c-0.5-0.1-1,0-1.4,0.1v9.1C8.6,14.5,9.1,14.4,9.6,14.5z"/>
		</g>
		<g>
			<linearGradient id="SVGID_17_" gradientUnits="userSpaceOnUse" x1="6.0606" y1="22.3215" x2="6.0606" y2="18.5882">
				<stop  offset="0" style="stop-color:#605DE9"/>
				<stop  offset="1" style="stop-color:#BA5BF4"/>
			</linearGradient>
			<path fill="url(#SVGID_17_)" d="M6.7,18.6c-0.7,0.5-1.2,1.1-1.2,1.9s0.5,1.4,1.2,1.9V18.6z"/>
			<linearGradient id="SVGID_18_" gradientUnits="userSpaceOnUse" x1="5.9289" y1="16.5085" x2="5.9289" y2="6.2803">
				<stop  offset="0" style="stop-color:#605DE9"/>
				<stop  offset="1" style="stop-color:#BA5BF4"/>
			</linearGradient>
			<path fill="url(#SVGID_18_)" d="M5.2,7.6v8.9c0.3-0.2,0.5-0.4,0.8-0.7c0.2-0.2,0.4-0.3,0.6-0.5V6.3C6.2,6.6,5.7,7.1,5.2,7.6z"/>
		</g>
		<linearGradient id="SVGID_19_" gradientUnits="userSpaceOnUse" x1="3.085" y1="17.0845" x2="3.085" y2="9.8731">
			<stop  offset="0" style="stop-color:#605DE9"/>
			<stop  offset="1" style="stop-color:#BA5BF4"/>
		</linearGradient>
		<path fill="url(#SVGID_19_)" d="M3.8,9.9c-1.8,3.6-1.8,7.2,0,7.2V9.9z"/>
	</g>
</g>
</svg>
