<svg width="186" height="40" viewBox="0 0 186 40" fill="none" xmlns="http://www.w3.org/2000/svg">
<path d="M13.3 9V16.7L15.4 15L21.3 10V0L13.3 9Z" fill="url(#paint0_linear)"/>
<path d="M13.3 27.1L8 29.9V15L0 24V40L8 37L13.3 35L21.3 32V17.5L13.3 22.6V27.1Z" fill="url(#paint1_linear)"/>
<path d="M29.3008 9V16.7L27.3008 15L21.3008 10V0L29.3008 9Z" fill="url(#paint2_linear)"/>
<path d="M29.3008 27.1L34.7008 29.9V15L42.7008 24V40L34.7008 37L29.3008 35L21.3008 32V17.5L29.3008 22.6V27.1Z" fill="url(#paint3_linear)"/>
<path d="M59.8 34.1002H56V10.7002C56 7.50017 57.5 5.90017 60.5 5.90017H63.3C66.3 5.90017 67.8 7.50017 67.8 10.7002V34.1002H64V23.8002H59.7V34.1002H59.8ZM64.1 20.4002V11.0002C64.1 9.90017 63.6 9.40017 62.5 9.40017H61.5C60.4 9.40017 59.9 9.90017 59.9 11.0002V20.4002H64.1Z" fill="white"/>
<path d="M72.3 34.1002V5.90017H78.9C82.4 5.90017 84.2 7.70017 84.2 11.3002V30.0002C84.2 32.7002 82.7 34.1002 79.7 34.1002H72.3ZM76 30.7002H78.8C79.8 30.7002 80.3 30.3002 80.3 29.4002V11.4002C80.3 10.0002 79.7 9.40017 78.6 9.40017H76V30.7002Z" fill="white"/>
<path d="M95.3 13.5002V11.0002C95.3 9.90017 94.8 9.30017 93.7 9.30017H93C91.9 9.30017 91.4 9.90017 91.4 11.0002V15.7002C91.4 16.2002 91.5 16.6002 91.7 16.8002C91.9 17.0002 92.2 17.2002 92.7 17.5002L96.3 19.4002C97.1 19.8002 97.6 20.2002 98 20.4002C98.3 20.6002 98.6 20.9002 98.8 21.3002C99 21.7002 99.1 22.3002 99.1 23.3002V29.3002C99.1 32.5002 97.6 34.1002 94.5 34.1002H92.2C89.2 34.1002 87.7 32.4002 87.7 28.9002V27.5002H91.5V29.0002C91.5 30.1002 92.1 30.6002 93.2 30.6002H93.9C94.9 30.6002 95.4 30.1002 95.4 29.0002V24.2002C95.4 23.7002 95.3 23.3002 95.1 23.1002C94.9 22.9002 94.6 22.7002 94.1 22.4002L90.5 20.4002C89.7 20.0002 89.1 19.6002 88.8 19.3002C88.4 19.0002 88.2 18.6002 88 18.2002C87.8 17.7002 87.8 17.1002 87.8 16.4002V10.6002C87.8 7.40017 89.3 5.80017 92.3 5.80017H94.7C97.7 5.80017 99.2 7.40017 99.2 10.6002V13.3002H95.3V13.5002Z" fill="white"/>
<path d="M103.699 34.0998V5.89984H112.999V9.29984H107.399V17.8998H112.299V21.2998H107.399V30.6998H112.999V34.0998H103.699Z" fill="url(#paint4_linear)"/>
<path d="M124.499 22.4998L127.999 5.89984H132.199V34.0998H128.399L128.799 15.5998L125.999 28.9998H122.999L120.199 15.5998L120.599 34.0998H116.799V5.89984H120.999L124.499 22.4998Z" fill="url(#paint5_linear)"/>
<path d="M136.799 5.89984H143.699C146.699 5.89984 148.299 7.49984 148.299 10.6998V19.0998C148.299 22.2998 146.799 23.8998 143.799 23.8998H140.699V34.0998H136.899V5.89984H136.799ZM140.499 20.4998H142.899C143.899 20.4998 144.399 19.9998 144.399 18.8998V10.9998C144.399 9.89984 143.799 9.39984 142.699 9.39984H140.499V20.4998Z" fill="url(#paint6_linear)"/>
<path d="M152.199 34.0998V5.89984H155.999V34.0998H152.199Z" fill="url(#paint7_linear)"/>
<path d="M167.999 5.89984C170.899 5.89984 172.299 7.49984 172.299 10.6998V17.6998C172.299 20.1998 171.599 21.6998 170.099 22.3998L172.699 34.0998H169.099L166.599 22.6998H164.299V34.0998H160.499V5.89984H167.999ZM164.399 19.4998H166.899C167.999 19.4998 168.599 18.7998 168.599 17.4998V11.3998C168.599 9.99984 167.999 9.39984 166.899 9.39984H164.399V19.4998Z" fill="url(#paint8_linear)"/>
<path d="M176.499 34.0998V5.89984H185.799V9.29984H180.199V17.8998H185.099V21.2998H180.199V30.6998H185.799V34.0998H176.499Z" fill="url(#paint9_linear)"/>
<defs>
<linearGradient id="paint0_linear" x1="0" y1="20" x2="21.3" y2="20" gradientUnits="userSpaceOnUse">
<stop stop-color="#FF9000"/>
<stop offset="1" stop-color="#FFD33A"/>
</linearGradient>
<linearGradient id="paint1_linear" x1="0" y1="20" x2="21.3" y2="20" gradientUnits="userSpaceOnUse">
<stop stop-color="#FF9000"/>
<stop offset="1" stop-color="#FFD33A"/>
</linearGradient>
<linearGradient id="paint2_linear" x1="21.3008" y1="20" x2="42.7008" y2="20" gradientUnits="userSpaceOnUse">
<stop stop-color="#FF9000"/>
<stop offset="1" stop-color="#FFD33A"/>
</linearGradient>
<linearGradient id="paint3_linear" x1="21.3008" y1="20" x2="42.7008" y2="20" gradientUnits="userSpaceOnUse">
<stop stop-color="#FF9000"/>
<stop offset="1" stop-color="#FFD33A"/>
</linearGradient>
<linearGradient id="paint4_linear" x1="103.699" y1="19.9998" x2="185.799" y2="19.9998" gradientUnits="userSpaceOnUse">
<stop stop-color="#FF9000"/>
<stop offset="1" stop-color="#FFD33A"/>
</linearGradient>
<linearGradient id="paint5_linear" x1="103.699" y1="19.9998" x2="185.799" y2="19.9998" gradientUnits="userSpaceOnUse">
<stop stop-color="#FF9000"/>
<stop offset="1" stop-color="#FFD33A"/>
</linearGradient>
<linearGradient id="paint6_linear" x1="103.699" y1="19.9998" x2="185.799" y2="19.9998" gradientUnits="userSpaceOnUse">
<stop stop-color="#FF9000"/>
<stop offset="1" stop-color="#FFD33A"/>
</linearGradient>
<linearGradient id="paint7_linear" x1="103.699" y1="19.9998" x2="185.799" y2="19.9998" gradientUnits="userSpaceOnUse">
<stop stop-color="#FF9000"/>
<stop offset="1" stop-color="#FFD33A"/>
</linearGradient>
<linearGradient id="paint8_linear" x1="103.699" y1="19.9998" x2="185.799" y2="19.9998" gradientUnits="userSpaceOnUse">
<stop stop-color="#FF9000"/>
<stop offset="1" stop-color="#FFD33A"/>
</linearGradient>
<linearGradient id="paint9_linear" x1="103.699" y1="19.9998" x2="185.799" y2="19.9998" gradientUnits="userSpaceOnUse">
<stop stop-color="#FF9000"/>
<stop offset="1" stop-color="#FFD33A"/>
</linearGradient>
</defs>
</svg>
