<?xml version="1.0" encoding="UTF-8" standalone="no"?>
<svg
   xmlns:dc="http://purl.org/dc/elements/1.1/"
   xmlns:cc="http://creativecommons.org/ns#"
   xmlns:rdf="http://www.w3.org/1999/02/22-rdf-syntax-ns#"
   xmlns:svg="http://www.w3.org/2000/svg"
   xmlns="http://www.w3.org/2000/svg"
   viewBox="0 0 650.46002 149.99068"
   height="149.99068"
   width="650.46002"
   xml:space="preserve"
   id="svg2"
   version="1.1"><metadata
     id="metadata8"><rdf:RDF><cc:Work
         rdf:about=""><dc:format>image/svg+xml</dc:format><dc:type
           rdf:resource="http://purl.org/dc/dcmitype/StillImage" /></cc:Work></rdf:RDF></metadata><defs
     id="defs6"><clipPath
       id="clipPath18"
       clipPathUnits="userSpaceOnUse"><path
         id="path16"
         d="M 0,112.493 H 487.845 V 0 H 0 Z" /></clipPath></defs><g
     transform="matrix(1.3333333,0,0,-1.3333333,0,149.99067)"
     id="g10"><g
       id="g12"><g
         clip-path="url(#clipPath18)"
         id="g14"><g
           transform="translate(257.8709,32.7403)"
           id="g20"><path
             id="path22"
             style="fill:#e42e2c;fill-opacity:1;fill-rule:nonzero;stroke:none"
             d="m 0,0 0.198,20.294 h -11.652 c -0.987,0 -1.58,0.634 -1.58,1.687 v 14.757 c 0,1.055 0.593,1.687 1.58,1.687 H 0.198 L 0,78.004 c 0,1.264 0.592,1.685 1.58,1.685 h 20.735 c 0.987,0 1.58,-0.421 1.58,-1.685 L 23.499,38.425 h 23.302 c 0.987,0 1.58,-0.632 1.58,-1.687 V 21.981 c 0,-1.053 -0.593,-1.687 -1.58,-1.687 H 23.499 L 23.697,0.632 c 0,-11.383 4.344,-14.967 11.848,-14.967 4.148,0 7.899,0.633 10.861,1.475 1.186,0.422 1.778,-0.21 1.778,-1.265 v -13.702 c 0,-0.844 -0.396,-1.687 -1.185,-1.897 -4.937,-1.477 -10.861,-2.952 -16.588,-2.952 C 14.416,-32.676 0,-24.243 0,0" /></g><g
           transform="translate(422.4816,1.6641)"
           id="g24"><path
             id="path26"
             style="fill:#e42e2c;fill-opacity:1;fill-rule:nonzero;stroke:none"
             d="M 0,0 0.592,56.842 0,109.036 c 0,1.248 0.592,1.665 1.58,1.665 h 20.537 c 0.987,0 1.58,-0.417 1.58,-1.665 l -0.79,-18.299 c 7.701,13.1 20.932,19.964 35.546,19.964 1.776,0 3.751,-0.21 5.529,-0.624 0.988,-0.209 1.382,-1.041 1.382,-1.872 V 92.816 c 0,-1.04 -0.592,-1.664 -1.778,-1.455 -1.184,0.208 -2.962,0.208 -4.541,0.208 -19.156,0 -34.559,-11.645 -35.348,-35.975 L 23.895,0 c 0,-1.248 -0.593,-1.664 -1.581,-1.664 H 1.58 C 0.592,-1.664 0,-1.248 0,0" /></g><g
           transform="translate(116.9033,8.218)"
           id="g28"><path
             id="path30"
             style="fill:#e42e2c;fill-opacity:1;fill-rule:nonzero;stroke:none"
             d="m 0,0 -0.126,-7.465 c -0.007,-0.414 0.322,-0.753 0.73,-0.753 h 22.062 c 0.407,0 0.736,0.337 0.73,0.75 L 23.302,0 v 44.613 h 22.512 c 0.987,0 1.58,0.634 1.58,1.687 v 14.757 c 0,1.055 -0.593,1.687 -1.58,1.687 H 23.302 v 6.324 c 0,12.44 4.739,16.866 12.045,16.866 4.148,0 7.308,-0.422 10.27,-1.265 1.184,-0.212 1.777,0.421 1.777,1.475 v 14.547 c 0,0.843 -0.395,1.687 -1.382,1.687 -4.345,1.053 -10.467,1.897 -15.996,1.897 C 15.008,104.275 0,95.42 0,71.177 v -8.433 h -14.218 c -0.988,0 -1.58,-0.632 -1.58,-1.687 V 46.3 c 0,-1.053 0.592,-1.687 1.58,-1.687 l 14.218,0 z" /></g><g
           transform="translate(188.9233,8.218)"
           id="g32"><path
             id="path34"
             style="fill:#e42e2c;fill-opacity:1;fill-rule:nonzero;stroke:none"
             d="m 0,0 -0.126,-7.465 c -0.007,-0.414 0.322,-0.753 0.73,-0.753 h 22.062 c 0.407,0 0.736,0.337 0.73,0.75 L 23.302,0 v 44.613 h 22.512 c 0.987,0 1.58,0.634 1.58,1.687 v 14.757 c 0,1.055 -0.593,1.687 -1.58,1.687 H 23.302 v 6.324 c 0,12.44 4.739,16.866 12.046,16.866 4.147,0 7.307,-0.422 10.269,-1.265 1.184,-0.212 1.777,0.421 1.777,1.475 v 14.547 c 0,0.843 -0.395,1.687 -1.382,1.687 -4.345,1.053 -10.467,1.897 -15.996,1.897 C 15.008,104.275 0,95.42 0,71.177 v -8.433 h -14.218 c -0.988,0 -1.58,-0.632 -1.58,-1.687 V 46.3 c 0,-1.053 0.592,-1.687 1.58,-1.687 l 14.218,0 z" /></g><g
           transform="translate(363.2744,17.257)"
           id="g36"><path
             id="path38"
             style="fill:#e42e2c;fill-opacity:1;fill-rule:nonzero;stroke:none"
             d="m 0,0 c -15.08,0 -27.213,-5.367 -35.702,-14.754 -0.845,-0.935 -0.181,-2.439 1.08,-2.439 h 29.227 c 1.753,0.359 3.609,0.558 5.593,0.558 1.894,0 3.667,-0.198 5.331,-0.558 h 29.19 c 1.255,0 1.92,1.49 1.088,2.43 C 27.371,-5.234 15.312,0 0,0" /></g><g
           transform="translate(387.5632,93.5535)"
           id="g40"><path
             id="path42"
             style="fill:#e42e2c;fill-opacity:1;fill-rule:nonzero;stroke:none"
             d="m 0,0 h -49.368 c 0.97,6.758 2.763,12.321 5.392,16.634 0.585,0.96 -0.111,2.177 -1.236,2.177 h -21.025 c -0.559,0 -1.075,-0.313 -1.319,-0.816 -4.111,-8.485 -6.3,-18.723 -6.3,-30.263 0,-32.648 17.576,-55.73 50.357,-55.73 27.449,0 44.037,16.844 46.802,38.054 0.197,0.831 -0.593,1.248 -1.58,1.248 H 1.975 c -0.789,0 -1.382,-0.417 -1.58,-1.457 -2.962,-14.14 -11.058,-21.001 -23.499,-21.001 -17.181,0 -26.067,11.437 -27.055,34.934 h 74.251 c 0.988,0 1.58,0.625 1.58,1.664 -0.206,12.684 -2.511,23.638 -6.75,32.543 -0.242,0.508 -0.761,0.824 -1.323,0.824 H -3.513 c -1.125,0 -1.816,-1.22 -1.232,-2.182 C -1.895,11.934 -0.332,6.119 0,0" /></g><g
           transform="translate(62.8427)"
           id="g44"><path
             id="path46"
             style="fill:#e42e2c;fill-opacity:1;fill-rule:nonzero;stroke:none"
             d="m 0,0 h 27.479 c 0.559,0 1.011,0.454 1.008,1.013 l -0.096,20.115 v 29.529 c 0,23.705 -14.81,37.221 -43.049,37.221 -27.252,0 -43.84,-12.685 -45.025,-34.519 0,-1.04 0.593,-1.664 1.58,-1.664 h 19.748 c 0.987,0 1.58,0.624 1.777,1.664 0.79,9.773 7.504,15.804 21.327,15.804 13.231,0 19.946,-5.407 19.946,-13.723 0,-10.19 -8.492,-11.438 -28.24,-14.559 -19.352,-2.909 -39.298,-9.149 -39.298,-35.143 0,-1.702 0.146,-3.323 0.388,-4.888 C -62.38,0.358 -61.946,0 -61.448,0 h 22.573 c 0.702,0 1.203,0.701 0.939,1.352 -0.791,1.95 -1.21,4.241 -1.21,6.881 0,11.854 8.69,15.806 19.946,17.885 10.466,2.08 19.352,2.704 24.486,6.238 V 19.047 C 4.863,11.727 2.753,5.913 -0.773,1.635 -1.313,0.979 -0.849,0 0,0" /></g><g
           transform="translate(68.5243,100.8244)"
           id="g48"><path
             id="path50"
             style="fill:#e42e2c;fill-opacity:1;fill-rule:nonzero;stroke:none"
             d="m 0,0 c 0,-1.248 0.592,-1.664 1.58,-1.664 h 19.747 c 0.988,0 1.58,0.416 1.58,1.664 l -0.051,10.537 c -0.002,0.555 -0.453,1.003 -1.008,1.003 H 1.477 c -0.539,0 -0.983,-0.424 -1.007,-0.963 z" /></g><g
           transform="translate(34.7557,96.6652)"
           id="g52"><path
             id="path54"
             style="fill:#e42e2c;fill-opacity:1;fill-rule:nonzero;stroke:none"
             d="m 0,0 c 13.915,0 24.527,5.135 31.843,14.066 0.533,0.65 0.042,1.633 -0.798,1.633 h -60.537 c -0.782,0 -1.291,-0.868 -0.869,-1.528 C -24.49,4.999 -13.26,0 0,0" /></g></g></g></g></svg>