<svg width="190" height="50" viewBox="0 0 190 50" fill="none" xmlns="http://www.w3.org/2000/svg">
<rect width="190" height="50" fill="none"/>
<path d="M117.458 21.3831C116.807 20.1117 115.755 19.0837 114.296 18.2989C112.842 17.5142 110.982 17.1188 108.719 17.1188H88.0142C86.9622 17.1188 86.1048 17.9765 86.1048 19.0289V31.4935C86.1048 33.9389 85.2109 35.1556 83.4292 35.1556C81.6415 35.1556 80.7415 33.9329 80.7415 31.4935V19.0654C80.7415 17.9887 79.8719 17.1188 78.7956 17.1188H72.8851C71.8452 17.1188 71 17.9644 71 19.0046V31.1833C71 32.1018 71.0973 33.0995 71.2919 34.1823C71.4865 35.2651 71.979 36.4331 72.7634 37.6862C73.5479 38.9455 74.8127 40.0162 76.5579 40.8921C78.297 41.7742 80.5895 42.2122 83.4292 42.2122C83.0644 42.2061 87.023 42.2548 90.1364 40.0952C90.1121 39.9614 90.0999 39.8215 90.0999 39.6815C90.0999 38.3493 91.1701 37.2726 92.5019 37.2604C92.3316 36.9684 92.2282 36.6278 92.2282 36.2628C92.2282 35.3077 92.9093 34.5108 93.8153 34.3283C93.9491 33.7504 94.0281 33.1968 94.0829 32.7041C94.0707 32.7041 94.0524 32.7041 94.0342 32.7102C93.9369 32.7162 93.2437 32.8257 92.587 33.2577C92.064 33.6044 91.7174 34.0302 91.4924 34.4013C91.2979 34.7298 90.8296 34.7542 90.6046 34.4439C90.5134 34.3161 90.4161 34.1762 90.3249 34.0242C90.1668 33.7686 89.6865 32.8987 89.4067 31.6091C89.2061 30.6723 89.0601 29.9909 89.3398 29.267C89.7229 28.2694 90.6837 27.7645 91.2492 27.5455C91.456 27.4664 91.5898 27.2657 91.5898 27.0406C91.5836 26.4444 91.6201 25.8118 91.7113 25.1426C91.7296 25.0087 91.7539 24.8749 91.7722 24.7411C91.7782 24.6863 91.7904 24.6377 91.8025 24.5829C91.8147 24.5221 91.8268 24.4613 91.8391 24.4005C91.8391 24.4005 91.8573 24.3214 91.8755 24.2362C92.7877 20.0996 95.7673 17.2708 95.7673 17.2708C95.8159 17.2222 95.8767 17.1978 95.9436 17.1978C96.0044 17.1978 96.0713 17.2222 96.1199 17.2708C96.1199 17.2708 96.8618 17.9765 97.7253 19.2054C98.5827 20.4281 99.5557 22.174 100.012 24.2362C100.03 24.3214 100.048 24.4005 100.048 24.4005C100.06 24.4613 100.073 24.5221 100.085 24.5829C100.097 24.6377 100.103 24.6863 100.115 24.7411C100.139 24.8749 100.158 25.0087 100.176 25.1426C100.267 25.8118 100.304 26.4505 100.298 27.0406C100.298 27.2657 100.431 27.4664 100.638 27.5455C101.204 27.7645 102.164 28.2694 102.547 29.267C102.827 29.9909 102.681 30.6784 102.48 31.6091C102.207 32.8987 101.72 33.7625 101.562 34.0242C101.471 34.1762 101.374 34.3161 101.283 34.4439C101.058 34.7542 100.595 34.7298 100.395 34.4013C100.17 34.0302 99.8232 33.6044 99.3002 33.2577C98.6435 32.8257 97.9503 32.7223 97.853 32.7102C97.8408 32.7102 97.8287 32.7102 97.8226 32.7102C97.8712 33.2577 97.9442 33.8112 98.0476 34.3587C98.8928 34.5838 99.5131 35.3503 99.5131 36.2628C99.5131 36.6338 99.4097 36.9745 99.2333 37.2726C100.462 37.3882 101.429 38.4223 101.429 39.6815C101.429 39.8702 101.404 40.0587 101.362 40.2351C102.195 40.8374 103.058 41.1963 103.812 41.4153C103.867 41.4213 103.928 41.4274 103.982 41.4396C104.937 41.5552 105.77 40.8131 105.77 39.858V35.0036C105.77 34.4074 106.257 33.9268 106.853 33.9268H108.732C110.988 33.9268 112.842 33.5314 114.296 32.7405C115.749 31.9498 116.807 30.9217 117.458 29.6503C118.114 28.3789 118.437 26.998 118.437 25.5015C118.437 24.0294 118.108 22.6546 117.458 21.3831ZM108.592 27.077C108.203 27.4238 107.619 27.6002 106.847 27.6002C106.251 27.6002 105.764 27.1197 105.764 26.5235V24.5342C105.764 24.2362 105.886 23.9685 106.08 23.7739C106.275 23.5792 106.549 23.4575 106.847 23.4575C108.397 23.4575 109.176 24.145 109.176 25.5137C109.176 26.2071 108.981 26.7242 108.592 27.077ZM98.9476 37.2726C98.984 37.3517 99.0266 37.4307 99.0631 37.5098C99.1239 37.4368 99.1786 37.3577 99.2212 37.2786C99.1482 37.2726 99.0691 37.2665 98.9962 37.2665C98.984 37.2665 98.9658 37.2665 98.9476 37.2726ZM92.7086 37.2786C92.6478 37.2726 92.5809 37.2726 92.514 37.2726C92.5079 37.2726 92.5019 37.2726 92.4958 37.2726C92.5322 37.3334 92.5688 37.3943 92.6113 37.449C92.6417 37.3882 92.6721 37.3334 92.7086 37.2786Z" fill="#fff"/>
<path d="M71.4682 14.4604C71.3162 14.4604 71.2007 14.3935 71.1155 14.2657C71.0365 14.1319 71.0243 13.9981 71.0912 13.846L73.3898 8.3589C73.4688 8.17032 73.6026 8.07299 73.7911 8.07299C73.9857 8.07299 74.1195 8.17032 74.1925 8.3589L76.4971 13.8642C76.5579 14.0163 76.5457 14.1562 76.4667 14.2779C76.3876 14.3996 76.2721 14.4604 76.114 14.4604C76.0349 14.4604 75.9559 14.4361 75.8829 14.3935C75.81 14.3448 75.7552 14.284 75.7248 14.1988L73.6999 9.16189H73.931L71.8696 14.1988C71.8331 14.284 71.7784 14.3509 71.6993 14.3935C71.6203 14.4422 71.5473 14.4604 71.4682 14.4604ZM71.9061 13.0552L72.2344 12.3495H75.439L75.7674 13.0552H71.9061Z" fill="#fff"/>
<path d="M77.8957 14.4604C77.7741 14.4604 77.6768 14.4178 77.5916 14.3387C77.5126 14.2597 77.47 14.1562 77.47 14.0346V8.49882C77.47 8.37107 77.5126 8.27374 77.5916 8.19466C77.6707 8.11558 77.7741 8.07908 77.8957 8.07908H79.3672C79.7747 8.07908 80.1395 8.16424 80.4557 8.33457C80.7719 8.5049 81.0213 8.74215 81.1976 9.04023C81.3739 9.33831 81.4651 9.69114 81.4651 10.0866C81.4651 10.4576 81.3739 10.7861 81.1976 11.0781C81.0213 11.3701 80.7719 11.5952 80.4557 11.7594C80.1395 11.9237 79.7747 12.0028 79.3672 12.0028H78.3214V14.0346C78.3214 14.1562 78.2788 14.2536 78.2058 14.3387C78.1207 14.4178 78.0173 14.4604 77.8957 14.4604ZM78.3214 11.212H79.3672C79.6166 11.212 79.8355 11.1633 80.03 11.066C80.2186 10.9686 80.3706 10.8348 80.48 10.6645C80.5895 10.4941 80.6442 10.2995 80.6442 10.0805C80.6442 9.84322 80.5895 9.63031 80.48 9.44173C80.3706 9.25923 80.2186 9.11323 80.03 9.00982C79.8416 8.9064 79.6166 8.85165 79.3672 8.85165H78.3214V11.212ZM81.2888 14.4604C81.2097 14.4604 81.1428 14.4422 81.0821 14.4117C81.0213 14.3813 80.9665 14.3266 80.924 14.2536L79.4524 11.8811L80.2794 11.6439L81.6171 13.8034C81.7145 13.9616 81.7266 14.1076 81.6597 14.2475C81.5868 14.3935 81.459 14.4604 81.2888 14.4604Z" fill="#fff"/>
<path d="M83.0583 14.4604C82.9367 14.4604 82.8394 14.4178 82.7543 14.3387C82.6753 14.2597 82.6327 14.1562 82.6327 14.0346V8.49882C82.6327 8.37107 82.6753 8.27374 82.7543 8.19466C82.8334 8.11558 82.9367 8.07908 83.0583 8.07908H85.0103C85.3812 8.07908 85.7035 8.15207 85.9893 8.29807C86.269 8.44407 86.4879 8.64482 86.6521 8.90032C86.8102 9.15581 86.8954 9.45389 86.8954 9.78239C86.8954 10.05 86.8224 10.2934 86.6764 10.5063C86.5305 10.7192 86.3359 10.8895 86.0865 11.0173C86.4454 11.1025 86.7373 11.2789 86.95 11.5344C87.169 11.7899 87.2784 12.1244 87.2784 12.5381C87.2784 12.9153 87.1872 13.2438 87.0109 13.5358C86.8345 13.8277 86.5852 14.0528 86.269 14.2171C85.9528 14.3813 85.5879 14.4665 85.1805 14.4665H83.0583V14.4604ZM83.484 10.701H85.0103C85.3204 10.701 85.5758 10.6219 85.7765 10.4698C85.9771 10.3177 86.0744 10.0866 86.0744 9.7763C86.0744 9.46606 85.9771 9.23489 85.7765 9.08281C85.5758 8.93073 85.3204 8.85774 85.0103 8.85774H83.484V10.701ZM83.484 13.6757H85.1866C85.4359 13.6757 85.6548 13.6331 85.8494 13.5418C86.0379 13.4567 86.19 13.3289 86.2994 13.1586C86.4088 12.9883 86.4636 12.7814 86.4636 12.532C86.4636 12.2948 86.4088 12.1062 86.2994 11.9541C86.19 11.802 86.0379 11.6864 85.8494 11.6074C85.6609 11.5283 85.4359 11.4918 85.1866 11.4918H83.484V13.6757Z" fill="#fff"/>
<path d="M88.9689 14.4604C88.8473 14.4604 88.75 14.4178 88.6648 14.3387C88.5858 14.2597 88.5432 14.1562 88.5432 14.0346V8.49882C88.5432 8.37107 88.5858 8.27374 88.6648 8.19466C88.7439 8.11558 88.8473 8.07908 88.9689 8.07908C89.0966 8.07908 89.1938 8.12166 89.2729 8.19466C89.3519 8.27374 89.3885 8.37716 89.3885 8.49882V14.0346C89.3885 14.1562 89.3459 14.2536 89.2729 14.3387C89.2 14.4178 89.0966 14.4604 88.9689 14.4604Z" fill="#fff"/>
<path d="M90.7263 8.85773C90.6107 8.85773 90.5195 8.82123 90.4465 8.74823C90.3735 8.67523 90.3371 8.5779 90.3371 8.4684C90.3371 8.35282 90.3735 8.26157 90.4465 8.18857C90.5195 8.11557 90.6168 8.07907 90.7263 8.07907H95.0984C95.2139 8.07907 95.3051 8.11557 95.3781 8.18857C95.4511 8.26157 95.4875 8.3589 95.4875 8.4684C95.4875 8.58398 95.4511 8.67523 95.3781 8.74823C95.3051 8.82123 95.2078 8.85773 95.0984 8.85773H90.7263ZM92.9153 14.4604C92.7938 14.4604 92.6964 14.4178 92.6113 14.3387C92.5322 14.2597 92.4897 14.1562 92.4897 14.0346V8.07299H93.341V14.0346C93.341 14.1562 93.2984 14.2536 93.2194 14.3387C93.1403 14.4178 93.037 14.4604 92.9153 14.4604Z" fill="#fff"/>
<path d="M96.8558 14.4604C96.7341 14.4604 96.6369 14.4178 96.5517 14.3387C96.4727 14.2597 96.4301 14.1562 96.4301 14.0346V8.49882C96.4301 8.37107 96.4727 8.27374 96.5517 8.19466C96.6308 8.11558 96.7341 8.07908 96.8558 8.07908H98.3273C98.7347 8.07908 99.0996 8.16424 99.4158 8.33457C99.732 8.5049 99.9813 8.74215 100.158 9.04023C100.334 9.33831 100.425 9.69114 100.425 10.0866C100.425 10.4576 100.334 10.7861 100.158 11.0781C99.9813 11.3701 99.732 11.5952 99.4158 11.7594C99.0996 11.9237 98.7347 12.0028 98.3273 12.0028H97.2814V14.0346C97.2814 14.1562 97.2388 14.2536 97.1659 14.3387C97.0868 14.4178 96.9834 14.4604 96.8558 14.4604ZM97.2814 11.212H98.3273C98.5766 11.212 98.8016 11.1633 98.9901 11.066C99.1787 10.9686 99.3307 10.8348 99.4401 10.6645C99.5495 10.4941 99.6043 10.2995 99.6043 10.0805C99.6043 9.84322 99.5495 9.63031 99.4401 9.44173C99.3307 9.25923 99.1787 9.11323 98.9901 9.00982C98.8016 8.9064 98.5766 8.85165 98.3273 8.85165H97.2814V11.212ZM100.249 14.4604C100.17 14.4604 100.103 14.4422 100.042 14.4117C99.9813 14.3813 99.9266 14.3266 99.884 14.2536L98.4124 11.8811L99.2395 11.6439L100.577 13.8034C100.675 13.9616 100.687 14.1076 100.62 14.2475C100.547 14.3935 100.425 14.4604 100.249 14.4604Z" fill="#fff"/>
<path d="M101.343 14.4604C101.191 14.4604 101.076 14.3935 100.991 14.2657C100.912 14.1319 100.899 13.9981 100.966 13.846L103.265 8.3589C103.344 8.17032 103.478 8.07299 103.666 8.07299C103.861 8.07299 103.995 8.17032 104.068 8.3589L106.372 13.8642C106.433 14.0163 106.421 14.1562 106.342 14.2779C106.263 14.3996 106.147 14.4604 105.989 14.4604C105.91 14.4604 105.831 14.4361 105.758 14.3935C105.685 14.3448 105.63 14.284 105.6 14.1988L103.575 9.16189H103.806L101.745 14.1988C101.708 14.284 101.653 14.3509 101.574 14.3935C101.495 14.4422 101.422 14.4604 101.343 14.4604ZM101.775 13.0552L102.104 12.3495H105.308L105.636 13.0552H101.775Z" fill="#fff"/>
<path d="M110.039 14.5456C109.595 14.5456 109.188 14.4604 108.798 14.2962C108.415 14.1319 108.081 13.9007 107.795 13.6027C107.509 13.3046 107.284 12.9578 107.126 12.5624C106.968 12.167 106.883 11.7351 106.883 11.2728C106.883 10.8165 106.962 10.3907 107.126 9.9953C107.284 9.5999 107.509 9.25315 107.795 8.95507C108.081 8.65699 108.415 8.42583 108.798 8.2555C109.182 8.08517 109.595 8 110.039 8C110.459 8 110.817 8.05475 111.121 8.16425C111.425 8.27375 111.729 8.45624 112.033 8.70565C112.076 8.73607 112.113 8.77257 112.137 8.80908C112.161 8.84557 112.179 8.88207 112.185 8.91249C112.192 8.94899 112.198 8.99157 112.198 9.04023C112.198 9.14365 112.161 9.22882 112.088 9.30181C112.015 9.37481 111.924 9.41131 111.821 9.4174C111.717 9.42348 111.614 9.38698 111.523 9.31398C111.322 9.13757 111.115 9.00374 110.896 8.91249C110.684 8.82124 110.398 8.77257 110.045 8.77257C109.723 8.77257 109.419 8.83949 109.139 8.96723C108.853 9.10107 108.604 9.27748 108.391 9.50864C108.178 9.73981 108.008 10.0014 107.886 10.3055C107.765 10.6097 107.704 10.9321 107.704 11.2728C107.704 11.6195 107.765 11.948 107.886 12.2522C108.008 12.5564 108.172 12.8179 108.391 13.0491C108.604 13.2803 108.853 13.4567 109.139 13.5844C109.425 13.7122 109.723 13.7791 110.045 13.7791C110.325 13.7791 110.586 13.7304 110.836 13.6331C111.085 13.5358 111.322 13.408 111.553 13.2377C111.65 13.1647 111.748 13.1343 111.845 13.1464C111.942 13.1525 112.021 13.1951 112.088 13.262C112.155 13.3289 112.185 13.4263 112.185 13.5418C112.185 13.5966 112.173 13.6513 112.155 13.7C112.137 13.7548 112.1 13.7973 112.052 13.846C111.76 14.0832 111.45 14.2657 111.109 14.3813C110.769 14.4847 110.41 14.5456 110.039 14.5456ZM112.173 13.5297L111.359 13.3654V11.8994H110.234C110.112 11.8994 110.015 11.8629 109.93 11.7959C109.85 11.7229 109.808 11.6378 109.808 11.5283C109.808 11.4188 109.85 11.3275 109.93 11.2606C110.009 11.1876 110.112 11.1572 110.234 11.1572H111.76C111.888 11.1572 111.985 11.1998 112.064 11.2728C112.143 11.3519 112.179 11.4553 112.179 11.577V13.5297H112.173Z" fill="#fff"/>
<path d="M113.955 14.4604C113.834 14.4604 113.736 14.4178 113.651 14.3387C113.572 14.2597 113.529 14.1562 113.529 14.0346V8.49882C113.529 8.37107 113.572 8.27374 113.651 8.19466C113.73 8.11558 113.834 8.07908 113.955 8.07908H117.652C117.78 8.07908 117.877 8.11558 117.956 8.18857C118.035 8.26157 118.072 8.35891 118.072 8.48057C118.072 8.59615 118.035 8.6874 117.956 8.7604C117.877 8.8334 117.78 8.86381 117.652 8.86381H114.381V10.853H116.728C116.856 10.853 116.953 10.8895 117.032 10.9625C117.111 11.0355 117.148 11.1329 117.148 11.2424C117.148 11.3579 117.111 11.4492 117.032 11.5222C116.953 11.5952 116.856 11.6317 116.728 11.6317H114.381V13.6757H117.652C117.78 13.6757 117.877 13.7122 117.956 13.7791C118.035 13.8521 118.072 13.9433 118.072 14.0589C118.072 14.1806 118.035 14.2779 117.956 14.3509C117.877 14.4239 117.78 14.4604 117.652 14.4604H113.955Z" fill="#fff"/>
<path d="M95.9375 24.2362C96.6931 24.2362 97.3057 23.6234 97.3057 22.8675C97.3057 22.1115 96.6931 21.4987 95.9375 21.4987C95.1819 21.4987 94.5693 22.1115 94.5693 22.8675C94.5693 23.6234 95.1819 24.2362 95.9375 24.2362Z" fill="#fff"/>
<path d="M92.7086 37.2786C92.6782 37.3334 92.6478 37.3882 92.6113 37.4429C92.5688 37.3882 92.5322 37.3274 92.4958 37.2665C92.5019 37.2665 92.5079 37.2665 92.514 37.2665C92.5809 37.2665 92.6417 37.2726 92.7086 37.2786Z" fill="#fff"/>
<path d="M99.2273 37.2786C99.1787 37.3577 99.1239 37.4368 99.0692 37.5098C99.0267 37.4307 98.9901 37.3517 98.9537 37.2726C98.9719 37.2726 98.9901 37.2726 99.0084 37.2726C99.0753 37.2665 99.1543 37.2726 99.2273 37.2786Z" fill="#fff"/>
<path d="M99.2273 37.2786C99.1787 37.3577 99.1239 37.4368 99.0692 37.5098C99.0267 37.4307 98.9901 37.3517 98.9537 37.2726C98.9719 37.2726 98.9901 37.2726 99.0084 37.2726C99.0753 37.2665 99.1543 37.2726 99.2273 37.2786Z" fill="#fff"/>
<path d="M92.7086 37.2786C92.6782 37.3334 92.6478 37.3882 92.6113 37.4429C92.5688 37.3882 92.5322 37.3274 92.4958 37.2665C92.5019 37.2665 92.5079 37.2665 92.514 37.2665C92.5809 37.2665 92.6417 37.2726 92.7086 37.2786Z" fill="#fff"/>
</svg>
