<svg width="188" height="34" viewBox="0 0 188 34" fill="none" xmlns="http://www.w3.org/2000/svg">
<g clip-path="url(#clip0_9595_19778)">
<path d="M51.2727 33.5C48.6234 33.5 46.4026 32.6818 44.6493 31.0065C42.8961 29.2922 42.0389 27.2272 42.0389 24.7727C42.0389 22.3181 42.8961 20.2532 44.6493 18.5779C46.4026 16.9026 48.5844 16.0454 51.2727 16.0454C52.8701 16.0454 54.3506 16.3961 55.7143 17.1363C57.0779 17.8766 58.1299 18.8506 58.8701 20.0584L56.3376 21.461C55.8701 20.6428 55.1688 19.9805 54.2727 19.474C53.3766 18.9675 52.3636 18.7337 51.2337 18.7337C49.3636 18.7337 47.8441 19.3181 46.6363 20.448C45.4675 21.5779 44.8831 23.0194 44.8831 24.7727C44.8831 26.5259 45.4675 27.9675 46.6363 29.0974C47.8441 30.2272 49.3636 30.8116 51.2337 30.8116C52.3636 30.8116 53.3376 30.5779 54.2727 30.0714C55.1688 29.5649 55.8701 28.9415 56.3376 28.0844L58.8701 29.448C58.1299 30.6558 57.0779 31.6298 55.7143 32.409C54.3896 33.1493 52.9091 33.5 51.2727 33.5Z" fill="#33FF33"/>
<path d="M77.0259 33.1882H73.9091L72.6623 29.7986H65.1428L63.8961 33.1882H60.7402L67.1688 16.396H70.6753L77.0259 33.1882ZM68.8831 19.6298L66.0779 27.2272H71.6883L68.8831 19.6298Z" fill="#33FF33"/>
<path d="M85.7143 33.5001C84 33.5001 82.5585 33.1494 81.3896 32.4091C80.2208 31.6689 79.3637 30.6559 78.8961 29.3702L81.3896 27.9676C82.0909 29.8377 83.5714 30.8117 85.7922 30.8117C86.8831 30.8117 87.7013 30.6169 88.2468 30.2273C88.7922 29.8377 89.065 29.2923 89.065 28.6299C89.065 27.9676 88.7533 27.4221 88.1688 27.0715C87.5844 26.7208 86.5325 26.2923 85.052 25.8637C83.5325 25.4351 82.2857 24.9286 81.3507 24.3442C80.2208 23.565 79.6364 22.4351 79.6364 20.9546C79.6364 19.4741 80.1818 18.3053 81.3117 17.4091C82.4026 16.513 83.7273 16.0845 85.3247 16.0845C86.7273 16.0845 87.974 16.3962 89.026 17.0585C90.0779 17.7208 90.9351 18.6169 91.4805 19.7858L89.026 21.1494C88.2857 19.591 87.039 18.8117 85.3247 18.8117C84.4675 18.8117 83.8052 19.0066 83.2987 19.3572C82.7922 19.7468 82.5585 20.2533 82.5585 20.8767C82.5585 21.5001 82.7922 22.0066 83.2987 22.3572C83.8052 22.7078 84.7403 23.0975 86.1039 23.4871C86.9611 23.7598 87.4286 23.9156 87.5844 23.9546C87.8182 24.0325 88.2468 24.1884 88.9091 24.4221C89.4546 24.6169 89.8831 24.8507 90.1948 25.0845C91.5195 26.0585 92.1039 27.2273 92.026 28.552C92.026 30.0715 91.4416 31.2793 90.2727 32.1754C89.1039 33.0325 87.5844 33.5001 85.7143 33.5001Z" fill="#33FF33"/>
<path d="M98.7273 16.3572H95.8052V33.1494H98.7273V16.3572Z" fill="#33FF33"/>
<path d="M114.156 27.7728V16.3572H117.078V33.1883H114.818L106.481 21.7728V33.1883H103.558V16.3572H105.818L114.156 27.7728Z" fill="#33FF33"/>
<path d="M136.636 30.9676C134.883 32.6429 132.701 33.5001 130.13 33.5001C127.558 33.5001 125.377 32.6429 123.623 30.9676C121.87 29.2533 120.974 27.1884 120.974 24.7728C120.974 22.3572 121.87 20.2923 123.623 18.6169C125.416 16.9027 127.597 16.0845 130.13 16.0845C132.701 16.0845 134.844 16.9416 136.636 18.6169C138.429 20.2923 139.325 22.3572 139.325 24.7728C139.325 27.2273 138.429 29.2923 136.636 30.9676ZM125.688 29.0975C126.935 30.2273 128.416 30.8117 130.169 30.8117C131.922 30.8117 133.403 30.2273 134.61 29.0975C135.818 27.9286 136.442 26.4871 136.442 24.7728C136.442 23.0585 135.818 21.6169 134.61 20.4871C133.403 19.3182 131.922 18.7728 130.169 18.7728C128.416 18.7728 126.896 19.3572 125.688 20.4871C124.48 21.6169 123.896 23.0585 123.896 24.7728C123.896 26.4871 124.48 27.9286 125.688 29.0975Z" fill="#33FF33"/>
<path d="M143.766 23.1365C144.273 23.1365 144.74 23.3313 145.091 23.6819C145.481 24.0715 145.636 24.5001 145.636 25.0066C145.636 25.5131 145.442 25.9806 145.091 26.3313C144.701 26.7209 144.273 26.8767 143.766 26.8767C143.26 26.8767 142.792 26.6819 142.442 26.3313C142.052 25.9417 141.896 25.5131 141.896 25.0066C141.896 24.5001 142.091 24.0326 142.442 23.6819C142.792 23.3313 143.221 23.1365 143.766 23.1365Z" fill="#33FF33"/>
<path d="M149.338 27.6169V16.3572H152.26V27.4221C152.26 28.4741 152.571 29.2922 153.234 29.8767C153.896 30.4611 154.831 30.7728 156.039 30.7728C157.286 30.7728 158.221 30.4611 158.844 29.8767C159.506 29.2922 159.818 28.4741 159.818 27.4221V16.3572H162.74V27.578C162.74 29.3702 162.117 30.7728 160.87 31.8637C159.623 32.9156 158.026 33.4611 156.039 33.4611C154.052 33.4611 152.455 32.9156 151.208 31.8637C149.961 30.8117 149.338 29.3702 149.338 27.6169Z" fill="#33FF33"/>
<path d="M181.325 33.1883H178.208L176.961 29.7987H169.442L168.195 33.1883H165.039L171.429 16.3572H174.935L181.325 33.1883ZM173.182 19.6299L170.377 27.2273H175.987L173.182 19.6299Z" fill="#33FF33"/>
<path d="M22.7532 28.0455L32.1039 22.6688L31.0909 25.3571L23.6883 29.6039L30.1169 27.8896L29.3377 29.9935L24.1558 31.3571H28.8312L28.1299 33.1883H6.35065L5.64935 31.3571H10.3247L5.14286 29.9935L4.36364 27.8896L10.7922 29.6039L3.38961 25.3571L2.37662 22.6688L11.7273 28.0455L0 16.3961V16.3571L1.32468 15.1494L13.013 26.7597L4.55844 12.1883L5.92208 10.9026L14.5714 25.8636L9.62338 7.51299L11.1429 6.11039L16.3247 25.3961V1.31818L17.2597 0.5L18.1558 1.31818V25.3961L23.3377 6.11039L24.8571 7.47403L19.9091 25.8636L28.5584 10.9026L29.9221 12.1883L21.4675 26.7597L33.1558 15.1494L34.4805 16.3571L22.7532 28.0455Z" fill="#33FF33"/>
</g>
<defs>
<clipPath id="clip0_9595_19778">
<rect width="181.325" height="33" fill="white" transform="translate(0 0.5)"/>
</clipPath>
</defs>
</svg>
