<svg width="323" height="55" viewBox="0 0 323 55" fill="#e3f1ff" xmlns="http://www.w3.org/2000/svg">
<path fill-rule="evenodd" clip-rule="evenodd" d="M15.7304 13.0896C7.04275 13.0896 0 20.2447 0 28.9324C0 37.6201 7.04275 44.7752 15.7304 44.7752H31.4608V55H41.798V34.438H15.7304C12.8473 34.438 10.3371 32.007 10.3371 28.9324C10.3371 25.8578 12.8473 23.4267 15.7304 23.4267H31.4608H41.798V2.92102H31.4608V13.0896H15.7304Z" fill="#e3f1ff"/>
<rect y="2.86487" width="10.4495" height="10.4495" fill="#3A76DD"/>
<rect y="44.5504" width="10.4495" height="10.4495" fill="#3A76DD"/>
<path d="M70.9717 29.2483C68.7994 29.2483 66.834 28.7724 65.0755 27.8208C63.3376 26.8484 61.9722 25.5243 60.9791 23.8486C59.9861 22.1521 59.4896 20.2488 59.4896 18.1385C59.4896 16.0283 59.9861 14.1353 60.9791 12.4595C61.9722 10.7631 63.348 9.439 65.1065 8.48733C66.865 7.51497 68.8304 7.02879 71.0027 7.02879C72.6992 7.02879 74.2508 7.31843 75.6577 7.89771C77.0645 8.45629 78.2644 9.29418 79.2575 10.4114L77.2403 12.3664C75.6059 10.6493 73.5681 9.79071 71.1269 9.79071C69.5132 9.79071 68.0546 10.1528 66.7512 10.8769C65.4479 11.601 64.4238 12.6043 63.679 13.887C62.9549 15.149 62.5929 16.5662 62.5929 18.1385C62.5929 19.7109 62.9549 21.1384 63.679 22.421C64.4238 23.683 65.4479 24.6761 66.7512 25.4002C68.0546 26.1243 69.5132 26.4863 71.1269 26.4863C73.5474 26.4863 75.5852 25.6174 77.2403 23.8796L79.2575 25.8347C78.2644 26.9518 77.0541 27.8001 75.6266 28.3793C74.2198 28.9586 72.6682 29.2483 70.9717 29.2483ZM83.25 5.97367H86.2292V29H83.25V5.97367ZM98.9618 29.1862C97.3274 29.1862 95.8585 28.8241 94.5552 28.1C93.2518 27.376 92.2277 26.3829 91.4829 25.1209C90.7588 23.8382 90.3968 22.39 90.3968 20.7763C90.3968 19.1626 90.7588 17.7248 91.4829 16.4628C92.2277 15.1801 93.2518 14.187 94.5552 13.4836C95.8585 12.7595 97.3274 12.3975 98.9618 12.3975C100.596 12.3975 102.055 12.7595 103.337 13.4836C104.641 14.187 105.655 15.1801 106.379 16.4628C107.123 17.7248 107.496 19.1626 107.496 20.7763C107.496 22.39 107.123 23.8382 106.379 25.1209C105.655 26.3829 104.641 27.376 103.337 28.1C102.055 28.8241 100.596 29.1862 98.9618 29.1862ZM98.9618 26.5794C100.017 26.5794 100.958 26.3415 101.786 25.8657C102.634 25.3692 103.296 24.6864 103.772 23.8175C104.248 22.9279 104.486 21.9142 104.486 20.7763C104.486 19.6384 104.248 18.635 103.772 17.7661C103.296 16.8765 102.634 16.1938 101.786 15.718C100.958 15.2421 100.017 15.0042 98.9618 15.0042C97.9067 15.0042 96.955 15.2421 96.1068 15.718C95.2793 16.1938 94.6172 16.8765 94.1207 17.7661C93.6449 18.635 93.407 19.6384 93.407 20.7763C93.407 21.9142 93.6449 22.9279 94.1207 23.8175C94.6172 24.6864 95.2793 25.3692 96.1068 25.8657C96.955 26.3415 97.9067 26.5794 98.9618 26.5794ZM117.454 12.3975C119.729 12.3975 121.467 12.956 122.667 14.0732C123.888 15.1904 124.498 16.8558 124.498 19.0695V29H121.674V26.8277C121.178 27.5932 120.464 28.1828 119.533 28.5966C118.623 28.9897 117.536 29.1862 116.274 29.1862C114.433 29.1862 112.954 28.7414 111.837 27.8518C110.74 26.9622 110.192 25.7933 110.192 24.3451C110.192 22.8969 110.72 21.7383 111.775 20.8694C112.83 19.9798 114.506 19.535 116.802 19.535H121.519V18.9454C121.519 17.6627 121.147 16.68 120.402 15.9973C119.657 15.3145 118.561 14.9732 117.112 14.9732C116.14 14.9732 115.188 15.1387 114.257 15.4697C113.326 15.78 112.54 16.2041 111.899 16.742L110.658 14.5077C111.506 13.825 112.52 13.3078 113.699 12.956C114.878 12.5837 116.13 12.3975 117.454 12.3975ZM116.771 26.8898C117.909 26.8898 118.892 26.6415 119.719 26.145C120.547 25.6278 121.147 24.9037 121.519 23.9727V21.6763H116.926C114.402 21.6763 113.14 22.5245 113.14 24.221C113.14 25.0485 113.461 25.7002 114.102 26.176C114.744 26.6519 115.633 26.8898 116.771 26.8898ZM136.404 21.3349L132.99 24.5002V29H130.011V5.97367H132.99V20.7453L141.959 12.5526H145.559L138.638 19.3488L146.241 29H142.58L136.404 21.3349ZM148.922 12.5526H151.901V29H148.922V12.5526ZM150.412 9.38728C149.832 9.38728 149.346 9.20108 148.953 8.82869C148.581 8.45629 148.394 8.00115 148.394 7.46325C148.394 6.92534 148.581 6.4702 148.953 6.0978C149.346 5.70472 149.832 5.50818 150.412 5.50818C150.991 5.50818 151.467 5.69438 151.839 6.06677C152.232 6.41847 152.429 6.86328 152.429 7.40118C152.429 7.95977 152.232 8.43561 151.839 8.82869C151.467 9.20108 150.991 9.38728 150.412 9.38728ZM166.372 12.3975C168.461 12.3975 170.116 13.0078 171.337 14.2284C172.578 15.4283 173.199 17.1972 173.199 19.535V29H170.22V19.8764C170.22 18.2833 169.837 17.0834 169.071 16.2766C168.306 15.4697 167.209 15.0663 165.782 15.0663C164.168 15.0663 162.896 15.5421 161.965 16.4938C161.034 17.4248 160.568 18.7695 160.568 20.528V29H157.589V12.5526H160.444V15.0352C161.044 14.187 161.851 13.5353 162.865 13.0802C163.899 12.625 165.068 12.3975 166.372 12.3975ZM194.537 12.5526V26.7656C194.537 29.6413 193.823 31.7619 192.395 33.1274C190.968 34.5135 188.837 35.2066 186.003 35.2066C184.451 35.2066 182.972 34.9893 181.565 34.5549C180.158 34.1411 179.02 33.5411 178.151 32.755L179.579 30.4585C180.344 31.1206 181.286 31.6378 182.403 32.0102C183.541 32.4033 184.71 32.5998 185.91 32.5998C187.834 32.5998 189.251 32.1447 190.161 31.2344C191.092 30.3241 191.558 28.9379 191.558 27.076V25.7726C190.854 26.6208 189.985 27.2622 188.951 27.6966C187.937 28.1104 186.83 28.3173 185.63 28.3173C184.058 28.3173 182.63 27.9863 181.348 27.3242C180.086 26.6415 179.093 25.7002 178.369 24.5002C177.645 23.2796 177.283 21.8935 177.283 20.3419C177.283 18.7902 177.645 17.4144 178.369 16.2145C179.093 14.9939 180.086 14.0525 181.348 13.3905C182.63 12.7285 184.058 12.3975 185.63 12.3975C186.872 12.3975 188.02 12.625 189.075 13.0802C190.151 13.5353 191.03 14.2077 191.713 15.0973V12.5526H194.537ZM185.972 25.7105C187.047 25.7105 188.01 25.483 188.858 25.0278C189.727 24.5727 190.399 23.9417 190.875 23.1348C191.371 22.3073 191.62 21.3763 191.62 20.3419C191.62 18.7488 191.092 17.4661 190.037 16.4938C188.982 15.5007 187.627 15.0042 185.972 15.0042C184.296 15.0042 182.93 15.5007 181.875 16.4938C180.82 17.4661 180.293 18.7488 180.293 20.3419C180.293 21.3763 180.531 22.3073 181.006 23.1348C181.503 23.9417 182.175 24.5727 183.024 25.0278C183.892 25.483 184.875 25.7105 185.972 25.7105ZM200.943 29.1862C200.364 29.1862 199.867 28.9897 199.453 28.5966C199.039 28.1828 198.833 27.6656 198.833 27.0449C198.833 26.445 199.039 25.9484 199.453 25.5554C199.867 25.1416 200.364 24.9347 200.943 24.9347C201.522 24.9347 202.008 25.1312 202.401 25.5243C202.794 25.9174 202.991 26.4243 202.991 27.0449C202.991 27.6656 202.784 28.1828 202.37 28.5966C201.977 28.9897 201.501 29.1862 200.943 29.1862Z" fill="#e3f1ff"/>
<path d="M226.935 7.27705V29H221.907V20.0936H212.039V29H207.012V7.27705H212.039V15.8421H221.907V7.27705H226.935ZM239.677 29.2483C237.919 29.2483 236.336 28.8862 234.929 28.1621C233.543 27.4173 232.457 26.3932 231.671 25.0899C230.885 23.7865 230.492 22.3073 230.492 20.6522C230.492 18.9971 230.885 17.5179 231.671 16.2145C232.457 14.9111 233.543 13.8974 234.929 13.1733C236.336 12.4285 237.919 12.0561 239.677 12.0561C241.436 12.0561 243.008 12.4285 244.394 13.1733C245.78 13.8974 246.867 14.9111 247.653 16.2145C248.439 17.5179 248.832 18.9971 248.832 20.6522C248.832 22.3073 248.439 23.7865 247.653 25.0899C246.867 26.3932 245.78 27.4173 244.394 28.1621C243.008 28.8862 241.436 29.2483 239.677 29.2483ZM239.677 25.2761C240.919 25.2761 241.932 24.8623 242.719 24.0348C243.525 23.1865 243.929 22.059 243.929 20.6522C243.929 19.2454 243.525 18.1282 242.719 17.3006C241.932 16.4524 240.919 16.0283 239.677 16.0283C238.436 16.0283 237.412 16.4524 236.605 17.3006C235.798 18.1282 235.395 19.2454 235.395 20.6522C235.395 22.059 235.798 23.1865 236.605 24.0348C237.412 24.8623 238.436 25.2761 239.677 25.2761ZM268.888 12.3044V29H264.295V27.0139C263.653 27.738 262.888 28.2966 261.998 28.6897C261.109 29.0621 260.147 29.2483 259.112 29.2483C256.919 29.2483 255.182 28.6173 253.899 27.3553C252.616 26.0933 251.975 24.221 251.975 21.7383V12.3044H256.816V21.0246C256.816 23.7141 257.943 25.0588 260.198 25.0588C261.357 25.0588 262.288 24.6864 262.991 23.9417C263.695 23.1762 264.047 22.0487 264.047 20.5591V12.3044H268.888ZM278.99 29.2483C277.603 29.2483 276.248 29.0828 274.924 28.7517C273.6 28.4 272.545 27.9656 271.759 27.4484L273.373 23.9727C274.117 24.4485 275.017 24.8416 276.072 25.1519C277.128 25.4416 278.162 25.5864 279.176 25.5864C281.224 25.5864 282.248 25.0795 282.248 24.0658C282.248 23.59 281.969 23.2486 281.41 23.0417C280.852 22.8348 279.993 22.659 278.834 22.5141C277.469 22.3073 276.341 22.0693 275.452 21.8004C274.562 21.5314 273.786 21.0556 273.124 20.3729C272.483 19.6902 272.162 18.7178 272.162 17.4558C272.162 16.4007 272.462 15.4697 273.062 14.6629C273.683 13.8353 274.573 13.194 275.731 12.7388C276.91 12.2837 278.296 12.0561 279.89 12.0561C281.069 12.0561 282.238 12.1906 283.396 12.4595C284.575 12.7078 285.548 13.0595 286.313 13.5146L284.7 16.9593C283.231 16.1317 281.627 15.718 279.89 15.718C278.855 15.718 278.079 15.8628 277.562 16.1524C277.045 16.4421 276.786 16.8145 276.786 17.2696C276.786 17.7868 277.066 18.1489 277.624 18.3558C278.183 18.5626 279.072 18.7592 280.293 18.9454C281.658 19.173 282.776 19.4212 283.644 19.6902C284.513 19.9384 285.269 20.4039 285.91 21.0866C286.551 21.7694 286.872 22.721 286.872 23.9417C286.872 24.9761 286.562 25.8967 285.941 26.7036C285.32 27.5104 284.41 28.1414 283.21 28.5966C282.031 29.031 280.624 29.2483 278.99 29.2483ZM306.213 20.7142C306.213 20.7763 306.182 21.2108 306.12 22.0176H293.49C293.717 23.052 294.255 23.8692 295.103 24.4692C295.952 25.0692 297.007 25.3692 298.269 25.3692C299.138 25.3692 299.903 25.245 300.565 24.9968C301.248 24.7278 301.879 24.314 302.458 23.7555L305.034 26.5484C303.462 28.3483 301.165 29.2483 298.145 29.2483C296.262 29.2483 294.596 28.8862 293.148 28.1621C291.7 27.4173 290.583 26.3932 289.797 25.0899C289.011 23.7865 288.617 22.3073 288.617 20.6522C288.617 19.0178 289 17.5489 289.766 16.2455C290.552 14.9215 291.617 13.8974 292.962 13.1733C294.328 12.4285 295.848 12.0561 297.524 12.0561C299.158 12.0561 300.638 12.4078 301.962 13.1112C303.286 13.8146 304.32 14.8284 305.065 16.1524C305.83 17.4558 306.213 18.9764 306.213 20.7142ZM297.555 15.718C296.458 15.718 295.538 16.0283 294.793 16.649C294.048 17.2696 293.593 18.1178 293.428 19.1936H301.651C301.486 18.1385 301.031 17.3006 300.286 16.68C299.541 16.0386 298.631 15.718 297.555 15.718Z" fill="#3A76DD"/>
<path d="M62.366 49.055C61.8013 49.055 61.2623 48.9597 60.749 48.769C60.243 48.571 59.847 48.318 59.561 48.01L59.814 47.592C60.0853 47.878 60.4483 48.1127 60.903 48.296C61.365 48.472 61.849 48.56 62.355 48.56C63.0883 48.56 63.642 48.4207 64.016 48.142C64.39 47.8633 64.577 47.5003 64.577 47.053C64.577 46.7083 64.478 46.4333 64.28 46.228C64.082 46.0227 63.8363 45.865 63.543 45.755C63.2497 45.645 62.8537 45.5313 62.355 45.414C61.7903 45.2747 61.3357 45.139 60.991 45.007C60.6537 44.875 60.364 44.6733 60.122 44.402C59.8873 44.1233 59.77 43.753 59.77 43.291C59.77 42.917 59.869 42.576 60.067 42.268C60.265 41.9527 60.5657 41.7033 60.969 41.52C61.3797 41.3367 61.8893 41.245 62.498 41.245C62.9233 41.245 63.3413 41.3073 63.752 41.432C64.1627 41.5567 64.5183 41.7253 64.819 41.938L64.61 42.389C64.302 42.1763 63.961 42.015 63.587 41.905C63.2203 41.795 62.8573 41.74 62.498 41.74C61.7867 41.74 61.2477 41.883 60.881 42.169C60.5143 42.455 60.331 42.8253 60.331 43.28C60.331 43.6247 60.43 43.8997 60.628 44.105C60.826 44.3103 61.0717 44.468 61.365 44.578C61.6583 44.688 62.058 44.8053 62.564 44.93C63.1287 45.0693 63.5797 45.205 63.917 45.337C64.2543 45.469 64.5403 45.6707 64.775 45.942C65.017 46.206 65.138 46.5653 65.138 47.02C65.138 47.394 65.0353 47.735 64.83 48.043C64.632 48.351 64.324 48.5967 63.906 48.78C63.488 48.9633 62.9747 49.055 62.366 49.055ZM76.2081 48.494V49H70.8951V41.3H76.0431V41.806H71.4561V44.842H75.5591V45.337H71.4561V48.494H76.2081ZM87.4495 49L85.6125 46.426C85.3412 46.4627 85.0919 46.481 84.8645 46.481H82.6645V49H82.1035V41.3H84.8645C85.8325 41.3 86.5915 41.531 87.1415 41.993C87.6915 42.4477 87.9665 43.082 87.9665 43.896C87.9665 44.5047 87.8089 45.018 87.4935 45.436C87.1855 45.8467 86.7419 46.1363 86.1625 46.305L88.0875 49H87.4495ZM84.8645 45.986C85.6859 45.986 86.3129 45.8063 86.7455 45.447C87.1782 45.0803 87.3945 44.5633 87.3945 43.896C87.3945 43.2287 87.1782 42.7153 86.7455 42.356C86.3129 41.9893 85.6859 41.806 84.8645 41.806H82.6645V45.986H84.8645ZM100.02 41.3L96.5875 49H96.0265L92.5945 41.3H93.2105L96.3235 48.274L99.4365 41.3H100.02ZM105.111 41.3H105.672V49H105.111V41.3ZM115.461 49.055C114.706 49.055 114.024 48.8863 113.415 48.549C112.814 48.2117 112.337 47.746 111.985 47.152C111.641 46.558 111.468 45.8907 111.468 45.15C111.468 44.4093 111.641 43.742 111.985 43.148C112.337 42.554 112.814 42.0883 113.415 41.751C114.024 41.4137 114.706 41.245 115.461 41.245C116.019 41.245 116.532 41.3367 117.001 41.52C117.471 41.696 117.87 41.96 118.2 42.312L117.848 42.675C117.232 42.0663 116.444 41.762 115.483 41.762C114.838 41.762 114.251 41.9087 113.723 42.202C113.195 42.4953 112.781 42.9023 112.48 43.423C112.18 43.9363 112.029 44.512 112.029 45.15C112.029 45.788 112.18 46.3673 112.48 46.888C112.781 47.4013 113.195 47.8047 113.723 48.098C114.251 48.3913 114.838 48.538 115.483 48.538C116.437 48.538 117.225 48.23 117.848 47.614L118.2 47.977C117.87 48.329 117.467 48.5967 116.99 48.78C116.521 48.9633 116.011 49.055 115.461 49.055ZM129.242 48.494V49H123.929V41.3H129.077V41.806H124.49V44.842H128.593V45.337H124.49V48.494H129.242ZM142.374 41.806V45.095H146.477V45.601H142.374V49H141.813V41.3H146.961V41.806H142.374ZM152.602 41.3H153.163V49H152.602V41.3ZM159.696 41.3H160.257V48.494H164.69V49H159.696V41.3ZM170.735 41.806H167.963V41.3H174.068V41.806H171.296V49H170.735V41.806ZM184.623 48.494V49H179.31V41.3H184.458V41.806H179.871V44.842H183.974V45.337H179.871V48.494H184.623ZM195.864 49L194.027 46.426C193.756 46.4627 193.506 46.481 193.279 46.481H191.079V49H190.518V41.3H193.279C194.247 41.3 195.006 41.531 195.556 41.993C196.106 42.4477 196.381 43.082 196.381 43.896C196.381 44.5047 196.223 45.018 195.908 45.436C195.6 45.8467 195.156 46.1363 194.577 46.305L196.502 49H195.864ZM193.279 45.986C194.1 45.986 194.727 45.8063 195.16 45.447C195.593 45.0803 195.809 44.5633 195.809 43.896C195.809 43.2287 195.593 42.7153 195.16 42.356C194.727 41.9893 194.1 41.806 193.279 41.806H191.079V45.986H193.279ZM202.285 41.3H202.846V49H202.285V41.3ZM215.649 41.3V49H215.187L209.94 42.312V49H209.379V41.3H209.852L215.088 47.988V41.3H215.649ZM227.688 45.183H228.227V48.065C227.89 48.3877 227.479 48.6333 226.995 48.802C226.518 48.9707 226.012 49.055 225.477 49.055C224.714 49.055 224.025 48.8863 223.409 48.549C222.8 48.2117 222.32 47.746 221.968 47.152C221.623 46.558 221.451 45.8907 221.451 45.15C221.451 44.4093 221.623 43.742 221.968 43.148C222.32 42.554 222.8 42.0883 223.409 41.751C224.025 41.4137 224.718 41.245 225.488 41.245C226.053 41.245 226.57 41.3367 227.039 41.52C227.516 41.696 227.923 41.9563 228.26 42.301L227.908 42.675C227.585 42.3523 227.222 42.1213 226.819 41.982C226.423 41.8353 225.983 41.762 225.499 41.762C224.839 41.762 224.241 41.9087 223.706 42.202C223.178 42.4953 222.764 42.9023 222.463 43.423C222.162 43.9363 222.012 44.512 222.012 45.15C222.012 45.7807 222.162 46.3563 222.463 46.877C222.771 47.3903 223.189 47.7973 223.717 48.098C224.245 48.3913 224.839 48.538 225.499 48.538C226.379 48.538 227.109 48.3033 227.688 47.834V45.183ZM242.695 41.806H239.923V41.3H246.028V41.806H243.256V49H242.695V41.806ZM256.615 49L254.778 46.426C254.507 46.4627 254.258 46.481 254.03 46.481H251.83V49H251.269V41.3H254.03C254.998 41.3 255.757 41.531 256.307 41.993C256.857 42.4477 257.132 43.082 257.132 43.896C257.132 44.5047 256.975 45.018 256.659 45.436C256.351 45.8467 255.908 46.1363 255.328 46.305L257.253 49H256.615ZM254.03 45.986C254.852 45.986 255.479 45.8063 255.911 45.447C256.344 45.0803 256.56 44.5633 256.56 43.896C256.56 43.2287 256.344 42.7153 255.911 42.356C255.479 41.9893 254.852 41.806 254.03 41.806H251.83V45.986H254.03ZM267.799 46.833H263.333L262.354 49H261.749L265.291 41.3H265.852L269.394 49H268.789L267.799 46.833ZM267.59 46.36L265.566 41.916L263.553 46.36H267.59ZM275.203 41.806V45.095H279.306V45.601H275.203V49H274.642V41.3H279.79V41.806H275.203ZM285.993 41.806V45.095H290.096V45.601H285.993V49H285.432V41.3H290.58V41.806H285.993ZM296.221 41.3H296.782V49H296.221V41.3ZM306.571 49.055C305.816 49.055 305.134 48.8863 304.525 48.549C303.924 48.2117 303.447 47.746 303.095 47.152C302.751 46.558 302.578 45.8907 302.578 45.15C302.578 44.4093 302.751 43.742 303.095 43.148C303.447 42.554 303.924 42.0883 304.525 41.751C305.134 41.4137 305.816 41.245 306.571 41.245C307.129 41.245 307.642 41.3367 308.111 41.52C308.581 41.696 308.98 41.96 309.31 42.312L308.958 42.675C308.342 42.0663 307.554 41.762 306.593 41.762C305.948 41.762 305.361 41.9087 304.833 42.202C304.305 42.4953 303.891 42.9023 303.59 43.423C303.29 43.9363 303.139 44.512 303.139 45.15C303.139 45.788 303.29 46.3673 303.59 46.888C303.891 47.4013 304.305 47.8047 304.833 48.098C305.361 48.3913 305.948 48.538 306.593 48.538C307.547 48.538 308.335 48.23 308.958 47.614L309.31 47.977C308.98 48.329 308.577 48.5967 308.1 48.78C307.631 48.9633 307.121 49.055 306.571 49.055Z" fill="#a8a4b2"/>
</svg>
