<svg xmlns="http://www.w3.org/2000/svg" viewBox="0 0 860.28 132">
  <defs>
    <style>
      .cls-1 {
        fill: #ffc834;
      }

      .cls-2 {
        fill: #fddb33;
      }

      .cls-3 {
        fill: #f9c032;
      }

      .cls-4 {
        isolation: isolate;
      }
    </style>
  </defs>
  <g id="Слой_2" data-name="Слой 2">
    <g id="лого_обводка_жирная" data-name="лого+обводка жирная">
      <g id="обводка_жирная" data-name="обводка жирная">
        <g id="Сгруппировать_85" data-name="Сгруппировать 85">
          <g id="Прямоугольник_19" data-name="Прямоугольник 19">
            <path class="cls-1" d="M7.32,67a2.74,2.74,0,0,1-1.76-.64,2.75,2.75,0,0,1-.34-3.87L56,2a2.73,2.73,0,0,1,2.1-1,2.74,2.74,0,0,1,2.1,4.5L9.42,66A2.74,2.74,0,0,1,7.32,67Z"/>
            <path d="M58.07,2A1.74,1.74,0,0,1,59.4,4.86L8.65,65.33A1.74,1.74,0,0,1,6,63.09L56.73,2.62A1.75,1.75,0,0,1,58.07,2m0-2h0A3.74,3.74,0,0,0,55.2,1.34L4.45,61.8a3.74,3.74,0,1,0,5.73,4.81L60.93,6.15a3.72,3.72,0,0,0,.86-2.73A3.66,3.66,0,0,0,60.47.88,3.72,3.72,0,0,0,58.07,0Z"/>
          </g>
          <g id="Прямоугольник_20" data-name="Прямоугольник 20">
            <path class="cls-1" d="M70.75,131a2.76,2.76,0,0,1-1.76-.64,2.71,2.71,0,0,1-1-1.86,2.74,2.74,0,0,1,.63-2L119.4,66a2.74,2.74,0,1,1,4.2,3.53L72.85,130A2.74,2.74,0,0,1,70.75,131Z"/>
            <path d="M121.5,66.05a1.76,1.76,0,0,1,1.12.41,1.73,1.73,0,0,1,.21,2.45L72.09,129.38a1.75,1.75,0,0,1-1.34.62,1.74,1.74,0,0,1-1.33-2.86l50.75-60.47a1.72,1.72,0,0,1,1.33-.62m0-2h0a3.75,3.75,0,0,0-2.87,1.34L67.89,125.85a3.74,3.74,0,1,0,5.73,4.81L124.37,70.2a3.75,3.75,0,0,0-2.87-6.15Z"/>
          </g>
          <g id="Прямоугольник_21" data-name="Прямоугольник 21">
            <path class="cls-1" d="M3.74,46.51A2.75,2.75,0,0,1,1.64,42L27.76,10.88a2.74,2.74,0,0,1,3.86-.34A2.75,2.75,0,0,1,32,14.41L5.84,45.53A2.74,2.74,0,0,1,3.74,46.51Z"/>
            <path d="M29.86,10.9a1.75,1.75,0,0,1,1.34,2.86L5.08,44.88a1.76,1.76,0,0,1-1.34.63,1.78,1.78,0,0,1-1.12-.41,1.74,1.74,0,0,1-.21-2.45L28.53,11.52a1.73,1.73,0,0,1,1.33-.62m0-2h0A3.72,3.72,0,0,0,27,10.24L.88,41.36a3.74,3.74,0,1,0,5.73,4.81L32.73,15.05A3.75,3.75,0,0,0,29.86,8.9Z"/>
          </g>
          <g id="Прямоугольник_22" data-name="Прямоугольник 22">
            <path class="cls-1" d="M101,122.12a2.75,2.75,0,0,1-2.1-4.51L125,86.49a2.73,2.73,0,0,1,2.1-1,2.76,2.76,0,0,1,1.76.64,2.79,2.79,0,0,1,1,1.86,2.75,2.75,0,0,1-.63,2l-26.12,31.12A2.76,2.76,0,0,1,101,122.12Z"/>
            <path d="M127.07,86.51a1.78,1.78,0,0,1,1.12.41,1.74,1.74,0,0,1,.21,2.45L102.28,120.5a1.74,1.74,0,0,1-2.67-2.24l26.12-31.13a1.75,1.75,0,0,1,1.34-.62m0-2h0a3.74,3.74,0,0,0-2.87,1.34L98.08,117a3.74,3.74,0,1,0,5.73,4.81l26.12-31.12a3.72,3.72,0,0,0,.86-2.73,3.66,3.66,0,0,0-1.32-2.54,3.7,3.7,0,0,0-2.4-.88Z"/>
          </g>
          <g>
            <g>
              <path class="cls-2" d="M58.71,120a3.25,3.25,0,0,1-2.45-1.15,3.29,3.29,0,0,1-.7-2.7l7.17-41.21H27.45a3,3,0,0,1-2.69-1.72,3.06,3.06,0,0,1,.38-3.29l47.4-58.64a2.93,2.93,0,0,1,2.29-1.12,3.11,3.11,0,0,1,2.33,1.09,3.06,3.06,0,0,1,.65,2.52L71.6,49h38.47a3.14,3.14,0,0,1,2.84,1.81,3.33,3.33,0,0,1-.39,3.53L61.13,118.8a3.08,3.08,0,0,1-2.42,1.2Z"/>
              <path d="M74.83,11.17a2,2,0,0,1,2,2.44L70.4,50h39.67a2.28,2.28,0,0,1,1.66,3.72L60.34,118.18a2.06,2.06,0,0,1-1.63.82,2.23,2.23,0,0,1-2.16-2.68l7.37-42.38H27.45a2.07,2.07,0,0,1-1.53-3.38l47.4-58.64a1.92,1.92,0,0,1,1.51-.75m0-2h0a4,4,0,0,0-3.07,1.49L24.36,69.3a4.08,4.08,0,0,0-.51,4.35,4,4,0,0,0,3.6,2.29H61.54l-7,40a4.24,4.24,0,0,0,4.13,5,4.11,4.11,0,0,0,3.2-1.58L113.3,55a4.31,4.31,0,0,0,.51-4.58A4.13,4.13,0,0,0,110.07,48H72.79l6-34a4,4,0,0,0-.87-3.34,4.08,4.08,0,0,0-3.09-1.45Z"/>
            </g>
            <g>
              <path class="cls-3" d="M109.83,50h-5.22a2.33,2.33,0,0,1-.11,2.72L57,112.28l-.7,4a2.17,2.17,0,0,0,3.8,1.86L111.5,53.72A2.28,2.28,0,0,0,109.83,50Z"/>
              <path class="cls-3" d="M76.92,13.67,70.51,50h-5l6.37-36.12L73.42,12A2,2,0,0,1,76.92,13.67Z"/>
            </g>
          </g>
        </g>
        <g fill="#fff" id="Сгруппировать_83" data-name="Сгруппировать 83">
          <g class="cls-4">
            <g>
              <path d="M145.73,106.5V25.43H177c13.8,0,24.82,3.72,32.76,11s12,17.13,12,29v.22c0,12-4.12,21.88-12.24,29.43s-19.18,11.33-33,11.33Zm31.49-22.18c6.1,0,11-1.62,14.54-4.8S197,71.93,197,66.08v-.23c0-5.85-1.73-10.27-5.28-13.5s-8.43-4.85-14.53-4.85H170V84.32Z"/>
              <path d="M177,26.93q20.2,0,31.74,10.65t11.54,27.94v.22q0,17.4-11.76,28.33t-32,10.93H147.23V26.93H177m-8.46,58.89h8.68q9.78,0,15.54-5.19t5.77-14.55v-.23q0-9.36-5.77-14.61T177.22,46h-8.68V85.82M177,23.93H144.23V108h32.33c14.19,0,25.63-4,34-11.73s12.71-18.12,12.71-30.53v-.22c0-12.34-4.21-22.48-12.5-30.14S191.19,23.93,177,23.93ZM171.54,49h5.68c5.8,0,10.22,1.46,13.52,4.46s4.79,7,4.79,12.39v.23c0,5.4-1.56,9.43-4.78,12.32s-7.73,4.42-13.53,4.42h-5.68V49Z"/>
            </g>
            <g>
              <path d="M280.62,106.51l-5.43-13.94-27.4,0-5.44,13.94H217l33.56-81H272.9l33.61,81ZM267.84,72.86l-6.29-16.28-6.38,16.27Z"/>
              <path d="M251.57,27H271.9l32.36,78H281.65l-5.43-13.94-29.46,0L241.32,105H219.26l32.31-78M270,74.36l-8.47-21.91L253,74.35H270M249.57,24l-.77,1.85-32.31,78L214.77,108h28.6l.75-1.91,4.69-12h25.36l4.68,12,.75,1.91h29.15L307,103.87l-32.36-78L273.9,24H249.57Zm7.79,47.35,4.18-10.64,4.11,10.64Z"/>
            </g>
            <g>
              <polygon points="318.34 106.5 318.34 47.39 294.65 47.39 294.65 25.43 367.14 25.43 367.14 47.39 343.33 47.39 343.33 106.5 318.34 106.5"/>
              <path d="M365.64,26.93v19H341.83V105h-22V45.89H296.15v-19h69.49m3-3H293.15v25h23.69V108h28V48.89h23.81v-25Z"/>
            </g>
            <g>
              <rect x="375.41" y="25.43" width="26.37" height="81.07"/>
              <path d="M400.28,26.93V105H376.91V26.93h23.37m3-3H373.91V108h29.37V23.93Z"/>
            </g>
            <g>
              <polygon points="412.98 106.5 412.98 25.43 479.46 25.43 479.46 47.39 437.97 47.39 437.97 57.66 475.49 57.66 475.49 78.62 437.97 78.62 437.97 106.5 412.98 106.5"/>
              <path d="M478,26.93v19H436.47V59.16H474v18H436.47V105h-22V26.93H478m3-3H411.48V108h28V80.12H477v-24H439.47V48.89H481v-25Z"/>
            </g>
            <g>
              <polygon points="518.53 106.5 518.53 76.19 488.22 25.43 515.89 25.43 530.74 52.28 545.69 25.43 572.92 25.43 542.72 75.86 542.72 106.5 518.53 106.5"/>
              <path d="M570.28,26.93,541.22,75.44V105H520V75.78L490.87,26.93H515l15.72,28.44,15.84-28.44h23.71m5.29-3H544.81L544,25.47,530.74,49.19,517.63,25.48l-.85-1.55h-31.2l2.71,4.54L517,76.61V108h27.19V76.27l28.63-47.8,2.72-4.54Z"/>
            </g>
          </g>
          <g fill="#fff" id="Эллипс_15" data-name="Эллипс 15">
            <circle cx="567.89" cy="95.46" r="10.5"/>
            <path d="M567.89,86.46a9,9,0,1,1-9,9,9,9,0,0,1,9-9m0-3a12,12,0,1,0,12,12,12,12,0,0,0-12-12Z"/>
          </g>
          <g fill="#fff">
            <path d="M588.93,106.5V29a3.86,3.86,0,0,1,1-2.65,3.74,3.74,0,0,1,2.89-1.17h5.4a3.9,3.9,0,0,1,2.65,1A3.66,3.66,0,0,1,602.05,29V93.27h35.27A3.83,3.83,0,0,1,640,94.35a3.91,3.91,0,0,1,1.14,2.9v5.43a3.85,3.85,0,0,1-1,2.65,3.67,3.67,0,0,1-2.78,1.17Z"/>
            <path d="M598.24,26.72a2.4,2.4,0,0,1,1.66.58,2.2,2.2,0,0,1,.65,1.74V94.77h36.77a2.23,2.23,0,0,1,1.62.66,2.4,2.4,0,0,1,.69,1.82v5.43a2.31,2.31,0,0,1-.63,1.63,2.16,2.16,0,0,1-1.68.69H590.43V29a2.34,2.34,0,0,1,.63-1.64,2.31,2.31,0,0,1,1.78-.68h5.4m0-3h-5.4a5.24,5.24,0,0,0-4,1.65A5.35,5.35,0,0,0,587.43,29v79h49.89a5.11,5.11,0,0,0,3.89-1.66,5.33,5.33,0,0,0,1.42-3.66V97.25a5.32,5.32,0,0,0-1.6-4,5.23,5.23,0,0,0-3.71-1.51H603.55V29a5.12,5.12,0,0,0-1.66-4,5.45,5.45,0,0,0-3.65-1.33Z"/>
          </g>
          <g fill="#fff" class="cls-4">
            <g>
              <path d="M846.39,106.5a4.05,4.05,0,0,1-3.4-2.26L816.06,70.1,805.55,82V102.7a3.51,3.51,0,0,1-3.77,3.8h-5.1a3.47,3.47,0,0,1-3.67-3.8V29.52a4,4,0,0,1,.87-2.56,3.42,3.42,0,0,1,2.8-1.24h5.1a3.82,3.82,0,0,1,2.59,1,3.68,3.68,0,0,1,1.18,2.79V63L837.06,27.9a4.36,4.36,0,0,1,3.45-2.18h9.79c2.56,0,2.69,1.73,2.69,2.07a3.05,3.05,0,0,1-1,2.08L851,31C846.68,36,842.34,40.87,838,45.66s-8.9,9.91-13.42,14.93L857.76,102l0,.08a7.8,7.8,0,0,1,.67,1.21,2.56,2.56,0,0,1,.31,1.1c0,.22-.08,2.08-2.59,2.08Z"/>
              <path d="M850.3,27.22c.79,0,1.19.19,1.19.57a1.59,1.59,0,0,1-.55,1.05v-.1q-7,8.06-14,15.92T822.65,60.53l33.88,42.37a6.75,6.75,0,0,1,.57,1,1.75,1.75,0,0,1,.18.49c0,.39-.37.58-1.09.58h-9.8c-.79,0-1.51-.54-2.17-1.62l-28.1-35.62L804.05,81.38V102.7a2,2,0,0,1-2.27,2.3h-5.09c-1.46,0-2.18-.77-2.18-2.3V29.52a2.51,2.51,0,0,1,.54-1.62,2,2,0,0,1,1.64-.68h5.09a2.28,2.28,0,0,1,1.58.63,2.14,2.14,0,0,1,.69,1.67V66.87l34.18-38q1.14-1.62,2.28-1.62h9.79m0-3h-9.79A5.71,5.71,0,0,0,835.89,27L807.05,59V29.52a5.08,5.08,0,0,0-1.67-3.89,5.25,5.25,0,0,0-3.6-1.41h-5.09a5,5,0,0,0-4,1.8,5.54,5.54,0,0,0-1.2,3.5V102.7a5,5,0,0,0,5.18,5.3h5.09a5,5,0,0,0,5.27-5.3V82.51L816,72.43l25.77,32.68a5.42,5.42,0,0,0,4.63,2.89h9.8c2.81,0,4.09-1.85,4.09-3.58a4.09,4.09,0,0,0-.43-1.7,10,10,0,0,0-.78-1.41l-.09-.15-.1-.13L826.59,60.65l12.57-14c4.31-4.81,8.66-9.74,12.94-14.67l1-1.09a4.45,4.45,0,0,0,1.37-3.11c0-1.72-1.31-3.57-4.19-3.57Z"/>
            </g>
          </g>
          <g fill="#fff" id="Контур_367" data-name="Контур 367">
            <path d="M769,106.5h-.07a3.42,3.42,0,0,1-2.81-1.95l-34.2-56.75v54.9c0,2.81-1.78,3.81-3.45,3.81h-4.29c-1.62,0-3.36-1-3.36-3.81V29.42a4.31,4.31,0,0,1,.78-2.6,3.11,3.11,0,0,1,2.55-1.32h5.72a3.58,3.58,0,0,1,3.1,1.94l33.28,54.77V28.75c.27-2,1.52-3.25,3.36-3.25h4.28a3.62,3.62,0,0,1,2.52,1.1,3.72,3.72,0,0,1,1.06,2.78v73.31c0,2.35-1.37,3.81-3.58,3.81Z"/>
            <path d="M724.11,27h5.72a2,2,0,0,1,1.78,1.16l36.1,59.4V28.94c.17-1.29.79-1.94,1.87-1.94h4.28a2,2,0,0,1,1.42.63,2.23,2.23,0,0,1,.66,1.68v73.38c0,1.54-.69,2.31-2.08,2.31H769a1.94,1.94,0,0,1-1.62-1.16l-37-61.45v60.3q0,2.31-2,2.31h-4.29q-1.86,0-1.86-2.31V29.42a2.78,2.78,0,0,1,.51-1.74,1.61,1.61,0,0,1,1.32-.68m0-3a4.62,4.62,0,0,0-3.79,2,5.83,5.83,0,0,0-1,3.5v73.22c0,3.67,2.44,5.31,4.86,5.31h4.29c2.46,0,5-1.64,5-5.31V53.18l31.38,52.07a4.93,4.93,0,0,0,4,2.74h5.1c3,0,5.08-2.13,5.08-5.31V29.37a5.24,5.24,0,0,0-1.51-3.83A5.07,5.07,0,0,0,773.94,24h-4.36a4.82,4.82,0,0,0-4.84,4.55l0,.2v48.1L734.24,26.71A5,5,0,0,0,729.92,24h-5.81Z"/>
          </g>
          <g fill="#fff" id="Объединение_2" data-name="Объединение 2">
            <path d="M656.92,106.5c-.69,0-2.95-.28-2.95-3.92V97.09c0-3.54,2.26-3.82,2.95-3.82h17.15V38.44H656.92c-.69,0-2.95-.28-2.95-3.92V29c0-3.55,2.26-3.82,2.95-3.82H703a2.74,2.74,0,0,1,2.31,1.34,4.32,4.32,0,0,1,.63,2.57v5.39a5,5,0,0,1-.54,2.32,2.69,2.69,0,0,1-2.36,1.6H687.25V93.28H703a2.74,2.74,0,0,1,2.31,1.34,4.39,4.39,0,0,1,.63,2.56v5.4a5,5,0,0,1-.54,2.32,2.68,2.68,0,0,1-2.36,1.6H656.92Z"/>
            <path d="M703,26.72a1.23,1.23,0,0,1,1,.6,3,3,0,0,1,.43,1.72v5.48a3.54,3.54,0,0,1-.4,1.69,1.17,1.17,0,0,1-1,.73H685.75V94.78H703a1.22,1.22,0,0,1,1,.61,3,3,0,0,1,.43,1.7v5.48a3.54,3.54,0,0,1-.4,1.69,1.2,1.2,0,0,1-1,.74H656.92c-1,0-1.45-.81-1.45-2.43V97.09c0-1.54.49-2.32,1.45-2.32h18.65V36.94H656.92c-1,0-1.45-.8-1.45-2.42V29c0-1.55.49-2.32,1.45-2.32H703m0-3H656.92c-2,0-4.45,1.39-4.45,5.32v5.48c0,4,2.4,5.42,4.45,5.42h15.65V91.77H656.92c-2,0-4.45,1.4-4.45,5.32v5.48c0,4,2.4,5.43,4.45,5.43h46.16a4.2,4.2,0,0,0,3.66-2.46,6.56,6.56,0,0,0,.69-3V97.17a5.89,5.89,0,0,0-.88-3.35,4.19,4.19,0,0,0-3.47-2H688.75V39.94h14.33a4.17,4.17,0,0,0,3.66-2.45,6.62,6.62,0,0,0,.69-3V29.11a5.89,5.89,0,0,0-.88-3.36,4.19,4.19,0,0,0-3.48-2Z"/>
          </g>
        </g>
      </g>
    </g>
  </g>
</svg>
