<svg width="190" height="38" viewBox="0 0 190 38" fill="none" xmlns="http://www.w3.org/2000/svg">
<path fill-rule="evenodd" clip-rule="evenodd" d="M4.71571 18.9427L28.3172 5.41875V0L0 16.2448V21.6635L28.3172 37.8853L42.4529 29.7687V24.3499L28.3172 32.4666L4.71571 18.9427ZM37.7372 16.2448L23.5786 24.3614L28.3057 27.0823L37.7372 21.6635V16.2448ZM33.0215 8.11665L14.1586 18.9427L18.8743 21.6635L33.0329 13.5354V8.11665H33.0215Z" fill="#FF8A00"/>
<path d="M73.6327 23.4054V26.9873H58.7168V7.7002H73.2885V11.2821H63.1457V15.4724H72.0952V18.9395H63.1457V23.4054H73.6327Z" fill="white"/>
<path d="M98.1986 7.7002L89.8572 26.9873H85.4513L77.1328 7.7002H81.9518L87.8149 21.4767L93.7583 7.7002H98.1986Z" fill="white"/>
<path d="M117.474 23.4054V26.9873H102.547V7.7002H117.119V11.2821H106.987V15.4724H115.937V18.9395H106.987V23.4054H117.474Z" fill="white"/>
<path d="M136.062 26.9873L132.345 21.6145H132.127H128.248V26.9873H123.785V7.7002H132.127C133.836 7.7002 135.316 7.98721 136.578 8.54975C137.841 9.12377 138.804 9.9274 139.481 10.9721C140.158 12.0168 140.502 13.2567 140.502 14.6918C140.502 16.1268 140.158 17.3552 139.47 18.3999C138.781 19.4332 137.806 20.2368 136.533 20.7879L140.858 26.9873H136.062ZM134.938 12.2005C134.238 11.6265 133.217 11.328 131.886 11.328H128.248V18.0555H131.874C133.217 18.0555 134.238 17.757 134.926 17.1715C135.626 16.586 135.97 15.7594 135.97 14.6918C135.982 13.6126 135.638 12.786 134.938 12.2005Z" fill="white"/>
<path d="M159.466 22.8543H150.516L148.807 26.9873H144.24L152.834 7.7002H157.24L165.857 26.9873H161.175L159.466 22.8543ZM158.066 19.4676L155.014 12.0857L151.962 19.4676H158.066Z" fill="white"/>
<path d="M170.621 7.7002H179.376C181.464 7.7002 183.323 8.10201 184.929 8.89416C186.535 9.69779 187.786 10.8229 188.669 12.2694C189.564 13.7159 190 15.415 190 17.3437C190 19.2724 189.553 20.9601 188.669 22.4181C187.774 23.8646 186.535 24.9897 184.929 25.7933C183.323 26.5969 181.475 26.9873 179.376 26.9873H170.621V7.7002ZM179.158 23.325C181.085 23.325 182.623 22.7855 183.77 21.7178C184.917 20.6501 185.491 19.1921 185.491 17.3552C185.491 15.5184 184.917 14.0603 183.77 12.9927C182.623 11.925 181.085 11.3854 179.158 11.3854H175.084V23.348H179.158V23.325Z" fill="white"/>
</svg>
