<svg width="53" height="50" viewBox="0 0 53 50" fill="none" xmlns="http://www.w3.org/2000/svg">
<path d="M16.3901 34.325C11.5566 34.325 6.35538 30.8303 3.01189 25.3037C-0.447701 19.5643 -0.965888 13.2494 1.65945 8.80743C6.81121 0.116832 15.3151 -1.56716 20.7012 1.26169C24.6553 3.3409 27.973 8.56471 24.307 16.4692C23.1674 18.9221 23.3308 21.7617 23.4899 24.5068C23.6641 27.5332 23.8296 30.3921 22.0966 32.3167C20.9958 33.5432 19.2864 34.1962 16.8718 34.3143C16.7127 34.3207 16.5557 34.325 16.3901 34.325ZM15.3839 2.22612C11.3867 2.22612 6.78326 4.5459 3.58383 9.95873C0.945596 14.405 2.54531 20.2023 4.92552 24.1416C7.95509 29.17 12.608 32.2888 16.7707 32.0847C18.551 32.0053 19.7508 31.5757 20.426 30.826C21.5376 29.591 21.4043 27.2948 21.2516 24.6357C21.0839 21.7574 20.8968 18.4925 22.2708 15.5305C25.281 9.06088 22.8879 4.93897 19.6519 3.2378C18.3321 2.56054 16.8675 2.21337 15.3839 2.22612Z" fill="#FF57C6"/>
<path d="M24.1772 24.9192C22.0578 24.9438 19.9603 24.4877 18.0429 23.5853C15.1831 22.2127 11.5795 19.1197 10.6571 12.199C10.3045 9.55489 10.8721 7.38546 12.3148 5.75517C15.6562 1.98337 22.9387 2.07358 27.7572 2.12943C28.3141 2.12943 28.8323 2.14447 29.3182 2.14447C30.217 2.14447 31.1437 2.11869 32.1263 2.09292C37.8458 1.93612 44.3392 1.77072 46.4765 6.77115C48.6417 11.8425 46.2851 15.0966 35.9601 21.2784C31.935 23.6905 27.869 24.9192 24.1772 24.9192ZM25.749 4.34182C21.5196 4.34182 16.2754 4.64468 13.9877 7.22436C12.9706 8.37996 12.6051 9.905 12.8717 11.9047C13.4974 16.6002 15.6218 19.9467 19.0126 21.5705C23.214 23.5939 29.1183 22.7648 34.8119 19.356C45.6659 12.8563 45.6831 10.5923 44.4209 7.63892C42.8793 4.03251 37.4437 4.17643 32.1866 4.31604C31.234 4.34182 30.2514 4.36759 29.3204 4.36759C28.8302 4.36759 28.2969 4.36759 27.7314 4.35471C27.1079 4.35471 26.4499 4.34611 25.749 4.34611V4.34182Z" fill="#10E6D9"/>
<path d="M34.1175 39.7234C31.1202 39.7234 28.3809 38.9781 26.177 37.511C23.085 35.4533 21.2725 32.1239 20.937 27.886C20.6339 24.0584 22.311 20.4971 25.6674 17.8594C30.8858 13.7482 39.2714 12.569 46.5367 14.9275C50.6779 16.2721 52.9614 19.1203 52.9657 22.9501C52.9657 25.8863 51.5724 29.3252 49.1363 32.386C46.7539 35.3781 43.6856 37.6506 40.7163 38.615C38.589 39.33 36.3618 39.7041 34.1175 39.7234ZM38.7833 15.9477C34.3518 15.9477 30.0816 17.2172 27.0413 19.6121C25.1062 21.1415 22.8528 23.7878 23.1711 27.7099C23.4506 31.2411 24.9213 33.9884 27.4219 35.6573C30.5977 37.7731 35.1882 38.0802 40.0196 36.5015C45.4294 34.7359 50.7338 28.0257 50.7295 22.9565C50.7295 20.0911 49.0825 18.1064 45.8444 17.0539C43.5629 16.3195 41.1803 15.9463 38.7833 15.9477Z" fill="#ED534B"/>
<path d="M35.721 48.7452C35.2252 48.7447 34.7301 48.7081 34.2396 48.6356C31.9449 48.2565 29.8042 47.2371 28.0644 45.6951C27.3376 45.0851 26.4947 44.46 25.6046 43.7984C21.2032 40.5271 15.7246 36.4589 16.2536 28.8724C16.632 23.4381 19.4659 18.8994 23.835 16.7322C27.9934 14.668 32.9559 15.0546 37.1079 17.7653C42.0274 20.9765 45.6461 27.2958 46.3277 33.862C46.8309 38.71 45.6117 42.8834 42.8875 45.592C40.4084 48.0772 37.8024 48.7452 35.721 48.7452ZM29.4856 17.6322C27.8689 17.6318 26.2744 18.0076 24.8284 18.7298C21.1237 20.5684 18.808 24.3144 18.4833 29.027C18.0382 35.3957 22.7664 38.9076 26.9377 42.0071C27.8622 42.6944 28.7352 43.3431 29.5179 44.0004L29.5523 44.0304C31.6766 45.9636 36.8628 48.4595 41.3136 44.0132C43.5476 41.7837 44.5388 38.2589 44.1088 34.0919C43.5024 28.2581 40.1998 22.4479 35.8909 19.634C33.9961 18.3554 31.7677 17.6595 29.4813 17.6322H29.4856Z" fill="#9F72FF"/>
<path d="M17.5687 49.7761C15.1101 49.8099 12.6891 49.1711 10.5678 47.9289C7.01577 45.8132 4.60545 41.9146 4.11736 37.4813C3.70023 33.6751 3.13044 28.4599 9.92277 24.847C15.253 22.0118 23.6837 22.9139 29.659 25.0618C31.6371 25.775 36.3653 27.7446 37.5608 30.6465C38.0506 31.8363 38.2956 33.1125 38.2812 34.3989C38.2668 35.6853 37.9933 36.9557 37.4769 38.1343C35.8127 42.0994 31.6436 45.5361 25.4189 48.0707C22.4044 49.3122 19.792 49.7761 17.5687 49.7761ZM18.5943 25.2895C15.3842 25.2895 12.7266 25.8974 10.9806 26.8275C5.89984 29.5188 5.84608 32.6935 6.34277 37.2407C6.7513 40.9738 8.75739 44.2538 11.7181 46.0129C15.139 48.0492 19.5898 48.0492 24.5889 46.0129C31.7425 43.1003 34.4323 39.655 35.43 37.2794C35.8304 36.3711 36.0436 35.3916 36.0569 34.3993C36.0702 33.407 35.8833 32.4222 35.5074 31.5035C34.9226 30.0816 32.3961 28.4191 28.9151 27.1668C25.6088 25.9502 22.1176 25.3115 18.5943 25.2788V25.2895Z" fill="#FFA800"/>
</svg>
