<svg width="183" height="37" viewBox="0 0 183 37" fill="none" xmlns="http://www.w3.org/2000/svg">
<path d="M32.244 0.0332031H3.74931C1.67867 0.0332031 0 1.71181 0 3.78251V32.2772C0 34.3479 1.67867 36.0265 3.74931 36.0265H32.244C34.3147 36.0265 35.9933 34.3479 35.9933 32.2772V3.78225C35.9933 1.7118 34.3145 0.0332031 32.244 0.0332031ZM31.4391 21.5246C30.9266 24.6078 30.5722 27.5286 30.3342 30.2555C30.2879 30.2458 30.2543 30.2386 30.2204 30.2313C29.6659 30.0933 29.1137 29.9553 28.5591 29.822C28.3509 29.771 28.1402 29.7372 27.9344 29.6888C27.7575 29.6476 27.743 29.587 27.8087 29.4223C27.8789 29.243 27.9542 29.0613 27.9879 28.8748C28.0824 28.3493 27.9201 27.8696 27.6731 27.4144C27.3607 26.8427 26.9466 26.3413 26.5446 25.8302C26.3073 25.5274 26.1159 25.1953 25.9997 24.825C25.835 24.3018 25.8157 23.7616 25.8108 23.2142C25.806 22.8629 25.9755 22.6933 26.2758 22.5892C26.4284 22.5385 26.5785 22.4754 26.7165 22.3955C26.8884 22.2938 26.9006 22.1072 26.7529 21.9692C26.6537 21.8747 26.5422 21.7972 26.4354 21.71C26.3846 21.6687 26.3337 21.6252 26.2804 21.5792C26.3167 21.5329 26.3386 21.5017 26.3652 21.4701C27.036 20.6854 27.1087 19.7988 26.7236 18.8881C26.4403 18.222 25.8978 17.7837 25.1979 17.5704C24.9703 17.5002 24.7257 17.4396 24.4908 17.4421C24.1082 17.447 23.7302 17.5099 23.3817 17.6892C23.0378 17.8659 22.7109 18.0742 22.4783 18.3843C21.9286 19.1207 21.7349 20.2156 22.304 21.1118C22.3815 21.2328 22.3646 21.2619 22.2338 21.3274C22.0931 21.3964 21.9501 21.4679 21.8187 21.5533C21.6835 21.6411 21.6596 21.823 21.772 21.9384C21.8267 21.9944 21.8922 22.0425 21.9577 22.0855C22.1127 22.192 22.2752 22.2913 22.4299 22.403C22.5414 22.4804 22.5922 22.5942 22.5656 22.7298C22.4978 23.0884 22.4372 23.4492 22.3524 23.8029C22.2144 24.3696 21.9214 24.8517 21.5 25.2538C21.173 25.5662 20.8413 25.8714 20.5119 26.1791C20.2262 26.443 19.9696 26.7314 19.7636 27.0608C19.4489 27.5645 19.3351 28.0999 19.5021 28.6811C19.5579 28.8748 19.5191 28.9283 19.3156 28.9283H16.6779C16.4743 28.9283 16.4356 28.8748 16.4914 28.6811C16.6584 28.0998 16.5443 27.5645 16.2298 27.0608C16.024 26.7314 15.7674 26.443 15.4816 26.1791C15.1521 25.8714 14.8203 25.5662 14.4934 25.2538C14.0721 24.8517 13.7792 24.3696 13.641 23.8029C13.5563 23.4492 13.4955 23.0886 13.428 22.7298C13.4015 22.5942 13.4522 22.4804 13.5635 22.403C13.7185 22.2914 13.881 22.1921 14.0358 22.0855C14.1013 22.0425 14.1668 21.9944 14.2214 21.9384C14.3339 21.823 14.31 21.6408 14.1751 21.5533C14.0437 21.4679 13.9006 21.3964 13.7599 21.3274C13.6292 21.2619 13.6123 21.2328 13.6898 21.1118C14.2589 20.2156 14.0651 19.1207 13.5154 18.3843C13.2829 18.0742 12.956 17.8659 12.6121 17.6892C12.2633 17.5099 11.8856 17.447 11.5029 17.4421C11.268 17.4396 11.0235 17.5002 10.7958 17.5704C10.0959 17.7837 9.55352 18.222 9.27014 18.8881C8.88511 19.7988 8.95779 20.6854 9.62858 21.4701C9.65504 21.5017 9.67699 21.5331 9.7133 21.5792C9.66039 21.6255 9.60921 21.6687 9.55835 21.71C9.45181 21.7972 9.34011 21.8747 9.24091 21.9692C9.09317 22.1072 9.10527 22.2938 9.27722 22.3955C9.41524 22.4754 9.56543 22.5385 9.718 22.5892C10.0182 22.6933 10.1875 22.8629 10.1829 23.2142C10.1781 23.7616 10.1587 24.3018 9.99404 24.825C9.87777 25.1953 9.68652 25.5273 9.44916 25.8302C9.04714 26.3413 8.63307 26.8427 8.32066 27.4144C8.07365 27.8697 7.91136 28.3493 8.0058 28.8748C8.03972 29.0613 8.11479 29.243 8.18502 29.4223C8.25043 29.587 8.23588 29.6476 8.05937 29.6888C7.85356 29.7372 7.64272 29.771 7.4346 29.822C6.88001 29.9553 6.32786 30.0932 5.77326 30.2313C5.7394 30.2386 5.70547 30.2458 5.65951 30.2555C5.42143 27.5286 5.06715 24.6077 4.55462 21.5246C4.00802 18.2365 3.35066 15.1794 2.64204 12.3725C2.70539 12.4165 2.80929 12.4883 2.93752 12.576C2.93752 12.576 4.75838 13.8213 7.9068 14.9691C7.95646 14.9872 8.07716 15.0295 8.16386 14.973C8.2325 14.9283 8.25499 14.8383 8.26306 14.7608C8.55834 11.8438 7.93497 7.21636 7.93497 7.2163C7.9064 7.00375 7.87386 6.75522 7.83927 6.47693C7.88504 6.51158 7.99489 6.59511 8.13231 6.70218C8.28171 6.81864 12.4631 10.0805 13.3899 10.4832C13.4972 10.5299 13.647 10.5758 13.8037 10.5325C13.9345 10.4961 14.0461 10.3984 14.1624 10.2386C14.7291 9.46345 15.2087 8.63268 15.6422 7.78002C16.2185 6.64405 16.7682 5.4959 17.3107 4.34293C17.562 3.81168 17.7657 3.25622 17.9974 2.69839C18.2289 3.25622 18.4331 3.81168 18.6841 4.34293C19.2264 5.4959 19.7763 6.64405 20.3527 7.78002C20.7862 8.63268 21.2657 9.46345 21.8323 10.2386C21.9487 10.3984 22.0604 10.4961 22.1911 10.5325C22.3479 10.5761 22.4976 10.5299 22.6049 10.4832C23.5316 10.0805 27.7129 6.81864 27.8625 6.70218C27.9999 6.59511 28.1098 6.51158 28.1556 6.47693C28.121 6.75522 28.0884 7.00375 28.0598 7.2163C28.0598 7.2163 27.4364 11.8438 27.7317 14.7608C27.7396 14.8383 27.762 14.9283 27.8309 14.973C27.9176 15.0295 28.0382 14.9872 28.0879 14.9691C31.2364 13.8213 33.0572 12.576 33.0572 12.576C33.1855 12.4883 33.2894 12.4165 33.3527 12.3725C32.6431 15.1794 31.9857 18.2365 31.4391 21.5246Z" fill="#CB333B"/>
<path d="M177.354 27.4676H173.192V11.6941H167.517V8.05627H183V11.6941H177.354V27.4676Z" fill="#fff"/>
<path d="M167.921 27.4676H163.206L162.013 24.179H153.69L152.467 27.4676H147.753L155.261 8.05627H160.442L167.921 27.4676ZM160.878 20.5412L157.851 12.1888L154.825 20.5412H160.878Z" fill="#fff"/>
<path d="M145.715 27.4676H131.979V8.05627H145.715V11.6941H136.112V15.7975H145.512V19.4353H136.112V23.8298H145.715V27.4676Z" fill="#fff"/>
<path d="M122.344 27.4676H111.809V8.05627H122.024C123.789 8.05627 125.157 8.54132 126.127 9.5114C127.117 10.4621 127.611 11.6262 127.611 13.0037C127.611 14.1872 127.291 15.1767 126.651 15.9721C126.011 16.7676 125.215 17.2623 124.264 17.4564C125.312 17.6116 126.195 18.1451 126.913 19.057C127.631 19.9689 127.99 21.0262 127.99 22.2291C127.99 23.7425 127.495 24.9939 126.505 25.9834C125.516 26.9728 124.129 27.4676 122.344 27.4676ZM121.121 15.8266C121.82 15.8266 122.373 15.6326 122.78 15.2446C123.188 14.8565 123.391 14.3521 123.391 13.7312C123.391 13.1104 123.178 12.606 122.751 12.2179C122.344 11.8105 121.8 11.6068 121.121 11.6068H115.941V15.8266H121.121ZM121.267 23.888C122.043 23.888 122.654 23.694 123.1 23.3059C123.547 22.8985 123.77 22.3456 123.77 21.6471C123.77 21.0068 123.547 20.4733 123.1 20.0465C122.654 19.6002 122.043 19.3771 121.267 19.3771H115.941V23.888H121.267Z" fill="#fff"/>
<path d="M107.08 27.4676H102.919V13.8768L97.4474 27.4676H95.6431L90.1718 13.8768V27.4676H86.0393V8.05627H91.8307L96.5453 19.7845L101.26 8.05627H107.08V27.4676Z" fill="#fff"/>
<path d="M83.3738 27.4676H78.6592L77.466 24.179H69.1428L67.9205 27.4676H63.2059L70.7143 8.05627H75.8945L83.3738 27.4676ZM76.3311 20.5412L73.3044 12.1888L70.2778 20.5412H76.3311Z" fill="#fff"/>
<path d="M53.0523 27.8458C50.1421 27.8458 47.6878 26.9146 45.6894 25.052C43.7104 23.1895 42.7209 20.7643 42.7209 17.7764C42.7209 14.7692 43.7104 12.344 45.6894 10.5008C47.6878 8.65766 50.1421 7.73608 53.0523 7.73608C56.5834 7.73608 59.2608 9.1815 61.0846 12.0723L57.6505 13.9349C57.1848 13.1976 56.5446 12.5962 55.7297 12.1305C54.9343 11.6455 54.0418 11.403 53.0523 11.403C51.2868 11.403 49.8316 12.0044 48.6869 13.2073C47.5422 14.4102 46.9699 15.9333 46.9699 17.7764C46.9699 19.6196 47.5422 21.1426 48.6869 22.3455C49.8316 23.5484 51.2868 24.1498 53.0523 24.1498C53.8672 24.1498 54.6529 24.0043 55.4096 23.7133C56.1663 23.4223 56.758 23.073 57.1848 22.6656V20.3374H52.0628V16.7287H61.3174V24.1789C59.125 26.6235 56.37 27.8458 53.0523 27.8458Z" fill="#fff"/>
</svg>
