<?xml version="1.0" encoding="UTF-8"?>
<svg id="_Слой_2" data-name="Слой 2" xmlns="http://www.w3.org/2000/svg" xmlns:xlink="http://www.w3.org/1999/xlink" viewBox="0 0 237.46 180.24">
  <defs>
    <style>
      .cls-1 {
        fill: url(#_Безымянный_градиент_5);
      }

      .cls-2 {
        fill: #ffff;
      }
    </style>
    <linearGradient id="_Безымянный_градиент_5" data-name="Безымянный градиент 5" x1="0" y1="89.74" x2="85.99" y2="89.74" gradientUnits="userSpaceOnUse">
      <stop offset="0" stop-color="#751f62"/>
      <stop offset="1" stop-color="#2c2760"/>
    </linearGradient>
  </defs>
  <g id="_Слой_1-2" data-name="Слой 1">
    <path class="cls-1" d="m33.34,14.96l5.05-.64c.77-.1,1.54-.15,2.3-.15,4.42,0,8.72,1.61,12.08,4.56,2.43,2.14,4.25,4.9,5.27,7.99l2.26,6.86,6.82-2.4c4.69-1.65,11.16-3.51,18.87-4.65v-14.3c-6.63.86-12.51,2.21-17.42,3.62-1.72-2.9-3.89-5.52-6.44-7.76C55.14,1.94,45.83-.93,36.6.26l-5.05.64C13.57,3.19,0,18.6,0,36.73v7.76c0,10.61,4.56,20.45,12.41,27.21-1.23,5.34-1.84,10.82-1.84,16.37v18.04c0,32.75,12.62,52.09,42.19,64.67,10.58,4.5,21.71,7.41,33.23,8.69v-14.28c-9.6-1.21-18.86-3.7-27.68-7.45-24.16-10.27-33.57-24.75-33.57-51.63v-18.04c0-5.85.85-11.61,2.52-17.12l1.57-5.16-4.56-2.89c-6.32-4-10.09-10.88-10.09-18.41v-7.76c0-11.02,8.24-20.38,19.16-21.77Z"/>
    <path class="cls-2" d="m185.79,180.24h-22.28v-77.72h-41.43v77.72h-22.28V11.25h22.28v70.76h41.43V11.25h22.28v168.99Z"/>
    <path class="cls-2" d="m236.9,160.53v5.85h-2.44c.88.33,1.6,1.02,2.16,2.07.56,1.06.84,2.15.84,3.29,0,5.67-3.32,8.5-9.96,8.5h-17.9c-6.66,0-10-2.83-10-8.5,0-1.14.28-2.23.84-3.29.56-1.06,1.28-1.75,2.16-2.07h-2.44v-5.85h36.75Zm-9.79,6.06h-17.17c-1.6,0-2.81.34-3.62,1.01-.81.67-1.22,1.6-1.22,2.79s.41,2.11,1.22,2.77c.81.66,2.02.99,3.62.99h17.17c1.6,0,2.82-.33,3.64-.99.82-.66,1.24-1.58,1.24-2.77s-.41-2.11-1.24-2.79c-.82-.67-2.04-1.01-3.64-1.01Z"/>
    <path class="cls-2" d="m236.9,123.82v6.06h-26.96c-3.23,0-4.84,1.11-4.84,3.34s1.61,3.38,4.84,3.38h26.96v6.06h-26.96c-3.23,0-4.84,1.11-4.84,3.34s1.61,3.34,4.84,3.34h26.96v6.06h-36.75v-5.85h2.3c-.81-.3-1.49-.96-2.04-1.97-.55-1.01-.82-2.04-.82-3.08,0-1.67.28-3.01.84-4.02.56-1.01,1.44-1.81,2.65-2.39-2.32-1.21-3.48-3.33-3.48-6.37,0-2.81.84-4.83,2.51-6.06,1.67-1.23,4.17-1.85,7.49-1.85h27.31Z"/>
    <path class="cls-2" d="m227.71,100.79c3.04,0,5.43.89,7.16,2.66,1.73,1.78,2.59,4.17,2.59,7.19s-.87,5.5-2.61,7.23c-1.74,1.73-4.19,2.59-7.35,2.59h-2.44v-6.06h2.06c1.6,0,2.83-.33,3.67-.99.85-.66,1.27-1.58,1.27-2.77s-.37-2.07-1.11-2.79c-.74-.72-1.82-1.08-3.24-1.08-1.02,0-1.86.16-2.51.49-.65.33-1.34.95-2.06,1.88l-4.49,5.61c-1.44,1.79-2.82,3.08-4.13,3.88-1.31.8-3.04,1.2-5.17,1.2-3.09,0-5.49-.79-7.19-2.37-1.71-1.58-2.56-3.85-2.56-6.83s.87-5.31,2.61-6.93c1.74-1.63,4.2-2.44,7.38-2.44h2.47v6.06h-2.12c-1.56,0-2.76.28-3.62.84-.86.56-1.29,1.38-1.29,2.47s.38,1.84,1.13,2.39c.75.55,1.82.82,3.19.82,1,0,1.8-.16,2.4-.47.6-.31,1.28-.95,2.02-1.9l4.49-5.64c1.42-1.76,2.81-3.05,4.18-3.85,1.37-.8,3.12-1.2,5.26-1.2Z"/>
    <path class="cls-2" d="m200.16,80h5.5v11.32h21.45c3.25,0,4.88-1.11,4.88-3.34s-1.63-3.34-4.88-3.34h-5.75v-6.06h6.13c3.16,0,5.61.81,7.35,2.42,1.74,1.61,2.61,3.94,2.61,6.98s-.87,5.37-2.61,6.98c-1.74,1.61-4.19,2.42-7.35,2.42h-27.34v-17.38Z"/>
    <path class="cls-2" d="m227.5,56c3.16,0,5.61.86,7.35,2.58,1.74,1.72,2.61,4.11,2.61,7.17s-.87,5.5-2.61,7.24c-1.74,1.74-4.19,2.61-7.35,2.61h-17.9c-3.16,0-5.61-.86-7.37-2.59-1.75-1.73-2.63-4.13-2.63-7.19s.88-5.5,2.63-7.23c1.75-1.73,4.21-2.59,7.37-2.59h10.62v13.55h6.9c1.6,0,2.82-.34,3.64-1.01.82-.67,1.24-1.6,1.24-2.79s-.41-2.07-1.24-2.72c-.82-.65-2.04-.98-3.64-.98h-2.06v-6.06h2.44Zm-12.12,6.13h-5.43c-1.6,0-2.81.32-3.62.96-.81.64-1.22,1.55-1.22,2.73s.41,2.1,1.22,2.75c.81.65,2.02.98,3.62.98h5.43v-7.42Z"/>
    <path class="cls-2" d="m215.21,32.77v6.06h-5.26c-3.23,0-4.84,1.11-4.84,3.34s1.61,3.34,4.84,3.34h26.96v6.06h-36.75v-5.85h2.3c-.81-.3-1.49-.96-2.04-1.97-.55-1.01-.82-2.04-.82-3.08,0-2.81.84-4.83,2.51-6.06,1.67-1.23,4.17-1.85,7.49-1.85h5.61Z"/>
    <path class="cls-2" d="m227.71,11.25c3.04,0,5.43.89,7.16,2.66,1.73,1.78,2.59,4.17,2.59,7.19s-.87,5.5-2.61,7.23c-1.74,1.73-4.19,2.59-7.35,2.59h-2.44v-6.06h2.06c1.6,0,2.83-.33,3.67-.99.85-.66,1.27-1.58,1.27-2.77s-.37-2.07-1.11-2.79c-.74-.72-1.82-1.08-3.24-1.08-1.02,0-1.86.16-2.51.49-.65.33-1.34.95-2.06,1.88l-4.49,5.61c-1.44,1.79-2.82,3.08-4.13,3.88-1.31.8-3.04,1.2-5.17,1.2-3.09,0-5.49-.79-7.19-2.37-1.71-1.58-2.56-3.85-2.56-6.83s.87-5.31,2.61-6.93c1.74-1.63,4.2-2.44,7.38-2.44h2.47v6.06h-2.12c-1.56,0-2.76.28-3.62.84-.86.56-1.29,1.38-1.29,2.47s.38,1.84,1.13,2.39c.75.55,1.82.82,3.19.82,1,0,1.8-.16,2.4-.47.6-.31,1.28-.95,2.02-1.9l4.49-5.64c1.42-1.76,2.81-3.05,4.18-3.85,1.37-.8,3.12-1.2,5.26-1.2Z"/>
  </g>
</svg>