<?xml version="1.0" encoding="UTF-8"?>
<svg xmlns="http://www.w3.org/2000/svg" version="1.1" viewBox="0 0 637.2 394.8">
  <defs>
    <style>
      .cls-1 {
        fill: #90ff00;
      }

      .cls-2 {
        fill: #fff;
      }
    </style>
  </defs>
  <!-- Generator: Adobe Illustrator 28.8.0, SVG Export Plug-In . SVG Version: 1.2.0 Build 7)  -->
  <g>
    <g id="_Слой_1" data-name="Слой_1">
      <g id="_Слой_1-2" data-name="_Слой_1">
        <g id="Layer_2">
          <path class="cls-1" d="M282.7,249.3c0,.6.6.7.9.9,3.5,2.2,7.2,3.7,11.1,5.1.4.1.9.3,1.3.4.8.2,1.2.7,1.3,1.6.7,3.8,1.5,7.6,2.2,11.5,1.5,8.6,2.8,17.2,4.3,25.8.1.7.2,1.5.3,2.2.1,1.7-.8,2.9-2.4,3.1-1.4.2-2.8.1-4-.7-.9-.6-1.9-1.2-2.8-1.8-9.9-6.6-19.6-13.4-28.7-21.1-5.5-4.6-10.7-9.4-15.3-15-2-2.4-3.9-5-5.4-7.7-.5-.8-.8-1.6-.9-2.6-.8-8-2.3-16-4.1-23.8-1.7-7.4-3.6-14.8-5.4-22.2-.4-1.6-1-3.2-1.7-4.7-1.4-2.7-2.6-5.5-3.4-8.5-.9-3.4-1.6-6.9-.9-10.4.2-.9.4-1.8.7-2.7,1.7-4.9,5.2-7.5,10.3-8h3.3c1.1,0,2,.3,2.9.8,4.3,2.5,9.1,3.5,14,4.3,4.8.7,9.6.6,14.4.6h3.1c-3.4,1.5-6.6,1.7-9.7,2.1-3.2.4-6.4.6-10.3.6,1.5.8,2.6,1,3.7,1.1,8.6.9,16.8-.5,24.6-4.2,5.5-2.6,10.5-5.8,15.2-9.7,2.1-1.7,4.4-3.1,7-3.8,4.8-1.3,9.4-.5,13.5,2.3,1.5,1,2.8,2.1,4.2,3.2,4.8,3.7,9.9,6.8,15.5,9.1,7.1,2.9,14.4,4,22,3.1,1.2,0,2.3-.4,3.5-.8-6.5-.5-12.9-.7-19.2-3h2.3c4.8,0,9.6,0,14.4-.6,5.1-.7,10-1.8,14.5-4.4.8-.5,1.7-.7,2.6-.7,1.9,0,3.9,0,5.8.5,3.6,1,6,3.1,7.5,6.5,1.3,3.1,1.6,6.3,1.2,9.5-.6,4.6-2.2,8.8-4.2,12.9-.9,1.7-1.6,3.6-2,5.4-2.8,11-5.6,22.1-7.6,33.3-.7,3.9-1.3,7.9-1.8,11.8-.2,1.3-.6,2.5-1.3,3.6-2,3.3-4.4,6.4-7,9.3-5.7,6.4-12.2,11.9-18.9,17.2-8,6.3-16.4,12.1-24.9,17.7-1.4.9-2.7,1.5-4.4,1.4-2.2-.2-3.4-1.5-3-3.7,1.3-8.3,2.7-16.7,4.1-25,.8-4.5,1.7-8.9,2.5-13.4.2-1.4.9-2.1,2.2-2.4,3.8-1.1,7.5-2.7,10.9-4.7.6-.3,1.1-.7,1.6-1.1v-.3c-.5-.5-1.2-.2-1.8-.2-6.6.3-13.1.7-19.7,1-8,.3-15.9.1-23.9-.3-4.2-.2-8.3-.5-12.5-.7-.7.2-1.3-.1-1.7.4h0ZM384.6,195.2c-.4,0-.7,0-1,.3-2.9,2.2-5.8,4.4-8.7,6.4-1.7,1.2-3.4,2.2-5.2,3.2-3,1.7-6.1,3.1-9.3,4.5-.4.2-.9.2-.9,1h4.2c.1.8-.4,1.2-.7,1.6-4,4.9-8.8,9-13.9,12.7-.6.5-1.3.5-2.1.4-3.6-.5-7.1-1-10.7-1.5-1.6-.2-3.3-.6-4.9-.8-.8-.1-1.4-.5-1.6-1.3-.4-1.4-.9-2.8-1.3-4.2-.2-.8.1-1.4.7-2,.7-.6,1.4-1.2,2.1-1.8,1.6-1.5,3.1-3.2,4.2-5.1,1.5-2.7,1.9-5.4.6-8.3-1.5-3.4-4.1-5.7-7.7-6.8-1.7-.5-3.2-.4-4.9.2,1.1.2,2.1.4,3,.6,1.4.3,2.6.9,3.6,2,1.7,1.9,2.9,4.1,3.7,6.5.3.8.1,1.4-.2,2.1-.4.7-.9,1.1-1.7,1.2-.6,0-1.3,0-1.9.2-3.9.8-7.1,2.6-9.3,6-1,1.5-2.3,2.7-3.9,3.4-5.1,2.1-10.7.1-12.8-3.6-1.7-3-4.6-4.7-8-5.5-.8-.2-1.6-.3-2.5-.4-2.2-.3-3-1.6-2.3-3.7.5-1.7,1.5-3.2,2.4-4.7,1.6-2.5,4.1-3.7,7-3.9h.3c.1,0,.2,0,.2.2s-.1.3-.2.3c-1.1,0-2.2-.5-3.3-.3-4.2.8-7.6,2.9-10,6.4-1.6,2.2-1.6,4.7-.2,7.1.3.6.7,1.1,1.1,1.6,1.3,1.5,2.8,3,4.5,4.2,1.1.7,2.1,1.5,3.1,2.3.5.4.8.8.6,1.4-.5,1.6-1,3.2-1.5,4.8-.2.6-.6.9-1.2,1-.5.1-.9.2-1.4.3-4.9.7-9.9,1.4-14.8,2.1-.7.1-1.3,0-1.8-.4-4.9-3.6-9.7-7.5-13.6-12.3-1.4-1.7-3-3.3-4.7-4.7-1-.8-2-1.6-3-2.5-4.4-3.8-9.3-7-13.9-10.7-.2-.2-.3,0-.5.2.1.9.7,1.7,1.2,2.6,1.4,2.2,2.8,4.4,4.4,6.4.9,1.2,1.6,2.5,1.9,3.9,1.4,5,3,10,4.7,14.8,5.1,14.4,11.4,28.2,19.1,41.3.3.5.4,1.2,1.2,1.4-1.5-5.6-2.8-11.2-3.7-16.9-1.9-11.1-2.3-15.2-1.9-17.3,1.1,1.5,2,3,3.3,4.2,3,2.8,6.3,4,10.4,2.7,7.8-2.4,15.9-3.4,24.1-3.8,6.5-.3,12.9-.3,19.4.3,6.8.6,13.6,1.7,20.2,3.6,3.5,1,6.4.2,9.1-2,1.3-1.1,2.4-2.3,3.3-3.8.2-.4.4-.9,1.2-.7-.1,3.8-.8,7.5-1.3,11.2-.6,3.9-1.3,7.7-2.1,11.5-.7,3.6-1.6,7.2-2.5,10.9.7-.2.8-.7,1-1.1,2.8-4.8,5.4-9.7,7.9-14.7,6.6-13.4,11.9-27.3,16-41.7.4-1.6,1.1-2.9,2.1-4.2,1.5-2,2.9-4.1,4.2-6.2.4-.3,1.1-1.1,1.1-2.2.2,0,.2-.2,0-.2v.2h0Z"/>
          <path class="cls-2" d="M96,175.1h110.6c4,0,3-.7,3.9,3.3s1.7,8,2.5,12c.2.7,0,1-.8,1.1h-96.9c-3.9,0-2.6.5-5.5-2.3-4.1-4-8.1-8.1-12.2-12.2-.4-.5-.8-1-1.6-1.9h0Z"/>
          <path class="cls-1" d="M473.5,175.1h56.1c.2,0,.4,0,.4.3v.5c0,.2-.3.4-.5.6-4.6,4.6-9.2,9.2-13.7,13.8-.8.8-1.6,1.2-2.7,1.1h-96c-1.9,0-2.7-.9-2.4-2.7.7-3.7,1.3-7.5,1.9-11.2.1-.5.2-1.1.4-1.6.1-.5.4-.8,1-.8h55.6,0Z"/>
          <path class="cls-2" d="M221.6,233.4l-6.6-6.6c-1-1-1.9-2.1-3.1-2.8s-2.7-.2-4.1-.2h-62.1c-.9.1-1.6-.2-2.2-.9-4.8-4.9-9.7-9.7-14.5-14.6,0,0,0-.3-.2-.5.3-.6.8-.3,1.2-.3h85.8c.5,0,.8.3.9.8.7,3.2,1.3,6.3,2,9.5,1,4.7,1.9,9.4,2.9,14.2v1.4h0Z"/>
          <path class="cls-2" d="M160.8,240.2c.8-.6,1.3-.4,1.8-.4h43.1c1.4,0,2.4.3,3.4,1.3,4.4,4.5,8.9,8.9,13.3,13.4,0,.1.3.3.4.4.7.8.7.9,0,1.6-.6.7-1.3,1.3-2,2-2.6,2.6-5.2,5.3-7.9,7.9-.9.9-1,.9-2-.1-2.9-2.9-5.8-5.7-8.6-8.7-1-1-2-1.4-3.4-1.4-6.8.1-13.5,0-20.3.1-1.5,0-2.6-.4-3.7-1.5-4.4-4.5-8.9-8.9-13.3-13.4-.1-.4-.4-.8-.9-1.2h0Z"/>
          <path class="cls-1" d="M414.4,267.2l-4.1-4.1c-2.2-2.2-4.4-4.5-6.7-6.7-.5-.5-.5-1,0-1.4l.8-.8c4.3-4.3,8.7-8.6,12.9-13,1-1,1.9-1.5,3.4-1.5,14.4.1,28.7,0,43.1,0s.9,0,1.4.1c.3,0,.5.3.3.6-.2.4-.5.7-.9,1.1-4.4,4.5-8.9,8.9-13.3,13.4-1,1-2.1,1.4-3.5,1.4-6.1-.1-12.2,0-18.3,0s-1.1.1-1.7,0c-1.6-.2-2.8.4-3.9,1.6-2.5,2.6-5.1,5.1-7.6,7.7-.5.4-1.1.9-1.9,1.6h0Z"/>
          <path class="cls-1" d="M407.5,230.3c.4-2.3.7-4.6,1.1-6.8.8-4.5,1.5-9,2.3-13.4,0-.2.1-.4.1-.5.3-1.3,1-2,2.3-2h81.7c.9,0,2-.5,2.9.4-.2,1-1.1,1.5-1.7,2.1-3.9,4-7.8,7.9-11.8,11.8-2.3,2.3-1.5,2-4.8,2h-63.4c-1.1,0-1.9.3-2.7,1.1l-4.5,4.5c-.4.3-.7.9-1.5.8h0Z"/>
          <path class="cls-1" d="M347,334.7c-.4-.2-.4-.6-.4-1v-20c0-1,.2-1.8,1-2.5l1.2-1.2c12.6-12.7,25.3-25.3,37.9-38,3.4-3.4,6.9-6.8,10.3-10.1.5-.5,1.1-1,1.5-1.4.6,0,.8.2,1.1.5l9.4,9.4c.7.8.7,1.6-.1,2.4l-1,1c-19.6,19.7-39.3,39.4-58.9,59.1-.6.6-1.2,1.4-2,1.8h0Z"/>
          <path class="cls-2" d="M279.8,334.7c-21-21.1-42-42-63-63.1,0-.6.7-.9,1.1-1.3,2.9-3,5.9-5.9,8.8-8.9,1.3-1.3,1.4-1,2.4.1,3.1,3.2,6.2,6.3,9.4,9.5,8.8,8.9,17.5,17.9,26.3,26.8,4.5,4.6,9,9.3,13.7,13.9,1.3,1.3,1.8,2.6,1.7,4.4-.1,5.7,0,11.5,0,17.2s0,.9-.4,1.4h0Z"/>
          <path class="cls-1" d="M524.8,149.3c-1.4-1.4-2.2-2.3-3-3.2-3.2-3.6-6.5-7.4-9.9-11-.9-1-1.3-2.1-1.3-3.5v-51.1c.5-4.4,3.1-7.5,7.4-8.6,1.3-.4,2.7-.6,4.2-.6h29.7c.6,0,1,.4,1,1v7c0,1.8.5,3.8-.4,5.6-1.8.5-3.6.3-5.4.3h-21.5c-.6,0-1,.4-1,1v7.4c0,.6.4,1,.9,1h14.4c1.8,0,1.9,0,1.9,1.7v10c0,1.6,0,1.8-1.9,1.8h-12.5c-3.1,0-3,0-3,3v34c.4,1.3.3,2.3.3,4.2h0Z"/>
          <path class="cls-1" d="M329.5,148.1c-.9-.1-1.3-.8-1.8-1.3-3.5-3.8-7-7.5-10.6-11.2-1.2-1.3-1.7-2.5-1.7-4.3v-43.1c0-.9-.4-1.3-1.4-1.3h-11.5c-5.1,0-4.4.5-4.4-4.4v-9.6c0-1.4.3-1.6,1.7-1.7h46.8c.6,0,.9.4,1,1v12.2c0,2.3,0,2.5-2.6,2.5h-10.9c-4.7,0-4.3-.4-4.3,4.4v53.2c0,1.2.4,2.3-.3,3.5h0Z"/>
          <path class="cls-1" d="M384.6,195.2s0-.2.1-.2c.2,0,0,0-.1.2h0Z"/>
          <path class="cls-1" d="M367.9,133.7c.5,0,.9-.4.9-1v-2.9c0-4-.1-8-.1-11.9s.3-1.7,1.7-1.7h16.7c.6,0,1,.4,1,1,.1.6.1,1.4.1,2.2.1,3.9.3,7.9.3,11.8s.2,1.7.5,2.5h14.3c-.1-6.2-.2-12.5-.2-18.7s-1.7-5.1-4.5-6.2c-.8-.3-1.4-.5-2.3-.8,1-1,2.1-1.3,3.1-1.7,3.2-1.3,4.7-3.5,4.5-7-.1-3.2,0-6.4,0-9.6s.1-5.6,0-8.3c-.3-6.6-3.8-10.1-10.2-10.2h-28.5c-9.4,0-4,.4-6,1-3.9,1.3-6.1,4.2-6.4,8.3v1.6c0,11.3-.1,22.4-.1,33.7v15c0,1.8.9,2.7,2.6,2.7h12.7-.1v.2ZM371.8,82.5h15.3c1,0,1.4.3,1.4,1.3v15c0,1-.4,1.3-1.4,1.3h-15.6c-.6,0-1.2-.4-1.2-1.2v-.9c-.1-4.5-.1-9.2-.1-13.7s.3-1.8,1.6-1.8h0Z"/>
          <path class="cls-1" d="M504.2,71.6h-29.4c-1.2,0-2.3,0-3.5.4-4.8.9-7.7,3.9-8.3,8.8-.1.6-.1,1.4-.1,2.2v48.4c0,1,.2,1.7.5,2.5h13.6v-16.5c0-2.5.1-4.9.1-7.4s.3-1.4,1.3-1.4h14.4c1.3,0,1.6-.3,1.6-1.6v-10.6c0-1-.3-1.3-1.3-1.3h-14.8c-.8,0-1.2-.5-1.2-1.3v-5.4c0-1.8,1-2.7,2.9-2.7h24.4c.6,0,1-.4,1-1v-11.6c0-2.6-.4-1.3-1.3-1.4h0Z"/>
          <path class="cls-1" d="M410.3,133.7h10.9c.8,0,1.3-.4,1.3-1.2v-14.4c0-.6.1-1.4.1-2.2s.3-.8.8-.9h18.5c1.2,0,1.6.3,1.6,1.4v2.2c0,4.3.1,8.7,0,13.1,0,.9.2,1.6.5,2.3h13.4v-18.5c0-9.9,0-19.8-.1-29.6,0-1.8,0-3.6-.4-5.4-.9-4.7-3.5-7.3-8.2-8.2-1.4-.3-3-.4-4.4-.4h-22.7c-1.7,0-3.2,0-4.8.5-4.3,1-7,3.8-7.8,8.3-.4,2.1-.5,4-.5,6.1v45.5c.1,1.3.3,1.6,1.8,1.6h0v-.2ZM422.5,92.5v-6.4c.1-1,.4-1.3,1.4-1.3h17.1c1.4,0,1.7.3,1.7,1.7.1,4,.1,8.2.1,12.2s-.3,1.8-1.9,1.8h-17.6c-.5,0-.9-.4-.9-1v-6.7h0v-.3Z"/>
          <g>
            <path class="cls-2" d="M183.3,71.9c-1.2-.5-2.5-.5-3.8-.5h-27.6c-1.7,0-3.2.1-4.8.5-2.2.5-3.8,1.9-4.7,4-.9,2.2-1.2,4.4-1.2,6.6v19.7h0v19.8c0,1.3.2,2.6.3,3.9.4,3.1,2.1,5.4,5.2,6.6,2.5.8,4.8,1.2,7.3,1.2h23.3c.9,0,1.7,0,2.6-.1,4.8-.5,7.7-3.5,8.6-7.4.4-1.8.5-3.6.5-5.4v-38.9c0-2.2-.5-4.4-1.4-6.5-.9-1.8-2.4-3-4.3-3.5ZM175.8,117.7c0,.5-.3.9-.8.9h-19.5c-.8,0-1.3-.4-1.3-1.2v-15.7h.1c0-4.9,0-9.9-.1-14.8v-1.6c.1-.6.4-1,1-1h19.8c.5,0,.8.3.8.8v32.6Z"/>
            <path class="cls-2" d="M136.1,74.5v-1.3c0-1.6,0-1.7-1.6-1.7h-11.3c-.9,0-.8.3-.8.8,0,.8,0,1.4,0,2.1v17.6c0,.9,0,1.8-.5,2.6-5.8,0-11.8,0-17.8-.3-1.2,0-1.3,0-1.3-1.3v-20.2c0-2.9,0-1.3-1.3-1.3h-13.9c-.6,1.3-.4,2.5-.4,3.6v51.8h-.3v21.4c1,.2,1.2-.2,1.5-.6,4.2-4.2,8.2-8.4,12.4-12.6h-.1c.4-.5.7-1,.9-1.5.4-.1.6-.4.6-.9v-20.5c0-2.1.3-2.2,2.1-2.2h17.3c.6,1.2.4,2.2.4,3.2v20.1h14.6v-28.2h-.3c-.1-10.1-.1-20.4-.1-30.6Z"/>
            <path class="cls-2" d="M272.8,63.5c-3.8,2.2-7.5,4.4-11.3,6.6-2.7,1.8-2.3,1-2.3,4.3v18.5c0,1.4,0,1.6-1.4,1.6h-17.9c-.6,0-.9-.4-.9-1v-19.6c0-.8,0-1.6-.5-2.3h-13.2c-.6,0-1,.4-1,1v22.4c0,2.5.6,4.7,1.4,6.9,1.2,2.9,3,4.9,5.8,6.1h0c2.3,1,4.7,1.7,7.1,1.8,2.1,0,1.8.6,1.9,2.1v1.9c.1,6,.3,11.9.3,17.9s.1,1.5.4,2.1h14.8v-20.6c0-12.4-.6-3.2,3.4-3.8,2.6-.3,5.1-.9,7.4-2.1,3.9-1.9,6-5.2,6.5-9.3.1-.9.1-1.7.1-2.6v-30.5c0-.5,0-1.2-.6-1.4Z"/>
            <path class="cls-2" d="M228.7,119.2h0c0,0-19.2,0-19.2,0-1,0-1.3,0-1.3-1.3v-10c0-12.3,0-24.5,0-36.8h-13.6c-.4.6-.6,1.2-.6,2.1v51c0,1.4.1,2.9.5,4.2.6,2.5,2.2,4,4.7,4.8,1.4.4,2.9.5,4.4.5h25c.8,0,1.2-.4,1.2-1.2v-12.2c0-.6-.4-1.2-1.2-1.2Z"/>
          </g>
        </g>
      </g>
    </g>
  </g>
</svg>