<svg width="30" height="30" viewBox="0 0 30 30" fill="none" xmlns="http://www.w3.org/2000/svg">
<g clip-path="url(#clip0_907_89)">
<path d="M22.3588 0.280273H7.63912C3.59158 0.280273 0.279297 3.59255 0.279297 7.64009V22.3605C0.279297 26.4069 3.59158 29.7203 7.63912 29.7203H22.3588C26.4063 29.7203 29.7186 26.4069 29.7186 22.3605V7.64009C29.7186 3.59255 26.4063 0.280273 22.3588 0.280273ZM27.2652 22.3605C27.2652 25.0652 25.065 27.2669 22.3588 27.2669H7.63912C4.93402 27.2669 2.73269 25.0652 2.73269 22.3605V7.64009C2.73269 4.93464 4.93402 2.73367 7.63912 2.73367H22.3588C25.065 2.73367 27.2652 4.93464 27.2652 7.64009V22.3605Z" fill="white"/>
<path d="M22.9747 8.86546C23.9909 8.86546 24.8147 8.04168 24.8147 7.0255C24.8147 6.00932 23.9909 5.18555 22.9747 5.18555C21.9585 5.18555 21.1348 6.00932 21.1348 7.0255C21.1348 8.04168 21.9585 8.86546 22.9747 8.86546Z" fill="white"/>
<path d="M14.9985 7.63867C10.9329 7.63867 7.63867 10.9333 7.63867 14.9985C7.63867 19.0622 10.9329 22.359 14.9985 22.359C19.0629 22.359 22.3583 19.0622 22.3583 14.9985C22.3583 10.9333 19.0629 7.63867 14.9985 7.63867ZM14.9985 19.9056C12.2889 19.9056 10.0921 17.7088 10.0921 14.9985C10.0921 12.2882 12.2889 10.0921 14.9985 10.0921C17.708 10.0921 19.9049 12.2882 19.9049 14.9985C19.9049 17.7088 17.708 19.9056 14.9985 19.9056Z" fill="white"/>
</g>
<defs>
<clipPath id="clip0_907_89">
<rect width="29.44" height="29.44" fill="white" transform="translate(0.279297 0.280273)"/>
</clipPath>
</defs>
</svg>
