<svg width="190" height="50" viewBox="0 0 190 50" fill="none" xmlns="http://www.w3.org/2000/svg">
<path d="M64.7435 33.9963H67.0046V37.1227C66.6531 37.2307 66.294 37.3135 65.9299 37.3705C65.5109 37.4288 65.0879 37.4564 64.6646 37.4531C64.2313 37.4774 63.7975 37.4127 63.3919 37.2632C62.9863 37.1137 62.6181 36.8828 62.3115 36.5858C61.7528 36.0043 61.4702 35.1941 61.4702 34.1488C61.4561 33.5391 61.5984 32.9355 61.8843 32.3918C62.1585 31.8989 62.5831 31.4996 63.1003 31.248C63.6682 30.9709 64.2981 30.8334 64.9341 30.8477C65.6111 30.8431 66.2821 30.9717 66.906 31.2258L66.6036 31.8835C66.0577 31.6497 65.4687 31.5243 64.8717 31.5149C64.5221 31.4962 64.1723 31.5487 63.845 31.6691C63.5178 31.7896 63.2204 31.9752 62.9721 32.2139C62.4927 32.7508 62.2487 33.4472 62.2918 34.1552C62.2918 35.0215 62.5109 35.6802 62.9491 36.1314C63.2051 36.3674 63.5091 36.5492 63.8419 36.6652C64.1746 36.7811 64.5287 36.8288 64.8815 36.805C65.3376 36.8047 65.7921 36.7524 66.2356 36.6493V34.6699H64.7435V33.9963Z" fill="#fff"/>
<path d="M70.3305 36.8558C70.5311 36.8672 70.732 36.84 70.9216 36.7756C71.1112 36.7112 71.2856 36.6111 71.4348 36.4809C71.5739 36.3436 71.6818 36.1797 71.7514 35.9997C71.8211 35.8196 71.8509 35.6275 71.839 35.4356V35.0003L71.0831 35.0321C70.6285 35.0155 70.1768 35.1083 69.7685 35.3022C69.6385 35.3793 69.5328 35.4894 69.4627 35.6204C69.3926 35.7514 69.3609 35.8984 69.3709 36.0456C69.363 36.1576 69.3811 36.2699 69.4237 36.3743C69.4663 36.4787 69.5325 36.5727 69.6173 36.6493C69.8201 36.8018 70.0745 36.8755 70.3305 36.8558ZM72.0362 37.3705L71.885 36.6842H71.8489C71.6544 36.9441 71.3987 37.1554 71.1028 37.3006C70.8096 37.4143 70.4952 37.4684 70.1793 37.4595C69.7563 37.4827 69.3398 37.3511 69.0126 37.0909C68.8696 36.9545 68.7583 36.7901 68.6863 36.6087C68.6143 36.4274 68.5833 36.2332 68.5953 36.0393C68.5953 35.0628 69.4004 34.5523 71.0108 34.5078L71.8587 34.4793V34.1806C71.8848 33.8808 71.7933 33.5825 71.6024 33.345C71.4965 33.246 71.3697 33.1704 71.2307 33.1232C71.0917 33.0761 70.9438 33.0585 70.7972 33.0717C70.3043 33.0918 69.8224 33.2188 69.3873 33.4435L69.154 32.8843C69.6728 32.6132 70.2534 32.4712 70.8432 32.4712C71.3152 32.4355 71.7841 32.5715 72.1578 32.8525C72.3146 33.0162 72.434 33.2101 72.5082 33.4214C72.5824 33.6327 72.6097 33.8567 72.5883 34.0789V37.3705H72.0362Z" fill="#fff"/>
<path d="M80.9721 37.3705V34.2346C80.9973 33.9266 80.9075 33.62 80.719 33.3704C80.6175 33.2684 80.4938 33.1895 80.3568 33.1395C80.2198 33.0895 80.073 33.0696 79.927 33.0813C79.7341 33.0659 79.5401 33.0931 79.3596 33.1608C79.1791 33.2285 79.0169 33.3349 78.8852 33.4721C78.6362 33.8264 78.5202 34.2525 78.5565 34.6794V37.3705H77.8007V34.2346C77.8258 33.9266 77.7361 33.62 77.5476 33.3704C77.4457 33.2679 77.3214 33.1888 77.1838 33.1388C77.0462 33.0887 76.8988 33.0691 76.7523 33.0813C76.5572 33.0659 76.3612 33.0954 76.1802 33.1671C75.9991 33.2389 75.8382 33.351 75.7105 33.4943C75.4555 33.8981 75.3404 34.37 75.3818 34.8415V37.3832H74.6029V32.5507H75.2175L75.3391 33.2084H75.3752C75.5192 32.9748 75.7274 32.7845 75.9767 32.6587C76.2472 32.5255 76.5473 32.4579 76.8509 32.4617C77.6309 32.4617 78.1403 32.7339 78.3791 33.2783H78.4152C78.571 33.0227 78.799 32.8154 79.0725 32.6809C79.3707 32.5312 79.7028 32.4559 80.0387 32.4617C80.2679 32.444 80.4983 32.4724 80.7156 32.5451C80.9328 32.6179 81.132 32.7333 81.3008 32.8843C81.618 33.2604 81.7702 33.7417 81.7247 34.2251V37.3705H80.9721Z" fill="#fff"/>
<path d="M85.9675 33.0813C85.7597 33.0626 85.5502 33.0921 85.3565 33.1672C85.1628 33.2423 84.9903 33.361 84.8534 33.5134C84.6234 33.7962 84.5248 34.2791 84.5248 34.9558C84.4804 35.4646 84.6034 35.9739 84.8764 36.411C85.014 36.5653 85.1879 36.6854 85.3835 36.7612C85.5791 36.8369 85.7907 36.8661 86.0004 36.8463C86.2018 36.859 86.4031 36.8209 86.5846 36.7357C86.7661 36.6504 86.9215 36.521 87.0356 36.3602C87.2848 35.9297 87.399 35.4384 87.3643 34.9463C87.4036 34.4569 87.289 33.9674 87.0356 33.542C86.9135 33.3863 86.753 33.2625 86.5687 33.1821C86.3845 33.1016 86.1823 33.067 85.9807 33.0813H85.9675ZM86.076 32.4712C86.3639 32.4542 86.6519 32.5029 86.9168 32.6133C87.1817 32.7236 87.416 32.8927 87.6009 33.1067C87.9977 33.6379 88.1906 34.2861 88.1465 34.9399C88.1872 35.5988 87.9936 36.2513 87.5976 36.7891C87.4146 37.0056 87.1816 37.1776 86.9173 37.2912C86.653 37.4049 86.3649 37.4571 86.076 37.4436C85.77 37.4472 85.4666 37.3888 85.1854 37.272C84.9159 37.1534 84.6835 36.9682 84.5116 36.7351H84.4623L84.3046 37.3705H83.7623V30.5268H84.5182V32.1885C84.5182 32.5602 84.5182 32.8938 84.4821 33.1925H84.5182C84.6943 32.9539 84.9303 32.7625 85.204 32.6363C85.4776 32.5102 85.78 32.4534 86.0826 32.4712H86.076Z" fill="#fff"/>
<path d="M90.6935 37.3705H89.9376V30.5268H90.6935V37.3705Z" fill="#fff"/>
<path d="M92.6982 31.2417C92.6926 31.1758 92.7008 31.1095 92.7222 31.0467C92.7437 30.9839 92.778 30.926 92.8231 30.8763C92.9101 30.8004 93.0231 30.7583 93.1403 30.7583C93.2574 30.7583 93.3704 30.8004 93.4574 30.8763C93.5045 30.9249 93.5406 30.9826 93.5632 31.0455C93.5859 31.1084 93.5946 31.1753 93.5889 31.2417C93.5945 31.309 93.5858 31.3768 93.5631 31.4407C93.5405 31.5047 93.5045 31.5635 93.4574 31.6134C93.3704 31.6893 93.2574 31.7313 93.1403 31.7313C93.0231 31.7313 92.9101 31.6893 92.8231 31.6134C92.7329 31.51 92.688 31.3766 92.6982 31.2417ZM93.5166 37.3705H92.7607V32.5507H93.5166V37.3705Z" fill="#fff"/>
<path d="M98.9984 37.3705V34.2505C99.0243 33.9335 98.9244 33.6188 98.7191 33.3704C98.6032 33.2666 98.4661 33.1872 98.3168 33.1375C98.1674 33.0877 98.0089 33.0685 97.8514 33.0813C97.6408 33.0636 97.4288 33.0911 97.2305 33.162C97.0322 33.2328 96.8525 33.3453 96.7045 33.4911C96.4239 33.8865 96.2949 34.364 96.3397 34.8415V37.3832H95.5838V32.5507H96.1983L96.3199 33.2084H96.3594C96.5197 32.9682 96.7478 32.7775 97.0167 32.6587C97.307 32.5251 97.6252 32.4577 97.9467 32.4617C98.439 32.4251 98.9264 32.5769 99.3041 32.8843C99.4704 33.066 99.5964 33.2787 99.6744 33.5093C99.7524 33.7399 99.7807 33.9835 99.7576 34.2251V37.3705H98.9984Z" fill="#fff"/>
<path d="M102.288 34.0948C102.278 34.2355 102.299 34.3766 102.35 34.5087C102.401 34.6408 102.481 34.7608 102.584 34.8605C102.816 35.0435 103.11 35.1354 103.409 35.1179C104.145 35.1179 104.513 34.7716 104.513 34.0789C104.513 33.3545 104.141 32.9923 103.396 32.9923C103.247 32.9832 103.098 33.0033 102.957 33.0514C102.816 33.0994 102.687 33.1744 102.577 33.2719C102.474 33.383 102.395 33.5132 102.345 33.6546C102.296 33.7961 102.276 33.9459 102.288 34.0948ZM101.881 38.1807C101.874 38.2993 101.901 38.4173 101.959 38.5221C102.017 38.6268 102.104 38.7142 102.209 38.7749C102.513 38.9277 102.854 38.998 103.195 38.9782C103.682 39.011 104.168 38.9143 104.602 38.6986C104.742 38.6272 104.858 38.5201 104.939 38.389C105.02 38.2579 105.063 38.1079 105.062 37.9551C105.074 37.8513 105.057 37.7462 105.013 37.6507C104.969 37.5552 104.9 37.4728 104.812 37.4118C104.516 37.287 104.191 37.2357 103.869 37.2625H102.965C102.677 37.244 102.392 37.3276 102.163 37.4976C102.066 37.5836 101.99 37.6896 101.94 37.8078C101.891 37.926 101.869 38.0534 101.877 38.1807H101.881ZM105.857 32.5507V33.0114L104.934 33.1162C105.145 33.3922 105.26 33.726 105.262 34.0694C105.272 34.2823 105.231 34.4945 105.144 34.6903C105.057 34.8861 104.926 35.0605 104.76 35.2005C104.371 35.5006 103.882 35.6511 103.386 35.6231C103.246 35.6233 103.106 35.6116 102.968 35.5881C102.835 35.6361 102.719 35.72 102.633 35.8297C102.548 35.9395 102.496 36.0706 102.485 36.2077C102.482 36.2672 102.496 36.3264 102.525 36.3787C102.555 36.4309 102.599 36.474 102.653 36.5031C102.835 36.5784 103.034 36.61 103.231 36.5953H104.115C104.555 36.5641 104.992 36.676 105.358 36.913C105.503 37.0274 105.618 37.1733 105.694 37.339C105.77 37.5046 105.805 37.6852 105.795 37.8662C105.806 38.1075 105.752 38.3475 105.636 38.5618C105.521 38.7761 105.349 38.957 105.138 39.0862C104.546 39.4015 103.873 39.547 103.199 39.5056C102.671 39.5355 102.146 39.4139 101.69 39.1561C101.521 39.0482 101.383 38.9001 101.291 38.7259C101.198 38.5517 101.153 38.3574 101.161 38.1617C101.156 37.8811 101.261 37.609 101.453 37.3991C101.671 37.1729 101.958 37.0203 102.272 36.9638C102.14 36.9077 102.026 36.8176 101.943 36.7033C101.857 36.5843 101.812 36.4419 101.815 36.2966C101.812 36.1312 101.863 35.969 101.96 35.8327C102.085 35.6772 102.241 35.5476 102.42 35.4515C102.158 35.344 101.938 35.1608 101.789 34.9272C101.594 34.6038 101.513 34.2278 101.558 33.8559C101.603 33.4841 101.771 33.1364 102.038 32.8652C102.428 32.5545 102.925 32.3999 103.429 32.4331C103.667 32.4296 103.905 32.4596 104.135 32.5221L105.857 32.5507Z" fill="#fff"/>
<path d="M113.459 34.6508L112.687 32.6587C112.588 32.4077 112.483 32.0963 112.378 31.731C112.302 32.0456 112.207 32.3554 112.092 32.6587L111.306 34.6508H113.459ZM114.53 37.3705L113.712 35.3244H111.043L110.225 37.3705H109.44L112.069 30.9112H112.726L115.355 37.3705H114.53Z" fill="#fff"/>
<path d="M122.855 31.2417C122.849 31.1755 122.857 31.1089 122.879 31.046C122.901 30.9831 122.937 30.9253 122.983 30.8763C123.07 30.8006 123.182 30.7587 123.299 30.7587C123.415 30.7587 123.528 30.8006 123.614 30.8763C123.661 30.9249 123.697 30.9826 123.72 31.0455C123.743 31.1084 123.751 31.1753 123.746 31.2417C123.751 31.309 123.742 31.3768 123.72 31.4407C123.697 31.5047 123.661 31.5635 123.614 31.6134C123.528 31.6891 123.415 31.731 123.299 31.731C123.182 31.731 123.07 31.6891 122.983 31.6134C122.937 31.5628 122.902 31.5039 122.88 31.44C122.858 31.3762 122.85 31.3088 122.855 31.2417ZM123.673 37.3705H122.914V32.5507H123.667V37.3705H123.673ZM118.845 33.1162H117.577V37.3705H116.821V33.1162H115.93V32.7985L116.821 32.5348V32.2679C116.821 31.0839 117.357 30.4908 118.428 30.4887C118.743 30.4981 119.055 30.5506 119.355 30.6443L119.161 31.229C118.921 31.1467 118.669 31.1006 118.415 31.0923C118.294 31.0837 118.172 31.1045 118.061 31.1527C117.951 31.201 117.854 31.2753 117.781 31.3688C117.623 31.6359 117.552 31.9424 117.577 32.2488V32.5666H118.845V33.1321V33.1162ZM121.977 33.1162H120.709V37.3705H119.956V33.1162H119.062V32.7985L119.956 32.5348V32.2679C119.956 31.0828 120.489 30.4887 121.563 30.4887C121.878 30.4981 122.19 30.5506 122.49 30.6443L122.293 31.229C122.053 31.1461 121.801 31.1 121.547 31.0923C121.426 31.0837 121.305 31.1044 121.195 31.1527C121.085 31.201 120.989 31.2753 120.916 31.3688C120.757 31.6353 120.686 31.9423 120.712 32.2488V32.5666H121.981V33.1321L121.977 33.1162Z" fill="#fff"/>
<path d="M126.509 37.3705H125.757V30.5268H126.509V37.3705Z" fill="#fff"/>
<path d="M128.501 31.2417C128.495 31.1755 128.503 31.1089 128.526 31.046C128.548 30.9831 128.583 30.9253 128.629 30.8763C128.673 30.836 128.724 30.8048 128.781 30.7845C128.837 30.7643 128.898 30.7555 128.958 30.7587C129.018 30.7551 129.078 30.7637 129.135 30.784C129.192 30.8042 129.243 30.8357 129.287 30.8763C129.334 30.9248 129.371 30.9823 129.394 31.0452C129.417 31.1081 129.426 31.175 129.421 31.2417C129.427 31.3093 129.417 31.3772 129.394 31.4411C129.371 31.5051 129.334 31.5637 129.287 31.6134C129.243 31.654 129.192 31.6854 129.135 31.7057C129.078 31.7259 129.018 31.7345 128.958 31.731C128.898 31.7341 128.837 31.7254 128.781 31.7051C128.724 31.6849 128.673 31.6537 128.629 31.6134C128.583 31.5628 128.548 31.5039 128.526 31.44C128.504 31.3762 128.496 31.3088 128.501 31.2417ZM129.323 37.3705H128.567V32.5507H129.323V37.3705Z" fill="#fff"/>
<path d="M132.773 36.8558C132.974 36.8672 133.175 36.84 133.365 36.7756C133.554 36.7112 133.729 36.6111 133.878 36.4809C134.017 36.3436 134.125 36.1797 134.194 35.9997C134.264 35.8196 134.294 35.6275 134.282 35.4356V35.0003L133.529 35.0321C133.075 35.0158 132.623 35.1086 132.215 35.3022C132.085 35.3793 131.979 35.4894 131.909 35.6204C131.839 35.7514 131.807 35.8984 131.817 36.0456C131.809 36.1576 131.827 36.2699 131.87 36.3743C131.913 36.4787 131.979 36.5727 132.064 36.6493C132.265 36.801 132.519 36.8747 132.773 36.8558ZM134.479 37.3705L134.328 36.6842H134.292C134.097 36.9441 133.842 37.1554 133.546 37.3006C133.253 37.415 132.938 37.4691 132.622 37.4595C132.2 37.4822 131.785 37.3507 131.459 37.0909C131.315 36.9552 131.202 36.791 131.13 36.6095C131.057 36.428 131.026 36.2335 131.038 36.0393C131.038 35.0628 131.845 34.5523 133.457 34.5078L134.302 34.4793V34.1806C134.327 33.8814 134.237 33.5838 134.049 33.345C133.942 33.2463 133.814 33.1709 133.675 33.1237C133.536 33.0766 133.387 33.0589 133.24 33.0717C132.747 33.0918 132.265 33.2188 131.83 33.4435L131.597 32.8843C132.116 32.6142 132.696 32.4723 133.286 32.4712C133.758 32.4355 134.227 32.5715 134.601 32.8525C134.758 33.0162 134.877 33.2101 134.951 33.4214C135.025 33.6327 135.053 33.8567 135.031 34.0789V37.3705H134.479Z" fill="#fff"/>
<path d="M138.666 36.8558C138.796 36.8556 138.925 36.8471 139.054 36.8304C139.179 36.8082 139.277 36.7891 139.35 36.77V37.326C139.233 37.3735 139.11 37.4046 138.985 37.4182C138.844 37.4447 138.701 37.4585 138.558 37.4595C137.596 37.4595 137.114 36.9681 137.112 35.9853V33.1258H136.389V32.7731L137.105 32.4554L137.434 31.4259H137.871V32.5443H139.317V33.1099H137.871V35.9471C137.851 36.1887 137.928 36.4284 138.084 36.6175C138.158 36.6956 138.249 36.7569 138.35 36.797C138.451 36.8371 138.56 36.855 138.669 36.8495L138.666 36.8558Z" fill="#fff"/>
<path d="M142.718 33.0717C142.54 33.0643 142.361 33.0942 142.196 33.1594C142.03 33.2247 141.881 33.3237 141.759 33.4498C141.505 33.7461 141.359 34.1142 141.341 34.4983H143.947C143.972 34.1201 143.855 33.7459 143.619 33.4435C143.507 33.318 143.367 33.2192 143.209 33.1547C143.051 33.0902 142.88 33.0618 142.709 33.0717H142.718ZM142.922 37.4595C142.6 37.4751 142.279 37.4252 141.978 37.313C141.677 37.2008 141.404 37.0288 141.177 36.8082C140.727 36.31 140.498 35.6605 140.539 35.0003C140.502 34.3345 140.712 33.6777 141.131 33.148C141.325 32.9226 141.57 32.7434 141.847 32.6244C142.124 32.5054 142.425 32.4497 142.728 32.4617C143.006 32.4491 143.282 32.4961 143.539 32.5994C143.795 32.7027 144.024 32.8597 144.21 33.059C144.595 33.5021 144.791 34.07 144.759 34.6476V35.1083H141.318C141.3 35.5755 141.457 36.0333 141.759 36.3983C141.914 36.5486 142.1 36.6654 142.305 36.741C142.51 36.8165 142.729 36.8492 142.948 36.8368C143.496 36.8363 144.039 36.7282 144.542 36.519V37.1545C144.298 37.2588 144.042 37.3376 143.78 37.3896C143.497 37.4448 143.208 37.4704 142.919 37.4658L142.922 37.4595Z" fill="#fff"/>
<path d="M150.29 34.1997H150.987C151.505 34.2398 152.024 34.1291 152.476 33.8819C152.634 33.76 152.759 33.6024 152.839 33.4228C152.919 33.2433 152.953 33.0474 152.936 32.8525C152.95 32.6714 152.918 32.4897 152.842 32.3235C152.767 32.1572 152.65 32.0116 152.502 31.8993C152.099 31.6588 151.627 31.5476 151.155 31.5816H150.29V34.1997ZM153.735 32.8144C153.751 33.0998 153.696 33.3848 153.576 33.646C153.457 33.9073 153.274 34.1373 153.044 34.3172C152.467 34.701 151.772 34.8857 151.073 34.8415H150.29V37.3832H149.534V30.9398H151.26C152.918 30.9398 153.749 31.5647 153.751 32.8144H153.735Z" fill="#fff"/>
<path d="M157.751 32.4617C157.95 32.4592 158.15 32.4762 158.346 32.5126L158.244 33.1925C158.064 33.1513 157.88 33.1289 157.695 33.1258C157.496 33.1244 157.3 33.1666 157.121 33.2492C156.941 33.3317 156.784 33.4525 156.66 33.6023C156.368 33.9302 156.214 34.3521 156.229 34.7843V37.3705H155.476V32.5507H156.107L156.196 33.4435H156.232C156.391 33.1555 156.616 32.9066 156.89 32.7159C157.144 32.5495 157.444 32.4609 157.751 32.4617Z" fill="#fff"/>
<path d="M160.262 34.9495C160.226 35.4464 160.36 35.9408 160.643 36.357C160.785 36.508 160.959 36.6287 161.152 36.7113C161.346 36.7938 161.555 36.8364 161.767 36.8364C161.978 36.8364 162.187 36.7938 162.381 36.7113C162.575 36.6287 162.748 36.508 162.891 36.357C163.176 35.9392 163.312 35.4427 163.279 34.9431C163.313 34.4494 163.177 33.9586 162.891 33.5483C162.756 33.3862 162.582 33.2579 162.384 33.1744C162.187 33.0909 161.972 33.0546 161.757 33.0686C161.545 33.0539 161.333 33.0891 161.138 33.1709C160.944 33.2528 160.773 33.379 160.639 33.5388C160.357 33.954 160.224 34.4476 160.262 34.9431V34.9495ZM164.061 34.9495C164.102 35.6165 163.883 36.2743 163.446 36.7923C163.231 37.0155 162.967 37.1903 162.674 37.3045C162.381 37.4187 162.066 37.4694 161.75 37.4531C161.331 37.457 160.919 37.3469 160.561 37.1354C160.21 36.928 159.931 36.6251 159.759 36.2649C159.563 35.8481 159.468 35.3941 159.479 34.9368C159.436 34.2735 159.653 33.6187 160.087 33.1035C160.302 32.8799 160.565 32.7047 160.857 32.5904C161.15 32.4762 161.465 32.4258 161.78 32.4427C162.091 32.4292 162.402 32.4826 162.69 32.5991C162.977 32.7155 163.234 32.8922 163.443 33.1162C163.88 33.6305 164.101 34.285 164.061 34.9495Z" fill="#fff"/>
<path d="M166.368 34.0948C166.358 34.2354 166.38 34.3763 166.431 34.5083C166.482 34.6403 166.561 34.7603 166.664 34.8605C166.895 35.0435 167.19 35.1354 167.488 35.1179C168.229 35.1179 168.598 34.7716 168.596 34.0789C168.596 33.3545 168.222 32.9923 167.475 32.9923C167.327 32.9832 167.177 33.0033 167.037 33.0514C166.896 33.0994 166.767 33.1744 166.657 33.2719C166.554 33.3834 166.476 33.5136 166.426 33.655C166.376 33.7964 166.357 33.9459 166.368 34.0948ZM165.967 38.1807C165.961 38.2992 165.989 38.417 166.047 38.5216C166.104 38.6262 166.19 38.7137 166.296 38.7749C166.599 38.9277 166.94 38.998 167.281 38.9782C167.768 39.011 168.254 38.9143 168.688 38.6986C168.828 38.6277 168.945 38.5208 169.027 38.3896C169.108 38.2584 169.15 38.108 169.148 37.9551C169.16 37.8513 169.143 37.7462 169.1 37.6507C169.056 37.5552 168.986 37.4728 168.898 37.4118C168.602 37.287 168.278 37.2357 167.955 37.2625H167.051C166.763 37.2446 166.479 37.3281 166.249 37.4976C166.152 37.5836 166.076 37.6896 166.026 37.8078C165.977 37.926 165.956 38.0534 165.964 38.1807H165.967ZM169.943 32.5507V33.0114L169.02 33.1162C169.117 33.2398 169.193 33.3769 169.247 33.5229C169.318 33.7001 169.352 33.8889 169.349 34.0789C169.358 34.2919 169.318 34.5041 169.231 34.6999C169.144 34.8957 169.012 35.07 168.846 35.21C168.458 35.5107 167.968 35.6613 167.472 35.6326C167.332 35.6327 167.192 35.621 167.055 35.5976C166.921 35.6457 166.805 35.7295 166.72 35.8393C166.634 35.949 166.583 36.0802 166.572 36.2172C166.568 36.2767 166.582 36.3359 166.612 36.3882C166.641 36.4404 166.685 36.4836 166.739 36.5127C166.922 36.5879 167.12 36.6195 167.318 36.6048H168.202C168.641 36.5736 169.078 36.6855 169.444 36.9225C169.589 37.0369 169.705 37.1829 169.781 37.3485C169.857 37.5141 169.891 37.6948 169.881 37.8757C169.893 38.117 169.838 38.357 169.722 38.5713C169.607 38.7856 169.435 38.9665 169.224 39.0958C168.633 39.4106 167.961 39.5561 167.288 39.5152C166.759 39.5455 166.233 39.4239 165.776 39.1657C165.607 39.0578 165.47 38.9096 165.377 38.7354C165.284 38.5612 165.24 38.3669 165.247 38.1712C165.243 37.8906 165.347 37.6185 165.54 37.4087C165.757 37.1825 166.044 37.0298 166.358 36.9734C166.226 36.9163 166.113 36.8264 166.029 36.7128C165.943 36.5938 165.898 36.4514 165.901 36.3062C165.898 36.1402 165.949 35.9775 166.049 35.8423C166.173 35.6867 166.329 35.5571 166.506 35.461C166.245 35.3526 166.025 35.1697 165.875 34.9368C165.68 34.6133 165.599 34.2373 165.644 33.8655C165.689 33.4936 165.858 33.1459 166.125 32.8748C166.516 32.5653 167.014 32.4108 167.518 32.4427C167.756 32.4391 167.993 32.4691 168.221 32.5316L169.943 32.5507Z" fill="#fff"/>
<path d="M173.703 32.4617C173.903 32.4592 174.102 32.4762 174.298 32.5126L174.193 33.1925C174.014 33.1511 173.831 33.1287 173.647 33.1258C173.449 33.1244 173.252 33.1666 173.073 33.2492C172.894 33.3317 172.736 33.4525 172.612 33.6023C172.32 33.9302 172.167 34.3521 172.182 34.7843V37.3705H171.426V32.5507H172.05L172.139 33.4435H172.175C172.334 33.1555 172.558 32.9066 172.832 32.7159C173.086 32.5495 173.386 32.4609 173.693 32.4617H173.703Z" fill="#fff"/>
<path d="M177.059 36.8558C177.259 36.8672 177.46 36.84 177.65 36.7756C177.839 36.7112 178.014 36.6111 178.163 36.4809C178.303 36.3439 178.411 36.1801 178.481 36C178.552 35.82 178.582 35.6277 178.57 35.4356V35.0003L177.815 35.0321C177.36 35.0158 176.908 35.1086 176.5 35.3022C176.37 35.3793 176.264 35.4894 176.194 35.6204C176.124 35.7514 176.092 35.8984 176.102 36.0456C176.095 36.1576 176.113 36.2699 176.155 36.3743C176.198 36.4787 176.264 36.5727 176.349 36.6493C176.547 36.798 176.795 36.8715 177.046 36.8558H177.059ZM178.764 37.3705L178.613 36.6842H178.577C178.383 36.9441 178.127 37.1554 177.831 37.3006C177.538 37.415 177.223 37.4691 176.908 37.4595C176.486 37.4822 176.07 37.3507 175.744 37.0909C175.6 36.9552 175.488 36.791 175.415 36.6095C175.343 36.428 175.311 36.2335 175.323 36.0393C175.323 35.0628 176.13 34.5523 177.742 34.5078L178.587 34.4793V34.1806C178.612 33.8814 178.522 33.5838 178.334 33.345C178.228 33.2466 178.101 33.1713 177.962 33.1241C177.823 33.077 177.675 33.0591 177.529 33.0717C177.035 33.0913 176.552 33.2184 176.116 33.4435L175.885 32.8843C176.139 32.7457 176.409 32.639 176.691 32.5666C176.978 32.4947 177.274 32.4584 177.571 32.4585C178.043 32.4228 178.512 32.5588 178.886 32.8398C179.043 33.0035 179.162 33.1974 179.236 33.4087C179.311 33.62 179.338 33.844 179.317 34.0662V37.3578L178.764 37.3705Z" fill="#fff"/>
<path d="M187.71 37.3705V34.2346C187.734 33.9262 187.643 33.6196 187.454 33.3704C187.352 33.2684 187.229 33.1895 187.092 33.1395C186.955 33.0895 186.808 33.0696 186.662 33.0813C186.469 33.0659 186.275 33.0931 186.094 33.1608C185.914 33.2285 185.752 33.3349 185.62 33.4721C185.371 33.8265 185.255 34.2525 185.291 34.6794V37.3705H184.535V34.2346C184.56 33.9262 184.469 33.6196 184.279 33.3704C184.177 33.2679 184.053 33.1888 183.915 33.1388C183.778 33.0887 183.63 33.0691 183.484 33.0813C183.289 33.0659 183.093 33.0954 182.912 33.1671C182.731 33.2389 182.57 33.351 182.442 33.4943C182.187 33.8981 182.072 34.37 182.113 34.8415V37.3832H181.357V32.5507H181.972L182.094 33.2084H182.133C182.275 32.9743 182.482 32.7838 182.731 32.6587C183.002 32.5259 183.302 32.4583 183.605 32.4617C184.388 32.4617 184.897 32.7339 185.134 33.2783H185.173C185.327 33.0217 185.556 32.8141 185.83 32.6809C186.128 32.5312 186.461 32.4559 186.797 32.4617C187.026 32.4439 187.257 32.4723 187.475 32.545C187.693 32.6178 187.892 32.7333 188.062 32.8843C188.379 33.2604 188.531 33.7417 188.486 34.2251V37.3705H187.71Z" fill="#fff"/>
<path d="M67.09 10.5611C67.3465 10.5545 67.5959 10.6431 67.7868 10.8089C67.9601 10.9875 68.0535 11.225 68.0464 11.4698V17.157C68.0477 17.6551 67.94 18.1478 67.7304 18.6029C67.5209 19.0579 67.2142 19.4649 66.8304 19.7973C66.4515 20.1543 66.0015 20.4333 65.5078 20.6174C65.0141 20.8014 64.4868 20.8867 63.958 20.868C62.8562 20.8616 61.7984 20.4491 61.0002 19.7147C60.8909 19.5101 60.8313 19.2841 60.826 19.0538C60.8192 18.9238 60.8477 18.7944 60.9089 18.6784C60.97 18.5624 61.0616 18.464 61.1744 18.393C61.3635 18.2265 61.6122 18.1377 61.8678 18.1451C62.0023 18.1367 62.1368 18.1614 62.2587 18.217C62.3805 18.2726 62.4858 18.3572 62.5646 18.4629C62.7542 18.6556 62.9842 18.807 63.2393 18.9067C63.4944 19.0064 63.7686 19.0523 64.0435 19.0411C64.3174 19.045 64.5894 18.9958 64.8434 18.8965C65.0974 18.7972 65.3282 18.6497 65.5224 18.4629C65.8721 18.0823 66.063 17.5897 66.0581 17.0808V11.4698C66.0486 11.3406 66.0739 11.2112 66.1315 11.0943C66.1891 10.9774 66.277 10.8769 66.3867 10.8026L66.6497 10.5547L67.09 10.5611Z" fill="#fff"/>
<path d="M73.4428 10.5611C73.6993 10.5545 73.9487 10.6431 74.1395 10.8089C74.3105 10.9889 74.4034 11.2255 74.3992 11.4698V19.8863C74.4026 20.1295 74.3097 20.3648 74.1395 20.5439C73.9451 20.704 73.6981 20.7919 73.4428 20.7919C73.1875 20.7919 72.9405 20.704 72.7461 20.5439C72.5723 20.3667 72.4778 20.1304 72.4832 19.8863V11.4698C72.477 11.2246 72.5715 10.9869 72.7461 10.8089C72.936 10.6417 73.186 10.5528 73.4428 10.5611Z" fill="#fff"/>
<path d="M88.2352 10.5611C88.3393 10.5779 88.4389 10.6147 88.528 10.6693C88.6172 10.7239 88.6942 10.7951 88.7545 10.8788C88.8269 10.9562 88.8802 11.0484 88.9103 11.1486C88.9405 11.2488 88.9468 11.3542 88.9287 11.4571V19.8863C88.9352 20.13 88.8419 20.3664 88.669 20.5439C88.4746 20.704 88.2276 20.7919 87.9723 20.7919C87.717 20.7919 87.47 20.704 87.2756 20.5439C87.1027 20.3664 87.0094 20.13 87.0159 19.8863V15.4381L84.6661 19.8863C84.6661 19.9689 84.5807 19.9689 84.5807 20.0515C84.4065 20.3692 84.1436 20.4613 83.7098 20.4613C83.5434 20.454 83.3803 20.4138 83.2305 20.3433C83.0807 20.2729 82.9475 20.1735 82.8388 20.0515C82.8388 19.9689 82.7534 19.9689 82.7534 19.8863L80.4036 15.4381V19.8863C80.4089 20.1304 80.3144 20.3667 80.1406 20.5439C79.9468 20.7037 79.7003 20.7915 79.4456 20.7915C79.1908 20.7915 78.9443 20.7037 78.7505 20.5439C78.5767 20.3667 78.4822 20.1304 78.4875 19.8863V11.4698C78.4936 11.2658 78.5535 11.0667 78.6617 10.8915C78.816 10.7577 78.9927 10.6502 79.1843 10.5738C79.2857 10.5436 79.3927 10.5353 79.4978 10.5496C79.6029 10.5639 79.7034 10.6004 79.7923 10.6564C79.9771 10.7492 80.1292 10.893 80.2294 11.0695L83.621 17.4239L87.0159 11.0695C87.1139 10.8925 87.2652 10.7485 87.4498 10.6564C87.5651 10.5847 87.6961 10.5399 87.8324 10.5256C87.9687 10.5112 88.1066 10.5277 88.2352 10.5738V10.5611Z" fill="#fff"/>
<path d="M104.332 16.0069C104.583 16.0184 104.833 15.9719 105.062 15.8714C105.291 15.7708 105.491 15.619 105.647 15.4286C105.815 15.2675 105.947 15.0745 106.034 14.8618C106.121 14.6491 106.161 14.4213 106.153 14.1927C106.179 13.9604 106.145 13.7256 106.054 13.5092C105.963 13.2929 105.817 13.1019 105.631 12.9535C105.268 12.6294 104.807 12.4266 104.316 12.3753H102.748V16.0069H104.332ZM104.332 10.5611C105.341 10.564 106.309 10.9496 107.027 11.635C107.393 11.9594 107.683 12.3551 107.878 12.7961C108.074 13.237 108.17 13.713 108.161 14.1927C108.175 14.6707 108.081 15.1459 107.886 15.585C107.69 16.0241 107.397 16.4165 107.027 16.7344C106.245 17.3953 105.384 17.8878 104.332 17.8878H102.765V19.8704C102.768 19.9914 102.747 20.1118 102.701 20.2247C102.656 20.3376 102.588 20.4407 102.502 20.5281C102.308 20.6879 102.061 20.7756 101.807 20.7756C101.552 20.7756 101.305 20.6879 101.112 20.5281C100.938 20.3508 100.843 20.1145 100.849 19.8704V11.4698C100.843 11.2246 100.937 10.9869 101.112 10.8089C101.302 10.6417 101.552 10.5528 101.808 10.5611H104.332Z" fill="#fff"/>
<path d="M117.12 17.157L115.477 13.6907L113.834 17.157H117.12ZM112.335 20.2898C112.297 20.4077 112.229 20.5147 112.138 20.6012C112.047 20.6877 111.935 20.751 111.812 20.7854C111.559 20.868 111.284 20.868 111.03 20.7854C110.908 20.75 110.797 20.6864 110.706 20.6C110.614 20.5137 110.547 20.4072 110.508 20.2898C110.422 20.0499 110.422 19.7893 110.508 19.5495L114.511 11.133C114.58 10.9638 114.7 10.8185 114.855 10.7155C115.01 10.6125 115.193 10.5565 115.381 10.5547C115.573 10.5398 115.764 10.5892 115.923 10.6945C116.082 10.7998 116.198 10.9546 116.252 11.133L120.341 19.4669C120.43 19.7073 120.43 19.9699 120.341 20.2103C120.302 20.3277 120.235 20.4341 120.143 20.52C120.052 20.6059 119.941 20.6687 119.818 20.7028C119.564 20.7854 119.29 20.7854 119.036 20.7028C118.914 20.6682 118.803 20.6052 118.711 20.5194C118.62 20.4335 118.552 20.3274 118.513 20.2103L117.905 18.9712H112.946L112.335 20.2898Z" fill="#fff"/>
<path d="M127.476 15.5112C127.691 15.5172 127.904 15.4757 128.1 15.3898C128.296 15.3039 128.469 15.1759 128.606 15.0156C128.756 14.8794 128.873 14.7126 128.948 14.5275C129.023 14.3423 129.054 14.1432 129.04 13.9448C129.061 13.7455 129.039 13.544 128.974 13.3536C128.909 13.1633 128.804 12.9883 128.664 12.8401C128.524 12.6919 128.354 12.5739 128.164 12.4938C127.974 12.4137 127.768 12.3733 127.561 12.3753H125.474V15.5112H127.476ZM131.13 13.9448C131.144 14.6273 130.929 15.2957 130.519 15.8512C130.127 16.3965 129.585 16.8256 128.955 17.0903L130.693 19.3144C130.784 19.3971 130.849 19.5032 130.88 19.6203C130.911 19.7373 130.906 19.8604 130.867 19.9752C130.865 20.0918 130.831 20.2058 130.77 20.3064C130.709 20.407 130.623 20.4909 130.519 20.5503C130.428 20.6333 130.316 20.6921 130.195 20.721C130.073 20.7499 129.946 20.7481 129.826 20.7155C129.705 20.7149 129.586 20.6857 129.479 20.6303C129.372 20.5749 129.281 20.4951 129.214 20.3978L126.779 17.3445H125.464V19.8227C125.47 20.067 125.376 20.3035 125.201 20.4804C125.008 20.6402 124.761 20.728 124.506 20.728C124.252 20.728 124.005 20.6402 123.811 20.4804C123.637 20.3035 123.542 20.067 123.548 19.8227V11.4698C123.542 11.2246 123.637 10.9869 123.811 10.8089C124.001 10.6417 124.251 10.5528 124.508 10.5611H127.725C128.193 10.5559 128.657 10.6409 129.091 10.8111C129.524 10.9813 129.918 11.2333 130.249 11.5524C130.809 12.2338 131.118 13.0752 131.13 13.9448Z" fill="#fff"/>
<path d="M141.739 10.5611C141.995 10.5545 142.245 10.6432 142.436 10.8089C142.603 10.991 142.696 11.2261 142.696 11.4698C142.696 11.7134 142.603 11.9486 142.436 12.1306C142.244 12.2942 141.995 12.3815 141.739 12.3753H139.563V19.8863C139.567 20.1295 139.474 20.3648 139.304 20.5439C139.109 20.704 138.862 20.7919 138.607 20.7919C138.352 20.7919 138.105 20.704 137.91 20.5439C137.736 20.3667 137.642 20.1304 137.647 19.8863V12.3912H135.56C135.305 12.3974 135.056 12.31 134.864 12.1465C134.696 11.9645 134.604 11.7293 134.604 11.4857C134.604 11.242 134.696 11.0069 134.864 10.8248C135.055 10.659 135.304 10.5703 135.56 10.577L141.739 10.5611Z" fill="#fff"/>
<path d="M154.349 10.5611C154.606 10.5551 154.855 10.6437 155.046 10.8089C155.219 10.9875 155.313 11.225 155.306 11.4698V19.8863C155.286 20.0882 155.223 20.284 155.122 20.4613C155.016 20.6093 154.864 20.7207 154.688 20.7791C154.591 20.8198 154.487 20.8409 154.382 20.8409C154.277 20.8409 154.173 20.8198 154.076 20.7791C153.885 20.7033 153.71 20.5957 153.557 20.4613L148.161 14.1069V19.8863C148.164 20.1295 148.071 20.3648 147.901 20.5439C147.707 20.704 147.46 20.7919 147.204 20.7919C146.949 20.7919 146.702 20.704 146.508 20.5439C146.334 20.3667 146.239 20.1304 146.245 19.8863V11.4698C146.263 11.2678 146.322 11.0713 146.419 10.8915C146.526 10.7433 146.679 10.632 146.856 10.5738C146.952 10.5329 147.055 10.5118 147.16 10.5118C147.265 10.5118 147.368 10.5329 147.464 10.5738C147.656 10.6502 147.832 10.7577 147.987 10.8915L153.38 17.246V11.4698C153.374 11.2246 153.468 10.9869 153.643 10.8089C153.733 10.7204 153.842 10.6522 153.962 10.6093C154.083 10.5665 154.211 10.55 154.339 10.5611H154.349Z" fill="#fff"/>
<path d="M162.273 12.3912V14.7042H165.405C165.661 14.695 165.911 14.7828 166.102 14.9488C166.269 15.1309 166.362 15.3661 166.362 15.6097C166.362 15.8534 166.269 16.0885 166.102 16.2706C165.912 16.4378 165.662 16.5267 165.405 16.5184H162.273V18.9108H166.45C166.707 18.9025 166.957 18.9915 167.147 19.1587C167.314 19.3402 167.406 19.5748 167.406 19.8179C167.406 20.061 167.314 20.2957 167.147 20.4772C166.957 20.6444 166.707 20.7334 166.45 20.725H161.317C161.06 20.7334 160.81 20.6444 160.62 20.4772C160.534 20.3895 160.467 20.2862 160.422 20.1734C160.378 20.0605 160.357 19.9403 160.36 19.8195V11.4698C160.353 11.225 160.446 10.9875 160.62 10.8089C160.81 10.6417 161.06 10.5528 161.317 10.5611H166.45C166.707 10.5528 166.957 10.6417 167.147 10.8089C167.314 10.991 167.407 11.2261 167.407 11.4698C167.407 11.7134 167.314 11.9486 167.147 12.1306C166.955 12.2947 166.706 12.3822 166.45 12.3753L162.273 12.3912Z" fill="#fff"/>
<path d="M176.066 15.5112C176.282 15.5173 176.496 15.4758 176.692 15.3899C176.889 15.304 177.062 15.176 177.2 15.0156C177.349 14.8788 177.465 14.712 177.54 14.527C177.615 14.3419 177.647 14.1432 177.634 13.9448C177.636 13.5465 177.481 13.1622 177.2 12.8709C177.055 12.7199 176.88 12.5993 176.685 12.5167C176.49 12.4342 176.279 12.3914 176.066 12.3912H173.979V15.5271L176.066 15.5112ZM179.635 13.9448C179.65 14.6269 179.436 15.2953 179.027 15.8512C178.634 16.3966 178.091 16.8256 177.46 17.0903L179.201 19.3144C179.292 19.3971 179.357 19.5032 179.388 19.6203C179.419 19.7373 179.415 19.8604 179.376 19.9752C179.373 20.0918 179.339 20.2058 179.279 20.3064C179.218 20.407 179.131 20.4909 179.027 20.5503C178.828 20.6908 178.581 20.7519 178.336 20.7212C178.091 20.6905 177.868 20.5701 177.713 20.3851L175.189 17.4176H173.874V19.8926C173.879 20.1367 173.785 20.3731 173.611 20.5503C173.417 20.7101 173.171 20.7979 172.916 20.7979C172.661 20.7979 172.415 20.7101 172.221 20.5503C172.047 20.3731 171.953 20.1367 171.958 19.8926V11.4698C171.952 11.2246 172.046 10.9869 172.221 10.8089C172.41 10.6425 172.659 10.5536 172.914 10.5611H176.155C176.623 10.5559 177.087 10.6409 177.52 10.8111C177.954 10.9813 178.347 11.2333 178.679 11.5524C179.295 12.2069 179.636 13.06 179.635 13.9448Z" fill="#fff"/>
<path d="M188.676 15.4286C189.632 16.0069 190.07 16.9145 189.991 18.1515C189.97 18.5747 189.849 18.9876 189.638 19.3592C189.428 19.7307 189.133 20.0511 188.775 20.2961C188.078 20.8744 187.207 21.0396 186.146 21.0396C185.267 20.9894 184.436 20.6392 183.799 20.0515C183.63 19.8704 183.536 19.6348 183.536 19.3906C183.536 19.1464 183.63 18.9108 183.799 18.7297C183.993 18.5699 184.24 18.4822 184.494 18.4822C184.749 18.4822 184.996 18.5699 185.189 18.7297C185.339 18.8697 185.517 18.9785 185.712 19.0495C185.907 19.1206 186.115 19.1523 186.323 19.1428C186.743 19.1578 187.161 19.0727 187.539 18.895C187.692 18.8113 187.819 18.6916 187.911 18.5471C188.002 18.4026 188.054 18.2381 188.062 18.0689C188.086 17.8469 188.061 17.6225 187.986 17.4112C187.916 17.2673 187.793 17.1539 187.641 17.0935C187.295 16.9017 186.906 16.7928 186.507 16.7757C185.558 16.7346 184.659 16.3515 183.987 15.7018C183.661 15.4124 183.412 15.0515 183.26 14.6495C183.108 14.2476 183.059 13.8163 183.116 13.392C183.137 12.9689 183.258 12.556 183.469 12.1845C183.679 11.813 183.974 11.4926 184.332 11.2474C184.689 10.9543 185.104 10.7353 185.553 10.6041C186.001 10.4729 186.473 10.4323 186.938 10.4848C187.414 10.5037 187.881 10.6116 188.315 10.8026C188.683 10.9654 189.017 11.1915 189.301 11.4698C189.461 11.663 189.573 11.889 189.629 12.1306C189.633 12.2514 189.612 12.3716 189.567 12.4845C189.523 12.5974 189.456 12.7006 189.37 12.7883C189.165 12.9429 188.927 13.0514 188.673 13.1061C188.417 13.1127 188.167 13.024 187.976 12.8582C187.832 12.7095 187.657 12.5912 187.463 12.5109C187.269 12.4305 187.06 12.3897 186.849 12.3912C186.429 12.3753 186.012 12.4593 185.633 12.6358C185.481 12.7195 185.353 12.8392 185.262 12.9837C185.17 13.1282 185.118 13.2927 185.111 13.4619C185.102 13.6283 185.128 13.7948 185.188 13.951C185.248 14.1073 185.34 14.2501 185.459 14.3706C185.769 14.6405 186.172 14.7879 186.589 14.7836C187.339 14.7859 188.069 15.016 188.676 15.4413V15.4286Z" fill="#fff"/>
<path d="M23.9288 50V36.3856C25.6356 34.9895 27.0065 33.2501 27.946 31.2888C28.8854 29.3275 29.3707 27.1916 29.3679 25.0302V13.6907C29.4797 13.5953 29.5947 13.5064 29.6966 13.4142C29.7377 13.3934 29.7744 13.3654 29.805 13.3316L29.759 13.3698C31.952 11.6773 34.5815 10.5959 37.3637 10.2424C40.1459 9.88894 42.9751 10.2767 45.546 11.364C48.1168 12.4512 50.3318 14.1966 51.9517 16.4117C53.5716 18.6268 54.535 21.2276 54.7379 23.9333C54.9408 26.639 54.3755 29.347 53.103 31.7648C51.8305 34.1826 49.8991 36.2186 47.5173 37.6529C45.1355 39.0873 42.3937 39.8655 39.5879 39.9036C36.782 39.9418 34.0187 39.2384 31.5961 37.8694L31.5633 37.8376V37.8694C31.4257 40.3447 30.6554 42.7484 29.3213 44.8654C27.9873 46.9824 26.1311 48.7465 23.9189 50M39.4114 17.5319C37.8773 17.5351 36.3786 17.9778 35.1047 18.8041C33.8307 19.6304 32.8387 20.8032 32.2541 22.1744C31.6694 23.5456 31.5183 25.0535 31.8198 26.5077C32.1213 27.9619 32.8619 29.297 33.9481 30.3444C35.0342 31.3918 36.4171 32.1044 37.9221 32.3922C39.427 32.68 40.9864 32.53 42.4032 31.9613C43.8201 31.3926 45.0307 30.4306 45.8822 29.197C46.7337 27.9633 47.1878 26.5133 47.1872 25.0302C47.1828 23.0395 46.3616 21.1319 44.9037 19.726C43.4458 18.3202 41.4705 17.5311 39.4114 17.5319ZM29.6867 13.427C29.7124 13.4057 29.7398 13.3865 29.7689 13.3698L29.7064 13.4142H29.6867" fill="#fff"/>
<path d="M13.9149 39.9377C11.1826 39.9412 8.499 39.238 6.14242 37.9011C3.48423 36.3938 1.347 34.1596 0 31.48C1.33534 28.7771 3.4739 26.5205 6.14242 24.9984V25.2462C6.20127 27.2231 7.06359 29.098 8.54249 30.4644C10.0214 31.8309 11.9977 32.5789 14.0432 32.5463C16.0886 32.5137 18.0384 31.7031 19.4699 30.2903C20.9014 28.8774 21.6993 26.9761 21.6907 24.9984L21.7203 12.8709C21.7201 10.2665 22.4261 7.70751 23.768 5.44914C25.1099 3.19077 27.0407 1.31194 29.3679 0L29.3679 13.6907C29.2332 13.7987 29.1017 13.9131 28.9735 14.0275C28.9533 14.0415 28.9346 14.0575 28.9177 14.0751H28.9374C28.158 14.7718 27.4544 15.5436 26.8373 16.3786C26.7976 16.4136 26.7653 16.4557 26.742 16.5025L26.765 16.4803C26.6106 16.69 26.466 16.9028 26.3246 17.1157C26.2918 17.1443 26.2918 17.1761 26.2622 17.2364C26.1636 17.3604 26.1012 17.516 26.0059 17.64C25.973 17.7003 25.9401 17.7321 25.9106 17.7925C25.812 17.9481 25.7167 18.1324 25.6213 18.2881C25.2978 18.8851 25.0199 19.5042 24.7899 20.1404C24.6946 20.4169 24.596 20.725 24.5007 21.0332C24.5007 21.065 24.5007 21.065 24.4711 21.0968C24.3051 21.7063 24.1767 22.3248 24.0866 22.9491C24.0915 23.0122 24.0802 23.0755 24.0537 23.1334C24.0154 23.3785 23.9934 23.6258 23.988 23.8737C23.9928 23.9469 23.9827 24.0203 23.9584 24.0897C23.931 24.3972 23.9201 24.7058 23.9255 25.0143V36.4015C23.2362 36.9676 22.4972 37.4747 21.717 37.917C19.3484 39.2538 16.6543 39.9567 13.9116 39.9536M28.1059 14.8758C28.1326 14.8214 28.1778 14.7776 28.2341 14.7519L28.1059 14.8758ZM28.9242 14.0592L28.9604 14.0275C28.9743 14.0231 28.9892 14.0231 29.0031 14.0275C28.9792 14.0467 28.9526 14.0627 28.9242 14.0751" fill="#fff"/>
<path d="M23.9288 36.3856L23.9288 24.9984C23.9233 24.6899 23.9343 24.3813 23.9617 24.0738C23.986 24.0044 23.9961 23.931 23.9913 23.8578C23.9967 23.6099 24.0186 23.3626 24.057 23.1175C24.0835 23.0596 24.0947 22.9963 24.0898 22.9332C24.18 22.309 24.3084 21.6904 24.4744 21.0809C24.5039 21.0491 24.5039 21.0491 24.5039 21.0173C24.5992 20.6996 24.6978 20.401 24.7932 20.1245C25.0264 19.4881 25.3076 18.869 25.6345 18.2722C25.7298 18.1165 25.8251 17.9323 25.9237 17.7766C25.9533 17.7162 25.9861 17.6844 26.019 17.6241C26.1143 17.5002 26.1768 17.3445 26.2754 17.2206C26.3049 17.1602 26.3049 17.1284 26.3378 17.0998C26.4791 16.8806 26.6237 16.6677 26.7782 16.4644L26.7552 16.4866C26.7784 16.4398 26.8108 16.3977 26.8505 16.3627C27.4675 15.5277 28.1712 14.7559 28.9505 14.0592C28.9789 14.0469 29.0055 14.0308 29.0294 14.0116C29.0155 14.0072 29.0006 14.0072 28.9867 14.0116C29.1149 13.8972 29.2463 13.7828 29.3811 13.6748V25.0302C29.3839 27.1916 28.8986 29.3275 27.9591 31.2888C27.0197 33.2501 25.6487 34.9895 23.942 36.3856M28.2637 14.7519C28.2074 14.7776 28.1621 14.8214 28.1355 14.8758L28.2637 14.7519ZM28.921 14.0751C28.9379 14.0575 28.9566 14.0415 28.9768 14.0275L28.9407 14.0592H28.921" fill="#fff"/>
</svg>
