<svg viewBox="0 0 53.1526 50.6177" xmlns="http://www.w3.org/2000/svg" xmlns:xlink="http://www.w3.org/1999/xlink" width="53.152588" height="50.617691" fill="none" customFrame="#000000">
	<g id="Сочетание 2">
		<g id="Сочетание 1">
			<g id="Group">
				<path id="Vector" d="M25.6156 25.7956C25.5933 25.3621 25.5489 24.9175 25.4933 24.4673C25.471 24.3228 25.4544 24.1894 25.4321 24.0449C24.5762 23.8948 23.7147 23.6503 22.8755 23.2501C22.9144 23.4835 22.9533 23.7058 22.9922 23.9337C23.0589 24.3672 23.12 24.7896 23.1645 25.2065C23.1867 25.3788 23.1978 25.5511 23.2034 25.7123C24.0149 25.879 24.8097 26.0568 25.5766 26.2458C25.5878 26.1791 25.61 26.1069 25.6322 26.0346C25.6322 25.9568 25.6267 25.879 25.6211 25.7956L25.6156 25.7956Z" fill="rgb(249,249,249)" fill-rule="nonzero" />
				<path id="Vector" d="M26.3996 30.7587C26.3718 30.9032 26.3495 31.0532 26.3218 31.1977C26.3996 31.0699 26.4607 30.931 26.5274 30.8031C26.4885 30.792 26.444 30.7753 26.3996 30.7642L26.3996 30.7587ZM22.7146 2.2353C22.9203 2.17417 23.1315 2.11303 23.3483 2.05745C23.1315 2.10747 22.9147 2.16861 22.7146 2.2353ZM9.40894 24.6505C9.50342 24.6283 9.60902 24.6171 9.70906 24.6116C9.60902 24.6171 9.50898 24.6338 9.40894 24.6505Z" fill="rgb(249,249,249)" fill-rule="nonzero" />
			</g>
			<g id="Group">
				<path id="Vector" d="M51.3951 13.865C51.0672 14.393 50.6837 14.8987 50.2391 15.3767C49.6555 14.832 49.0441 14.3374 48.3771 13.8927C48.7551 13.4815 49.083 13.0591 49.3553 12.6144C50.2168 11.2138 50.4336 9.77431 50.0112 8.22365C49.1108 4.9 44.2643 4.00517 36.2052 3.57721C34.8991 3.51051 33.6597 3.47716 32.4925 3.47716C29.3801 3.47716 26.7567 3.72171 24.6503 4.21081C24.0556 4.35532 23.4998 4.51094 22.9885 4.68324C22.9218 4.54429 22.8495 4.41646 22.7828 4.28862C22.7217 4.16079 22.6439 4.04408 22.5661 3.9218C22.2437 3.42159 21.8824 2.99918 21.5378 2.65459C21.5434 2.64903 22.316 2.36002 22.7161 2.23774C22.9218 2.17661 23.133 2.11547 23.3497 2.05989C23.7888 1.93761 24.2446 1.82646 24.7225 1.73197C25.2561 1.62081 25.8119 1.52633 26.401 1.44296C26.7957 1.38738 27.2014 1.34291 27.6238 1.29845C28.0351 1.25955 28.4575 1.22064 28.891 1.18729C29.9804 1.10948 31.1475 1.07613 32.3869 1.07613C33.6264 1.07613 34.938 1.11504 36.3331 1.18729C44.242 1.60414 50.906 2.37669 52.3233 7.5956C52.918 9.79099 52.6012 11.903 51.3951 13.8705L51.3951 13.865Z" fill="rgb(249,249,249)" fill-rule="nonzero" />
				<path id="Vector" d="M45.392 14.1862C45.392 14.1862 45.392 14.1918 45.3865 14.1918C45.6032 14.2862 45.8256 14.3918 46.0368 14.4919C45.8256 14.3807 45.6144 14.2862 45.392 14.1862Z" fill="rgb(249,249,249)" fill-rule="nonzero" />
				<path id="Vector" d="M30.5202 23.9501C30.3146 24.5392 29.9366 25.8175 29.9366 25.8175C29.9366 25.8175 29.6365 26.9236 29.5031 27.4849C28.8195 27.2126 28.0914 26.9625 27.3411 26.7346C27.3022 26.7235 27.2577 26.7124 27.2244 26.7012C27.2577 26.5623 27.2911 26.4233 27.3355 26.2844C27.3633 26.1677 27.3911 26.0454 27.4245 25.9287C27.5023 25.6341 27.5801 25.3395 27.669 25.045C27.7468 24.7671 27.8246 24.4836 27.9135 24.2113C28.8417 24.1891 29.7254 24.0834 30.5147 23.9501L30.5202 23.9501Z" fill="rgb(249,249,249)" fill-rule="nonzero" />
			</g>
			<g id="Group">
				<path id="Vector" d="M24.9177 45.5411C22.4833 46.3192 20.299 46.7194 19.3986 46.8695C17.4756 47.1863 15.8082 47.3363 14.352 47.3363C13.485 47.3363 12.6846 47.2808 11.951 47.1807C11.6564 47.1418 11.3785 47.0918 11.1006 47.0362C10.6949 46.9473 10.3058 46.8472 9.94457 46.7305C9.46102 46.5749 9.00527 46.3859 8.58287 46.1692C8.37167 46.058 8.17158 45.9413 7.9715 45.8246C7.78253 45.7023 7.588 45.58 7.41014 45.4411C7.22673 45.3021 7.05444 45.1687 6.88214 45.0187C6.70984 44.8742 6.54866 44.7241 6.38748 44.5629C6.23186 44.4073 6.0818 44.2406 5.93729 44.0683C5.78722 43.9015 5.64272 43.7237 5.50377 43.5403C5.36482 43.3568 5.23143 43.1734 5.09804 42.9789C4.83682 42.5954 4.59227 42.1897 4.35328 41.7673C2.01338 37.5988 1.7466 33.4137 3.64742 30.5569C4.14207 29.8177 4.76456 29.1841 5.51488 28.6672C5.0369 28.0503 4.57003 27.4 4.11428 26.7108C3.72523 26.9831 3.36396 27.2833 3.01937 27.6056C2.84707 27.7724 2.68589 27.9336 2.52471 28.1114C2.20791 28.4616 1.91334 28.8284 1.65767 29.2286C-0.748916 32.8523 -0.526599 37.9768 2.26905 42.9456C4.88128 47.5976 8.54952 49.7262 14.3687 49.7262C15.9972 49.7262 17.7868 49.5595 19.7821 49.2316C21.1271 49.0148 23.4837 48.548 26.0293 47.6976C25.6124 47.0696 25.2345 46.3581 24.9121 45.5411L24.9177 45.5411Z" fill="rgb(249,249,249)" fill-rule="nonzero" />
				<path id="Vector" d="M37.1107 36.6646C37.1107 40.5663 34.6485 43.3063 31.5194 45.2238C30.9469 44.6792 30.5412 43.9789 30.2633 43.1896C32.7811 41.6445 34.7152 39.5214 34.7152 36.6646C34.7152 34.1246 33.4369 32.1571 30.6023 30.6231C30.1188 30.3563 29.5852 30.1007 29.0017 29.8617C28.4125 29.6171 27.7678 29.3893 27.0786 29.1725C26.9563 29.1336 26.8396 29.0947 26.7173 29.0558L25.05 28.6C24.433 28.4444 23.7827 28.2943 23.0991 28.1498C22.56 28.0387 22.0042 27.9331 21.4206 27.8275C19.6032 27.4996 17.5801 27.205 15.3458 26.9493C14.4065 26.8382 13.5117 26.7937 12.6557 26.7937C12.3 26.7937 11.9499 26.7993 11.6108 26.8215C10.8716 26.8604 10.1658 26.9438 9.50439 27.0827C9.22649 26.7659 8.96527 26.4547 8.73739 26.1601C8.58733 25.9711 8.44838 25.7822 8.32611 25.621C8.27608 25.5543 8.17048 25.4042 8.06488 25.2597C8.01486 25.193 7.9704 25.1208 7.93705 25.0763C7.9037 25.0263 7.88147 24.9929 7.88147 24.9929C8.27608 24.8818 8.68737 24.7873 9.11533 24.7039C9.20982 24.6928 9.3043 24.6706 9.4099 24.6539C9.50439 24.6317 9.60999 24.6205 9.71003 24.615C10.6382 24.4649 11.6275 24.3982 12.6613 24.3982C13.6117 24.3982 14.5955 24.4594 15.6237 24.5761C17.6134 24.8095 19.5754 25.0707 21.4651 25.3987C22.0542 25.4987 22.6323 25.6043 23.2047 25.721C24.0162 25.8878 24.811 26.0656 25.578 26.2546L27.2342 26.7103C27.2676 26.7214 27.312 26.7326 27.3509 26.7437C28.1013 26.9771 28.8294 27.2217 29.513 27.494C30.0688 27.7108 30.6023 27.9442 31.1081 28.1943C34.7708 30.0006 37.1162 32.6407 37.1162 36.6702L37.1107 36.6646Z" fill="rgb(249,249,249)" fill-rule="nonzero" />
				<path id="Vector" d="M9.94543 46.7259C10.3067 46.8482 10.6958 46.9538 11.1015 47.0316C10.6958 46.9426 10.3067 46.8426 9.94543 46.7259Z" fill="rgb(249,249,249)" fill-rule="nonzero" />
				<path id="Vector" d="M24.8514 30.3241C24.8014 30.4242 24.5569 30.8355 24.4902 30.9411C23.4231 32.5084 21.6723 33.4699 19.1379 33.8923C18.6265 33.9813 18.1208 34.0202 17.6039 34.0202C14.6415 34.0202 11.6569 32.6196 8.88903 29.9073C8.54444 29.5738 8.19985 29.1903 8.19985 29.1903C7.72187 28.6623 7.33281 28.201 7.03824 27.8231C6.79925 27.5452 6.5547 27.2339 6.29903 26.8949C6.03225 26.5336 4.97624 24.8829 4.68167 24.3827C1.71373 19.4028 -0.381616 13.1501 0.257548 8.68151C0.591024 6.3305 1.87491 4.2685 3.95914 2.72895C5.01515 1.95084 6.24345 1.32835 7.59403 0.883713C7.73298 0.833691 7.86637 0.794786 8.00532 0.75588C8.45551 0.611374 8.92238 0.494657 9.40036 0.394614C9.78386 0.311245 10.1674 0.244549 10.562 0.18897C11.4457 0.0611374 12.3516 0 13.2854 0C14.3303 0 15.3974 0.0833692 16.4645 0.244549C17.8929 0.472425 19.0656 0.878155 20.016 1.43951C20.016 1.43951 20.7386 1.84524 21.5389 2.65114C21.8835 2.99573 22.2448 3.41813 22.5671 3.91835C22.6449 4.04062 22.7172 4.1629 22.7839 4.28517C22.8506 4.41301 22.9228 4.5464 22.9895 4.67979C23.0173 4.74092 23.0451 4.80206 23.0729 4.85764C23.2841 5.30784 23.4564 5.78026 23.5953 6.27492C24.2734 8.69262 24.1623 11.3993 24.0733 13.5947C24.0233 14.8953 23.9788 16.1236 24.0956 16.9906C24.2123 17.7965 24.3735 18.658 24.5513 19.5139C23.5509 19.0137 22.5393 18.1467 21.6556 16.646C21.5945 15.7067 21.6334 14.6341 21.6834 13.5002C21.7723 11.1937 21.7835 9.10391 21.3833 7.36983C21.2443 6.76957 21.0554 6.20822 20.8108 5.70245C20.2995 4.89099 19.7659 4.31296 19.2046 3.885C18.6821 3.47927 18.143 3.20137 17.5705 2.96794C17.1259 2.81788 16.6424 2.6956 16.0977 2.61223C15.1417 2.46217 14.1913 2.38436 13.2576 2.38436C12.2738 2.38436 11.3123 2.46773 10.3952 2.62891C10.0673 2.68449 9.74496 2.75118 9.42815 2.83455C7.8886 3.21249 6.49912 3.83498 5.37641 4.66311C3.81463 5.81361 2.86422 7.31981 2.61967 9.0261C2.13613 12.4553 3.83131 18.4802 6.88817 23.4823C7.20498 23.9936 7.5329 24.4994 7.87749 24.9885C7.87749 24.9885 7.89972 25.0219 7.93307 25.0719C7.96641 25.1275 8.01088 25.1886 8.0609 25.2553C8.16094 25.3998 8.2721 25.5499 8.32212 25.6166C8.4444 25.7833 8.58335 25.9667 8.73341 26.1557C8.96129 26.4502 9.21695 26.7671 9.50041 27.0783C9.97283 27.6119 10.423 28.0565 10.562 28.1954C10.7009 28.3344 11.1344 28.7346 11.2178 28.8124C11.4512 29.0125 11.6958 29.2181 11.9515 29.4126C12.7185 30.0073 13.5911 30.5631 14.547 30.9633C14.8638 31.1022 15.1806 31.219 15.5197 31.3134C16.1811 31.5024 16.8869 31.6191 17.615 31.6191C17.9818 31.6191 18.3653 31.5858 18.7488 31.5247C20.4996 31.2356 21.7001 30.6465 22.3893 29.7517C23.2396 29.924 24.0178 30.1018 24.7347 30.2908C24.7736 30.2963 24.8125 30.3019 24.8514 30.3186L24.8514 30.3241Z" fill="rgb(249,249,249)" fill-rule="nonzero" />
			</g>
			<g id="Group">
				<path id="Vector" d="M26.4028 30.757C26.375 30.9015 26.3527 31.0516 26.325 31.1961C26.4028 31.0682 26.4639 30.9293 26.5306 30.8014C26.4917 30.7903 26.4472 30.7737 26.4028 30.7625L26.4028 30.757Z" fill="rgb(249,249,249)" fill-rule="nonzero" />
				<path id="Vector" d="M52.7868 31.5539C51.6196 38.4569 47.7791 44.7374 42.5268 48.3556C40.576 49.6951 37.847 50.6177 35.1459 50.6177C33.4618 50.6177 31.7944 50.262 30.3271 49.4283C29.8714 49.1671 29.3879 48.8392 28.9321 48.4279C28.5097 48.061 28.0984 47.6164 27.7149 47.0884C27.2758 46.4937 26.8812 45.7934 26.5533 44.9653C26.3532 44.4706 26.1754 43.9315 26.0253 43.3368C25.6362 41.7695 25.4584 39.852 25.6029 37.5121C25.6251 37.2564 25.7807 34.5997 26.3365 31.1927C26.4144 31.0649 26.4755 30.9259 26.5422 30.7981C27.3648 31.0593 28.0762 31.3205 28.7042 31.5929C28.1595 34.961 27.9928 37.601 27.9928 37.6566C27.8816 39.4296 27.9706 40.9969 28.2596 42.3475C28.3819 42.9477 28.5486 43.5035 28.7542 44.0149C29.0711 44.8152 29.4768 45.5044 29.977 46.0824C30.3827 46.5548 30.8551 46.9495 31.3776 47.2663C31.4165 47.294 31.461 47.3218 31.5054 47.3496C32.5948 47.9666 33.8564 48.2278 35.1403 48.2278C37.3357 48.2278 39.6034 47.4608 41.1763 46.3825C45.9061 43.1311 49.3631 37.4343 50.4302 31.1538C51.2083 26.5407 50.5414 22.3611 48.585 19.6933C48.4905 19.5655 48.3849 19.4321 48.2849 19.3042C47.9236 18.854 47.5123 18.4372 47.0732 18.0537C46.4118 17.4868 45.6615 16.9921 44.8778 16.6086C44.1998 16.2752 43.4828 16.0139 42.7491 15.8305C41.971 15.6471 41.1596 15.5415 40.3537 15.5415L40.2258 15.5415C37.269 15.5804 34.679 16.9088 32.8671 19.282C32.667 19.332 32.4725 19.3709 32.2724 19.4098C32.0334 19.4599 31.7778 19.5099 31.4999 19.5766C30.9107 19.7044 30.2882 19.8434 29.638 19.9434C29.9381 19.3543 30.266 18.8096 30.6162 18.3038C32.856 15.0802 36.3408 13.2016 40.1925 13.146L40.3426 13.146C41.8488 13.146 43.3272 13.4128 44.7 13.9186C44.9334 14.0075 45.1669 14.0964 45.4003 14.1965C45.617 14.291 45.8394 14.3966 46.0506 14.4966C46.4063 14.6745 46.7564 14.8746 47.0899 15.0913C47.7791 15.5137 48.4238 16.0139 49.0185 16.5809C49.0296 16.5809 49.0407 16.5864 49.0463 16.6031C49.1352 16.6865 49.2242 16.7754 49.3131 16.8643C49.402 16.9477 49.4909 17.0422 49.5743 17.1311C49.7911 17.359 49.9911 17.598 50.1857 17.8369C50.3079 17.9815 50.4191 18.126 50.5303 18.276C52.8646 21.4663 53.6927 26.3017 52.8035 31.5539L52.7868 31.5539Z" fill="rgb(249,249,249)" fill-rule="nonzero" />
				<path id="Vector" d="M47.0669 18.0464C46.5612 18.3799 46.0387 18.6912 45.5052 18.9913C40.3307 21.887 34.0614 23.232 33.0665 23.4321C32.8886 23.4654 32.6997 23.5099 32.494 23.5544C32.4551 23.5599 32.4107 23.5766 32.3717 23.5822C31.8493 23.6989 31.2213 23.8378 30.5265 23.949C29.7373 24.0768 28.8591 24.188 27.9254 24.2102C27.8142 24.2158 27.6975 24.2158 27.5808 24.2158C27.453 24.2158 27.3196 24.2158 27.1862 24.2102C26.8416 24.2046 26.5026 24.1769 26.1524 24.1324C25.9134 24.1102 25.6744 24.0768 25.4354 24.0379C24.5795 23.8878 23.718 23.6433 22.8788 23.2431C22.1952 22.9374 21.5338 22.5317 20.889 22.0204C19.2606 20.7143 17.7877 18.7078 16.7039 15.6621C15.2311 11.5381 15.4033 8.21444 17.2264 5.76895C17.432 5.49105 17.6654 5.22427 17.9155 4.96861C18.627 5.38545 19.1272 5.98015 19.4551 6.81384C19.3439 6.93612 19.2383 7.06951 19.1383 7.19734C17.8322 8.95365 17.771 11.527 18.9604 14.8506C19.0827 15.2063 19.2217 15.5398 19.355 15.8622C19.4884 16.1845 19.6329 16.4902 19.7775 16.7792C19.8441 16.9182 19.9164 17.046 19.9887 17.1738C19.9887 17.1794 19.9942 17.1961 19.9998 17.2016C20.1498 17.474 20.3055 17.7352 20.4666 17.9797C20.6334 18.2187 20.789 18.4522 20.9613 18.6689C21.0447 18.769 21.128 18.8801 21.217 18.9857C21.3893 19.1858 21.5616 19.3748 21.7394 19.5526C21.895 19.7083 22.0562 19.8528 22.2174 19.9917C23.0955 20.7365 24.0237 21.2089 24.9741 21.4924C25.5744 21.6647 26.1802 21.7647 26.7805 21.8092C26.8305 21.8147 27.3363 21.837 27.5308 21.837C27.9532 21.837 28.3811 21.8147 28.7869 21.7758C29.9429 21.6591 32.6719 21.0866 33.8724 20.7976C36.1678 20.2474 39.0524 19.3804 41.7536 18.191C42.1482 18.0131 42.5428 17.8352 42.9318 17.6518C43.6044 17.3184 44.2546 16.9738 44.8771 16.5958C45.6664 16.9793 46.4111 17.474 47.0725 18.0409L47.0669 18.0464Z" fill="rgb(249,249,249)" fill-rule="nonzero" />
			</g>
		</g>
	</g>
</svg>
