<svg width="54" height="51" viewBox="0 0 54 51" fill="none" xmlns="http://www.w3.org/2000/svg">
<path d="M25.6156 25.7956C25.5933 25.3621 25.5489 24.9175 25.4933 24.4673C25.471 24.3228 25.4544 24.1894 25.4321 24.0449C24.5762 23.8948 23.7147 23.6503 22.8755 23.2501C22.9144 23.4835 22.9533 23.7059 22.9922 23.9337C23.0589 24.3673 23.12 24.7897 23.1645 25.2065C23.1867 25.3788 23.1978 25.5511 23.2034 25.7123C24.0149 25.879 24.8097 26.0569 25.5766 26.2458C25.5878 26.1791 25.61 26.1069 25.6322 26.0346C25.6322 25.9568 25.6267 25.879 25.6211 25.7956H25.6156Z" fill="#F9F9F9"/>
<path d="M26.3996 30.7587C26.3718 30.9032 26.3495 31.0533 26.3218 31.1978C26.3996 31.0699 26.4607 30.931 26.5274 30.8031C26.4885 30.792 26.444 30.7754 26.3996 30.7642V30.7587ZM22.7146 2.23532C22.9203 2.17418 23.1315 2.11304 23.3483 2.05746C23.1315 2.10749 22.9147 2.16862 22.7146 2.23532ZM9.40894 24.6505C9.50342 24.6283 9.60902 24.6172 9.70906 24.6116C9.60902 24.6172 9.50898 24.6338 9.40894 24.6505ZM9.40894 24.6505C9.50342 24.6283 9.60902 24.6172 9.70906 24.6116C9.60902 24.6172 9.50898 24.6338 9.40894 24.6505ZM9.40894 24.6505C9.50342 24.6283 9.60902 24.6172 9.70906 24.6116C9.60902 24.6172 9.50898 24.6338 9.40894 24.6505Z" fill="#F9F9F9"/>
<path d="M51.395 13.865C51.0671 14.393 50.6836 14.8988 50.2389 15.3767C49.6553 14.8321 49.044 14.3374 48.377 13.8928C48.755 13.4815 49.0829 13.0591 49.3552 12.6144C50.2167 11.2138 50.4335 9.77434 50.0111 8.22367C49.1107 4.90002 44.2641 4.00519 36.2051 3.57723C34.899 3.51054 33.6596 3.47719 32.4924 3.47719C29.38 3.47719 26.7566 3.72174 24.6502 4.21084C24.0555 4.35534 23.4997 4.51097 22.9883 4.68326C22.9216 4.54431 22.8494 4.41648 22.7827 4.28865C22.7216 4.16081 22.6437 4.0441 22.5659 3.92182C22.2436 3.42161 21.8823 2.9992 21.5377 2.65461C21.5433 2.64905 22.3158 2.36004 22.716 2.23777C22.9216 2.17663 23.1328 2.11549 23.3496 2.05991C23.7887 1.93764 24.2444 1.82648 24.7224 1.73199C25.256 1.62084 25.8118 1.52635 26.4009 1.44298C26.7955 1.3874 27.2013 1.34294 27.6237 1.29847C28.035 1.25957 28.4574 1.22066 28.8909 1.18732C29.9802 1.1095 31.1474 1.07616 32.3868 1.07616C33.6262 1.07616 34.9379 1.11506 36.333 1.18732C44.2419 1.60416 50.9059 2.37672 52.3232 7.59562C52.9179 9.79101 52.6011 11.903 51.395 13.8705V13.865Z" fill="#F9F9F9"/>
<path d="M45.392 14.1862C45.392 14.1862 45.392 14.1918 45.3865 14.1918C45.6032 14.2863 45.8256 14.3919 46.0368 14.4919C45.8256 14.3807 45.6144 14.2863 45.392 14.1862ZM45.392 14.1862C45.392 14.1862 45.392 14.1918 45.3865 14.1918C45.6032 14.2863 45.8256 14.3919 46.0368 14.4919C45.8256 14.3807 45.6144 14.2863 45.392 14.1862ZM45.392 14.1862C45.392 14.1862 45.392 14.1918 45.3865 14.1918C45.6032 14.2863 45.8256 14.3919 46.0368 14.4919C45.8256 14.3807 45.6144 14.2863 45.392 14.1862Z" fill="#F9F9F9"/>
<path d="M30.5201 23.9501C30.3145 24.5392 29.9365 25.8176 29.9365 25.8176C29.9365 25.8176 29.6364 26.9236 29.503 27.4849C28.8194 27.2126 28.0913 26.9625 27.341 26.7346C27.3021 26.7235 27.2576 26.7124 27.2242 26.7013C27.2576 26.5623 27.2909 26.4234 27.3354 26.2844C27.3632 26.1677 27.391 26.0454 27.4243 25.9287C27.5021 25.6341 27.58 25.3396 27.6689 25.045C27.7467 24.7671 27.8245 24.4837 27.9134 24.2113C28.8416 24.1891 29.7253 24.0835 30.5145 23.9501H30.5201Z" fill="#F9F9F9"/>
<path d="M24.9177 45.5411C22.4833 46.3193 20.299 46.7194 19.3986 46.8695C17.4756 47.1863 15.8082 47.3364 14.352 47.3364C13.485 47.3364 12.6846 47.2808 11.951 47.1807C11.6564 47.1418 11.3785 47.0918 11.1006 47.0362C10.6949 46.9473 10.3058 46.8473 9.94457 46.7305C9.46102 46.5749 9.00527 46.386 8.58287 46.1692C8.37167 46.058 8.17158 45.9413 7.9715 45.8246C7.78253 45.7023 7.588 45.58 7.41014 45.4411C7.22673 45.3021 7.05444 45.1688 6.88214 45.0187C6.70984 44.8742 6.54866 44.7241 6.38748 44.5629C6.23186 44.4073 6.0818 44.2406 5.93729 44.0683C5.78722 43.9016 5.64272 43.7237 5.50377 43.5403C5.36482 43.3569 5.23143 43.1735 5.09804 42.9789C4.83682 42.5954 4.59227 42.1897 4.35328 41.7673C2.01338 37.5988 1.7466 33.4137 3.64742 30.5569C4.14207 29.8177 4.76456 29.1841 5.51489 28.6672C5.0369 28.0503 4.57003 27.4 4.11428 26.7108C3.72523 26.9832 3.36396 27.2833 3.01937 27.6057C2.84707 27.7724 2.68589 27.9336 2.52471 28.1114C2.20791 28.4616 1.91334 28.8284 1.65767 29.2286C-0.748916 32.8524 -0.526599 37.9768 2.26905 42.9456C4.88128 47.5976 8.54952 49.7263 14.3687 49.7263C15.9972 49.7263 17.7868 49.5595 19.7821 49.2316C21.1271 49.0149 23.4837 48.548 26.0293 47.6976C25.6124 47.0696 25.2345 46.3582 24.9121 45.5411H24.9177Z" fill="#F9F9F9"/>
<path d="M37.1107 36.6646C37.1107 40.5663 34.6485 43.3064 31.5194 45.2239C30.9469 44.6792 30.5412 43.9789 30.2633 43.1896C32.7811 41.6445 34.7152 39.5214 34.7152 36.6646C34.7152 34.1246 33.4369 32.1571 30.6023 30.6231C30.1188 30.3564 29.5852 30.1007 29.0017 29.8617C28.4125 29.6171 27.7678 29.3893 27.0786 29.1725C26.9563 29.1336 26.8396 29.0947 26.7173 29.0558L25.05 28.6C24.433 28.4444 23.7827 28.2944 23.0991 28.1499C22.56 28.0387 22.0042 27.9331 21.4206 27.8275C19.6032 27.4996 17.5801 27.205 15.3458 26.9493C14.4065 26.8382 13.5117 26.7937 12.6557 26.7937C12.3 26.7937 11.9499 26.7993 11.6108 26.8215C10.8716 26.8604 10.1658 26.9438 9.50439 27.0827C9.22649 26.7659 8.96527 26.4547 8.73739 26.1601C8.58733 25.9711 8.44838 25.7822 8.32611 25.621C8.27608 25.5543 8.17048 25.4042 8.06488 25.2597C8.01486 25.193 7.9704 25.1208 7.93705 25.0763C7.9037 25.0263 7.88147 24.9929 7.88147 24.9929C8.27608 24.8818 8.68737 24.7873 9.11533 24.7039C9.20982 24.6928 9.3043 24.6706 9.4099 24.6539C9.50439 24.6317 9.60999 24.6206 9.71003 24.615C10.6382 24.4649 11.6275 24.3982 12.6613 24.3982C13.6117 24.3982 14.5955 24.4594 15.6237 24.5761C17.6134 24.8095 19.5754 25.0707 21.4651 25.3987C22.0542 25.4987 22.6323 25.6043 23.2047 25.721C24.0162 25.8878 24.811 26.0656 25.578 26.2546L27.2342 26.7103C27.2676 26.7215 27.312 26.7326 27.3509 26.7437C28.1013 26.9771 28.8294 27.2217 29.513 27.494C30.0688 27.7108 30.6023 27.9442 31.1081 28.1943C34.7708 30.0006 37.1162 32.6407 37.1162 36.6702L37.1107 36.6646Z" fill="#F9F9F9"/>
<path d="M9.94543 46.7259C10.3067 46.8482 10.6958 46.9538 11.1015 47.0316C10.6958 46.9426 10.3067 46.8426 9.94543 46.7259ZM9.94543 46.7259C10.3067 46.8482 10.6958 46.9538 11.1015 47.0316C10.6958 46.9426 10.3067 46.8426 9.94543 46.7259ZM9.94543 46.7259C10.3067 46.8482 10.6958 46.9538 11.1015 47.0316C10.6958 46.9426 10.3067 46.8426 9.94543 46.7259ZM9.94543 46.7259C10.3067 46.8482 10.6958 46.9538 11.1015 47.0316C10.6958 46.9426 10.3067 46.8426 9.94543 46.7259ZM9.94543 46.7259C10.3067 46.8482 10.6958 46.9538 11.1015 47.0316C10.6958 46.9426 10.3067 46.8426 9.94543 46.7259ZM9.94543 46.7259C10.3067 46.8482 10.6958 46.9538 11.1015 47.0316C10.6958 46.9426 10.3067 46.8426 9.94543 46.7259ZM9.94543 46.7259C10.3067 46.8482 10.6958 46.9538 11.1015 47.0316C10.6958 46.9426 10.3067 46.8426 9.94543 46.7259ZM9.94543 46.7259C10.3067 46.8482 10.6958 46.9538 11.1015 47.0316C10.6958 46.9426 10.3067 46.8426 9.94543 46.7259ZM9.94543 46.7259C10.3067 46.8482 10.6958 46.9538 11.1015 47.0316C10.6958 46.9426 10.3067 46.8426 9.94543 46.7259ZM9.94543 46.7259C10.3067 46.8482 10.6958 46.9538 11.1015 47.0316C10.6958 46.9426 10.3067 46.8426 9.94543 46.7259ZM9.94543 46.7259C10.3067 46.8482 10.6958 46.9538 11.1015 47.0316C10.6958 46.9426 10.3067 46.8426 9.94543 46.7259ZM9.94543 46.7259C10.3067 46.8482 10.6958 46.9538 11.1015 47.0316C10.6958 46.9426 10.3067 46.8426 9.94543 46.7259ZM9.94543 46.7259C10.3067 46.8482 10.6958 46.9538 11.1015 47.0316C10.6958 46.9426 10.3067 46.8426 9.94543 46.7259ZM9.94543 46.7259C10.3067 46.8482 10.6958 46.9538 11.1015 47.0316C10.6958 46.9426 10.3067 46.8426 9.94543 46.7259ZM9.94543 46.7259C10.3067 46.8482 10.6958 46.9538 11.1015 47.0316C10.6958 46.9426 10.3067 46.8426 9.94543 46.7259ZM9.94543 46.7259C10.3067 46.8482 10.6958 46.9538 11.1015 47.0316C10.6958 46.9426 10.3067 46.8426 9.94543 46.7259ZM9.94543 46.7259C10.3067 46.8482 10.6958 46.9538 11.1015 47.0316C10.6958 46.9426 10.3067 46.8426 9.94543 46.7259ZM9.94543 46.7259C10.3067 46.8482 10.6958 46.9538 11.1015 47.0316C10.6958 46.9426 10.3067 46.8426 9.94543 46.7259ZM9.94543 46.7259C10.3067 46.8482 10.6958 46.9538 11.1015 47.0316C10.6958 46.9426 10.3067 46.8426 9.94543 46.7259ZM9.94543 46.7259C10.3067 46.8482 10.6958 46.9538 11.1015 47.0316C10.6958 46.9426 10.3067 46.8426 9.94543 46.7259ZM9.94543 46.7259C10.3067 46.8482 10.6958 46.9538 11.1015 47.0316C10.6958 46.9426 10.3067 46.8426 9.94543 46.7259ZM9.94543 46.7259C10.3067 46.8482 10.6958 46.9538 11.1015 47.0316C10.6958 46.9426 10.3067 46.8426 9.94543 46.7259ZM9.94543 46.7259C10.3067 46.8482 10.6958 46.9538 11.1015 47.0316C10.6958 46.9426 10.3067 46.8426 9.94543 46.7259ZM9.94543 46.7259C10.3067 46.8482 10.6958 46.9538 11.1015 47.0316C10.6958 46.9426 10.3067 46.8426 9.94543 46.7259ZM9.94543 46.7259C10.3067 46.8482 10.6958 46.9538 11.1015 47.0316C10.6958 46.9426 10.3067 46.8426 9.94543 46.7259ZM9.94543 46.7259C10.3067 46.8482 10.6958 46.9538 11.1015 47.0316C10.6958 46.9426 10.3067 46.8426 9.94543 46.7259Z" fill="#F9F9F9"/>
<path d="M24.8514 30.3241C24.8014 30.4242 24.5569 30.8355 24.4902 30.9411C23.4231 32.5084 21.6723 33.4699 19.1379 33.8923C18.6265 33.9813 18.1208 34.0202 17.6039 34.0202C14.6415 34.0202 11.6569 32.6196 8.88903 29.9073C8.54444 29.5738 8.19985 29.1903 8.19985 29.1903C7.72186 28.6623 7.33281 28.201 7.03824 27.8231C6.79925 27.5452 6.5547 27.2339 6.29903 26.8949C6.03225 26.5336 4.97624 24.8829 4.68167 24.3827C1.71373 19.4028 -0.381616 13.1501 0.257548 8.68152C0.591024 6.33051 1.87491 4.26851 3.95914 2.72896C5.01515 1.95085 6.24345 1.32836 7.59403 0.883728C7.73298 0.833707 7.86637 0.794801 8.00532 0.755895C8.45551 0.611389 8.92238 0.494672 9.40036 0.394629C9.78386 0.31126 10.1674 0.244565 10.562 0.188985C11.4457 0.0611526 12.3516 1.52588e-05 13.2854 1.52588e-05C14.3303 1.52588e-05 15.3974 0.0833844 16.4645 0.244565C17.8929 0.47244 19.0656 0.87817 20.016 1.43952C20.016 1.43952 20.7386 1.84525 21.5389 2.65115C21.8835 2.99575 22.2448 3.41815 22.5671 3.91836C22.6449 4.04064 22.7172 4.16291 22.7839 4.28519C22.8506 4.41302 22.9228 4.54641 22.9895 4.6798C23.0173 4.74094 23.0451 4.80208 23.0729 4.85766C23.2841 5.30785 23.4564 5.78028 23.5953 6.27493C24.2734 8.69264 24.1623 11.3994 24.0733 13.5947C24.0233 14.8953 23.9788 16.1236 24.0956 16.9906C24.2123 17.7965 24.3735 18.658 24.5513 19.514C23.5509 19.0137 22.5393 18.1467 21.6556 16.6461C21.5945 15.7068 21.6334 14.6341 21.6834 13.5003C21.7723 11.1937 21.7835 9.10392 21.3833 7.36985C21.2443 6.76959 21.0554 6.20824 20.8108 5.70246C20.2995 4.891 19.7659 4.31298 19.2046 3.88502C18.6821 3.47929 18.143 3.20139 17.5705 2.96796C17.1259 2.81789 16.6424 2.69562 16.0977 2.61225C15.1417 2.46218 14.1913 2.38437 13.2576 2.38437C12.2738 2.38437 11.3123 2.46774 10.3952 2.62892C10.0673 2.6845 9.74496 2.7512 9.42815 2.83457C7.8886 3.21251 6.49912 3.835 5.37641 4.66313C3.81463 5.81362 2.86422 7.31983 2.61967 9.02611C2.13613 12.4554 3.83131 18.4802 6.88817 23.4823C7.20498 23.9937 7.53289 24.4994 7.87749 24.9885C7.87749 24.9885 7.89972 25.0219 7.93307 25.0719C7.96641 25.1275 8.01088 25.1886 8.0609 25.2553C8.16094 25.3998 8.2721 25.5499 8.32212 25.6166C8.4444 25.7833 8.58335 25.9667 8.73341 26.1557C8.96129 26.4503 9.21695 26.7671 9.50041 27.0783C9.97283 27.6119 10.423 28.0565 10.562 28.1955C10.7009 28.3344 11.1344 28.7346 11.2178 28.8124C11.4512 29.0125 11.6958 29.2181 11.9515 29.4126C12.7185 30.0073 13.5911 30.5631 14.547 30.9633C14.8638 31.1023 15.1806 31.219 15.5197 31.3135C16.1811 31.5024 16.8869 31.6192 17.615 31.6192C17.9818 31.6192 18.3653 31.5858 18.7488 31.5247C20.4996 31.2357 21.7001 30.6465 22.3893 29.7517C23.2396 29.924 24.0178 30.1018 24.7347 30.2908C24.7736 30.2964 24.8125 30.3019 24.8514 30.3186V30.3241Z" fill="#F9F9F9"/>
<path d="M26.4026 30.757C26.3749 30.9015 26.3526 31.0516 26.3248 31.1961C26.4026 31.0682 26.4638 30.9293 26.5305 30.8015C26.4916 30.7904 26.4471 30.7737 26.4026 30.7626V30.757ZM26.4026 30.757C26.3749 30.9015 26.3526 31.0516 26.3248 31.1961C26.4026 31.0682 26.4638 30.9293 26.5305 30.8015C26.4916 30.7904 26.4471 30.7737 26.4026 30.7626V30.757Z" fill="#F9F9F9"/>
<path d="M52.7868 31.554C51.6196 38.4569 47.7791 44.7374 42.5268 48.3556C40.576 49.6951 37.847 50.6177 35.1459 50.6177C33.4618 50.6177 31.7944 50.262 30.3271 49.4283C29.8714 49.1671 29.3879 48.8392 28.9321 48.4279C28.5097 48.0611 28.0984 47.6164 27.7149 47.0884C27.2758 46.4937 26.8812 45.7934 26.5533 44.9653C26.3532 44.4706 26.1754 43.9315 26.0253 43.3368C25.6362 41.7695 25.4584 39.852 25.6029 37.5121C25.6251 37.2564 25.7807 34.5997 26.3365 31.1927C26.4144 31.0649 26.4755 30.9259 26.5422 30.7981C27.3648 31.0593 28.0762 31.3205 28.7042 31.5929C28.1595 34.961 27.9928 37.601 27.9928 37.6566C27.8816 39.4296 27.9706 40.9969 28.2596 42.3475C28.3819 42.9478 28.5486 43.5036 28.7542 44.0149C29.0711 44.8152 29.4768 45.5044 29.977 46.0824C30.3827 46.5549 30.8551 46.9495 31.3776 47.2663C31.4165 47.2941 31.461 47.3219 31.5054 47.3497C32.5948 47.9666 33.8564 48.2278 35.1403 48.2278C37.3357 48.2278 39.6034 47.4608 41.1762 46.3826C45.9061 43.1312 49.3631 37.4343 50.4302 31.1538C51.2083 26.5407 50.5414 22.3611 48.585 19.6933C48.4905 19.5655 48.3849 19.4321 48.2849 19.3043C47.9236 18.8541 47.5123 18.4372 47.0732 18.0537C46.4118 17.4868 45.6615 16.9922 44.8778 16.6087C44.1998 16.2752 43.4828 16.014 42.7491 15.8306C41.971 15.6471 41.1596 15.5415 40.3537 15.5415H40.2258C37.269 15.5805 34.679 16.9088 32.8671 19.282C32.667 19.3321 32.4725 19.371 32.2724 19.4099C32.0334 19.4599 31.7778 19.5099 31.4999 19.5766C30.9107 19.7044 30.2882 19.8434 29.638 19.9434C29.9381 19.3543 30.266 18.8096 30.6162 18.3038C32.856 15.0802 36.3408 13.2017 40.1925 13.1461H40.3426C41.8488 13.1461 43.3272 13.4129 44.7 13.9186C44.9334 14.0076 45.1669 14.0965 45.4003 14.1965C45.617 14.291 45.8394 14.3966 46.0506 14.4967C46.4063 14.6745 46.7564 14.8746 47.0899 15.0914C47.7791 15.5138 48.4238 16.014 49.0185 16.5809C49.0296 16.5809 49.0407 16.5864 49.0463 16.6031C49.1352 16.6865 49.2241 16.7754 49.3131 16.8643C49.402 16.9477 49.4909 17.0422 49.5743 17.1311C49.7911 17.359 49.9911 17.598 50.1857 17.837C50.3079 17.9815 50.4191 18.126 50.5303 18.2761C52.8646 21.4663 53.6927 26.3017 52.8035 31.554H52.7868Z" fill="#F9F9F9"/>
<path d="M47.0669 18.0465C46.5612 18.3799 46.0387 18.6912 45.5052 18.9913C40.3307 21.887 34.0614 23.232 33.0665 23.4321C32.8886 23.4655 32.6997 23.5099 32.494 23.5544C32.4551 23.5599 32.4107 23.5766 32.3717 23.5822C31.8493 23.6989 31.2213 23.8378 30.5265 23.949C29.7373 24.0768 28.8591 24.188 27.9254 24.2102C27.8142 24.2158 27.6975 24.2158 27.5808 24.2158C27.453 24.2158 27.3196 24.2158 27.1862 24.2102C26.8416 24.2047 26.5026 24.1769 26.1524 24.1324C25.9134 24.1102 25.6744 24.0768 25.4354 24.0379C24.5795 23.8879 23.718 23.6433 22.8788 23.2431C22.1952 22.9375 21.5338 22.5317 20.889 22.0204C19.2606 20.7143 17.7877 18.7079 16.7039 15.6621C15.2311 11.5381 15.4033 8.21447 17.2264 5.76897C17.432 5.49107 17.6654 5.22429 17.9155 4.96863C18.627 5.38547 19.1272 5.98017 19.4551 6.81387C19.3439 6.93614 19.2383 7.06953 19.1383 7.19736C17.8322 8.95367 17.771 11.527 18.9604 14.8506C19.0827 15.2064 19.2217 15.5398 19.355 15.8622C19.4884 16.1846 19.6329 16.4902 19.7775 16.7793C19.8441 16.9182 19.9164 17.046 19.9887 17.1739C19.9887 17.1794 19.9942 17.1961 19.9998 17.2017C20.1498 17.474 20.3055 17.7352 20.4666 17.9798C20.6334 18.2188 20.789 18.4522 20.9613 18.669C21.0447 18.769 21.128 18.8802 21.217 18.9858C21.3893 19.1858 21.5615 19.3748 21.7394 19.5527C21.895 19.7083 22.0562 19.8528 22.2174 19.9917C23.0955 20.7365 24.0237 21.2089 24.9741 21.4924C25.5744 21.6647 26.1802 21.7647 26.7805 21.8092C26.8305 21.8148 27.3363 21.837 27.5308 21.837C27.9532 21.837 28.3811 21.8148 28.7869 21.7758C29.9429 21.6591 32.6719 21.0867 33.8724 20.7976C36.1678 20.2474 39.0524 19.3804 41.7536 18.191C42.1482 18.0131 42.5428 17.8353 42.9318 17.6519C43.6044 17.3184 44.2546 16.9738 44.8771 16.5958C45.6664 16.9793 46.4111 17.474 47.0725 18.0409L47.0669 18.0465Z" fill="#F9F9F9"/>
</svg>
