<svg xmlns="http://www.w3.org/2000/svg" viewBox="0 0 676.42 182.16"><defs><style>.cls-1{fill:#80d8d0;}</style></defs><title>Ресурс 53-0</title><g id="Слой_2" data-name="Слой 2"><g id="Слой_2-2" data-name="Слой 2"><path class="cls-1" d="M83.21,45.06V139q0,19.78-10,31.47T45.54,182.16H38.39q-18.84,0-28.61-11.08T0,139V45.3Q0,0,38.15,0H45.3Q83.22,0,83.21,45.06ZM50.07,140V42.68Q50.07,31,41.73,31q-8.59,0-8.59,11.68V140q0,10.5,8.82,10.49Q50.08,150.45,50.07,140Z"/><path class="cls-1" d="M92.51,2.15h29.81L144,92.75V2.15h28.14V179.54H145.21L120.65,82.26v97.28H92.51Z"/><path class="cls-1" d="M182.16,2.15h66.28V33.38H213.87V72h27.18V104H213.87v43.63h36.24v31.95h-68Z"/><path class="cls-1" d="M652.34,2.15H614.67l-1.9,15.05a12.68,12.68,0,0,1,1.07-.69c2.68-1.57,5.13-3.3,10.54.51s17.36,7,25.77,7.61,3.86,3.16.44,5.22c-3.26,2-23.46,10.43-35.44,14.18-2.37.74-5.45,2.56-6.28,4s-16.62,131.48-16.62,131.48h28.14l2.86-29.8h19.08l3.33,29.8h30.76Zm-26,117.07,6.2-60.8,6.68,60.8Z"/><path class="cls-1" d="M577.74,3a72.68,72.68,0,0,0,10,6.67V2.15H576.61Z"/><path class="cls-1" d="M578.93,66.46c4.44-3.17,8.17-8.06,8.8-11.16s.37-16.78,0-19.61S584,27.06,581.62,24.3c-7.57-8.78-9.27-20.2-9.27-20.2a9.07,9.07,0,0,1,0-1.95H556V77.23A74.48,74.48,0,0,0,578.93,66.46Z"/><path class="cls-1" d="M559.19,132.33c-1.06.87-2.12,1.7-3.18,2.52v44.69h31.72v-81A117.62,117.62,0,0,1,559.19,132.33Z"/><path class="cls-1" d="M499.08,161.24a34.71,34.71,0,0,0-7.71,2.49s3,2.68,6.29,5.6,6.3,8.78-3,8.72-18.77-2.83-23.69-5.87c-1.58-1-2.85-1.93-4.12-2.76v10.12h45.07q18.6,0,26.58-9.77,7.69-9.44,8-28.17A149.73,149.73,0,0,1,499.08,161.24Z"/><path class="cls-1" d="M498.55,86.14V30.28h7.16c3,0,5.16.92,6.44,2.74s1.9,4.89,1.9,9.18V81.8c1.86-.2,3,.06,5.51,0a151.56,151.56,0,0,0,26.92-2.35V40.06q0-20-8.23-29T511.91,2.15H466.84V95.41C479,91.73,491,88.35,498.55,86.14Z"/><path class="cls-1" d="M455.86,166.76c-12.63.63-21.19.65-39,.11-8.11-.25-15.37-.62-20.23-2a38.34,38.34,0,0,1-4.93-1.72v16.35h67.95V166.83A26.16,26.16,0,0,0,455.86,166.76Z"/><path class="cls-1" d="M396.61,120.15c2.14-.63,14.33-1.89,26.84-8.57V104H440.5c3.14-1.13,6.56-2.3,10.13-3.47V72H423.45V33.38H458V2.15H391.74V122.3A15.82,15.82,0,0,1,396.61,120.15Z"/><path class="cls-1" d="M281.82,179.54h27.66v-6.41c-.81.18-1.63-.28-2.48-.08-1.68.38-3.58,1.67-5.33,2.08s-.86-.56-5.17.33c-2,.43-4.05,1.84-5.83,2.25-2.44.57-4.26.3-5.84.67A11.41,11.41,0,0,0,281.82,179.54Z"/><path class="cls-1" d="M309.48,169.27V74.63l13.8,90.61c1.9-.56,2.72-1.05,4.64-1.61,1.51-.44,4.16-.39,5.66-.83s2.75-1.84,4.17-2.25c.82-.24,1.7,0,2.52-.28l12.84-85.64v81.89c1.41-.42,3,0,4.35-.35,1.81-.53,3.34-2.39,5-2.87,2.17-.64,4.26-.08,6.12-.63,2.76-.81,4.56-2.56,6.5-3.12a32.14,32.14,0,0,1,6-1.21,64.57,64.57,0,0,1,.63-6.62V2.15H345.25L333.08,91.8,320.92,2.15h-39.1V177.33c1.09-.31,2.27-.81,3.6-1.2,1.59-.46,3.61-.28,5.5-.83s3.4-1.75,5.41-2.34c1.78-.51,3.92-.19,5.84-.75,1.67-.49,3.07-2,4.83-2.5C307.78,169.49,308.69,169.5,309.48,169.27Z"/><path class="cls-1" d="M324,169.84l1.48,9.7h11.92l2-13.19c-.46.11-1.22-.24-1.68-.14-1.3.3-2.28,1.37-3.59,1.67-1.64.37-3.43-.12-5.08.25S325.69,169.46,324,169.84Z"/><path class="cls-1" d="M353.11,163.22v16.32h28.62V156.68c-1.07.24-3.09,0-5.4.49-2,.45-3.94,2.26-6.62,2.88-1.81.41-4-.48-6.13,0-1.9.43-3.91,2-6,2.5C356.08,162.89,354.69,162.86,353.11,163.22Z"/><path class="cls-1" d="M542.35,163,508,159.15a7,7,0,0,0,4.75-3.25c1.22-2.2.75-6.11,1-10.54,0,0-.26-15.59-.17-30.25.16-25.45.45-57.36.45-57.36l32.42,0,.11,80.44C546.79,157.4,542.35,163,542.35,163Z"/></g></g></svg>