<svg width="100" height="39" viewBox="0 0 100 39" fill="none" xmlns="http://www.w3.org/2000/svg">
<path d="M26.7115 3.19268C26.7115 4.89869 25.2275 6.38536 23.4466 6.38536C21.6904 6.38536 20.1816 4.94743 20.1816 3.19268C20.1816 1.43792 21.6657 0 23.4466 0C25.3017 0 26.7115 1.43792 26.7115 3.19268Z" fill="#FF2400"/>
<path d="M20.1816 9.06793C20.1816 8.33679 20.8247 7.70312 21.5915 7.70312H25.3017C26.0437 7.70312 26.7115 8.33679 26.7115 9.06793V24.0077H20.1816V9.06793Z" fill="#FF2400"/>
<path d="M48.5547 10.4322C48.5547 9.70104 49.1978 9.06738 49.9646 9.06738H58.2753C59.0174 9.06738 59.6852 9.70104 59.6852 10.4322V13.308C59.6852 14.0392 59.0421 14.6728 58.2753 14.6728H49.9646C49.2225 14.6728 48.5547 14.0392 48.5547 13.308V10.4322Z" fill="#FF2400"/>
<path d="M46.6694 8.7494C46.6694 3.87508 42.5635 0 37.5671 0C32.5708 0 28.4896 3.87508 28.3906 8.70066V24.006H35.1926V8.87126C35.1926 7.50645 36.3304 6.36099 37.6661 6.36099C39.0759 6.36099 40.1395 7.45771 40.1395 8.87126V24.006H46.6694V23.4455V8.7494Z" fill="#FF2400"/>
<path d="M6.57678 24.006H0.046875V9.60241C0.046875 6.92153 0.689972 4.8012 2.12457 3.14394C2.99028 2.12033 4.00439 1.36481 5.24112 0.828634C6.57678 0.268088 7.8135 0 9.12443 0C11.771 0 13.9477 0.828634 15.7285 2.58339C17.5094 4.31377 18.3504 6.45847 18.3504 8.96875C18.3504 11.479 17.4847 13.575 15.7038 15.3541C13.9477 17.1089 11.87 18.035 9.39651 18.035C9.02549 18.035 8.43186 18.035 7.78877 17.9375V10.8941C8.25872 11.1622 8.75341 11.3572 9.19863 11.3572C9.84173 11.3572 10.4354 11.0891 10.9053 10.626C11.3753 10.163 11.6473 9.52929 11.6473 8.87126C11.6473 8.14011 11.3753 7.57957 10.9053 7.1165C10.4354 6.65344 9.86646 6.38536 9.12443 6.38536C7.41775 6.38536 6.55204 7.48208 6.55204 9.79738V24.006H6.57678Z" fill="#FF2400"/>
<path d="M88.2272 24.006H81.6973V9.60241C81.6973 6.92153 82.3404 4.8012 83.775 3.14394C84.6407 2.12033 85.6548 1.36481 86.8915 0.828634C88.2272 0.268088 89.4639 0 90.7501 0C93.3967 0 95.5733 0.828634 97.3542 2.58339C99.1351 4.33814 100.001 6.45847 100.001 8.96875C100.001 11.479 99.1351 13.575 97.3542 15.3541C95.5981 17.1089 93.5204 18.035 91.0469 18.035C90.6759 18.035 90.0823 18.035 89.4392 17.9375V10.8941C89.9091 11.1622 90.4038 11.3572 90.849 11.3572C91.4921 11.3572 92.0858 11.0891 92.5557 10.626C93.0257 10.163 93.2977 9.52929 93.2977 8.87126C93.2977 8.14011 93.0257 7.57957 92.5557 7.1165C92.0858 6.65344 91.5169 6.38536 90.7748 6.38536C89.0681 6.38536 88.2024 7.48208 88.2024 9.79738V24.006H88.2272Z" fill="#FF2400"/>
<path d="M61.4902 15.3297V0.268088V0H68.3912V15.1591C68.3912 16.5239 69.43 17.6694 70.8646 17.6694C72.2003 17.6694 73.338 16.5727 73.338 15.1591V0H79.8679V15.2322C79.8679 20.1066 75.6878 24.006 70.6915 24.006C65.6951 24.006 61.5892 20.1309 61.4902 15.3297Z" fill="#FF2400"/>
<path d="M26.1697 30.7607L25.1309 33.3198H27.2086L26.1697 30.7607Z" fill="#00CFA6"/>
<path d="M16.127 32.3689H16.9679C17.8584 32.3689 18.3531 31.9302 18.3531 31.1747C18.3531 30.4192 17.8831 30.0049 16.9679 30.0049H16.127V32.3689Z" fill="#00CFA6"/>
<path d="M35.0488 29.9541H35.8156C36.6071 29.9541 37.0771 30.344 37.0771 31.0265C37.0771 31.7089 36.5824 32.0988 35.7909 32.0988H35.0488V29.9541Z" fill="#00CFA6"/>
<path d="M73.1641 29.9541H73.9308C74.7223 29.9541 75.1923 30.344 75.1923 31.0265C75.1923 31.7089 74.6976 32.0988 73.9061 32.0988H73.1641V29.9541Z" fill="#00CFA6"/>
<path fill-rule="evenodd" clip-rule="evenodd" d="M99.9768 26.7871H0V32.6119C0 35.6096 2.47345 38.0468 5.54052 38.0468H94.461C97.5033 38.0468 100.002 35.6096 100.002 32.6119V26.7871H99.9768ZM85.7545 34.0011C85.7545 35.3415 84.7403 36.1945 83.1573 36.1945C81.7227 36.1945 80.8818 35.6096 80.5355 34.3667L81.7722 33.928C82.0195 34.7079 82.44 35.0003 83.2315 35.0003C83.9488 35.0003 84.3941 34.6348 84.3941 34.0498C84.3941 33.4893 84.0972 33.1968 82.8853 32.9044C81.4259 32.5388 80.7581 31.8808 80.7581 30.6866C80.7581 29.468 81.6733 28.6637 83.1573 28.6637C84.3693 28.6637 85.1361 29.1511 85.4824 30.1504L84.2704 30.6378C84.122 30.1016 83.751 29.8579 83.1079 29.8579C82.4895 29.8579 82.0938 30.1504 82.1185 30.6134C82.1185 31.1496 82.44 31.369 83.7262 31.7102C85.1361 32.0757 85.7545 32.7581 85.7545 34.0011ZM29.7556 36.0483H28.321L27.6779 34.4642H24.6355L23.9924 36.0483H22.5826L25.8475 28.6637H26.4659L29.7556 36.0483ZM17.0173 28.7856C18.7735 28.7856 19.7381 29.663 19.7381 31.1252C19.7381 32.6119 18.7487 33.5624 17.0173 33.5624H16.1269V36.0483H14.717V28.7856H17.0173ZM37.1759 36.0483H38.7342L37.0275 33.0019C37.9427 32.6607 38.4869 31.9295 38.4869 30.9303C38.4869 29.5898 37.5222 28.7856 35.9639 28.7856H33.6389V36.0483H35.0488V33.1725H35.6177L37.1759 36.0483ZM42.0734 28.7856H48.0096V30.0773H45.7341V36.0483H44.3242V30.0773H42.0486V28.7856H42.0734ZM56.8398 28.7856V33.3674L52.6844 28.7125H52.0661V36.0483H53.4265V31.4421L57.5819 36.097H58.2002V28.7856H56.8398ZM64.4333 32.9287V34.8297H67.3767V36.0239H63.0235V28.7612H67.2531V29.9554H64.4333V31.6858H66.981V32.9044H64.4333V32.9287ZM75.267 36.0483H76.8253L75.1186 33.0019C76.0338 32.6607 76.578 31.9295 76.578 30.9303C76.578 29.5898 75.6133 28.7856 74.055 28.7856H71.73V36.0483H73.1399V33.1725H73.7088L75.267 36.0483Z" fill="#00CFA6"/>
</svg>
