<svg width="25" height="31" viewBox="0 0 25 31" fill="none" xmlns="http://www.w3.org/2000/svg">
<g id="Group">
<path id="Vector" d="M18.5804 11.8075L21.4534 13.6273C21.4534 13.6273 21.4576 13.6305 21.4592 13.6314L21.4625 13.633C22.1855 14.1301 22.6576 14.9508 22.6576 15.8836C22.6576 16.5699 22.4001 17.1956 21.9752 17.6764C23.2481 16.3824 24.0299 14.6223 24.0299 12.6797C24.0299 10.0663 22.6112 7.77963 20.4911 6.52247L12.051 1.18916C10.5619 0.304644 8.72658 -0.0737325 6.79358 0.298911C3.38971 0.956565 0.969727 3.94836 0.969727 7.36194V19.6682C0.979665 19.6281 0.989603 19.5871 0.999542 19.5462C1.00534 19.5249 1.01031 19.5027 1.01611 19.4806C1.02687 19.4389 1.03764 19.3963 1.04923 19.3529C1.05503 19.3324 1.06 19.3111 1.0658 19.2906C1.07988 19.2366 1.09478 19.1817 1.10969 19.126C1.11218 19.1162 1.11466 19.1064 1.11714 19.0965C1.13454 19.0318 1.15276 18.9655 1.17181 18.8991C1.1776 18.8795 1.1834 18.859 1.18837 18.8394C1.20162 18.7919 1.2157 18.7435 1.22978 18.6952C1.2364 18.6706 1.24386 18.6461 1.25131 18.6215C1.26456 18.574 1.27864 18.5265 1.29272 18.479C1.29935 18.4561 1.30597 18.4323 1.31343 18.4094C1.33082 18.3512 1.34821 18.2923 1.36643 18.2325C1.37057 18.2202 1.37388 18.2071 1.37803 18.1948C1.39956 18.1227 1.42192 18.0498 1.44511 17.977C1.45173 17.9565 1.45836 17.9352 1.46499 17.9139C1.48155 17.8607 1.49811 17.8066 1.51551 17.7526C1.52379 17.7263 1.53207 17.7001 1.54035 17.6731C1.55692 17.6215 1.57348 17.5707 1.59004 17.5183C1.59833 17.4929 1.60661 17.4667 1.61489 17.4413C1.63477 17.3799 1.65464 17.3185 1.67535 17.2571C1.68032 17.2415 1.68529 17.2259 1.69025 17.2104C1.71593 17.1326 1.7416 17.0548 1.7681 16.9761C1.77473 16.9557 1.78218 16.9344 1.78881 16.9139C1.80869 16.8557 1.82856 16.7968 1.84844 16.7378C1.85755 16.71 1.86749 16.6821 1.8766 16.6543C1.89482 16.6002 1.91387 16.5462 1.93209 16.4913C1.9412 16.4643 1.95114 16.4364 1.96025 16.4094C1.98178 16.3472 2.00331 16.2849 2.02567 16.2218C2.0323 16.2022 2.03892 16.1834 2.04555 16.1637C2.07454 16.0818 2.10352 15.9999 2.13251 15.918C2.13914 15.8992 2.14576 15.8803 2.15321 15.8607C2.17558 15.7976 2.19877 15.7337 2.22195 15.6698C2.23272 15.6412 2.24266 15.6117 2.25343 15.583C2.2733 15.5273 2.29401 15.4716 2.31471 15.4151C2.32548 15.3865 2.33625 15.357 2.34701 15.3275C2.3702 15.2644 2.39339 15.2022 2.41658 15.1391C2.42486 15.1178 2.43232 15.0965 2.4406 15.0753C2.47207 14.9909 2.50354 14.9074 2.53501 14.823C2.54164 14.805 2.54826 14.787 2.55572 14.7698C2.58139 14.7026 2.60706 14.6355 2.63274 14.5675C2.6435 14.5396 2.65427 14.5118 2.66504 14.4839C2.6874 14.425 2.71059 14.3668 2.73295 14.3078C2.74454 14.2792 2.75531 14.2505 2.76691 14.221C2.79092 14.158 2.81577 14.0957 2.84061 14.0327C2.84972 14.0097 2.85883 13.9868 2.86795 13.9631C2.9019 13.8779 2.93503 13.7927 2.96898 13.7075C2.97478 13.6928 2.98058 13.678 2.9872 13.6633C3.01536 13.5929 3.04352 13.5224 3.07251 13.452C3.0841 13.4242 3.09487 13.3963 3.10646 13.3685C3.13048 13.3095 3.1545 13.2513 3.17769 13.1924C3.18928 13.1629 3.20171 13.1342 3.2133 13.1047C3.23898 13.0425 3.26465 12.9803 3.29032 12.9172C3.29943 12.8943 3.30937 12.8713 3.31848 12.8484C3.35409 12.7632 3.38971 12.678 3.42532 12.5929C3.42946 12.5822 3.43443 12.5716 3.4394 12.5609C3.47087 12.4872 3.50151 12.4135 3.53298 12.3398C3.54458 12.3136 3.55535 12.2874 3.56694 12.2612C3.59179 12.2022 3.61746 12.1441 3.64231 12.0859C3.65473 12.0572 3.66715 12.0286 3.67957 11.9999C3.70608 11.9401 3.73175 11.8795 3.75825 11.8197C3.76902 11.796 3.77896 11.7722 3.78972 11.7485C3.82616 11.6658 3.86261 11.583 3.89987 11.5003C3.90319 11.4921 3.90733 11.4848 3.91064 11.4766C3.94377 11.4021 3.9769 11.3283 4.01085 11.2546C4.02245 11.2292 4.03321 11.2047 4.04481 11.1801C4.07048 11.1228 4.09698 11.0663 4.12266 11.0089C4.13508 10.9811 4.14833 10.9532 4.16075 10.9262C4.18726 10.8689 4.21293 10.8124 4.23943 10.7559C4.2502 10.7321 4.26179 10.7084 4.27256 10.6846C4.30983 10.6052 4.3471 10.5257 4.38437 10.4471C4.3852 10.4455 4.38602 10.4438 4.38685 10.4422C4.42329 10.366 4.45973 10.2899 4.49617 10.2145C4.50777 10.1908 4.51936 10.167 4.53096 10.1433C4.55746 10.0892 4.58313 10.0351 4.60964 9.98191C4.62206 9.9557 4.63531 9.92949 4.64773 9.90329C4.67423 9.85005 4.69991 9.79764 4.72641 9.7444C4.738 9.72147 4.7496 9.69772 4.76119 9.67479C4.79764 9.6019 4.83408 9.52982 4.87052 9.45857C4.87052 9.45693 4.87217 9.45529 4.873 9.45366C4.91027 9.37995 4.94754 9.30787 4.98563 9.23498C4.9964 9.21369 5.00717 9.19322 5.01793 9.17274C5.04444 9.12196 5.07094 9.07119 5.09744 9.02041C5.10986 8.99584 5.12312 8.97209 5.13554 8.94752C5.16121 8.8992 5.18689 8.85087 5.21256 8.80337C5.22415 8.78126 5.23658 8.75915 5.24817 8.73703C5.2813 8.67561 5.31526 8.615 5.34838 8.5544C5.3517 8.54785 5.35584 8.54129 5.35915 8.53474C5.39642 8.4684 5.43286 8.40288 5.4693 8.33818C5.48007 8.31935 5.49083 8.30051 5.5016 8.28167C5.5281 8.23581 5.55378 8.18994 5.58028 8.14572C5.5927 8.12361 5.60595 8.10231 5.61837 8.0802C5.64322 8.03761 5.66807 7.99502 5.69291 7.95325C5.70451 7.93278 5.71693 7.91312 5.72852 7.89265C5.75917 7.84187 5.78981 7.79109 5.82045 7.74113C5.82625 7.73213 5.83122 7.72312 5.83702 7.71411C5.87263 7.65596 5.90907 7.59863 5.94468 7.54294C5.95462 7.52656 5.96456 7.511 5.97533 7.49544C6.001 7.4553 6.02667 7.41599 6.05152 7.37668C6.06394 7.35784 6.07636 7.33901 6.08879 7.32017C6.09955 7.30379 6.11032 7.28659 6.12109 7.27103C6.13103 7.25629 6.14014 7.24318 6.15007 7.22844C6.17161 7.19732 6.19231 7.1662 6.21302 7.1359C6.23124 7.10969 6.24946 7.08348 6.26685 7.05809C6.28755 7.02861 6.30909 6.99912 6.32979 6.96964C6.34718 6.94507 6.3654 6.9205 6.3828 6.89593C6.4035 6.86726 6.42421 6.83942 6.44491 6.81239C6.4623 6.78946 6.47969 6.76571 6.49709 6.7436C6.51779 6.71657 6.53767 6.69118 6.55837 6.66497C6.57577 6.64286 6.59316 6.62157 6.60972 6.60027C6.63043 6.57488 6.6503 6.55113 6.67018 6.52656C6.68674 6.50609 6.70413 6.48643 6.7207 6.46678C6.7414 6.44302 6.76128 6.42091 6.78116 6.39798C6.79772 6.37996 6.81346 6.36112 6.83002 6.34393C6.85073 6.32181 6.8706 6.30052 6.89048 6.28004C6.90621 6.26366 6.92195 6.24728 6.93686 6.23172C6.95756 6.21125 6.97744 6.19159 6.99814 6.17194C7.01057 6.15965 7.02382 6.14655 7.03624 6.13508C7.03873 6.13262 7.04038 6.13099 7.04287 6.12853C7.05529 6.11788 7.06688 6.10642 7.07848 6.09577C7.10084 6.07448 7.1232 6.054 7.14639 6.03434C7.14639 6.03434 7.14805 6.03353 7.14887 6.03271C7.14887 6.03271 7.1497 6.03189 7.15053 6.03107C7.76091 5.52165 8.62886 5.50282 9.32288 5.93688L18.1605 11.5364L18.5813 11.8034L18.5804 11.8075Z" fill="white"/>
<path id="Vector_2" d="M21.246 13.9843L18.8715 12.479C18.8765 12.5314 18.879 12.5855 18.8798 12.6403C18.8914 13.3127 18.5891 13.8009 18.2976 14.1104C18.1527 14.2644 18.0069 14.3783 17.8976 14.4528C17.8429 14.4905 17.7957 14.5191 17.7609 14.5396C17.7435 14.5494 17.7295 14.5576 17.7187 14.5634C17.7129 14.5666 17.7087 14.5691 17.7054 14.5707H17.7046L4.94381 21.275C2.82032 22.4306 1.38672 24.6542 1.38672 27.2087V27.9417C1.38672 28.6796 1.4066 29.4175 1.44386 30.1562C1.51178 30.0784 1.58134 30.0014 1.65091 29.9253C1.8563 29.6984 2.04596 29.4691 2.24224 29.2324C2.33583 29.1194 2.43107 29.0047 2.52963 28.8876C2.8286 28.5338 3.14911 28.1759 3.52263 27.8475C4.25641 27.2046 5.10282 26.6534 5.89292 26.139C5.95006 26.1022 6.00638 26.0645 6.06353 26.0285C7.98825 24.7713 10.0604 23.7476 12.1069 22.7361C12.9442 22.3225 13.7765 21.9106 14.5939 21.4863L20.0741 18.6108C20.5975 18.3258 21.0795 17.9728 21.511 17.5666C21.9632 17.1399 22.2439 16.5461 22.2439 15.8852C22.2439 15.1014 21.853 14.4102 21.2468 13.9851L21.246 13.9843Z" fill="white"/>
<path id="Vector_3" d="M3.80854 12.7486C2.75922 15.2375 1.84904 17.8632 1.4043 19.6347L6.1192 17.0803V8.0459C5.98917 8.26129 5.85583 8.49143 5.72001 8.73631C5.08561 9.87963 4.42554 11.2842 3.80854 12.7478V12.7486Z" fill="white"/>
</g>
</svg>
