<svg width="190" height="50" viewBox="0 0 190 50" fill="none" xmlns="http://www.w3.org/2000/svg">
<rect x="4" y="9.05469" width="32.6317" height="32.6317" rx="9.44589" fill="#3C4DE4"/>
<path d="M12.5156 25.0942L17.9515 20.6797L17.9515 28.2508L12.5156 34.5883L12.5156 25.0942Z" fill="white"/>
<path d="M19.0566 37.0827L12.5156 34.5824L19.0724 30.7969L27.2788 32.3357L19.0566 37.0827Z" fill="white"/>
<path d="M17.7265 13.6562H10.9023L24.9409 27.6948H31.765L17.7265 13.6562Z" fill="white"/>
<path d="M46.3169 36.7839H43.9517V25.6289C43.9517 20.8026 47.8511 16.9031 52.6775 16.9031C57.5358 16.9031 61.4352 20.8026 61.4352 25.6289C61.4352 30.4553 57.5358 34.3867 52.6775 34.3867C50.1844 34.3867 47.915 33.332 46.3169 31.6379V36.7839ZM46.3169 25.6289C46.3169 29.1448 49.1616 32.0215 52.6775 32.0215C56.2253 32.0215 59.07 29.1448 59.07 25.6289C59.07 22.1131 56.2253 19.2684 52.6775 19.2684C49.1616 19.2684 46.3169 22.1131 46.3169 25.6289ZM63.0856 25.6289C63.0856 20.8026 66.985 16.9031 71.8114 16.8712V19.2364C68.2955 19.2684 65.4508 22.1131 65.4508 25.6289V34.2269H63.0856V25.6289ZM82.2374 16.9031C87.0638 16.9031 90.9633 20.8026 90.9633 25.6289C90.9633 30.4553 87.0638 34.3867 82.2374 34.3867C77.4111 34.3867 73.4797 30.4553 73.4797 25.6289C73.4797 20.8026 77.4111 16.9031 82.2374 16.9031ZM82.2374 32.0215C85.7533 32.0215 88.598 29.1448 88.598 25.6289C88.598 22.1131 85.7533 19.2684 82.2374 19.2684C78.7216 19.2684 75.8449 22.1131 75.8449 25.6289C75.8449 29.1448 78.7216 32.0215 82.2374 32.0215ZM110.065 31.5101L110.097 34.2269H107.7V31.5101C107.7 27.9942 104.855 25.1495 101.339 25.1495C97.8555 25.1495 95.0108 27.9942 95.0108 31.5101V34.2269H92.6136V31.5101C92.6136 28.2818 94.3715 25.4691 96.9925 23.9349C94.5633 22.5286 92.9012 20.0035 92.6455 17.0949H95.0427C95.3943 20.2592 98.0792 22.7523 101.339 22.7523C104.632 22.7523 107.316 20.2592 107.668 17.0949H110.033C109.809 20.0035 108.147 22.5286 105.718 23.9349C108.339 25.4691 110.033 28.2818 110.065 31.5101ZM126.835 25.6289V17.0949H129.2V36.752H126.835V31.6379C125.236 33.332 122.967 34.3867 120.474 34.3867C115.648 34.3867 111.716 30.4553 111.716 25.6289V17.0949H114.082V25.6289C114.082 29.1768 116.958 32.0215 120.474 32.0215C123.99 32.0215 126.835 29.1448 126.835 25.6289ZM139.64 26.8116V24.4463H148.27C148.302 24.8299 148.334 25.2454 148.334 25.6289C148.334 30.4553 144.434 34.3867 139.608 34.3867C134.782 34.3867 130.85 30.4553 130.85 25.6289C130.85 20.8026 134.782 16.9031 139.608 16.9031C143.156 16.9031 146.224 19.0127 147.599 22.0811H144.914C143.763 20.3871 141.813 19.2684 139.608 19.2684C136.092 19.2684 133.215 22.1131 133.215 25.6289C133.215 29.1448 136.092 32.0215 139.608 32.0215C142.708 32.0215 145.297 29.7841 145.873 26.8116H139.64ZM167.468 25.6289V34.2269H165.102V31.6379C163.504 33.332 161.235 34.3867 158.742 34.3867C153.915 34.3867 149.984 30.4553 149.984 25.6289C149.984 20.8026 153.915 16.9031 158.742 16.9031C163.568 16.9031 167.468 20.8026 167.468 25.6289ZM158.742 32.0215C162.258 32.0215 165.102 29.1448 165.102 25.6289C165.102 22.1131 162.258 19.2684 158.742 19.2684C155.226 19.2684 152.349 22.1131 152.349 25.6289C152.349 29.1448 155.226 32.0215 158.742 32.0215ZM186.57 25.6929V34.2269H184.204V25.6929C184.204 22.177 181.36 19.3003 177.844 19.3003C174.328 19.3003 171.483 22.177 171.483 25.6929V34.2269H169.118V25.6289C169.118 20.8026 173.017 16.9351 177.844 16.9351C182.67 16.9351 186.57 20.8665 186.57 25.6929Z" fill="white"/>
</svg>
