<?xml version="1.0" encoding="UTF-8"?>
<svg id="Layer_1" data-name="Layer 1" xmlns="http://www.w3.org/2000/svg" xmlns:xlink="http://www.w3.org/1999/xlink" viewBox="0 0 854.37 239.75">
  <defs>
    <style>
      .cls-1 {
        clip-path: url(#clippath);
      }

      .cls-2, .cls-3 {
        fill: #ffc737;
      }

      .cls-4 {
        clip-path: url(#clippath-4);
      }

      .cls-5 {
        clip-path: url(#clippath-2);
      }

      .cls-6 {
        clip-path: url(#clippath-8);
      }

      .cls-7 {
        clip-path: url(#clippath-6);
      }

      .cls-8 {
        isolation: isolate;
      }

      .cls-9 {
        fill: #f8e82f;
      }

      .cls-9, .cls-3 {
        stroke-width: 0px;
      }
    </style>
    <clipPath id="clippath">
      <polygon class="cls-3" points="257.39 220.05 268.02 221.58 260.31 228.9 262.11 239.26 252.6 234.37 243.08 239.26 244.93 228.9 237.26 221.58 247.89 220.05 252.66 210.65 257.39 220.05"/>
    </clipPath>
    <clipPath id="clippath-2">
      <polygon class="cls-3" points="293.2 220.05 303.82 221.58 296.11 228.9 297.91 239.26 288.41 234.37 278.88 239.26 280.74 228.9 273.07 221.58 283.69 220.05 288.46 210.65 293.2 220.05"/>
    </clipPath>
    <clipPath id="clippath-4">
      <polygon class="cls-3" points="329 220.05 339.63 221.58 331.92 228.9 333.72 239.26 324.21 234.37 314.69 239.26 316.54 228.9 308.87 221.58 319.5 220.05 324.27 210.65 329 220.05"/>
    </clipPath>
    <clipPath id="clippath-6">
      <polygon class="cls-3" points="365.12 220.05 375.75 221.58 368.04 228.9 369.84 239.26 360.33 234.37 350.81 239.26 352.66 228.9 344.99 221.58 355.62 220.05 360.39 210.65 365.12 220.05"/>
    </clipPath>
    <clipPath id="clippath-8">
      <polygon class="cls-3" points="401.21 220.05 411.84 221.58 404.13 228.9 405.93 239.26 396.43 234.37 386.9 239.26 388.76 228.9 381.08 221.58 391.71 220.05 396.48 210.65 401.21 220.05"/>
    </clipPath>
  </defs>
  <g>
    <path class="cls-9" d="m671.81,80.33h22.95l15-23.42s-15.05,13.15-32.64,14.82c.34-.06-5.31,8.6-5.31,8.6Z"/>
    <path class="cls-3" d="m248.57,186.93c-35.42,4.06-70.5,10-105.42,16.66-25.48,4.86-49.53,13.89-76,11.71-25.24-2.08-50.19-14.22-57.57-37.29-7.59-23.72,5.33-55.56,33.94-61.65,4.94-1.05,10.08-1.24,15.12-.66,10.2,1.18,20.44,5.72,27.84,12.05,29.11,24.89,57.08,42.73,99.53,29.19,41.65-12.12,64.33-54.35,35.34-74.56-15.87-9.9-34.88-11.53-53.62-13.57-15.8-1.21-46.93-9.65-52.77-15.56-7.34-7.8-12.43-17.23-6.55-26.75,10.21-16.53,34.81-21.3,54.16-17.42,13.58,2.72,23.11,6.69,33.97,14.98,10.62,8.1,16.64,15.87,20.4,27.58,5.17-6.4,10.33-12.8,15.5-19.2.38-.47,1.06-1.04.79-1.57C218.86,3.75,172.82-3.08,141.94,2.25c-5.24.9-10.41,2.11-15.46,3.63-17.37,5.25-33.37,17.9-37.45,34.17-.38,1.5-.66,3.02-.86,4.55-.74,42.78,59.18,40.39,93.22,47.16,5.73,1.14,11.32,2.9,16.57,5.44,10.47,5.05,26.04,17.72,13.59,37.73-12.87,17.47-37.84,14.29-56.19,7.97-6.41-2.21-12.59-5.12-18.3-8.79-5.59-3.59-10.41-8.14-15.69-12.14-10.88-8.25-23.09-15.18-36.38-18.63-7.2-1.87-14.68-2.48-22.12-1.95-26.03,1.86-51.36,16.71-59.33,39.46-8.56,24.45-1.39,53.07,19.76,70.79,1.1.92,2.24,1.81,3.4,2.67,4.23,3.12,8.82,5.85,13.69,8.12,28.83,12.32,60.79,11.06,91.22,5.02,31.05-6.16,60.87-16.62,92.05-22.25,35.07-6.33,69.82-14.05,105.2-18.88,11.07-1.51,22.19-2.78,33.34-3.72,144.27-12.81,280.96,6.83,416.48,52.54,15.72.58,58.13-.34,75.69-.36-98.99-37.23-223.44-51.5-329.69-58.61-92.66-4.24-182.95.09-276.11,10.77Z"/>
    <path class="cls-3" d="m468.77,104.21c-10.39-13.47-8.31-13.52-.62-22.78-.05-5.18-6.22-3.18-8.74,2.02-7.2,10.84-21.81,20.36-31.89,29.29-12.02,8.38-60.98,58.38-42.9,12.83,0,0,36.35-60.89,36.35-60.89h18.64l3.91-7.82h-18.42l17.2-26.58-23.17.97-26.13,42.52c-14.56,23.56-12.82,26.5-41.68,40.53,19.89-40.99-29.49-32.06-48.2-6.28-13.54,12.49-27.13,34.4-42.63,35.74-7.31-4.04,1.22-27.76,4.82-32.12,8.59-7.67,14.99-13.46,19.27-17.38,27.3-28.18,51.93-51.44,58.6-83.47-29.25-34.37-94.79,78.24-100.7,107.88-18.11,53.64,17.15,51.54,44.92,13.05-5.75,13.14-5.34,29.28,13.83,28.49,17.01.18,37.9-24.44,47.28-40.41,8.57-1.5,18.27-7.88,24.26-12.51-8.49,18.6-24.97,48.35-.4,53.08,20.65-5.38,58.75-49.04,80.07-61.84,1.37,19.64-6.31,67.99-33.52,51.02,13.16,4.45,17.54-18.07,2.43-17-25.32,4.01-5.77,30.38,12.71,27.25,25.54.15,56.65-30.97,34.7-55.58Zm-174.94-53.17c14.72-23.85,37.15-49.97,43.13-36.93-.38,19.46-52.87,78.55-69.97,89.79,3.99-13.2,12.94-30.82,26.84-52.87Zm19.38,93.3c-14.43-3.66,10.81-35.88,12.67-36.72,3.29,6.2,8.93,9.69,16.86,10.44-10.31,17.55-20.14,26.29-29.54,26.29Zm35.64-37.29c-1.73,9.36-7.99,7.16-13.78,3.27-17.1-13.52,24.97-29.28,13.78-3.27Z"/>
    <path class="cls-3" d="m828.69,150.64c-7.21.82-19.63,3.79-31.05,6.26,11.89-15.68,30.91-49.98,42.6-67.64-3.22-.48-11.92-1.03-16.3-.22-5.44,6.08-15.67,22.15-22.14,31.08-9.22,10.83-13.52,22.77-26,27.86-10.9-1.87-.48-13.53,4.51-25.32,4.79-9.29,8.69-16.33,11.91-21.49,5.53-16.94-13.75-14.96-26.28-3.99-15.68,9.42-30.57,44.44-48.02,48.64-7.34-5.07.33-17.01,3.82-22.53,0,0,34.68-58.72,34.68-58.72h18.64l3.89-7.7h-18.4l17.2-26.68-23.17.95c-9.88,15.78-44.46,72.14-47.69,80.6-8.61,8.93-34.9,29.54-41.83,32.23-1.27,0-2.02-.94-1.33-2.12,5.67-14.68,14.39-31.18,26.15-49.48h-22.97c-.54,1.12-1.25,2.22-2.04,3.32,0-.04.02-.09.03-.13-8.94,11.09-24.65,27.44-48,40.86-39.75,22.85-47.92-3.67-40.69-28.28,5.75-19.6,16.63-47.03,50.8-81.42,14.61-14.71,41.79-27.3,50.15-16.74,5.14,6.5,1.48,24.01-13.46,31.38-5.66,2.79-1.8,5.96-.22,5.32,6.48-2.64,16.48-12.45,19.43-21.63,6.02-18.63-8.88-35.82-47.59-16.64-44.73,22.17-68.28,51.46-83.96,85.35-6.99,15.09-15.52,48.22.96,59.85,16.47,11.63,40.03,6.15,64.57-7.75,15.4-8.72,28.46-20.37,38.37-31.13-7.55,14.36-26.89,42.28-5.04,44.93,15.1-.02,37.48-25.24,49.34-34.35-14.83,30.75,4.41,50.8,35.58,17.44,6.31-6.61,26.57-34.64,28.33-36.51,3.64-3.07,6.37-7.25,7.56-3.66,0,.9-4.17,7.73-12.5,20.49-10.15,18.22-17.41,23.01-8.87,34.9,10.84,8.81,25.59,1.18,33.77-7.36,0,0-7.16,10.99-7.17,11.01-.64.98-5.32,1.86-6.54,2.27-2.52.84-5.04,1.68-7.54,2.55-5.19,1.81-10.36,3.77-15.17,6.3-9.05,4.76-16.55,11.97-15.69,21.95.12,1.44.49,2.69,1.02,3.8,8.19,1.77,16.33,3.63,24.38,5.61,9.25-2.45,15.35-7.87,20.74-15.79,4.09-6.01,7.69-12.34,11.4-18.54.37-.62,2.09-4.45,2.75-4.55,19.04-3.21,25.1-.48,35.13-.47,6.7-6.33,10.74-11.02,14.19-13.8,2.1-1.69-3.01-1.37-12.24-.3Zm-83.35,48.57c-5.11,0-7.98-2.14-7.39-6.48.69-5.03,3.47-8.06,7.03-10.9,3.53-2.81,7.52-5.09,11.74-6.94l17.19-7.54c-11.82,20.65-21.81,31.87-28.58,31.87Z"/>
    <path class="cls-9" d="m337.4,117.02c1.08.41,2.15.62,3.22.73-1.12-.19-2.2-.42-3.22-.73Z"/>
    <path class="cls-9" d="m124.35,10.13C158.1-.45,212.6,3.57,230.75,34.53c.69-1.17,2.53-2.34,2.47-3.66-24.03-40.93-120.39-42.42-142.42,3.98,6.77-11.66,19.71-20.54,33.54-24.72Z"/>
    <path class="cls-9" d="m60.73,105.64c29-2.8,52.86,15.83,74.19,32.72,21.94,13.55,63.39,24.83,77.18-4.39-17.22,23.92-53.73,12.93-75.05.14-16.1-12.13-31.86-26.01-52.07-30.77-29.88-7.91-68.12,6.81-80.06,34.08,10.43-18.37,32.84-30.14,55.81-31.78Z"/>
    <path class="cls-9" d="m248.57,186.93c-35.42,4.06-70.5,10-105.42,16.66-25.48,4.86-49.53,13.89-76,11.71-39.02-1.3-72.8-34.76-55.18-72.59-21.79,38.84,11.47,75.32,53.05,76.84,26.47,2.18,50.52-6.85,76-11.71,34.92-6.66,70-12.59,105.42-16.66,202.78-26.74,412.17-9.36,607.93,43.59-191.44-65.47-405.23-70.31-605.8-47.84Z"/>
    <path class="cls-9" d="m466.73,108.46c7.69,11.27,9.49,17.46,5.78,27.92,11.4-16.96-5.12-31.8-11.37-44.64-4.46,6.54-.83,5.81,5.59,16.72Z"/>
    <path class="cls-9" d="m431.06,109.74c-7.63,6.54-23.1,18.67-30.71,25.33-14.58,13.18-24.07,14.3-17.78-5.23-8.84,18.81-3.44,27.09,15.73,9.48,14.47-12.2,32.07-26.34,46.68-38.29,3.74-3.06,6.61-6.42,9.62-10.24,1.55-1.97,3.11-3.94,4.9-5.7.89-.87,4.04-3.09,5.28-1.8,1.85,1.9-3.61,7.66-4.61,9.1,2.01-1.62,4.04-3.24,5.81-5.12,1.43-1.51,2.75-3.33,2.84-5.41.05-1.14-.35-2.36-1.29-3.01-4.12-2.89-7.71,4.19-9.5,6.58-2.38,3.18-5.2,6.02-8.12,8.71-6.01,5.53-12.65,10.3-18.85,15.6Z"/>
    <path class="cls-9" d="m419.14,31.25l-26.13,42.52c-14.55,23.54-12.81,26.5-41.68,40.53,19.85-41.71-29.06-31.8-48.2-6.28-1.57,1.75-3.71,3.99-6.2,6.48-1.46,2.22-2.93,4.43-4.44,6.63,3.38-3.29,6.35-6.36,8.59-8.86,19.13-25.52,68.05-35.43,48.2,6.28,28.87-14.03,27.14-17,41.68-40.53,0,0,26.13-42.52,26.13-42.52l22.45-.94,2.77-4.28-23.17.97Z"/>
    <path class="cls-9" d="m431.08,141.64c1.01-12.75-19.85-11.33-21.45-.5,5.42-7.42,21.48-5.33,19.3,5.76,1.41-1.63,2.15-3.39,2.15-5.26Z"/>
    <polygon class="cls-9" points="441.4 61.11 443.52 56.86 425.81 56.86 423.06 61.11 441.4 61.11"/>
    <path class="cls-9" d="m330.55,8.08c11.59-1.4,12.06,5.34,9.72,13.23,4.09-8.7,6.15-19.47-8.06-17.64-32.56,2.08-75.69,72.41-87.07,106.4,11.8-32.9,54.39-100.55,85.41-101.99Z"/>
    <path class="cls-9" d="m369.4,113.97c.28-.57.73-1.4,1.33-2.44-1.01,1.19-1.47,2.9-2.21,4.24.3-.61.57-1.19.88-1.81Z"/>
    <path class="cls-9" d="m633.28,12.64c39.31-19.44,54.27-1.56,47.17,17.79,11.55-21.34-3.43-42.64-45.12-22.04-44.29,21.96-67.81,50.89-83.49,84.35,15.67-31.66,39.03-59.08,81.44-80.1Z"/>
    <path class="cls-9" d="m774.99,34.46l2.76-4.28-23.17.95c-9.88,15.78-44.45,72.11-47.69,80.59,8.28-15.78,36.81-62.24,45.64-76.34l22.46-.92Z"/>
    <polygon class="cls-9" points="776.8 61.11 778.94 56.86 761.24 56.86 758.5 61.11 776.8 61.11"/>
    <path class="cls-9" d="m666.9,92.35c-.54,1.12-1.25,2.22-2.04,3.32,0-.04.02-.09.03-.13-31.37,42.63-122.12,89.68-79.93-10.97-46.5,103.4,42.91,61.7,77.88,15.22,0,.04-.02.09-.03.13.79-1.1,1.49-2.21,2.04-3.32h22.34c.88-1.41,1.75-2.82,2.67-4.25h-22.97Z"/>
    <path class="cls-9" d="m653.23,118.96c-3.43,4.81-6.31,10.93-9.11,16.64,3.09-6.09,6.7-12.05,9.11-16.64Z"/>
    <path class="cls-9" d="m828.69,150.64c-6.95.79-18.76,3.58-29.84,6-1.13,1.61-2.23,3.15-3.26,4.51,15.95-3.46,29.61-6.99,41.96-7.13,6.65-5.5,4.33-4.6-8.86-3.38Z"/>
    <path class="cls-9" d="m769,106.8c-.02-.06-.04-.09-.06-.15-4.15,7.03-19.09,29.55-21.95,36.55,3.11-5.83,22.76-36.16,22.02-36.4Z"/>
    <path class="cls-9" d="m765.93,97.18c-15.68,9.42-30.57,44.44-48.02,48.64-4.15-2.87-3.5-7.92-1.53-12.77-3.2,5.87-5.91,13.3-.52,17.02,17.45-4.19,32.35-39.22,48.02-48.64,12.1-10.59,30.49-12.8,26.75,2.33,10.07-17.59-10.98-19.38-24.71-6.58Z"/>
    <path class="cls-9" d="m778.26,126.91c-.09.2-.18.41-.27.61.42-.8.82-1.62,1.21-2.43-.32.61-.62,1.2-.95,1.82Z"/>
    <path class="cls-9" d="m823.94,89.04c-5.44,6.08-15.67,22.15-22.14,31.08-9.22,10.83-13.52,22.77-26,27.86-5.57-.96-5.57-4.47-3.57-9.25-3.62,6.88-5.59,12.28,1.53,13.5,17.92-8.27,34.86-44.69,48.14-58.94,4.12-.76,12.04-.33,15.65.13.93-1.46,1.84-2.87,2.69-4.16-3.22-.48-11.92-1.03-16.3-.22Z"/>
    <path class="cls-9" d="m663.72,141.84c1.66-4.29,3.61-8.76,5.79-13.36-1.09,3.6-11.22,19.76-6.5,19.73,7.9-4.32,37.45-24.02,43.88-36.48-4.75,4.83-44.46,39.55-43.16,30.11Z"/>
    <polygon class="cls-9" points="425.81 56.86 440.26 34.53 439.54 34.56 425.11 56.86 425.81 56.86"/>
    <path class="cls-9" d="m461.14,91.74c1.92-2.81,5.96-5.4,4.93-7.57-2.06,2.09-5.23,6.09-4.93,7.57Z"/>
    <path class="cls-9" d="m337.33,12.95c-.18-3.75-2.78-3.63-3.86-3.52-19.49-.17-59.91,71.2-65.72,90.48,7.04-19.63,45.67-86.61,64.08-86.04,4.39-.89,5.02,4.06,3.51,7.78,1.55-3.63,1.76-6,1.99-8.7Z"/>
    <path class="cls-9" d="m790.64,103.76c-2.98,5.11-7.73,13.4-11.43,21.33,4.54-9.45,8.83-14.96,11.43-21.33Z"/>
    <path class="cls-9" d="m706.89,111.72s0,0,0,0c0,0,0,0,0,0Z"/>
    <path class="cls-9" d="m687.2,96.6c-7.1,11.34-13,21.97-17.69,31.88,4.94-9.94,11.05-20.56,18.31-31.88h-.63Z"/>
    <path class="cls-9" d="m772.22,138.73c1.83-3.47,4.07-7.33,5.77-11.21-2.1,4.06-4.4,7.93-5.77,11.21Z"/>
    <polygon class="cls-9" points="761.24 56.86 775.7 34.43 774.99 34.46 760.54 56.86 761.24 56.86"/>
    <path class="cls-9" d="m837.54,93.42c-11.76,18.45-28.89,48.95-39.91,63.48.4-.09.81-.18,1.21-.26,11.89-17.02,28.66-47,39.34-63.12-.2-.03-.41-.06-.65-.09Z"/>
    <path class="cls-9" d="m221.21,82.17c-15.95-9.95-35.06-11.58-53.9-13.63-14.28-1.1-32.59-4.78-49.04-13.76-4.7-2.56-8.72-6.41-10.7-11.37-3.07-7.69-.58-13.54-.95-13.13-6.46,7.27-2.76,19.63,5.49,26.9,5.87,5.93,37.17,14.41,53.05,15.63,18.84,2.05,37.95,3.68,53.9,13.63,14.01,9.76,15.99,24.65,9.63,38.82,8.82-15.38,7.96-32.34-7.47-43.09Z"/>
    <path class="cls-3" d="m669.51,84.17h22.61l14.77-23.06s-14.82,12.95-32.15,14.59c.34-.06-5.23,8.47-5.23,8.47Z"/>
  </g>
  <g>
    <g>
      <g>
        <polygon class="cls-3" points="257.39 220.05 268.02 221.58 260.31 228.9 262.11 239.26 252.6 234.37 243.08 239.26 244.93 228.9 237.26 221.58 247.89 220.05 252.66 210.65 257.39 220.05"/>
        <g class="cls-8">
          <polygon class="cls-2" points="257.39 220.05 268.02 221.58 260.31 228.9 262.11 239.26 252.6 234.37 243.08 239.26 244.93 228.9 237.26 221.58 247.89 220.05 252.66 210.65 257.39 220.05"/>
          <g class="cls-1">
            <polyline class="cls-2" points="260.31 228.9 262.11 239.26 252.6 234.37 243.08 239.26 244.93 228.9 237.26 221.58 247.89 220.05 252.66 210.65 257.39 220.05 268.02 221.58 260.31 228.9"/>
          </g>
        </g>
      </g>
      <polygon class="cls-9" points="248.37 221.84 253.28 212.17 258.14 221.84 266.49 223.04 268.25 221.37 257.32 219.8 252.45 210.12 247.54 219.8 236.61 221.37 238.58 223.25 248.37 221.84"/>
    </g>
    <g>
      <g>
        <polygon class="cls-3" points="293.2 220.05 303.82 221.58 296.11 228.9 297.91 239.26 288.41 234.37 278.88 239.26 280.74 228.9 273.07 221.58 283.69 220.05 288.46 210.65 293.2 220.05"/>
        <g class="cls-8">
          <polygon class="cls-2" points="293.2 220.05 303.82 221.58 296.11 228.9 297.91 239.26 288.41 234.37 278.88 239.26 280.74 228.9 273.07 221.58 283.69 220.05 288.46 210.65 293.2 220.05"/>
          <g class="cls-5">
            <polyline class="cls-2" points="296.11 228.9 297.91 239.26 288.41 234.37 278.88 239.26 280.74 228.9 273.07 221.58 283.69 220.05 288.46 210.65 293.2 220.05 303.82 221.58 296.11 228.9"/>
          </g>
        </g>
      </g>
      <polygon class="cls-9" points="284.36 221.84 289.27 212.17 294.14 221.84 302.48 223.04 304.24 221.37 293.31 219.8 288.44 210.12 283.53 219.8 272.6 221.37 274.57 223.25 284.36 221.84"/>
    </g>
    <g>
      <g>
        <polygon class="cls-3" points="329 220.05 339.63 221.58 331.92 228.9 333.72 239.26 324.21 234.37 314.69 239.26 316.54 228.9 308.87 221.58 319.5 220.05 324.27 210.65 329 220.05"/>
        <g class="cls-8">
          <polygon class="cls-2" points="329 220.05 339.63 221.58 331.92 228.9 333.72 239.26 324.21 234.37 314.69 239.26 316.54 228.9 308.87 221.58 319.5 220.05 324.27 210.65 329 220.05"/>
          <g class="cls-4">
            <polyline class="cls-2" points="331.92 228.9 333.72 239.26 324.21 234.37 314.69 239.26 316.54 228.9 308.87 221.58 319.5 220.05 324.27 210.65 329 220.05 339.63 221.58 331.92 228.9"/>
          </g>
        </g>
      </g>
      <polygon class="cls-9" points="320.35 221.84 325.26 212.17 330.13 221.84 338.47 223.04 340.24 221.37 329.31 219.8 324.44 210.12 319.53 219.8 308.59 221.37 310.57 223.25 320.35 221.84"/>
    </g>
    <g>
      <g>
        <polygon class="cls-3" points="365.12 220.05 375.75 221.58 368.04 228.9 369.84 239.26 360.33 234.37 350.81 239.26 352.66 228.9 344.99 221.58 355.62 220.05 360.39 210.65 365.12 220.05"/>
        <g class="cls-8">
          <polygon class="cls-2" points="365.12 220.05 375.75 221.58 368.04 228.9 369.84 239.26 360.33 234.37 350.81 239.26 352.66 228.9 344.99 221.58 355.62 220.05 360.39 210.65 365.12 220.05"/>
          <g class="cls-7">
            <polyline class="cls-2" points="368.04 228.9 369.84 239.26 360.33 234.37 350.81 239.26 352.66 228.9 344.99 221.58 355.62 220.05 360.39 210.65 365.12 220.05 375.75 221.58 368.04 228.9"/>
          </g>
        </g>
      </g>
      <polygon class="cls-9" points="356.01 221.84 360.91 212.17 365.78 221.84 374.12 223.04 375.89 221.37 364.96 219.8 360.09 210.12 355.18 219.8 344.25 221.37 346.22 223.25 356.01 221.84"/>
    </g>
    <g>
      <g>
        <polygon class="cls-3" points="401.21 220.05 411.84 221.58 404.13 228.9 405.93 239.26 396.43 234.37 386.9 239.26 388.76 228.9 381.08 221.58 391.71 220.05 396.48 210.65 401.21 220.05"/>
        <g class="cls-8">
          <polygon class="cls-2" points="401.21 220.05 411.84 221.58 404.13 228.9 405.93 239.26 396.43 234.37 386.9 239.26 388.76 228.9 381.08 221.58 391.71 220.05 396.48 210.65 401.21 220.05"/>
          <g class="cls-6">
            <polyline class="cls-2" points="404.13 228.9 405.93 239.26 396.43 234.37 386.9 239.26 388.76 228.9 381.08 221.58 391.71 220.05 396.48 210.65 401.21 220.05 411.84 221.58 404.13 228.9"/>
          </g>
        </g>
      </g>
      <polygon class="cls-9" points="392.29 221.84 397.2 212.17 402.07 221.84 410.41 223.04 412.17 221.37 401.24 219.8 396.37 210.12 391.46 219.8 380.53 221.37 382.5 223.25 392.29 221.84"/>
    </g>
  </g>
  <g>
    <g>
      <path class="cls-3" d="m441.3,209.45c2.91,0,5.38.99,7.39,2.97,2.01,1.98,3.01,4.39,3.01,7.22s-1,5.24-3.01,7.22c-2.01,1.98-4.47,2.97-7.39,2.97h-4.46v9.34h-6.79v-29.71h11.25Zm0,14c1.05,0,1.91-.37,2.59-1.1s1.02-1.64,1.02-2.72-.34-1.98-1.02-2.72-1.54-1.1-2.59-1.1h-4.46v7.64h4.46Z"/>
      <path class="cls-3" d="m474.02,239.16l-1.49-4.67h-11.03l-1.49,4.67h-7.43l10.1-29.71h8.66l10.1,29.71h-7.43Zm-10.48-11.04h6.96l-3.48-10.91-3.48,10.91Z"/>
      <path class="cls-3" d="m502.63,239.16l-5.6-9.76h-3.22v9.76h-6.79v-29.71h11.88c2.83,0,5.23.99,7.21,2.97,1.98,1.98,2.97,4.39,2.97,7.22,0,1.81-.5,3.49-1.51,5.03-1.01,1.54-2.33,2.74-3.97,3.59l6.32,10.91h-7.3Zm-8.83-23.34v7.64h5.09c.93,0,1.73-.37,2.4-1.1.66-.74,1-1.64,1-2.72s-.33-1.98-1-2.72c-.67-.74-1.47-1.1-2.4-1.1h-5.09Z"/>
      <path class="cls-3" d="m535.44,209.45v6.54h-7.64v23.17h-6.79v-23.17h-7.64v-6.54h22.07Z"/>
      <path class="cls-3" d="m557.97,209.45h6.79v29.71h-5.09l-11.46-16.13v16.13h-6.79v-29.71h5.09l11.46,16.13v-16.13Z"/>
      <path class="cls-3" d="m579.66,232.62h11.88v6.53h-18.67v-29.71h18.46v6.54h-11.67v4.92h10.61v6.45h-10.61v5.26Z"/>
      <path class="cls-3" d="m613.99,239.16l-5.6-9.76h-3.22v9.76h-6.79v-29.71h11.88c2.83,0,5.23.99,7.21,2.97s2.97,4.39,2.97,7.22c0,1.81-.5,3.49-1.51,5.03-1.01,1.54-2.33,2.74-3.97,3.59l6.32,10.91h-7.3Zm-8.83-23.34v7.64h5.09c.93,0,1.73-.37,2.4-1.1.66-.74,1-1.64,1-2.72s-.33-1.98-1-2.72c-.67-.74-1.47-1.1-2.4-1.1h-5.09Z"/>
      <path class="cls-3" d="m637.46,239.75c-3.03,0-5.55-.66-7.58-1.97-2.02-1.31-3.46-3.1-4.31-5.37l5.86-3.4c1.19,2.74,3.27,4.12,6.24,4.12,2.69,0,4.03-.81,4.03-2.42,0-.88-.43-1.56-1.29-2.06-.86-.49-2.48-1.07-4.86-1.72-1.24-.34-2.33-.72-3.27-1.15-.93-.43-1.84-.98-2.74-1.68-.89-.69-1.57-1.56-2.04-2.61-.47-1.05-.7-2.25-.7-3.61,0-2.75.98-4.94,2.95-6.58,1.97-1.64,4.31-2.46,7.03-2.46,2.43,0,4.58.57,6.45,1.72,1.87,1.15,3.34,2.81,4.41,4.99l-5.73,3.35c-.54-1.13-1.2-1.99-2-2.57-.79-.58-1.84-.87-3.14-.87-1.02,0-1.81.22-2.36.66s-.83.97-.83,1.59c0,.74.35,1.37,1.04,1.91.69.54,2.13,1.13,4.31,1.78,1.19.37,2.11.67,2.76.89.65.23,1.48.6,2.48,1.13,1,.52,1.77,1.08,2.29,1.66.52.58.99,1.35,1.4,2.29.41.95.62,2.03.62,3.25,0,2.83-1.02,5.06-3.06,6.68-2.04,1.63-4.7,2.44-7.98,2.44Z"/>
    </g>
    <g>
      <path class="cls-9" d="m441.95,211.65c2.91,0,5.37.97,7.38,2.91.98.95,1.71,1.99,2.22,3.14-.34-2.04-1.29-3.83-2.86-5.35-2.01-1.94-4.47-2.91-7.38-2.91h-11.24v29.11h.65v-26.9h11.24Z"/>
      <polygon class="cls-9" points="471.99 211.65 481.32 238.55 481.44 238.55 471.34 209.44 462.69 209.44 452.59 238.55 454 238.55 463.33 211.65 471.99 211.65"/>
      <path class="cls-9" d="m499.53,211.65c2.83,0,5.23.97,7.21,2.91.96.94,1.68,1.98,2.17,3.11-.34-2.03-1.27-3.81-2.82-5.33-1.98-1.94-4.39-2.91-7.21-2.91h-11.88v29.11h.65v-26.9h11.88Z"/>
      <polygon class="cls-9" points="535.42 211.65 535.42 209.44 513.35 209.44 513.35 215.84 514 215.84 514 211.65 535.42 211.65"/>
      <polygon class="cls-9" points="547.14 211.65 558.6 227.46 558.6 211.65 564.74 211.65 564.74 209.44 557.95 209.44 557.95 225.24 546.49 209.44 541.4 209.44 541.4 238.55 542.05 238.55 542.05 211.65 547.14 211.65"/>
      <polygon class="cls-9" points="591.3 211.65 591.3 209.44 572.84 209.44 572.84 238.55 573.49 238.55 573.49 211.65 591.3 211.65"/>
      <path class="cls-9" d="m620.6,238.55h.66l-5.18-8.76c-.17.09-.32.2-.49.29l5.01,8.47Z"/>
      <path class="cls-9" d="m610.88,211.65c2.83,0,5.23.97,7.21,2.91.96.94,1.68,1.98,2.17,3.11-.34-2.03-1.27-3.81-2.82-5.33-1.98-1.94-4.39-2.91-7.21-2.91h-11.88v29.11h.65v-26.9h11.88Z"/>
      <path class="cls-9" d="m630.37,213.48c1.97-1.61,4.31-2.41,7.02-2.41,2.43,0,4.58.56,6.45,1.69,1.26.76,2.32,1.76,3.22,2.98l.54-.31c-1.08-2.13-2.55-3.76-4.41-4.89-1.87-1.12-4.02-1.69-6.45-1.69-2.72,0-5.06.8-7.02,2.41-1.97,1.61-2.95,3.76-2.95,6.45,0,1.33.23,2.51.7,3.53.02.04.04.07.06.11-.07-.46-.11-.93-.11-1.43,0-2.69.98-4.84,2.95-6.45Z"/>
      <path class="cls-9" d="m507.56,224.35c-1.01,1.51-2.33,2.68-3.97,3.51l1.14,1.93c1.41-.81,2.58-1.87,3.48-3.22,1-1.51,1.51-3.15,1.51-4.93,0-1.43-.27-2.75-.8-3.96.09.56.15,1.14.15,1.74,0,1.77-.5,3.42-1.51,4.93Z"/>
      <path class="cls-9" d="m618.9,224.35c-1.01,1.51-2.33,2.68-3.97,3.51l1.14,1.93c1.41-.81,2.58-1.87,3.48-3.22,1-1.51,1.51-3.15,1.51-4.93,0-1.43-.27-2.75-.8-3.96.09.56.15,1.14.15,1.74,0,1.77-.5,3.42-1.51,4.93Z"/>
      <path class="cls-9" d="m640.37,228.25c-.86-.48-2.48-1.05-4.86-1.68-1.24-.33-2.33-.71-3.27-1.12-.93-.42-1.84-.97-2.74-1.64-.86-.65-1.52-1.47-1.98-2.45.11.76.3,1.47.59,2.11.47,1.03,1.15,1.88,2.04,2.56.89.68,1.8,1.22,2.74,1.64.94.42,2.02.79,3.27,1.12,2.38.64,4,1.2,4.86,1.68.22.12.4.25.56.4.05-.19.08-.38.08-.6,0-.86-.43-1.53-1.29-2.02Z"/>
    </g>
  </g>
</svg>