<svg width="60" height="60" viewBox="0 0 60 60" fill="none" xmlns="http://www.w3.org/2000/svg">
<path d="M45 0H15C6.75073 0 0 6.7478 0 15V45C0 53.2493 6.75073 60 15 60H45C53.2493 60 60 53.2493 60 45V15C60 6.7478 53.2493 0 45 0ZM30 42.4995C23.0955 42.4995 17.4998 36.9015 17.4998 30C17.4998 23.0955 23.0955 17.4998 30 17.4998C36.9015 17.4998 42.5002 23.0955 42.5002 30C42.5002 36.9015 36.9015 42.4995 30 42.4995ZM46.2502 17.4998C44.1772 17.4998 42.5002 15.8205 42.5002 13.7498C42.5002 11.6791 44.1772 9.99976 46.2502 9.99976C48.3233 9.99976 50.0002 11.6791 50.0002 13.7498C50.0002 15.8205 48.3233 17.4998 46.2502 17.4998Z" fill="white"/>
</svg>
