<svg width="78" height="60" viewBox="0 0 78 60" fill="none" xmlns="http://www.w3.org/2000/svg">
<path d="M76.7555 10.3171C76.236 5.9894 72.8431 2.57013 68.524 2.01663C48.5036 -0.536792 29.496 -0.536792 9.47565 2.01663C5.15676 2.5705 1.76352 5.98933 1.24419 10.3171C-0.348323 23.6209 -0.348323 36.3535 1.24419 49.6827C1.75483 54.0104 5.15656 57.4296 9.47564 57.9831C29.496 60.5366 48.5037 60.5366 68.524 57.9831C72.8432 57.4293 76.245 54.0102 76.7555 49.6827C78.348 36.3529 78.3482 23.621 76.7555 10.3171ZM52.5456 33.7739L35.5551 43.5805C32.6555 45.2597 29.0202 43.1651 29.0202 39.8066L29.0199 20.1929C29.0199 16.8344 32.6552 14.7398 35.5549 16.419L52.5453 26.2255C55.4537 27.9051 55.4537 32.0945 52.5456 33.7739Z" fill="white"/>
</svg>
