<svg width="73" height="69" viewBox="0 0 73 69" fill="none" xmlns="http://www.w3.org/2000/svg">
<path d="M35.1999 34.8739C35.1698 34.2878 35.1097 33.6867 35.0346 33.0781C35.0045 32.8828 34.982 32.7024 34.9519 32.5071C33.7948 32.3042 32.6302 31.9736 31.4956 31.4326C31.5482 31.7482 31.6008 32.0487 31.6534 32.3568C31.7436 32.9429 31.8262 33.5139 31.8863 34.0774C31.9164 34.3104 31.9314 34.5433 31.9389 34.7612C33.0359 34.9866 34.1104 35.227 35.1473 35.4825C35.1623 35.3924 35.1924 35.2947 35.2224 35.197C35.2224 35.0918 35.2149 34.9866 35.2074 34.8739H35.1999Z" fill="white"/>
<path d="M36.261 41.5836C36.2234 41.779 36.1933 41.9818 36.1558 42.1772C36.261 42.0044 36.3436 41.8165 36.4338 41.6437C36.3812 41.6287 36.3211 41.6061 36.261 41.5911V41.5836ZM31.2794 3.02315C31.5574 2.9405 31.8429 2.85785 32.1359 2.78271C31.8429 2.85034 31.5499 2.93299 31.2794 3.02315ZM13.2915 33.326C13.4192 33.296 13.562 33.2809 13.6972 33.2734C13.562 33.2809 13.4268 33.3035 13.2915 33.326ZM13.2915 33.326C13.4192 33.296 13.562 33.2809 13.6972 33.2734C13.562 33.2809 13.4268 33.3035 13.2915 33.326ZM13.2915 33.326C13.4192 33.296 13.562 33.2809 13.6972 33.2734C13.562 33.2809 13.4268 33.3035 13.2915 33.326Z" fill="white"/>
<path d="M70.0527 18.7447C69.6094 19.4585 69.091 20.1422 68.4899 20.7884C67.7009 20.052 66.8744 19.3833 65.9728 18.7822C66.4837 18.2262 66.927 17.6552 67.2952 17.0541C68.4598 15.1606 68.7528 13.2146 68.1818 11.1182C66.9646 6.62501 60.4126 5.4153 49.5177 4.83674C47.752 4.74658 46.0764 4.7015 44.4985 4.7015C40.2908 4.7015 36.7444 5.0321 33.8967 5.69331C33.0927 5.88867 32.3413 6.09905 31.65 6.33198C31.5599 6.14413 31.4622 5.97132 31.372 5.7985C31.2894 5.62569 31.1842 5.4679 31.079 5.3026C30.6432 4.62636 30.1548 4.05532 29.689 3.58947C29.6965 3.58195 30.7409 3.19124 31.2819 3.02594C31.5599 2.94328 31.8454 2.86063 32.1384 2.7855C32.732 2.62019 33.3482 2.46992 33.9943 2.34219C34.7156 2.19191 35.467 2.06418 36.2635 1.95147C36.797 1.87634 37.3455 1.81623 37.9165 1.75612C38.4725 1.70352 39.0436 1.65092 39.6296 1.60584C41.1023 1.50065 42.6802 1.45557 44.3558 1.45557C46.0313 1.45557 47.8046 1.50816 49.6905 1.60584C60.3825 2.16937 69.3915 3.21378 71.3075 10.2692C72.1115 13.2371 71.6832 16.0923 70.0527 18.7522V18.7447Z" fill="white"/>
<path d="M61.9367 19.1777C61.9367 19.1777 61.9367 19.1852 61.9292 19.1852C62.2222 19.313 62.5228 19.4557 62.8083 19.591C62.5228 19.4407 62.2373 19.313 61.9367 19.1777ZM61.9367 19.1777C61.9367 19.1777 61.9367 19.1852 61.9292 19.1852C62.2222 19.313 62.5228 19.4557 62.8083 19.591C62.5228 19.4407 62.2373 19.313 61.9367 19.1777ZM61.9367 19.1777C61.9367 19.1777 61.9367 19.1852 61.9292 19.1852C62.2222 19.313 62.5228 19.4557 62.8083 19.591C62.5228 19.4407 62.2373 19.313 61.9367 19.1777Z" fill="white"/>
<path d="M41.8336 32.3799C41.5556 33.1763 41.0446 34.9045 41.0446 34.9045C41.0446 34.9045 40.6389 36.3997 40.4586 37.1586C39.5344 36.7904 38.5501 36.4523 37.5357 36.1443C37.4831 36.1292 37.423 36.1142 37.3779 36.0992C37.423 35.9113 37.4681 35.7235 37.5282 35.5356C37.5658 35.3779 37.6033 35.2126 37.6484 35.0548C37.7536 34.6565 37.8588 34.2583 37.979 33.8601C38.0842 33.4844 38.1894 33.1012 38.3096 32.733C39.5644 32.703 40.7591 32.5602 41.8261 32.3799H41.8336Z" fill="white"/>
<path d="M34.2563 61.5664C30.9652 62.6183 28.0124 63.1593 26.7951 63.3622C24.1954 63.7904 21.9413 63.9933 19.9727 63.9933C18.8005 63.9933 17.7185 63.9182 16.7267 63.7829C16.3285 63.7303 15.9528 63.6627 15.5771 63.5876C15.0286 63.4673 14.5027 63.3321 14.0143 63.1743C13.3606 62.9639 12.7445 62.7085 12.1734 62.4154C11.8879 62.2652 11.6174 62.1074 11.3469 61.9496C11.0914 61.7843 10.8285 61.619 10.588 61.4311C10.3401 61.2433 10.1071 61.063 9.87421 60.8601C9.64128 60.6647 9.42338 60.4619 9.20549 60.244C8.9951 60.0336 8.79223 59.8082 8.59688 59.5752C8.394 59.3498 8.19865 59.1094 8.0108 58.8614C7.82296 58.6135 7.64263 58.3655 7.4623 58.1025C7.10916 57.5841 6.77855 57.0356 6.45546 56.4646C3.29218 50.8293 2.93152 45.1714 5.50122 41.3094C6.16994 40.31 7.01148 39.4535 8.02583 38.7547C7.37965 37.9207 6.7485 37.0416 6.13237 36.1099C5.60641 36.478 5.11802 36.8838 4.65217 37.3196C4.41924 37.545 4.20134 37.7629 3.98345 38.0033C3.55516 38.4767 3.15694 38.9726 2.8113 39.5136C-0.44214 44.4125 -0.141591 51.3402 3.63781 58.0575C7.16927 64.3465 12.1283 67.2242 19.9952 67.2242C22.1967 67.2242 24.6161 66.9988 27.3136 66.5555C29.1319 66.2625 32.3177 65.6313 35.759 64.4817C35.1955 63.6327 34.6845 62.6709 34.2487 61.5664H34.2563Z" fill="white"/>
<path d="M50.7393 49.5682C50.7393 54.8428 47.4107 58.5471 43.1805 61.1393C42.4066 60.4029 41.8581 59.4562 41.4824 58.3893C44.8861 56.3005 47.5009 53.4302 47.5009 49.5682C47.5009 46.1344 45.7727 43.4745 41.9407 41.4007C41.287 41.0401 40.5657 40.6944 39.7768 40.3713C38.9803 40.0407 38.1087 39.7327 37.177 39.4396C37.0117 39.387 36.8539 39.3345 36.6886 39.2819L34.4345 38.6657C33.6005 38.4553 32.7214 38.2525 31.7972 38.0571C31.0684 37.9068 30.317 37.7641 29.528 37.6213C27.0711 37.178 24.3361 36.7798 21.3155 36.4342C20.0457 36.2839 18.836 36.2238 17.6789 36.2238C17.198 36.2238 16.7247 36.2313 16.2663 36.2613C15.267 36.3139 14.3128 36.4266 13.4186 36.6145C13.0429 36.1862 12.6898 35.7654 12.3817 35.3672C12.1789 35.1117 11.991 34.8563 11.8257 34.6384C11.7581 34.5482 11.6153 34.3453 11.4726 34.15C11.4049 34.0598 11.3448 33.9621 11.2997 33.902C11.2547 33.8344 11.2246 33.7893 11.2246 33.7893C11.7581 33.639 12.3141 33.5113 12.8927 33.3986C13.0204 33.3836 13.1481 33.3535 13.2909 33.331C13.4186 33.3009 13.5614 33.2859 13.6966 33.2784C14.9514 33.0755 16.2889 32.9854 17.6864 32.9854C18.9713 32.9854 20.3012 33.068 21.6912 33.2258C24.3811 33.5414 27.0335 33.8945 29.5882 34.3378C30.3846 34.4731 31.166 34.6158 31.94 34.7736C33.037 34.999 34.1114 35.2395 35.1483 35.4949L37.3874 36.1111C37.4325 36.1261 37.4926 36.1411 37.5452 36.1561C38.5596 36.4717 39.5438 36.8023 40.468 37.1705C41.2194 37.4635 41.9407 37.7791 42.6245 38.1172C47.576 40.5592 50.7468 44.1282 50.7468 49.5757L50.7393 49.5682Z" fill="white"/>
<path d="M14.0156 63.167C14.504 63.3323 15.03 63.4751 15.5785 63.5802C15.03 63.46 14.504 63.3248 14.0156 63.167ZM14.0156 63.167C14.504 63.3323 15.03 63.4751 15.5785 63.5802C15.03 63.46 14.504 63.3248 14.0156 63.167ZM14.0156 63.167C14.504 63.3323 15.03 63.4751 15.5785 63.5802C15.03 63.46 14.504 63.3248 14.0156 63.167ZM14.0156 63.167C14.504 63.3323 15.03 63.4751 15.5785 63.5802C15.03 63.46 14.504 63.3248 14.0156 63.167ZM14.0156 63.167C14.504 63.3323 15.03 63.4751 15.5785 63.5802C15.03 63.46 14.504 63.3248 14.0156 63.167ZM14.0156 63.167C14.504 63.3323 15.03 63.4751 15.5785 63.5802C15.03 63.46 14.504 63.3248 14.0156 63.167ZM14.0156 63.167C14.504 63.3323 15.03 63.4751 15.5785 63.5802C15.03 63.46 14.504 63.3248 14.0156 63.167ZM14.0156 63.167C14.504 63.3323 15.03 63.4751 15.5785 63.5802C15.03 63.46 14.504 63.3248 14.0156 63.167ZM14.0156 63.167C14.504 63.3323 15.03 63.4751 15.5785 63.5802C15.03 63.46 14.504 63.3248 14.0156 63.167ZM14.0156 63.167C14.504 63.3323 15.03 63.4751 15.5785 63.5802C15.03 63.46 14.504 63.3248 14.0156 63.167ZM14.0156 63.167C14.504 63.3323 15.03 63.4751 15.5785 63.5802C15.03 63.46 14.504 63.3248 14.0156 63.167ZM14.0156 63.167C14.504 63.3323 15.03 63.4751 15.5785 63.5802C15.03 63.46 14.504 63.3248 14.0156 63.167ZM14.0156 63.167C14.504 63.3323 15.03 63.4751 15.5785 63.5802C15.03 63.46 14.504 63.3248 14.0156 63.167ZM14.0156 63.167C14.504 63.3323 15.03 63.4751 15.5785 63.5802C15.03 63.46 14.504 63.3248 14.0156 63.167ZM14.0156 63.167C14.504 63.3323 15.03 63.4751 15.5785 63.5802C15.03 63.46 14.504 63.3248 14.0156 63.167ZM14.0156 63.167C14.504 63.3323 15.03 63.4751 15.5785 63.5802C15.03 63.46 14.504 63.3248 14.0156 63.167ZM14.0156 63.167C14.504 63.3323 15.03 63.4751 15.5785 63.5802C15.03 63.46 14.504 63.3248 14.0156 63.167ZM14.0156 63.167C14.504 63.3323 15.03 63.4751 15.5785 63.5802C15.03 63.46 14.504 63.3248 14.0156 63.167ZM14.0156 63.167C14.504 63.3323 15.03 63.4751 15.5785 63.5802C15.03 63.46 14.504 63.3248 14.0156 63.167ZM14.0156 63.167C14.504 63.3323 15.03 63.4751 15.5785 63.5802C15.03 63.46 14.504 63.3248 14.0156 63.167ZM14.0156 63.167C14.504 63.3323 15.03 63.4751 15.5785 63.5802C15.03 63.46 14.504 63.3248 14.0156 63.167ZM14.0156 63.167C14.504 63.3323 15.03 63.4751 15.5785 63.5802C15.03 63.46 14.504 63.3248 14.0156 63.167ZM14.0156 63.167C14.504 63.3323 15.03 63.4751 15.5785 63.5802C15.03 63.46 14.504 63.3248 14.0156 63.167ZM14.0156 63.167C14.504 63.3323 15.03 63.4751 15.5785 63.5802C15.03 63.46 14.504 63.3248 14.0156 63.167ZM14.0156 63.167C14.504 63.3323 15.03 63.4751 15.5785 63.5802C15.03 63.46 14.504 63.3248 14.0156 63.167ZM14.0156 63.167C14.504 63.3323 15.03 63.4751 15.5785 63.5802C15.03 63.46 14.504 63.3248 14.0156 63.167Z" fill="white"/>
<path d="M34.1672 40.9949C34.0996 41.1301 33.769 41.6862 33.6788 41.8289C32.2362 43.9478 29.8693 45.2477 26.4431 45.8187C25.7518 45.9389 25.0681 45.9915 24.3693 45.9915C20.3645 45.9915 16.3296 44.0981 12.5878 40.4314C12.1219 39.9805 11.6561 39.4621 11.6561 39.4621C11.0099 38.7483 10.4839 38.1247 10.0857 37.6137C9.7626 37.238 9.43199 36.8173 9.08636 36.3589C8.7257 35.8705 7.29809 33.639 6.89987 32.9627C2.88754 26.2304 0.0548609 17.7775 0.91894 11.7364C1.36976 8.55814 3.10543 5.77054 5.92308 3.68924C7.35069 2.63732 9.01122 1.79578 10.8371 1.19468C11.0249 1.12706 11.2052 1.07446 11.3931 1.02187C12.0017 0.82651 12.6328 0.668722 13.279 0.533475C13.7975 0.420769 14.3159 0.330604 14.8494 0.255467C16.0441 0.082651 17.2688 0 18.5311 0C19.9437 0 21.3863 0.112706 22.829 0.330604C24.76 0.638667 26.3454 1.18717 27.6302 1.94606C27.6302 1.94606 28.607 2.49456 29.689 3.58405C30.1549 4.0499 30.6432 4.62094 31.079 5.29718C31.1842 5.46248 31.2819 5.62778 31.3721 5.79308C31.4622 5.9659 31.5599 6.14623 31.6501 6.32656C31.6877 6.40921 31.7252 6.49186 31.7628 6.567C32.0483 7.17561 32.2812 7.81428 32.4691 8.483C33.3858 11.7515 33.2355 15.4107 33.1153 18.3786C33.0476 20.1368 32.9875 21.7973 33.1453 22.9695C33.3031 24.059 33.521 25.2236 33.7614 26.3807C32.409 25.7045 31.0415 24.5323 29.8468 22.5036C29.7641 21.2338 29.8167 19.7836 29.8844 18.2508C30.0046 15.1326 30.0196 12.3075 29.4786 9.9632C29.2908 9.15172 29.0353 8.39283 28.7047 7.70909C28.0134 6.61208 27.2921 5.83065 26.5332 5.2521C25.8269 4.70359 25.0981 4.32791 24.3242 4.01233C23.7231 3.80946 23.0694 3.64416 22.3331 3.53145C21.0407 3.32858 19.7559 3.22339 18.4935 3.22339C17.1636 3.22339 15.8637 3.33609 14.624 3.55399C14.1807 3.62913 13.7449 3.7193 13.3166 3.832C11.2353 4.34293 9.35686 5.18447 7.83908 6.30402C5.72773 7.85936 4.44288 9.89558 4.11227 12.2023C3.45858 16.8383 5.75027 24.9831 9.88282 31.7455C10.3111 32.4368 10.7544 33.1205 11.2203 33.7817C11.2203 33.7817 11.2503 33.8268 11.2954 33.8944C11.3405 33.9696 11.4006 34.0522 11.4682 34.1424C11.6035 34.3377 11.7537 34.5406 11.8214 34.6308C11.9867 34.8562 12.1745 35.1041 12.3774 35.3596C12.6854 35.7578 13.0311 36.1861 13.4143 36.6069C14.0529 37.3282 14.6615 37.9293 14.8494 38.1171C15.0372 38.305 15.6233 38.846 15.736 38.9512C16.0516 39.2217 16.3822 39.4997 16.7278 39.7626C17.7647 40.5666 18.9444 41.318 20.2367 41.859C20.665 42.0468 21.0933 42.2046 21.5516 42.3323C22.4458 42.5878 23.4 42.7456 24.3843 42.7456C24.8802 42.7456 25.3987 42.7005 25.9171 42.6179C28.2839 42.2272 29.9069 41.4307 30.8386 40.221C31.9882 40.4539 33.0401 40.6944 34.0094 40.9498C34.062 40.9573 34.1146 40.9648 34.1672 40.9874V40.9949Z" fill="white"/>
<path d="M36.2678 41.5811C36.2302 41.7764 36.2002 41.9793 36.1626 42.1746C36.2678 42.0018 36.3504 41.814 36.4406 41.6412C36.388 41.6261 36.3279 41.6036 36.2678 41.5886V41.5811ZM36.2678 41.5811C36.2302 41.7764 36.2002 41.9793 36.1626 42.1746C36.2678 42.0018 36.3504 41.814 36.4406 41.6412C36.388 41.6261 36.3279 41.6036 36.2678 41.5886V41.5811Z" fill="white"/>
<path d="M71.9353 42.6584C70.3574 51.9905 65.1654 60.481 58.0649 65.3724C55.4276 67.1832 51.7384 68.4305 48.0867 68.4305C45.8101 68.4305 43.5559 67.9496 41.5723 66.8226C40.9562 66.4694 40.3025 66.0261 39.6864 65.4701C39.1153 64.9742 38.5593 64.3731 38.0409 63.6593C37.4473 62.8553 36.9138 61.9086 36.4705 60.789C36.2 60.1203 35.9596 59.3915 35.7567 58.5875C35.2307 56.4687 34.9903 53.8764 35.1856 50.7131C35.2157 50.3675 35.4261 46.7759 36.1775 42.17C36.2826 41.9972 36.3653 41.8094 36.4555 41.6366C37.5675 41.9897 38.5293 42.3428 39.3783 42.711C38.642 47.2643 38.4165 50.8334 38.4165 50.9085C38.2663 53.3054 38.3865 55.4242 38.7772 57.2501C38.9425 58.0616 39.1679 58.8129 39.4459 59.5042C39.8742 60.5862 40.4227 61.5179 41.0989 62.2993C41.6474 62.938 42.2861 63.4715 42.9924 63.8997C43.045 63.9373 43.1051 63.9749 43.1652 64.0124C44.6379 64.8465 46.3435 65.1996 48.0792 65.1996C51.0471 65.1996 54.1127 64.1627 56.2391 62.705C62.6333 58.3095 67.3068 50.6079 68.7495 42.1174C69.8014 35.881 68.8997 30.2307 66.2549 26.6241C66.1272 26.4513 65.9844 26.271 65.8492 26.0982C65.3608 25.4896 64.8048 24.926 64.2112 24.4076C63.317 23.6412 62.3027 22.9724 61.2433 22.454C60.3266 22.0032 59.3573 21.65 58.3655 21.4021C57.3136 21.1541 56.2166 21.0114 55.1271 21.0114H54.9543C50.957 21.064 47.4556 22.8597 45.0061 26.0681C44.7356 26.1357 44.4726 26.1883 44.2021 26.2409C43.879 26.3085 43.5334 26.3762 43.1577 26.4663C42.3613 26.6391 41.5197 26.827 40.6406 26.9622C41.0464 26.1658 41.4897 25.4294 41.963 24.7457C44.9911 20.3877 49.7022 17.8481 54.9092 17.7729H55.1121C57.1483 17.7729 59.1469 18.1336 61.0028 18.8174C61.3184 18.9376 61.634 19.0578 61.9495 19.193C62.2426 19.3208 62.5431 19.4635 62.8286 19.5988C63.3095 19.8392 63.7829 20.1097 64.2337 20.4028C65.1654 20.9738 66.037 21.65 66.841 22.4164C66.856 22.4164 66.871 22.4239 66.8785 22.4465C66.9988 22.5592 67.119 22.6794 67.2392 22.7996C67.3594 22.9123 67.4796 23.0401 67.5924 23.1603C67.8854 23.4684 68.1559 23.7914 68.4189 24.1145C68.5842 24.3099 68.7344 24.5052 68.8847 24.7081C72.0405 29.021 73.16 35.5579 71.9578 42.6584H71.9353Z" fill="white"/>
<path d="M64.2026 24.399C63.5189 24.8499 62.8126 25.2706 62.0913 25.6764C55.096 29.591 46.6205 31.4093 45.2755 31.6798C45.0351 31.7249 44.7796 31.785 44.5016 31.8451C44.449 31.8527 44.3889 31.8752 44.3363 31.8827C43.63 32.0405 42.781 32.2283 41.8418 32.3786C40.7748 32.5514 39.5877 32.7017 38.3253 32.7318C38.1751 32.7393 38.0173 32.7393 37.8595 32.7393C37.6867 32.7393 37.5064 32.7393 37.326 32.7318C36.8602 32.7243 36.4018 32.6867 35.9285 32.6266C35.6054 32.5965 35.2823 32.5514 34.9592 32.4988C33.8021 32.296 32.6375 31.9654 31.5029 31.4244C30.5787 31.0111 29.6846 30.4626 28.813 29.7714C26.6114 28.0056 24.6203 25.2932 23.1551 21.1757C21.164 15.6005 21.3969 11.1073 23.8614 7.80122C24.1394 7.42553 24.455 7.06487 24.7931 6.71924C25.7549 7.28277 26.4311 8.08674 26.8744 9.2138C26.7242 9.3791 26.5814 9.55943 26.4461 9.73224C24.6804 12.1066 24.5978 15.5854 26.2057 20.0786C26.371 20.5595 26.5588 21.0103 26.7392 21.4461C26.9195 21.8819 27.1149 22.2952 27.3102 22.6859C27.4004 22.8738 27.4981 23.0466 27.5957 23.2194C27.5957 23.2269 27.6033 23.2494 27.6108 23.257C27.8136 23.6251 28.024 23.9783 28.2419 24.3089C28.4673 24.632 28.6777 24.9475 28.9106 25.2406C29.0234 25.3758 29.1361 25.5261 29.2563 25.6689C29.4892 25.9394 29.7221 26.1948 29.9626 26.4353C30.173 26.6456 30.3908 26.841 30.6087 27.0288C31.7959 28.0357 33.0507 28.6744 34.3356 29.0576C35.147 29.2905 35.966 29.4257 36.7775 29.4858C36.8451 29.4933 37.5289 29.5234 37.7919 29.5234C38.3629 29.5234 38.9415 29.4933 39.49 29.4408C41.0528 29.283 44.7421 28.5091 46.365 28.1183C49.4682 27.3745 53.3678 26.2023 57.0195 24.5944C57.553 24.354 58.0865 24.1135 58.6124 23.8656C59.5216 23.4147 60.4007 22.9489 61.2422 22.438C62.3092 22.9564 63.316 23.6251 64.2101 24.3915L64.2026 24.399Z" fill="white"/>
</svg>
