<svg width="216" height="110" viewBox="0 0 216 110" fill="none" xmlns="http://www.w3.org/2000/svg">
<g filter="url(#filter0_f_4043_3039)">
<rect x="39.6973" y="39.5762" width="136.645" height="30.9729" rx="15.4865" fill="url(#paint0_linear_4043_3039)"/>
</g>
<rect x="39.6973" y="39.5771" width="136.645" height="30.9729" rx="15.4865" fill="url(#paint1_linear_4043_3039)"/>
<path d="M152.022 60.5042H151.568C146.39 60.5042 146.033 58.4592 146.033 57.4204V57.3718H150.496C150.529 57.6314 150.707 58.1508 151.941 58.1508H151.973C153.11 58.1508 153.402 57.8424 153.402 57.4854C153.402 57.0958 153.142 56.9011 151.876 56.8199L150.448 56.7063C146.958 56.5116 146.212 55.2456 146.212 53.8336V53.7362C146.212 52.2268 147.267 51.042 151.633 51.042H152.006C156.794 51.042 157.589 52.5027 157.589 53.931V53.9472H153.272C153.207 53.6875 153.045 53.2331 151.86 53.2331H151.779C150.691 53.2331 150.415 53.4603 150.415 53.8498C150.415 54.2393 150.74 54.4503 151.86 54.499L153.321 54.5477C156.924 54.71 157.735 55.765 157.735 57.3231V57.4691C157.735 58.9461 157.037 60.5042 152.022 60.5042Z" fill="white"/>
<path d="M138.276 53.2977C136.945 53.2977 136.425 53.8009 136.231 54.6773H140.272C140.256 53.9794 139.882 53.2977 138.276 53.2977ZM144.67 57.339C144.605 58.4102 143.859 60.5202 138.73 60.5202H138.016C132.92 60.5202 131.881 57.8909 131.881 55.8783V55.6511C131.881 53.5736 132.952 51.0093 137.837 51.0093H138.568C143.761 51.0093 144.703 53.5574 144.703 56.1542V56.4951H136.198C136.377 57.4689 136.993 58.0369 138.503 58.0369C139.947 58.0369 140.223 57.4851 140.288 57.339H144.67Z" fill="white"/>
<path d="M130.334 57.3714V60.2929H126.828C125.4 60.2929 124.361 59.4976 124.361 57.8908V53.9469H122.527V51.2364H124.361V48.5098H128.484V51.2364H130.334V53.9469H128.484V56.4463C128.484 57.1118 128.646 57.3714 129.36 57.3714H130.334Z" fill="white"/>
<path d="M114.651 58.2155C116.128 58.2155 116.713 57.3066 116.713 56.5925V56.1542C116.421 56.2192 115.771 56.3328 115.073 56.4464C113.743 56.6574 113.402 56.8846 113.402 57.404V57.4364C113.402 57.9071 113.808 58.2155 114.651 58.2155ZM116.826 59.1568C116.518 59.4977 115.544 60.4877 113.304 60.4877H113.028C110.497 60.4877 109.279 59.2542 109.279 57.5663V57.4851C109.279 55.8134 110.318 54.937 113.515 54.726L116.08 54.5799C116.55 54.5475 116.713 54.3852 116.713 54.0605V54.0443C116.713 53.6548 116.518 53.314 115.203 53.314H115.138C113.726 53.314 113.629 53.9307 113.613 54.1579H109.507V54.1417C109.507 52.9244 110.01 51.0093 114.862 51.0093H115.414C120.364 51.0093 120.803 52.7459 120.803 54.1579V56.9495C120.803 57.2741 120.9 57.4202 121.241 57.4202H121.744V60.2929H118.368C117.459 60.2929 117.005 59.66 116.826 59.1568Z" fill="white"/>
<path d="M107.374 47.9419V50.3926H103.203V47.9419H107.374ZM107.374 51.2366V60.293H103.203V51.2366H107.374Z" fill="white"/>
<path d="M100.814 48.0068V60.2931H96.6426V48.0068H100.814Z" fill="white"/>
<path d="M94.2512 47.9419V50.3926H90.0801V47.9419H94.2512ZM94.2512 51.2366V60.293H90.0801V51.2366H94.2512Z" fill="white"/>
<path d="M88.2995 48.0068V50.2141H87.066C86.6116 50.2141 86.433 50.4089 86.433 50.8633V51.2366H88.2995V53.9471H86.433V60.2931H82.3268V53.9471H80.4766V51.2366H82.3268V50.766C82.3268 48.9806 82.9598 48.0068 85.3456 48.0068H88.2995Z" fill="white"/>
<path d="M79.2819 48.0068V50.2141H78.0484C77.594 50.2141 77.4155 50.4089 77.4155 50.8633V51.2366H79.2819V53.9471H77.4155V60.2931H73.3092V53.9471H71.459V51.2366H73.3092V50.766C73.3092 48.9806 73.9422 48.0068 76.328 48.0068H79.2819Z" fill="white"/>
<path d="M63.5831 58.2155C65.0601 58.2155 65.6444 57.3066 65.6444 56.5925V56.1542C65.3522 56.2192 64.703 56.3328 64.0051 56.4464C62.6742 56.6574 62.3334 56.8846 62.3334 57.404V57.4364C62.3334 57.9071 62.7392 58.2155 63.5831 58.2155ZM65.758 59.1568C65.4496 59.4977 64.4758 60.4877 62.236 60.4877H61.9601C59.4282 60.4877 58.2109 59.2542 58.2109 57.5663V57.4851C58.2109 55.8134 59.2497 54.937 62.447 54.726L65.0114 54.5799C65.482 54.5475 65.6444 54.3852 65.6444 54.0605V54.0443C65.6444 53.6548 65.4496 53.314 64.1349 53.314H64.07C62.658 53.314 62.5606 53.9307 62.5444 54.1579H58.4382V54.1417C58.4382 52.9244 58.9413 51.0093 63.7941 51.0093H64.3459C69.2961 51.0093 69.7344 52.7459 69.7344 54.1579V56.9495C69.7344 57.2741 69.8317 57.4202 70.1726 57.4202H70.6757V60.2929H67.2998C66.3909 60.2929 65.9365 59.66 65.758 59.1568Z" fill="white"/>
<path d="M203.549 35.4139H195.538L194.698 32.6851H186.302L185.462 35.4139H177.451L186.057 12.0796H194.943L203.549 35.4139ZM192.809 26.528L190.5 19.0064L188.191 26.528H192.809Z" fill="url(#paint2_linear_4043_3039)"/>
<path d="M177.145 35.4139H169.099L165.88 28.0673H163.327V35.4139H156.26V12.0796H168.714C174.172 12.0796 177.11 15.7179 177.11 20.0909C177.11 24.1141 174.766 26.2481 172.912 27.1577L177.145 35.4139ZM167.63 21.9101C168.819 21.9101 169.938 21.3503 169.938 20.0559C169.938 18.7965 168.819 18.2368 167.63 18.2368H163.327V21.9101H167.63Z" fill="url(#paint3_linear_4043_3039)"/>
<path d="M142.456 35.8338C135.39 35.8338 129.617 31.2159 129.617 23.7643C129.617 16.2777 135.39 11.6948 142.456 11.6948C148.019 11.6948 151.237 14.7734 152.707 17.782L146.759 20.8256C146.095 19.3913 144.555 17.922 142.456 17.922C139.063 17.922 136.789 20.5108 136.789 23.7643C136.789 27.0178 139.063 29.6066 142.456 29.6066C143.786 29.6066 145.36 29.1168 146.095 28.5571V27.7175H141.757V21.5603H153.126V31.1109C150.538 33.9796 147.039 35.8338 142.456 35.8338Z" fill="url(#paint4_linear_4043_3039)"/>
<path d="M128.051 35.4139H120.005L116.787 28.0673H114.233V35.4139H107.166V12.0796H119.62C125.078 12.0796 128.016 15.7179 128.016 20.0909C128.016 24.1141 125.673 26.2481 123.818 27.1577L128.051 35.4139ZM118.536 21.9101C119.725 21.9101 120.845 21.3503 120.845 20.0559C120.845 18.7965 119.725 18.2368 118.536 18.2368H114.233V21.9101H118.536Z" fill="url(#paint5_linear_4043_3039)"/>
<path d="M104.028 35.4139H86.3262V12.0796H104.028V18.2368H93.3929V20.5457H103.783V26.7029H93.3929V29.2567H104.028V35.4139Z" fill="url(#paint6_linear_4043_3039)"/>
<path d="M70.2308 35.4139H63.1641V12.0796H75.6184C81.0759 12.0796 84.0145 15.7179 84.0145 20.0909C84.0145 24.4289 81.0759 28.0673 75.6184 28.0673H70.2308V35.4139ZM74.7088 21.9101C75.8982 21.9101 76.8428 21.3154 76.8428 20.0909C76.8428 18.8315 75.8982 18.2368 74.7088 18.2368H70.2308V21.9101H74.7088Z" fill="url(#paint7_linear_4043_3039)"/>
<path d="M47.8885 35.8337C40.0171 35.8337 36.3438 31.6006 36.3438 25.8283V12.0796H43.5155V25.5834C43.5155 27.8224 44.9848 29.6066 47.8885 29.6066C50.7571 29.6066 52.2265 27.8224 52.2265 25.5834V12.0796H59.3982V25.7933C59.3982 31.6006 55.7599 35.8337 47.8885 35.8337Z" fill="url(#paint8_linear_4043_3039)"/>
<path d="M23.9505 35.8339C18.9828 35.8339 15.5893 34.3646 13.1055 32.1256L16.7788 26.878C18.528 28.5573 21.1518 29.8867 24.3003 29.8867C25.6297 29.8867 26.8892 29.5368 26.8892 28.6272C26.8892 26.3883 13.8751 28.6622 13.8751 19.4614C13.8751 15.5083 17.1636 11.73 23.5657 11.73C27.3789 11.73 30.8074 12.8145 33.4661 14.9835L29.6879 19.9862C27.6588 18.4469 25.035 17.6773 22.831 17.6773C21.4317 17.6773 21.0468 18.132 21.0468 18.7268C21.0468 20.9308 34.0259 19.0416 34.0259 27.7177C34.0259 32.8603 30.2126 35.8339 23.9505 35.8339Z" fill="url(#paint9_linear_4043_3039)"/>
<defs>
<filter id="filter0_f_4043_3039" x="0.952766" y="0.831673" width="214.134" height="108.462" filterUnits="userSpaceOnUse" color-interpolation-filters="sRGB">
<feFlood flood-opacity="0" result="BackgroundImageFix"/>
<feBlend mode="normal" in="SourceGraphic" in2="BackgroundImageFix" result="shape"/>
<feGaussianBlur stdDeviation="19.3722" result="effect1_foregroundBlur_4043_3039"/>
</filter>
<linearGradient id="paint0_linear_4043_3039" x1="39.6973" y1="70.5491" x2="173.907" y2="31.2566" gradientUnits="userSpaceOnUse">
<stop stop-color="#DB2E72"/>
<stop offset="0.49" stop-color="#9A4BFF"/>
<stop offset="1" stop-color="#624BFF"/>
</linearGradient>
<linearGradient id="paint1_linear_4043_3039" x1="39.6973" y1="70.5501" x2="173.907" y2="31.2576" gradientUnits="userSpaceOnUse">
<stop offset="0.165" stop-color="#DB2E72"/>
<stop offset="0.49" stop-color="#9A4BFF"/>
<stop offset="0.88" stop-color="#624BFF"/>
</linearGradient>
<linearGradient id="paint2_linear_4043_3039" x1="108" y1="3.12874" x2="108" y2="45.8045" gradientUnits="userSpaceOnUse">
<stop offset="0.67" stop-color="white"/>
<stop offset="1" stop-color="white" stop-opacity="0"/>
</linearGradient>
<linearGradient id="paint3_linear_4043_3039" x1="108" y1="3.12874" x2="108" y2="45.8045" gradientUnits="userSpaceOnUse">
<stop offset="0.67" stop-color="white"/>
<stop offset="1" stop-color="white" stop-opacity="0"/>
</linearGradient>
<linearGradient id="paint4_linear_4043_3039" x1="108.001" y1="3.1288" x2="108.001" y2="45.8046" gradientUnits="userSpaceOnUse">
<stop offset="0.67" stop-color="white"/>
<stop offset="1" stop-color="white" stop-opacity="0"/>
</linearGradient>
<linearGradient id="paint5_linear_4043_3039" x1="108" y1="3.12874" x2="108" y2="45.8045" gradientUnits="userSpaceOnUse">
<stop offset="0.67" stop-color="white"/>
<stop offset="1" stop-color="white" stop-opacity="0"/>
</linearGradient>
<linearGradient id="paint6_linear_4043_3039" x1="108" y1="3.12874" x2="108" y2="45.8045" gradientUnits="userSpaceOnUse">
<stop offset="0.67" stop-color="white"/>
<stop offset="1" stop-color="white" stop-opacity="0"/>
</linearGradient>
<linearGradient id="paint7_linear_4043_3039" x1="108.001" y1="3.12874" x2="108.001" y2="45.8045" gradientUnits="userSpaceOnUse">
<stop offset="0.67" stop-color="white"/>
<stop offset="1" stop-color="white" stop-opacity="0"/>
</linearGradient>
<linearGradient id="paint8_linear_4043_3039" x1="108" y1="3.12874" x2="108" y2="45.8045" gradientUnits="userSpaceOnUse">
<stop offset="0.67" stop-color="white"/>
<stop offset="1" stop-color="white" stop-opacity="0"/>
</linearGradient>
<linearGradient id="paint9_linear_4043_3039" x1="108.001" y1="3.12897" x2="108.001" y2="45.8048" gradientUnits="userSpaceOnUse">
<stop offset="0.67" stop-color="white"/>
<stop offset="1" stop-color="white" stop-opacity="0"/>
</linearGradient>
</defs>
</svg>
