<svg width="188" height="39" viewBox="0 0 188 39" fill="none" xmlns="http://www.w3.org/2000/svg">
        <g clip-path="url(#clip0)">
        <path d="M57.3 19.5V8.70002H51.8V5.40002H66.6V8.70002H61.1V19.5H57.3Z" fill="#fff"/>
        <path d="M118.3 8.70002H108.6V10.8H116.2V14.2H108.6V19.5H104.9V5.40002H118.3V8.70002Z" fill="#fff"/>
        <path d="M157 11.9C157 10.9 157.1 10 157.4 9.2C157.6 8.4 158 7.6 158.6 7C159.2 6.4 160 5.9 160.9 5.5C161.9 5.1 163.1 5 164.6 5H165.4C166.4 5 167.3 5.1 168.2 5.2C169.1 5.3 170 5.5 170.9 5.7V9.1C170.4 9 169.9 8.8 169.4 8.7C168.9 8.6 168.4 8.5 167.9 8.5C167.4 8.4 167 8.4 166.5 8.4C166.1 8.4 165.7 8.4 165.3 8.4C164.2 8.4 163.4 8.5 162.8 8.7C162.2 8.9 161.8 9.2 161.5 9.6C161.2 10 161.1 10.4 161 10.9C161 11.4 160.9 12 160.9 12.6C160.9 13.2 160.9 13.8 161 14.3C161 14.8 161.2 15.2 161.5 15.6C161.8 16 162.2 16.3 162.8 16.5C163.4 16.7 164.2 16.8 165.3 16.8C165.7 16.8 166 16.8 166.5 16.8C166.9 16.8 167.4 16.7 167.9 16.7C168.4 16.6 168.9 16.6 169.4 16.4C169.9 16.3 170.4 16.2 170.9 16V19.5C170 19.7 169.1 19.9 168.2 20C167.3 20.1 166.4 20.2 165.4 20.2H164.6C163.1 20.2 161.9 20 160.9 19.7C159.9 19.3 159.1 18.8 158.6 18.2C158 17.6 157.6 16.8 157.4 16C157.2 15.2 157 14.3 157 13.3V11.9Z" fill="#fff"/>
        <path d="M76.9 8.30002C76.4 8.30002 75.8 8.30002 75.1 8.30002C74.4 8.30002 73.7 8.40002 73 8.40002V11.4C73.7 11.5 74.3 11.5 74.9 11.6C75.5 11.6 76 11.6 76.3 11.6C77.1 11.6 77.8 11.6 78.3 11.5C78.8 11.4 79.1 11.3 79.3 11.2C79.5 11 79.6 10.8 79.7 10.6C79.7 10.4 79.8 10.1 79.8 9.70002C79.8 9.50002 79.8 9.30002 79.8 9.20002C79.8 9.00002 79.7 8.90002 79.5 8.70002C79.3 8.60002 79 8.50002 78.7 8.40002C78.2 8.30002 77.6 8.30002 76.9 8.30002ZM80.1 19.5L77.2 15C76.4 15 75.7 15 75 15C74.3 15 73.6 14.9 72.9 14.8V19.4H69.1V5.40002C70.4 5.20002 71.7 5.10002 73 5.00002C74.3 4.90002 75.6 4.90002 76.9 4.90002H77.5C78.7 4.90002 79.7 5.00002 80.4 5.30002C81.2 5.50002 81.8 5.90002 82.3 6.30002C82.8 6.70002 83.1 7.20002 83.3 7.80002C83.5 8.40002 83.6 9.00002 83.6 9.60002V10.4C83.6 11.3 83.4 12.1 83.1 12.8C82.7 13.5 82.1 14.1 81.2 14.5L83.8 18.6V19.4H80.1V19.5Z" fill="#fff"/>
        <path d="M96.2 13.6L94 8.70002L91.9 13.5H96.2V13.6ZM85.9 19.5V18.7L92.2 5.40002H96L102.3 18.7V19.5H98.9L97.7 16.8H90.6L89.4 19.5H85.9Z" fill="#fff"/>
        <path d="M124.1 12.4C124.1 12.9 124.1 13.4 124.2 13.9C124.2 14.4 124.4 14.8 124.7 15.2C125 15.6 125.4 15.9 126 16.1C126.6 16.3 127.4 16.4 128.6 16.4C129.7 16.4 130.6 16.3 131.2 16.1C131.8 15.9 132.2 15.6 132.5 15.2C132.8 14.8 132.9 14.4 133 13.9C133 13.4 133.1 12.9 133.1 12.4C133.1 11.9 133.1 11.4 133 10.9C133 10.4 132.8 10 132.5 9.6C132.2 9.2 131.8 8.9 131.2 8.7C130.6 8.5 129.8 8.4 128.6 8.4C127.5 8.4 126.6 8.5 126 8.7C125.4 8.9 125 9.2 124.7 9.6C124.4 10 124.3 10.4 124.2 10.9C124.2 11.4 124.1 11.9 124.1 12.4ZM120.3 11.9C120.3 10.9 120.4 10 120.7 9.2C120.9 8.4 121.4 7.6 122 7C122.6 6.4 123.4 5.9 124.4 5.5C125.4 5.1 126.7 5 128.2 5H129C130.5 5 131.8 5.2 132.8 5.5C133.8 5.9 134.6 6.4 135.2 7C135.8 7.6 136.2 8.4 136.5 9.2C136.7 10 136.9 10.9 136.9 11.9V13C136.9 14 136.8 14.9 136.5 15.7C136.3 16.5 135.8 17.3 135.2 17.9C134.6 18.5 133.8 19 132.8 19.4C131.8 19.8 130.5 19.9 129 19.9H128.2C126.7 19.9 125.4 19.7 124.4 19.4C123.4 19 122.6 18.5 122 17.9C121.4 17.3 121 16.5 120.7 15.7C120.5 14.9 120.3 14 120.3 13V11.9Z" fill="#fff"/>
        <path d="M147.4 8.3C146.9 8.3 146.3 8.3 145.6 8.3C144.9 8.3 144.2 8.4 143.5 8.4V11.4C144.2 11.5 144.8 11.5 145.4 11.6C146 11.6 146.5 11.6 146.8 11.6C147.6 11.6 148.3 11.6 148.8 11.5C149.3 11.4 149.6 11.3 149.8 11.2C150 11 150.1 10.8 150.2 10.6C150.2 10.4 150.3 10.1 150.3 9.7C150.3 9.5 150.3 9.3 150.3 9.2C150.3 9 150.2 8.9 150 8.7C149.8 8.6 149.5 8.5 149.2 8.4C148.6 8.3 148.1 8.3 147.4 8.3ZM150.5 19.5L147.7 15.1C146.9 15.1 146.2 15.1 145.5 15.1C144.8 15.1 144.1 15 143.4 14.9V19.5H139.6V5.4C140.8 5.3 142.1 5.2 143.4 5.1C144.7 5 146 5 147.3 5H147.9C149.1 5 150.1 5.1 150.8 5.4C151.6 5.6 152.2 6 152.7 6.4C153.2 6.8 153.5 7.3 153.7 7.9C153.9 8.5 154 9.1 154 9.7V10.5C154 11.4 153.8 12.2 153.5 12.9C153.1 13.6 152.5 14.2 151.6 14.6L154.2 18.7V19.5H150.5Z" fill="#fff"/>
        <path d="M187.8 8.70002H178.1V10.8H185.7V14.2H178.1V16.1H187.8V19.5H174.3V5.40002H187.8V8.70002Z" fill="#fff"/>
        <path d="M166.6 33.2001H167.6V24.8H166.6V33.2001ZM171.2 27.8H170L167.8 30.4L170.2 33.2001H171.5L168.9 30.3L171.2 27.8ZM161.4 33.2001H162.4V29.4C162.6 29 162.9 28.6 163.5 28.6C163.8 28.6 164 28.6 164.2 28.8L164.5 27.9C164.3 27.8 164.1 27.7001 163.7 27.7001C163 27.7001 162.6 28 162.3 28.4V27.8H161.3V33.2001H161.4ZM154.1 30.5C154.1 29.4 154.9 28.6 156 28.6C157.1 28.6 157.9 29.4 157.9 30.5C157.9 31.7 157.1 32.4001 156 32.4001C154.9 32.5001 154.1 31.7 154.1 30.5ZM153.1 30.5C153.1 32.1 154.3 33.3 156 33.3C157.7 33.3 158.9 32.1 158.9 30.5C158.9 28.9 157.7 27.7001 156 27.7001C154.3 27.7001 153.1 28.9 153.1 30.5ZM151.4 27.8H150.4L149.4 31.2001C149.3 31.5001 149.2 31.8 149.2 32C149.1 31.7 149 31.5001 148.9 31.2001L147.7 27.8H146.9L145.7 31.2001C145.6 31.5001 145.5 31.7 145.5 32C145.4 31.7 145.4 31.5001 145.3 31.2001L144.2 27.8H143.2L145 33.3H145.8L147.1 29.8C147.2 29.6 147.3 29.4001 147.3 29.1C147.4 29.3 147.4 29.5 147.5 29.8L148.8 33.3H149.6L151.4 27.8ZM133.6 28.6C134.5 28.6 135.1 29.2 135.2 30H131.9C132 29.2 132.6 28.6 133.6 28.6ZM135.5 31.9C135.2 32.2 134.5 32.5 133.8 32.5C132.7 32.5 132 31.9 131.9 30.9H136.1C136.1 30.7 136.2 30.5 136.2 30.3C136.2 28.8 135.1 27.8 133.7 27.8C131.9 27.8 130.9 29.0001 130.9 30.6C130.9 32.3 132 33.4001 133.8 33.4001C134.5 33.4001 135.3 33.2001 135.8 32.7001L135.5 31.9ZM123.5 33.2001H124.5V29.3C124.8 28.9 125.4 28.6 126 28.6C127 28.6 127.5 29.1 127.5 30.3V33.2001H128.5V30.1C128.5 28.4 127.7 27.7001 126.3 27.7001C125.6 27.7001 124.9 28 124.5 28.5V27.8H123.5V33.2001ZM112.9 28.6C113.8 28.6 114.4 29.2 114.5 30H111.2C111.2 29.2 111.9 28.6 112.9 28.6ZM114.7 31.9C114.4 32.2 113.7 32.5 113 32.5C111.9 32.5 111.2 31.9 111.1 30.9H115.3C115.3 30.7 115.4 30.5 115.4 30.3C115.4 28.8 114.3 27.8 112.9 27.8C111.1 27.8 110.1 29.0001 110.1 30.6C110.1 32.3 111.2 33.4001 113 33.4001C113.7 33.4001 114.5 33.2001 115 32.7001L114.7 31.9ZM100.3 32.5C99.7 32.5 99.3 32.2 99.3 31.6C99.3 31.0001 99.9 30.7001 100.5 30.7001C101 30.7001 101.4 30.8 101.7 31.1V31.8C101.4 32.1 101 32.5 100.3 32.5ZM98.9 29C99.3 28.8 99.7 28.6 100.4 28.6C101.5 28.6 101.6 29.3 101.6 30.3C101.2 30 100.7 30 100.3 30C99.1 30 98.3 30.6001 98.3 31.7001C98.3 32.7001 99 33.4001 100 33.4001C100.9 33.4001 101.4 33 101.7 32.6V33.3H102.6V30C102.6 28.6 102.1 27.8 100.5 27.8C99.8 27.8 99.2 28 98.7 28.3L98.9 29ZM94.4 25.8C94.4 26.2 94.7 26.4 95 26.4C95.3 26.4 95.6 26.2 95.6 25.8C95.6 25.5 95.3 25.2001 95 25.2001C94.7 25.2001 94.4 25.5 94.4 25.8ZM94.6 33.2001H95.6V27.8H94.6V33.2001ZM89.7 31.8C89.7 32.8 90.1 33.3 90.9 33.3C91.5 33.3 91.9 33.1001 92.2 32.9001L92 32.2001C91.8 32.3001 91.6 32.4001 91.3 32.4001C90.8 32.4001 90.7 32.1 90.7 31.3V24.8H89.7V31.8ZM85.5 25.8C85.5 26.2 85.8 26.4 86.1 26.4C86.4 26.4 86.7 26.2 86.7 25.8C86.7 25.5 86.4 25.2001 86.1 25.2001C85.8 25.2001 85.5 25.5 85.5 25.8ZM85.6 33.2001H86.6V27.8H85.6V33.2001ZM70.1 32.5C69.5 32.5 69.1 32.2 69.1 31.6C69.1 31.0001 69.7 30.7001 70.3 30.7001C70.8 30.7001 71.2 30.8 71.5 31.1V31.8C71.2 32.1 70.8 32.5 70.1 32.5ZM75.2 28.7001H73.6V27.8H75.2V27C75.2 25.5 75.9 24.8 77.1 24.8C77.7 24.8 78.3 25 78.5 25.3L78.2 26C78 25.8 77.7 25.7001 77.3 25.7001C76.6 25.7001 76.2 26.1001 76.2 27.2001V28H77.8V28.9H76.2V33.4001H75.2V28.7001ZM80.3 28.7001H78.7V27.8H80.3V27C80.3 25.5 81 24.8 82.2 24.8C82.8 24.8 83.4 25 83.6 25.3L83.3 26C83.1 25.8 82.8 25.7001 82.4 25.7001C81.7 25.7001 81.3 26.1001 81.3 27.2001V28H82.9V28.9H81.3V33.4001H80.3V28.7001ZM105.2 28.7001H103.5V27.8H105.2V26.3H106.2V27.8H108V28.7001H106.2V31.1C106.2 32.0001 106.5 32.4001 107.2 32.4001C107.6 32.4001 107.9 32.2 108.1 32.1L108.4 32.8C108.1 33 107.6 33.3 107 33.3C105.8 33.3 105.3 32.5001 105.3 31.1V28.7001H105.2ZM138.5 28.7001H136.8V27.8H138.5V26.3H139.5V27.8H141.3V28.7001H139.5V31.1C139.5 32.0001 139.8 32.4001 140.5 32.4001C140.9 32.4001 141.2 32.2 141.4 32.1L141.7 32.8C141.4 33 140.9 33.3 140.3 33.3C139.1 33.3 138.6 32.5001 138.6 31.1V28.7001H138.5ZM68.7 29C69.1 28.8 69.5 28.6 70.2 28.6C71.3 28.6 71.4 29.3 71.4 30.3C71 30 70.5 30 70.1 30C68.9 30 68.1 30.6001 68.1 31.7001C68.1 32.7001 68.8 33.4001 69.8 33.4001C70.7 33.4001 71.2 33 71.5 32.6V33.3H72.4V30C72.4 28.6 71.9 27.8 70.3 27.8C69.6 27.8 69 28 68.5 28.3L68.7 29Z" fill="#DF3601"/>
        <path fill-rule="evenodd" clip-rule="evenodd" d="M36.8 3.1L42.3 11.7L47.8 20.3L46 24.2L39.9 31.3L33.8 38.4L22.2 36.8L10.6 35.2L12.3 31.4L1.29999 14.1L7.39999 7L13.6 0L25.2 1.6L36.8 3.1Z" fill="url(#paint0_linear)"/>
        <path fill-rule="evenodd" clip-rule="evenodd" d="M36.8 3.1L42.3 11.8L47.7 20.4L41.6 27.5L35.4 34.5L23.8 33L12.2 31.4L6.79999 22.8L1.29999 14.1L7.49999 7.1L13.6 0L25.2 1.6L36.8 3.1Z" fill="#030304"/>
        <path fill-rule="evenodd" clip-rule="evenodd" d="M12.2 31.4L1.3 14.1L0 18.6L10.5 35.2L12.2 31.4Z" fill="url(#paint1_linear)"/>
        <path d="M42.3 11.8L36.8 3.09998L25.2 1.59998L17.7 0.599976L29.4 16.8L19.5 32.4L23.8 33L26.4 33.3L46.5 18.5L42.3 11.8Z" fill="url(#paint2_linear)"/>
        <path fill-rule="evenodd" clip-rule="evenodd" d="M39.8 0.400024L18.6 8.40002L28 12.7L39.8 0.400024Z" fill="#991915"/>
        <path fill-rule="evenodd" clip-rule="evenodd" d="M18.6 8.40002L15.9 12L24.4 17.6L28.7 23.4L30.4 25.8L33.1 22.2L28 12.7L18.6 8.40002Z" fill="#DF1F17"/>
        <path fill-rule="evenodd" clip-rule="evenodd" d="M28.3 14.8L26.3 12.9L17.5 22.3L19.5 24.2L28.3 14.8Z" fill="#DF1F17"/>
        <path fill-rule="evenodd" clip-rule="evenodd" d="M19.2 26.7L19.5 24.3L19.3 25.5L19.2 26.7ZM19.5 24.2L28.2 14.8L27.9 17.2L19.2 26.6L16.9 27.1L14.9 25.1L15.2 22.7L16.4 22.5L17.6 22.3L18.6 23.3L19.5 24.2Z" fill="url(#paint3_linear)"/>
        <path fill-rule="evenodd" clip-rule="evenodd" d="M23.9 13.4L15.2 22.8L17.5 22.3L26.3 12.9L23.9 13.4Z" fill="#991915"/>
        <path fill-rule="evenodd" clip-rule="evenodd" d="M33.1 22.2L39.8 0.400024L28 12.7L33.1 22.2Z" fill="url(#paint4_linear)"/>
        <path fill-rule="evenodd" clip-rule="evenodd" d="M28.8 13L39.8 0.400024L28 12.7L33 22.2L28.8 13Z" fill="url(#paint5_linear)"/>
        <path fill-rule="evenodd" clip-rule="evenodd" d="M20 24.4L28.3 14.8L19.5 24.2L19.2 26.7L20 24.4Z" fill="url(#paint6_linear)"/>
        </g>
        <defs>
        <linearGradient id="paint0_linear" x1="1.91369" y1="15.5088" x2="47.6813" y2="23.18" gradientUnits="userSpaceOnUse">
        <stop offset="0.0540006" stop-color="#F29104"/>
        <stop offset="0.1173" stop-color="#F08907"/>
        <stop offset="0.3492" stop-color="#EC700E"/>
        <stop offset="0.577" stop-color="#E85C11"/>
        <stop offset="0.7969" stop-color="#E64F12"/>
        <stop offset="1" stop-color="#E64A12"/>
        </linearGradient>
        <linearGradient id="paint1_linear" x1="6.8605" y1="27.6688" x2="3.3209" y2="15.0875" gradientUnits="userSpaceOnUse">
        <stop stop-color="#DF1F17"/>
        <stop offset="0.0985121" stop-color="#CA1E17"/>
        <stop offset="0.2453" stop-color="#B41C16"/>
        <stop offset="0.4122" stop-color="#A51A15"/>
        <stop offset="0.6144" stop-color="#9C1A15"/>
        <stop offset="0.9492" stop-color="#991915"/>
        </linearGradient>
        <linearGradient id="paint2_linear" x1="28.9779" y1="6.13458" x2="34.8504" y2="34.3761" gradientUnits="userSpaceOnUse">
        <stop offset="0.3128" stop-color="#3E3E3F"/>
        <stop offset="0.3802" stop-color="#333334"/>
        <stop offset="0.4683" stop-color="#29292A"/>
        <stop offset="0.5733" stop-color="#222222"/>
        <stop offset="0.7104" stop-color="#1E1E1E"/>
        <stop offset="1" stop-color="#1D1D1D"/>
        </linearGradient>
        <linearGradient id="paint3_linear" x1="25.7222" y1="25.4695" x2="17.5521" y2="14.8099" gradientUnits="userSpaceOnUse">
        <stop offset="0.1064" stop-color="#F29104"/>
        <stop offset="0.6662" stop-color="#E64A12"/>
        </linearGradient>
        <linearGradient id="paint4_linear" x1="39.3785" y1="14.9254" x2="31.9659" y2="5.74513" gradientUnits="userSpaceOnUse">
        <stop offset="0.173" stop-color="#F29104"/>
        <stop offset="0.3779" stop-color="#ED790B"/>
        <stop offset="0.6219" stop-color="#E96110"/>
        <stop offset="0.8374" stop-color="#E75012"/>
        <stop offset="1" stop-color="#E64A12"/>
        </linearGradient>
        <linearGradient id="paint5_linear" x1="28.0233" y1="11.2624" x2="39.8226" y2="11.2624" gradientUnits="userSpaceOnUse">
        <stop offset="0.2793" stop-color="#F59A09"/>
        <stop offset="0.4056" stop-color="#F1880D"/>
        <stop offset="0.6616" stop-color="#EB6811"/>
        <stop offset="0.8688" stop-color="#E75312"/>
        <stop offset="1" stop-color="#E64A12"/>
        </linearGradient>
        <linearGradient id="paint6_linear" x1="20.0754" y1="17.8461" x2="27.1783" y2="23.5207" gradientUnits="userSpaceOnUse">
        <stop offset="0.1904" stop-color="#F59A09"/>
        <stop offset="0.3547" stop-color="#F2900C"/>
        <stop offset="0.6515" stop-color="#ED750F"/>
        <stop offset="1" stop-color="#E64A12"/>
        </linearGradient>
        <clipPath id="clip0">
        <rect width="187.8" height="38.3" fill="white"/>
        </clipPath>
        </defs>
        </svg>