<?xml version="1.0" encoding="utf-8"?>
<!-- Generator: Adobe Illustrator 26.2.1, SVG Export Plug-In . SVG Version: 6.00 Build 0)  -->
<svg version="1.1" id="Шар_1" xmlns="http://www.w3.org/2000/svg" xmlns:xlink="http://www.w3.org/1999/xlink" x="0px" y="0px"
	 viewBox="0 0 190 50" style="enable-background:new 0 0 190 50;" xml:space="preserve">
<style type="text/css">
	.st0{fill:#FFFFFF;}
	.st1{fill:#D06400;}
	.st2{fill:#FF8A00;}
	.st3{fill:#FEB702;}
</style>
<g>
	<g>
		<path class="st0" d="M75.07,37.58c0-6.46,5.16-10.67,11.3-10.7c4.42,0,7.53,2.02,9.04,4.21L91.47,34
			c-0.86-1.16-2.25-2.37-4.8-2.37c-3.05,0-5.69,2.34-5.69,5.96c0,3.59,2.58,5.84,5.66,5.84c2.99,0,4.27-1.39,4.95-2.43l3.8,2.64
			c-1.1,1.93-4.06,4.57-9.01,4.57C80.17,48.2,75.07,44.14,75.07,37.58z"/>
		<path class="st0" d="M94.88,47.9l9.37-20.75h6.17l9.34,20.75h-6.2l-1.48-3.35h-9.49l-1.48,3.35H94.88z M110,39.87l-2.67-5.99
			l-2.7,5.99H110z"/>
		<path class="st0" d="M120.35,47.9V27.15h5.9v7.38l7.32-7.38h7.44l-8.54,8.57l8.78,12.19h-7.03l-5.87-8.06l-2.11,2.11v5.96H120.35z
			"/>
		<path class="st0" d="M158.71,27.15v4.65h-10.79v3.47h9.31v4.51h-9.31v3.47h10.79v4.65h-16.69V27.15H158.71z"/>
	</g>
	<g>
		<path class="st0" d="M75.04,5.87V4.16h14.44v1.71h-6.25v16.67h-1.97V5.87H75.04z"/>
		<path class="st0" d="M90.8,4.16h8.32c3.39,0,6.06,2.42,6.06,5.7c0,2.65-1.86,5.07-4.78,5.59l5.12,7.09h-2.26l-5.04-6.98h-5.46
			v6.98H90.8V4.16z M92.77,5.87v7.98h5.85c3.12,0,4.59-1.65,4.59-3.99c0-2.52-1.68-3.99-4.59-3.99H92.77z"/>
		<path class="st0" d="M113.9,4.16h2l8.64,18.38h-2.05l-2.15-4.62h-10.87l-2.15,4.62h-2.05L113.9,4.16z M119.55,16.24l-4.65-9.92
			l-4.65,9.92H119.55z"/>
		<path class="st0" d="M138.97,4.16v1.71h-11.16v6.64h9.74v1.68h-9.74v8.35h-1.97V4.16H138.97z"/>
		<path class="st0" d="M154.33,4.16v1.71h-11.16v6.64h9.74v1.68h-9.74v8.35h-1.97V4.16H154.33z"/>
		<path class="st0" d="M158.8,22.54h-1.97V4.16h1.97V22.54z"/>
	</g>
	<g>
		<polygon class="st1" points="72.23,20.05 72.23,22.12 63,31.35 61.97,30.31 		"/>
		<polygon class="st2" points="72.23,17.46 72.23,20.01 61.95,30.29 60.67,29.02 		"/>
		<polygon class="st1" points="72.23,14.98 72.23,17.46 60.67,29.01 59.43,27.78 		"/>
		<polygon class="st2" points="72.21,11.71 72.21,15.04 59.45,27.8 57.79,26.14 		"/>
		<polygon class="st1" points="72.21,8.6 72.21,11.71 57.79,26.14 56.23,24.58 		"/>
		<path class="st3" d="M69.32,37.66c-3.5,3.96-8.62,6.45-14.32,6.45c-10.56,0-19.11-8.56-19.11-19.11S44.44,5.89,55,5.89
			c5.49,0,10.43,2.31,13.92,6.01L56.23,24.58L69.32,37.66z"/>
		<path class="st0" d="M72.63,40.98c-4.35,4.8-10.64,7.82-17.63,7.82C41.86,48.79,31.2,38.14,31.2,25S41.86,1.21,55,1.21
			c6.65,0,12.66,2.73,16.98,7.13c0.08,0.09,0.17,0.17,0.25,0.26l-3.31,3.31C65.43,8.2,60.48,5.89,55,5.89
			c-10.56,0-19.11,8.56-19.11,19.11S44.44,44.11,55,44.11c5.7,0,10.82-2.49,14.32-6.45L72.63,40.98z"/>
	</g>
</g>
</svg>
