<svg width="5254" height="1000" viewBox="0 0 5254 1000" fill="none" xmlns="http://www.w3.org/2000/svg">
<rect width="5254" height="1000" rx="100" fill="#FF4C21"/>
<path d="M4474.1 786.379H4679.96V373.615H4875.95V211.956H4273.99V373.615H4474.1V786.379Z" fill="white"/>
<path d="M577.525 787.881H783.124V374.058H978.853V211.984H377.684V374.058H577.525V787.881Z" fill="white"/>
<path d="M1053.35 787.881H1258.95V551.763L1444.81 787.881H1686.59L1516.36 588.785C1615.87 580.558 1680.83 508.983 1680.83 406.144C1680.83 289.319 1595.31 211.984 1458.79 211.984H1053.35V787.881ZM1258.95 490.883V356.781H1380.66C1438.23 356.781 1467.83 378.994 1467.83 421.775C1467.83 467.024 1435.76 490.883 1374.9 490.883H1258.95Z" fill="white"/>
<path d="M1761 787.911H1966.6V211.191H1761V787.911Z" fill="white"/>
<path d="M2041.1 787.881H2338.81C2599.51 787.881 2717.93 654.602 2717.93 496.642C2717.93 332.922 2600.33 211.984 2361.84 211.984H2041.1V787.881ZM2246.7 641.439V358.426H2347.03C2451.48 358.426 2497.53 416.016 2497.53 495.819C2497.53 584.672 2441.61 641.439 2335.52 641.439H2246.7Z" fill="white"/>
<path d="M2792.34 787.881H3328.54V641.439H2997.94V564.104H3309.63V429.18H2997.94V358.426H3326.07V211.984H2792.34V787.881Z" fill="white"/>
<path d="M4017.27 787.347H3810.83L3583.58 211.189H3790.01L4017.27 787.347Z" fill="white"/>
<path d="M3403.17 787.349H3607.87V211.19H3403.17V787.349Z" fill="white"/>
<path d="M3992.99 787.347H4199.42V211.189H3992.99V787.347Z" fill="white"/>
</svg>
