<svg width="190" height="50" viewBox="0 0 190 50" fill="none" xmlns="http://www.w3.org/2000/svg">
<path fill-rule="evenodd" clip-rule="evenodd" d="M25.4677 24.1739H12.4521C12.2162 24.1739 12.0047 24.0422 11.8908 23.8363C11.7769 23.6305 11.7769 23.367 11.8908 23.1612L18.3986 11.3376C18.5125 11.1235 18.7322 11 18.9599 11C19.1877 11 19.4073 11.1317 19.5212 11.3376L26.029 23.1612C26.1429 23.367 26.1429 23.6305 26.029 23.8363C25.907 24.0422 25.6955 24.1739 25.4677 24.1739ZM33.2729 38.666H20.2573C20.0214 38.666 19.8099 38.5343 19.696 38.3284C19.5821 38.1226 19.5821 37.8591 19.696 37.6533L26.2038 25.8297C26.3177 25.6156 26.5373 25.4921 26.7651 25.4921C26.9929 25.4921 27.2125 25.6238 27.3264 25.8297L33.8342 37.6533C33.9481 37.8591 33.9481 38.1226 33.8342 38.3284C33.7122 38.5343 33.5007 38.666 33.2729 38.666ZM4.64671 38.666H17.6623C17.8901 38.666 18.1016 38.5343 18.2236 38.3284C18.3375 38.1226 18.3375 37.8591 18.2236 37.6533L11.7158 25.8297C11.6019 25.6238 11.3823 25.4921 11.1545 25.4921C10.9267 25.4921 10.7071 25.6156 10.5932 25.8297L4.08541 37.6533C3.97153 37.8591 3.97153 38.1226 4.08541 38.3284C4.1993 38.5343 4.41081 38.666 4.64671 38.666Z" fill="#1294F2"/>
<path d="M52.3536 37.6548L43.0001 12.0145H45.8809L54.0607 34.571L62.2051 12.0145H65.1214L55.7323 37.6548H52.3536Z" fill="white"/>
<path d="M80.5784 38.0013C78.5156 38.0013 76.69 37.6317 75.1014 36.8925C73.5366 36.1302 72.2207 35.1254 71.1537 33.878C70.1105 32.6076 69.3162 31.187 68.7709 29.6162C68.2493 28.0454 67.9885 26.44 67.9885 24.8C67.9885 23.183 68.2493 21.5892 68.7709 20.0184C69.3162 18.4476 70.1105 17.0386 71.1537 15.7912C72.2207 14.5207 73.5366 13.5159 75.1014 12.7767C76.69 12.0376 78.5156 11.668 80.5784 11.668C82.6411 11.668 84.4549 12.0376 86.0198 12.7767C87.5846 13.5159 88.8887 14.5207 89.9319 15.7912C90.9989 17.0386 91.805 18.4476 92.3503 20.0184C92.8956 21.5892 93.1683 23.183 93.1683 24.8C93.1683 26.44 92.8956 28.0454 92.3503 29.6162C91.805 31.187 90.9989 32.6076 89.9319 33.878C88.8887 35.1254 87.5846 36.1302 86.0198 36.8925C84.4549 37.6317 82.6411 38.0013 80.5784 38.0013ZM80.5784 35.5065C82.4989 35.5065 84.1941 35.0446 85.6641 34.1206C87.1342 33.1735 88.2841 31.8915 89.1139 30.2745C89.9438 28.6576 90.3587 26.8327 90.3587 24.8C90.3587 22.7903 89.9438 20.9886 89.1139 19.3947C88.2841 17.7778 87.1342 16.5073 85.6641 15.5833C84.1941 14.6362 82.4989 14.1627 80.5784 14.1627C78.6342 14.1627 76.9271 14.6362 75.4571 15.5833C73.9871 16.5073 72.8371 17.7778 72.0073 19.3947C71.1775 20.9886 70.7625 22.7903 70.7625 24.8C70.7625 26.8327 71.1775 28.6576 72.0073 30.2745C72.8371 31.8915 73.9871 33.1735 75.4571 34.1206C76.9271 35.0446 78.6342 35.5065 80.5784 35.5065Z" fill="white"/>
<path d="M98.1221 37.6548V12.0145H107.013C108.815 12.0145 110.321 12.3725 111.53 13.0886C112.739 13.7816 113.64 14.6824 114.233 15.7912C114.826 16.8769 115.122 18.0319 115.122 19.2561C115.122 20.2956 114.897 21.3004 114.446 22.2706C114.019 23.2408 113.367 24.0839 112.49 24.8C111.613 25.5161 110.51 26.0127 109.183 26.2899L116.011 37.6548H112.917L106.266 26.4978H100.861V37.6548H98.1221ZM106.978 14.4052H100.861V24.1763H106.978C108.187 24.1763 109.183 23.9453 109.965 23.4833C110.748 22.9982 111.34 22.3861 111.743 21.6469C112.146 20.8846 112.348 20.0992 112.348 19.2908C112.348 18.4823 112.146 17.7085 111.743 16.9693C111.34 16.207 110.748 15.5949 109.965 15.1329C109.183 14.6478 108.187 14.4052 106.978 14.4052Z" fill="white"/>
<path d="M127.671 37.6548V14.4052H119.136V12.0145H138.945V14.4052H130.41V37.6548H127.671Z" fill="white"/>
<path d="M143.411 37.6548V12.0145H159.522V14.4052H146.15V23.3794H157.851V25.7701H146.15V35.264H159.7V37.6548H143.411Z" fill="white"/>
<path d="M164.017 37.6548L172.659 24.8346L164.017 12.0145H167.289L174.508 22.825L181.728 12.0145H185L176.322 24.8346L185 37.6548H181.728L174.508 26.8443L167.289 37.6548H164.017Z" fill="white"/>
</svg>
