<?xml version="1.0" encoding="UTF-8"?>
<svg width="102px" height="48px" viewBox="0 0 102 48" version="1.1" xmlns="http://www.w3.org/2000/svg" xmlns:xlink="http://www.w3.org/1999/xlink">
    <!-- Generator: sketchtool 49.2 (51160) - http://www.bohemiancoding.com/sketch -->
    <title></title>
    <desc>Created with sketchtool.</desc>
    <defs>
        <linearGradient x1="-1.23487026e-15%" y1="49.9901017%" x2="99.9931846%" y2="49.9901017%" id="linearGradient-1">
            <stop stop-color="#D80CFE" offset="0%"></stop>
            <stop stop-color="#2544D3" offset="100%"></stop>
        </linearGradient>
    </defs>
    <g id="Page-1" stroke="none" stroke-width="1" fill="none" fill-rule="evenodd">
        <g id="01.Главная-светлый-вариант" transform="translate(-149.000000, -39.000000)" fill="url(#linearGradient-1)" fill-rule="nonzero">
            <g id="меню" transform="translate(149.000000, 39.000000)">
                <g id="logo">
                    <path d="M48.0741497,36.6923077 C45.7857287,36.6913742 43.7221201,38.0660486 42.845731,40.1752228 C41.9693418,42.2843969 42.4527952,44.7126251 44.0706224,46.3274523 C45.6884497,47.9422795 48.1219861,48.4256319 50.2363012,47.5520881 C52.3506162,46.6785443 53.7292515,44.6201668 53.7292517,42.3369231 C53.7298653,40.8400902 53.1343325,39.4043543 52.0737286,38.3457172 C51.0131248,37.28708 49.5743768,36.6923076 48.0741497,36.6923077 Z M48.0741497,45.1569231 C46.9296239,45.1578564 45.8973186,44.4705655 45.4588953,43.4157322 C45.020472,42.3608989 45.2623372,41.1464146 46.0716394,40.3389434 C46.8809417,39.5314722 48.0981798,39.2901542 49.1554051,39.7275856 C50.2126303,40.165017 50.9014797,41.1949867 50.9005442,42.3369231 C50.8967214,43.892036 49.632793,45.1510408 48.0741497,45.1523077 L48.0741497,45.1569231 Z M31.1065306,36.6923077 C30.1130438,36.6922372 29.1371872,36.9541591 28.2778231,37.4515385 L28.2778231,26.8130769 C28.2778231,26.0343554 27.6451132,25.4030769 26.8646259,25.4030769 C26.0841385,25.4030769 25.4514286,26.0343554 25.4514286,26.8130769 L25.4514286,46.5646154 C25.4514286,46.9385706 25.6003186,47.2972097 25.8653445,47.5616359 C26.1303704,47.8260622 26.4898226,47.9746154 26.8646259,47.9746154 C27.2394291,47.9746154 27.5988813,47.8260622 27.8639072,47.5616359 C28.1289331,47.2972097 28.2778231,46.9385706 28.2778231,46.5646154 L28.2778231,42.3323077 C28.2778231,40.7735902 29.5442786,39.51 31.1065306,39.51 C32.6687826,39.51 33.9352381,40.7735902 33.9352381,42.3323077 L33.9352381,46.5646154 C33.9352381,47.3433369 34.5679481,47.9746154 35.3484354,47.9746154 C36.1289227,47.9746154 36.7616327,47.3433369 36.7616327,46.5646154 L36.7616327,42.3323077 C36.7603556,39.2170484 34.2288542,36.6923074 31.1065306,36.6923077 Z M18.3854422,25.4053846 C17.6054829,25.4066551 16.9735183,26.03719 16.9722449,26.8153846 L16.9722449,42.3346154 C16.9680331,43.2467817 16.5236441,44.1010618 15.7784554,44.6295207 C15.0332667,45.1579795 14.0785502,45.2958907 13.2137415,45 C12.0663759,44.6132937 11.2989069,43.5336292 11.312517,42.3253846 L11.312517,26.8130769 C11.2818219,26.0559041 10.6576736,25.4578467 9.89816327,25.4578467 C9.13865294,25.4578467 8.51450464,26.0559041 8.48380952,26.8130769 L8.48380952,42.3323077 C8.44004238,43.8589756 7.18701411,45.0739204 5.6562585,45.0739204 C4.1255029,45.0739204 2.87247463,43.8589756 2.82870748,42.3323077 L2.82870748,26.8130769 C2.79801237,26.0559041 2.17386407,25.4578467 1.41435374,25.4578467 C0.654843418,25.4578467 0.0306951138,26.0559041 0,26.8130769 L0,42.1823077 C0,45.2561538 2.3985034,47.8753846 5.47469388,47.9723077 C7.16233182,48.0265219 8.78537619,47.3227048 9.8970068,46.0546154 C11.0095535,47.3227991 12.6333212,48.0265619 14.3216327,47.9723077 C17.3978231,47.8753846 19.7940136,45.2538462 19.7940136,42.1823077 L19.7940136,26.8130769 C19.7940136,26.0343554 19.1613036,25.4030769 18.3808163,25.4030769 L18.3854422,25.4053846 Z M63.950068,28.2276923 C65.134775,28.2275198 66.1938718,28.9645386 66.6029932,30.0738462 C66.7998917,30.6493413 67.3374073,31.0397968 67.9468027,31.05 C68.4078281,31.0492557 68.8397053,30.8249098 69.1047035,30.4485089 C69.3697017,30.072108 69.4347291,29.5906555 69.2790476,29.1576923 C68.441937,26.814037 66.1655547,25.2936331 63.6748299,25.4146154 C60.6333333,25.5576923 58.2926531,28.1838462 58.2926531,31.2092308 L58.2926531,42.1776923 C58.2926531,45.2146154 60.6333333,47.8292308 63.6748299,47.9723077 C66.1655547,48.0932899 68.441937,46.5728861 69.2790476,44.2292308 C69.4347291,43.7962676 69.3697017,43.3148151 69.1047035,42.9384142 C68.8397053,42.5620133 68.4078281,42.3376674 67.9468027,42.3369231 C67.3374073,42.3471263 66.7998917,42.7375818 66.6029932,43.3130769 C66.1278213,44.5943806 64.8010473,45.3521333 63.4530499,45.1120857 C62.1050525,44.8720381 61.1229317,43.7031238 61.1213605,42.3369231 L61.1213605,31.0453846 C61.1213585,29.4897423 62.3839615,28.2279307 63.9431293,28.2253846 L63.950068,28.2276923 Z M95.8823129,25.4123077 C92.8385034,25.5553846 90.4978231,28.1815385 90.4978231,31.2069231 L90.4978231,46.5669231 C90.5285182,47.3240959 91.1526665,47.9221533 91.9121769,47.9221533 C92.6716872,47.9221533 93.2958355,47.3240959 93.3265306,46.5669231 L93.3265306,36.6923077 L98.9816327,36.6923077 L98.9816327,46.5692308 C98.9829086,47.3483254 99.6162805,47.9792318 100.397143,47.9792308 C101.177102,47.9779602 101.809067,47.3474254 101.81034,46.5692308 L101.81034,31.0453846 C101.810338,29.5004934 101.175439,28.0231742 100.053793,26.9581459 C98.9321473,25.8931176 97.4218713,25.3335453 95.8753741,25.41 L95.8823129,25.4123077 Z M98.9816327,33.87 L93.3195918,33.87 L93.3195918,31.0453846 C93.363359,29.5187167 94.6163873,28.3037719 96.1471429,28.3037719 C97.6778985,28.3037719 98.9309267,29.5187167 98.9746939,31.0453846 L98.9816327,33.87 Z M80.8089796,25.4053846 L75.3065306,25.4053846 L75.3065306,46.5669231 C75.3065306,47.3456446 75.9392406,47.9769231 76.7197279,47.9769231 C77.5002152,47.9769231 78.1329252,47.3456446 78.1329252,46.5669231 L78.1329252,36.6923077 L80.952381,36.6923077 C82.4999114,36.6928439 83.9800535,36.0606019 85.0477852,34.9429577 C86.1155169,33.8253135 86.6775438,32.3199225 86.6028571,30.7776923 C86.4687075,27.7384615 83.8481633,25.4030769 80.8020408,25.4030769 L80.8089796,25.4053846 Z M80.9685714,33.87 L78.1329252,33.87 L78.1329252,28.2253846 L80.952381,28.2253846 C81.9818504,28.1960048 82.9459755,28.7271954 83.4693989,29.6121513 C83.9928223,30.4971071 83.9928223,31.5959699 83.4693989,32.4809257 C82.9459755,33.3658815 81.9818504,33.8970722 80.952381,33.8676923 L80.9685714,33.87 Z M36.3869388,25.4030769 C34.8719728,25.4030769 32.0478912,26.9284615 31.1921088,32.5430769 C31.1921088,32.5430769 35.6745578,29.0376923 40.5108844,28.05 C40.5108844,28.05 38.5888435,25.4030769 36.3869388,25.4030769 Z M65.3355102,20.9238462 C65.8212245,20.0838462 63.5221769,18.6161538 59.8214966,16.5392308 L60.7189116,15 C61.8140335,13.1076143 62.1107729,10.8586596 61.5438395,8.74796439 C60.9769061,6.63726916 59.5927489,4.83776322 57.6959184,3.74538462 L53.1302041,1.10538462 C49.1844303,-1.16227879 44.1434458,0.186239168 41.8639456,4.11923077 L40.9688435,5.67 C37.3121088,3.50769231 34.8789116,2.25923077 34.3931973,3.09923077 C33.907483,3.93923077 36.2065306,5.74153846 39.9881633,8.09076923 C39.1291669,8.99030124 38.4334153,10.031958 37.9319728,11.1692308 C37.1026458,11.5054017 36.4221118,12.1278814 36.0145578,12.9230769 C35.6721972,13.5238577 35.4913333,14.2027489 35.4895238,14.8938462 C34.2012245,15.87 30.2160544,19.0592308 31.4141497,20.2546154 C32.3647619,21.2030769 33.4703401,19.5623077 36.3846259,19.7930769 C34.7655782,18.96 33.7663946,19.3915385 33.4842177,19.1007692 C32.9753741,18.5907692 35.2096599,16.9453846 36.007619,16.3846154 C36.1243807,16.5200377 36.2646214,16.6333835 36.4216327,16.7192308 C37.4832653,17.3076923 39.0236735,16.5576923 39.8609524,15.0461538 C40.0867858,14.6386036 40.2431134,14.1964173 40.3235374,13.7376923 L44.602449,14.7692308 C44.602449,16.6153846 43.2285714,16.3246154 43.2285714,17.6976923 C43.2285714,19.26 45.7982313,19.56 45.7982313,20.9123077 C45.7982313,22.5623077 43.4529252,23.8107692 44.8453061,24.9276923 C44.3457143,23.4415385 47.414966,22.8853846 47.414966,20.4646154 C47.379582,19.5344303 47.0563922,18.6379953 46.4897959,17.8984615 C48.1088435,17.8984615 47.7272109,14.94 50.2991837,14.94 C50.9392727,14.9350346 51.5545904,15.1865394 52.0072154,15.6381403 C52.4598403,16.0897413 52.7119154,16.7036668 52.7069388,17.3423077 C52.7069388,21.6161538 45.8144218,24.1546154 45.8144218,29.2015385 C45.8274998,31.0201207 46.6640694,32.7352799 48.0903401,33.8676923 C46.0642177,26.1530769 56.6157823,26.8523077 58.9610884,18.9715385 C62.4697959,20.8107692 64.8659864,21.7338462 65.3355102,20.9238462 Z M38.7206803,14.4161538 C38.1632653,15.4084615 37.2936054,15.9738462 36.7755102,15.6923077 C36.257415,15.4107692 36.2597279,14.3584615 36.8102041,13.3661538 C37.3606803,12.3738462 38.2372789,11.8084615 38.7669388,12.1015385 C39.2965986,12.3946154 39.2711565,13.4261538 38.7206803,14.4161538 Z M40.2564626,12.2538462 C40.157997,11.9333229 39.9731779,11.6459448 39.7221769,11.4230769 C40.1288181,10.5852326 40.6512311,9.80843513 41.2741497,9.11538462 C42.8446259,10.68 43.9478912,12.2515385 44.3896599,13.5807692 L40.2564626,12.2538462 Z M45.3934694,5.07692308 C45.2353696,5.02870724 45.0649594,5.09690922 44.9840816,5.24076923 L44.2763265,6.51923077 C44.2017275,6.65295318 44.2233078,6.81958847 44.3295238,6.93 L45.4258503,8.08384615 L43.5639456,6.93 C43.3906292,6.82322002 43.2669366,6.65210814 43.2200887,6.45432045 C43.1732408,6.25653276 43.2070765,6.04827743 43.3141497,5.87538462 L44.1352381,4.54384615 C44.2422602,4.37092184 44.4137601,4.24750918 44.6119963,4.20076723 C44.8102325,4.15402528 45.01896,4.18778443 45.1922449,4.29461538 L47.5051701,5.71615385 L45.3934694,5.07692308 Z M32.8296599,24.1153846 C32.8296599,24.1153846 37.4346939,22.6915385 39.1763265,21.7107692 C38.2095238,21.4407692 32.3161905,19.9061538 32.8296599,24.1246154 L32.8296599,24.1153846 Z" id="Shape"></path>
                </g>
            </g>
        </g>
    </g>
</svg>