<svg id="Слой_1" data-name="Слой 1" xmlns="http://www.w3.org/2000/svg" viewBox="0 0 400 200"><defs><style>.cls-1{fill:#f2eee2;}</style></defs><title>XSTER_logo</title><polygon class="cls-1" points="101.5 59.97 81.49 59.97 73.54 71.39 83.92 84.33 101.5 59.97"/><polygon class="cls-1" points="73.91 99.04 63.43 85.92 63.43 85.92 63.41 85.9 63.06 85.46 63.08 85.43 45.02 59.97 23.99 59.97 52.11 99.3 22.5 140 43.77 140 62.74 112.22 82.06 140 103.44 140 73.91 99.03 73.91 99.04"/><polygon class="cls-1" points="190.53 75.06 216.14 75.06 216.14 140 234.66 140 234.66 75.06 234.66 75.06 234.66 59.97 190.53 59.97 190.53 75.06"/><rect class="cls-1" x="253.17" y="92.21" width="54.57" height="14.41"/><rect class="cls-1" x="253.17" y="125.13" width="54.59" height="14.86"/><rect class="cls-1" x="253.17" y="59.97" width="54.59" height="14.86"/><path class="cls-1" d="M359.55,114.27C370,109.82,376,101,376,89c0-18-13.37-29-34.75-29h-15V75.06h14c11.32,0,17,5.14,17,14s-5.71,13.95-17,13.95h-14V117.7h15.91L357.61,140H377.5Z"/><path class="cls-1" d="M147.69,92.57c-9.16-2-17.07-3.78-17.07-9.39,0-5.24,5.17-8.31,14.18-8.45l29.07,0V59.7l-28.53-.1H145c-24.7.22-33.5,12.78-33.5,24.47,0,17.1,16.32,20.77,29.43,23.71,9.18,2.07,17.1,3.85,17.1,9.56,0,5.1-5.34,7.91-15.05,7.91-.54,0-1.48,0-2,0H111.24V140.4H142.3c20.85,0,34.85-9.59,34.85-24.39C177.15,99.08,160.82,95.47,147.69,92.57Z"/></svg>