<svg width="93" height="50" fill="none" xmlns="http://www.w3.org/2000/svg">
    <path d="m70.849 23.293 6.544-8.652-6.401-8.461h3.359l4.69 6.275 4.643-6.275h3.36l-6.402 8.461 6.56 8.652h-3.375l-4.786-6.465-4.817 6.465H70.85Z"
          fill="#FF1E4F"></path>
    <path d="M63.383 23.77c-1.701 0-3.17-.386-4.406-1.157-1.225-.771-2.17-1.838-2.836-3.201-.665-1.363-.998-2.926-.998-4.69 0-1.796.338-3.37 1.014-4.723.676-1.352 1.632-2.403 2.868-3.153 1.236-.76 2.689-1.14 4.358-1.14 1.711 0 3.185.385 4.42 1.156 1.237.76 2.182 1.822 2.837 3.185.666 1.352.998 2.91.998 4.674 0 1.786-.332 3.36-.998 4.723-.665 1.352-1.616 2.413-2.852 3.184-1.236.761-2.704 1.141-4.405 1.141Zm0-2.678c1.774 0 3.095-.592 3.961-1.775.866-1.183 1.3-2.715 1.3-4.596 0-1.933-.439-3.47-1.316-4.61-.877-1.152-2.192-1.728-3.945-1.728-1.194 0-2.177.27-2.948.808-.77.539-1.346 1.284-1.727 2.234-.38.951-.57 2.05-.57 3.296 0 1.923.443 3.465 1.33 4.627.888 1.162 2.193 1.744 3.915 1.744ZM45.95 23.77c-1.606 0-2.958-.397-4.056-1.19-1.1-.802-1.934-1.885-2.504-3.248-.56-1.373-.84-2.91-.84-4.61 0-1.723.28-3.265.84-4.628.57-1.363 1.405-2.435 2.504-3.217 1.109-.781 2.466-1.172 4.072-1.172 1.585 0 2.947.396 4.088 1.188 1.152.782 2.034 1.854 2.646 3.217.613 1.363.92 2.9.92 4.611 0 1.711-.307 3.248-.92 4.611-.612 1.363-1.494 2.446-2.646 3.249-1.14.792-2.509 1.188-4.104 1.188Zm-7.875-.476V.476h2.836v10.22h-.317v12.598h-2.52Zm7.526-2.108c1.13 0 2.066-.285 2.805-.855.74-.57 1.294-1.342 1.664-2.314.37-.982.555-2.081.555-3.296 0-1.204-.185-2.292-.555-3.264-.36-.972-.919-1.743-1.68-2.314-.75-.57-1.706-.855-2.868-.855-1.109 0-2.028.274-2.757.824-.729.538-1.273 1.294-1.632 2.266-.36.96-.539 2.075-.539 3.343 0 1.247.175 2.361.523 3.343.36.972.909 1.738 1.648 2.298.74.55 1.685.824 2.837.824ZM18.679 23.294V5.245c0-.444.02-.893.063-1.347.042-.465.137-.914.285-1.347.148-.443.391-.85.73-1.22.39-.433.818-.74 1.283-.919.465-.19.935-.306 1.41-.349.486-.042.945-.063 1.378-.063H26v2.345h-2.012c-.835 0-1.458.206-1.87.618-.412.402-.618 1.014-.618 1.838v18.492h-2.82Zm-2.9-14.785V6.18h10.22v2.33H15.78ZM28.74 23.294V5.245c0-.444.02-.893.063-1.347.042-.465.138-.914.285-1.347.148-.443.391-.85.73-1.22.39-.433.818-.74 1.283-.919.465-.19.935-.306 1.41-.349A15.95 15.95 0 0 1 33.891 0h2.17v2.345H34.05c-.834 0-1.458.206-1.87.618-.412.402-.618 1.014-.618 1.838v18.492h-2.82Zm-2.9-14.785V6.18h10.22v2.33h-10.22ZM5.815 23.77c-1.278 0-2.35-.233-3.216-.698-.856-.475-1.506-1.098-1.95-1.87A5.09 5.09 0 0 1 0 18.667c0-.898.169-1.674.507-2.33a4.554 4.554 0 0 1 1.458-1.647c.623-.444 1.368-.793 2.234-1.046a25.55 25.55 0 0 1 2.726-.57 93.418 93.418 0 0 1 3.074-.46c1.035-.137 2.002-.27 2.9-.396l-1.015.586c.032-1.521-.274-2.646-.919-3.375-.633-.73-1.732-1.094-3.296-1.094-1.035 0-1.943.238-2.725.714-.771.464-1.315 1.225-1.632 2.281l-2.678-.808c.412-1.5 1.21-2.678 2.393-3.533C4.21 6.133 5.767 5.705 7.7 5.705c1.553 0 2.884.28 3.993.84 1.12.55 1.923 1.384 2.409 2.504.243.528.396 1.104.46 1.727.063.613.095 1.257.095 1.933v10.585h-2.504V19.19l.586.38c-.644 1.384-1.547 2.43-2.71 3.138-1.151.708-2.556 1.061-4.215 1.061Zm.428-2.362c1.014 0 1.891-.18 2.63-.538.75-.37 1.353-.85 1.807-1.442.454-.602.75-1.258.888-1.965a6.476 6.476 0 0 0 .253-1.76 50.05 50.05 0 0 0 .032-1.505l.982.428c-.919.127-1.822.249-2.71.365-.887.116-1.727.243-2.519.38-.792.127-1.505.28-2.14.46a6.97 6.97 0 0 0-1.314.57 2.987 2.987 0 0 0-.983.903c-.243.36-.364.808-.364 1.347 0 .465.116.909.348 1.331.243.423.613.766 1.11 1.03.507.264 1.167.396 1.98.396ZM74.002 50c-1.278 0-2.35-.233-3.217-.697-.855-.476-1.505-1.099-1.949-1.87a5.09 5.09 0 0 1-.65-2.535c0-.898.17-1.675.508-2.33a4.552 4.552 0 0 1 1.457-1.648c.624-.444 1.368-.792 2.235-1.046a25.574 25.574 0 0 1 2.725-.57 93.389 93.389 0 0 1 3.074-.46c1.036-.137 2.002-.269 2.9-.396l-1.014.587c.032-1.522-.275-2.647-.92-3.376-.633-.729-1.732-1.093-3.295-1.093-1.035 0-1.944.238-2.726.713-.77.465-1.315 1.225-1.632 2.282l-2.678-.808c.412-1.5 1.21-2.678 2.393-3.534 1.183-.856 2.741-1.284 4.675-1.284 1.552 0 2.884.28 3.993.84 1.12.55 1.922 1.384 2.408 2.504.243.528.397 1.104.46 1.727.063.613.095 1.257.095 1.933v10.586H80.34V45.42l.587.38c-.645 1.385-1.548 2.43-2.71 3.138-1.151.708-2.556 1.062-4.215 1.062Zm.428-2.361c1.014 0 1.89-.18 2.63-.539.75-.37 1.352-.85 1.807-1.442.454-.602.75-1.257.887-1.965a6.48 6.48 0 0 0 .254-1.759c.02-.655.031-1.156.031-1.505l.983.428c-.92.127-1.823.248-2.71.364a61.52 61.52 0 0 0-2.52.38c-.792.127-1.505.28-2.139.46a6.965 6.965 0 0 0-1.315.57 2.987 2.987 0 0 0-.982.904c-.243.359-.365.808-.365 1.347 0 .465.117.908.349 1.33.243.423.613.767 1.11 1.03.506.265 1.166.397 1.98.397ZM63.293 49.525V32.41h2.82v17.114h-2.82ZM63.293 26.713v2.915h2.82v-2.915h-2.82Z"
          fill="#FF1E4F"></path>
    <path d="M89.663 20.368v2.916h2.82v-2.916h-2.82Z" fill="#fff"></path>
    <path d="M52.392 50c-1.595 0-2.963-.397-4.104-1.189-1.14-.803-2.023-1.886-2.646-3.248-.613-1.363-.92-2.9-.92-4.611 0-1.712.307-3.249.92-4.612.623-1.362 1.505-2.435 2.646-3.216 1.14-.793 2.504-1.189 4.088-1.189 1.617 0 2.974.391 4.073 1.173 1.098.782 1.928 1.854 2.487 3.217.57 1.362.856 2.905.856 4.627 0 1.7-.285 3.237-.856 4.61-.56 1.363-1.389 2.446-2.487 3.25C55.35 49.602 53.998 50 52.392 50Zm.349-2.583c1.151 0 2.097-.275 2.836-.824.74-.56 1.284-1.326 1.632-2.298.36-.982.539-2.097.539-3.343 0-1.268-.18-2.383-.539-3.344-.348-.972-.887-1.727-1.616-2.266-.729-.55-1.653-.824-2.773-.824-1.162 0-2.123.285-2.884.856-.75.57-1.31 1.341-1.68 2.313-.359.972-.538 2.06-.538 3.265 0 1.214.184 2.313.554 3.296.37.971.925 1.742 1.664 2.313.75.57 1.685.856 2.805.856Zm5.007 2.107V36.927h-.317v-10.22h2.837v22.817h-2.52ZM35.365 50c-1.68 0-3.148-.37-4.406-1.11-1.246-.75-2.218-1.79-2.915-3.121-.697-1.342-1.046-2.905-1.046-4.69 0-1.87.343-3.486 1.03-4.85.687-1.373 1.643-2.429 2.868-3.168 1.236-.75 2.683-1.125 4.342-1.125 1.722 0 3.185.396 4.39 1.188 1.214.792 2.123 1.923 2.725 3.391.612 1.468.877 3.217.792 5.245h-2.852v-1.014c-.032-2.102-.46-3.671-1.284-4.706-.824-1.046-2.05-1.57-3.676-1.57-1.743 0-3.069.56-3.977 1.68-.909 1.12-1.363 2.726-1.363 4.818 0 2.017.454 3.58 1.363 4.69.908 1.11 2.202 1.664 3.882 1.664 1.13 0 2.113-.259 2.947-.777.835-.517 1.49-1.262 1.965-2.234l2.71.935c-.666 1.51-1.67 2.683-3.01 3.518-1.332.824-2.827 1.236-4.485 1.236Zm-6.323-8.24v-2.266h12.645v2.266H29.042ZM21.895 49.524l.016-10.95c0-1.278-.343-2.276-1.03-2.994-.676-.73-1.558-1.094-2.646-1.094a3.87 3.87 0 0 0-1.806.444c-.57.285-1.036.74-1.395 1.363-.359.612-.539 1.4-.539 2.36l-1.489-.601c-.021-1.215.227-2.277.745-3.185a5.59 5.59 0 0 1 2.155-2.14c.908-.507 1.933-.76 3.074-.76 1.785 0 3.19.544 4.215 1.632 1.025 1.077 1.537 2.53 1.537 4.358l-.016 11.567h-2.82Zm-20.472 0V32.41h2.52v4.58h.316v12.534H1.423Zm10.252 0 .016-10.839c0-1.31-.338-2.334-1.014-3.074-.676-.75-1.574-1.125-2.694-1.125-1.11 0-2.007.38-2.694 1.141-.687.76-1.03 1.77-1.03 3.027l-1.49-.888c0-1.109.265-2.102.793-2.979a5.61 5.61 0 0 1 2.155-2.06c.908-.507 1.938-.76 3.09-.76 1.151 0 2.155.243 3.01.729a4.923 4.923 0 0 1 1.981 2.091c.465.898.697 1.97.697 3.217l-.015 11.52h-2.805Z"
          fill="#FF1E4F"></path>
</svg>