<svg version="1.1" xmlns="http://www.w3.org/2000/svg" xmlns:xlink="http://www.w3.org/1999/xlink" viewBox="0 0 664 147"
     xml:space="preserve" width="664" height="147" class="tm-logo-sw tm-cw tm-dsw uk-svg" fill="#fff">
<style type="text/css">
	.st1{fill:#EA6C0D;}
	.st2{fill:url(#SVGID_1_);}
</style>
    <path d="M469.6,146.6c-4,0-6.9-3.2-6.9-7.4s2.9-7.1,6.9-7.1h7.7v1.9h-7.7c-2.9,0-5,2.2-5,5.3s2.1,5.4,5,5.4h6.7v-4.6h-7
	v-1.8h9v8.3L469.6,146.6L469.6,146.6z"></path>
    <path d="M512.8,146.6l-3.8-4.1h-6.4v-1.8h6.5c2.1,0,3.2-1.2,3.2-3.4s-1.2-3.3-3.2-3.3h-8.4v12.6h-1.9v-14.5h10.3
	c3.2,0,5.1,2,5.1,5.2c0,2.4-1.1,4.2-3.1,4.9l4.4,4.5L512.8,146.6L512.8,146.6z"></path>
    <path d="M541.6,146.6c-4,0-6.9-3.2-6.9-7.4s2.9-7.1,6.9-7.1h3.5c4.1,0,7,2.9,7,7.1s-2.9,7.4-7,7.4H541.6z M545.1,144.7
	c2.9,0,5-2.3,5-5.4s-2.1-5.3-5-5.3h-3.5c-2.9,0-5,2.2-5,5.3s2.1,5.4,5,5.4H545.1z"></path>
    <path d="M585.6,132.1h1.9v8.1c0,4.5-2.2,6.6-7.7,6.6s-7.7-2.1-7.7-6.6v-8.1h2v8.1c0,3.3,1.5,4.7,5.8,4.7
	s5.8-1.4,5.8-4.7L585.6,132.1L585.6,132.1z"></path>
    <path d="M611.8,142.5v-1.9h6.3c2.1,0,3.3-1.3,3.3-3.3s-1.2-3.3-3.3-3.3H610v12.6H608v-14.5h10.1c3.3,0,5.2,2,5.2,5.1
	s-1.9,5.2-5.2,5.2L611.8,142.5L611.8,142.5z"></path>
    <g>
	<path class="st1" d="M84,0c9.4,0,16.8,7.4,16.8,16.8v84H89.5V64H11.3v36.8H0v-84C0,7.4,7.4,0,16.8,0H84z M89.5,52.6V16.8
		c0-2.9-2.5-5.5-5.5-5.5H16.8c-2.9,0-5.5,2.5-5.5,5.5v35.8H89.5z"></path>
        <path d="M217.4,46.5c0,9.2-7.4,16.8-16.8,16.8h-15.4l31.6,37.5h-15l-31.5-37.5h-37c-1.4,0-3.4-0.3-5.5-0.6v38.1h-11.3
		V0.1h84c9.4,0,16.8,7.6,16.8,16.8L217.4,46.5L217.4,46.5z M200.6,51.8c2.9,0,5.3-2.4,5.3-5.3V16.9c0-2.9-2.4-5.5-5.3-5.5h-67.2
		c-2.9,0-5.5,2.5-5.5,5.5v29.5c0,2.9,2.5,5.3,5.5,5.3H200.6z"></path>
        <path d="M328.4,0l-42.1,50.4l42.3,50.4h-14.7l-37.5-44.7h-32.5v44.7h-11.5V0h11.5v44.7h32.5
		c12.2-14.6,25.3-30.1,37.5-44.7H328.4L328.4,0z"></path>
        <path class="st1" d="M433.3,0h11.3v100.8h-15.5l-73.9-87.9v87.9h-11.3V0h15.5l73.9,87.9V0z"></path>
        <path d="M552.6,11.3h-80.6v33.3h64.8v11.5h-64.8v33.3h80.6v11.3h-92V0h92V11.3z"></path>
        <path d="M663.3,0v11.3h-44.7v89.5h-11.3V11.3h-44.8V0H663.3z"></path>
</g>
    <linearGradient id="SVGID_1_" gradientUnits="userSpaceOnUse" x1="451.64" y1="8.54" x2="1.818989e-12" y2="8.54"
                    gradientTransform="matrix(1 0 0 -1 0 148)">
	<stop offset="0" style="stop-color:#260F0A;stop-opacity:0"></stop>
        <stop offset="0" style="stop-color:#000000;stop-opacity:4.000000e-02"></stop>
        <stop offset="8.000000e-02" style="stop-color:#000000;stop-opacity:0.58"></stop>
        <stop offset="0.16" style="stop-color:#000000;stop-opacity:0.9"></stop>
        <stop offset="0.27" style="stop-color:#1D1D1B"></stop>
        <stop offset="0.31" style="stop-color:#32231D"></stop>
        <stop offset="0.4" style="stop-color:#623322"></stop>
        <stop offset="0.5" style="stop-color:#8B4027"></stop>
        <stop offset="0.59" style="stop-color:#AD4B2B"></stop>
        <stop offset="0.69" style="stop-color:#C7542E"></stop>
        <stop offset="0.79" style="stop-color:#DA5A30"></stop>
        <stop offset="0.89" style="stop-color:#E55D31"></stop>
        <stop offset="1" style="stop-color:#E95F32"></stop>
</linearGradient>
    <polygon class="st2" points="451.6,142 0,139.5 451.6,137 "></polygon>
</svg>