<?xml version="1.0" encoding="UTF-8"?><svg id="_Слой_1" xmlns="http://www.w3.org/2000/svg" viewBox="0 0 500 500"><defs><style>.cls-1{fill-rule:evenodd;}.cls-1,.cls-2{fill:#2094ff;stroke-width:0px;}</style></defs><path class="cls-2" d="m70.2,335.26c-.86-3.76-3.7-5.35-8.58-5.35-4.16,0-7.72,1.65-7.72,5.35,0,3.1,2.64,4.23,5.88,4.82l8.78,1.58c7.4,1.32,12.81,5.35,12.81,13.8,0,7.86-6.14,14.86-18.95,14.86-11.88,0-19.21-5.94-20.14-15.25h10.04c.86,5.22,5.41,6.8,10.5,6.8s8.65-2.18,8.65-5.94-2.51-5.22-6.4-5.88l-8.98-1.58c-7.79-1.39-12.08-5.81-12.08-12.87,0-7.79,6.34-14.13,17.76-14.13,10.23,0,17.5,5.28,18.49,13.8h-10.04Z"/><path class="cls-2" d="m136.09,345.89c0,13.87-8.05,24.43-22.98,24.43s-22.98-10.56-22.98-24.43,8.05-24.43,22.98-24.43,22.98,10.56,22.98,24.43Zm-10.1,0c0-8.72-4.03-15.65-12.88-15.65s-12.88,6.93-12.88,15.65,4.09,15.65,12.88,15.65,12.88-6.93,12.88-15.65Z"/><path class="cls-2" d="m181.59,360.48v8.98h-34.79v-47.14h9.84v38.16h24.96Z"/><path class="cls-2" d="m231.11,322.32v29.78c0,11.62-7.13,18.22-19.81,18.22s-19.68-6.6-19.68-18.22v-29.78h9.84v29.58c0,5.81,3.57,9.64,9.9,9.64s9.9-3.83,9.9-9.64v-29.58h9.84Z"/><path class="cls-2" d="m278.65,330.97h-14.66v38.49h-9.84v-38.49h-14.66v-8.65h39.15v8.65Z"/><path class="cls-2" d="m297.34,322.32v47.14h-9.84v-47.14h9.84Z"/><path class="cls-2" d="m354.26,345.89c0,13.87-8.05,24.43-22.98,24.43s-22.98-10.56-22.98-24.43,8.05-24.43,22.98-24.43,22.98,10.56,22.98,24.43Zm-10.1,0c0-8.72-4.03-15.65-12.88-15.65s-12.88,6.93-12.88,15.65,4.09,15.65,12.88,15.65,12.88-6.93,12.88-15.65Z"/><path class="cls-2" d="m405.7,322.32v47.14h-12.28l-18.16-32.48h-1.32v32.48h-8.98v-47.14h12.28l18.16,32.48h1.32v-32.48h8.98Z"/><path class="cls-2" d="m443.93,335.26c-.86-3.76-3.7-5.35-8.58-5.35-4.16,0-7.72,1.65-7.72,5.35,0,3.1,2.64,4.23,5.88,4.82l8.78,1.58c7.4,1.32,12.81,5.35,12.81,13.8,0,7.86-6.14,14.86-18.95,14.86-11.88,0-19.21-5.94-20.14-15.25h10.04c.86,5.22,5.41,6.8,10.5,6.8s8.65-2.18,8.65-5.94-2.51-5.22-6.4-5.88l-8.98-1.58c-7.79-1.39-12.08-5.81-12.08-12.87,0-7.79,6.34-14.13,17.76-14.13,10.23,0,17.5,5.28,18.49,13.8h-10.04Z"/><path class="cls-1" d="m376,228.79c-1.65,3.81-3.93,7.22-6.85,10.21-2.91,2.99-6.28,5.53-10.06,7.63-3.81,2.1-7.89,3.67-12.23,4.75-4.34,1.09-8.75,1.65-13.28,1.65-6.77-.04-13.09-1.31-18.93-3.74-5.87-2.47-11-5.91-15.42-10.33-4.41-4.37-7.85-9.53-10.35-15.37-2.47-5.88-3.74-12.2-3.78-19.04.01-2.14.15-4.23.4-6.27-10.22,13.36-19.43,28.4-27.61,39.93,2.43,5.44,5.39,10.55,8.91,15.35,5.05,6.92,11.04,12.9,17.92,17.99,6.92,5.09,14.48,9.02,22.74,11.82,8.27,2.77,16.95,4.19,26.11,4.23,7.82-.04,15.37-1.05,22.6-3.11,7.25-2.05,14.02-4.97,20.31-8.75,3.31-1.99,6.44-4.18,9.4-6.58v10.75h29.56v-80.52c-27.37-.05-35.5-.17-62.85-.17v29.58h23.4Z"/><path class="cls-1" d="m375.24,179.87l27.07-22.57c-10.11-13.39-23.69-24.12-39.37-30.18-9.21-3.51-19.01-5.31-29.37-5.39-9.16.04-17.84,1.45-26.11,4.23-8.26,2.81-15.82,6.73-22.74,11.78-38.44,28.42-63.95,96.43-101.92,110.87-5.34,2.03-11,3.03-17.02,3.07-6.62-.04-12.79-1.27-18.52-3.74-5.72-2.47-10.78-5.83-15.11-10.21-4.38-4.34-7.75-9.39-10.21-15.11-2.47-5.72-3.71-11.9-3.74-18.52.03-6.55,1.27-12.68,3.74-18.41,2.47-5.76,5.83-10.77,10.21-15.15,4.34-4.38,9.39-7.78,15.11-10.25,5.72-2.47,11.89-3.74,18.52-3.78,5.8.04,11.26,1.01,16.42,2.95,5.13,1.91,9.76,4.64,13.84,8.08,4.11,3.44,7.48,7.49,10.14,12.08l21.89-27.28c-2.82-3.45-5.93-6.66-9.32-9.64-7.11-6.21-15.11-11.03-24.09-14.55-8.94-3.48-18.59-5.23-28.88-5.31-9.02.04-17.58,1.42-25.7,4.19-8.12,2.73-15.53,6.62-22.3,11.6-6.77,5.01-12.61,10.88-17.58,17.66-4.98,6.77-8.79,14.21-11.52,22.29-2.73,8.08-4.11,16.57-4.15,25.51.04,9.02,1.42,17.58,4.15,25.7,2.73,8.08,6.54,15.53,11.52,22.3,4.97,6.77,10.81,12.61,17.58,17.58,6.77,4.98,14.18,8.79,22.3,11.52,8.12,2.73,16.68,4.11,25.7,4.15,10.59-.08,20.46-1.91,29.62-5.5,59.11-23.17,73.42-100.73,119.24-120,5.84-2.46,12.16-3.74,18.93-3.78,17.31,0,32.69,8.87,41.66,23.8Z"/></svg>