<svg width="176" height="40" viewBox="0 0 176 40" fill="none" xmlns="http://www.w3.org/2000/svg">
<path fill-rule="evenodd" clip-rule="evenodd" d="M167.927 18.5184C169.633 18.5184 171.615 17.1609 171.615 14.6053V13.6737C170.184 14.8979 165.533 13.9926 165.533 16.3354C165.533 17.6931 166.661 18.5184 167.927 18.5184ZM166.881 21.0207C164.487 21.0207 162.313 19.4503 162.313 16.6282C162.313 10.6385 171.615 13.487 171.615 10.7719C171.615 9.41422 170.459 8.96107 169.056 8.96107C167.294 8.96107 165.148 9.65361 164.267 10.1328L163.331 7.87012C164.9 7.09784 166.936 6.48535 169.138 6.48535C172.055 6.48535 174.642 7.55031 174.642 10.7719V14.6053C174.642 16.0163 174.78 19.1303 175 20.4081L172 20.7815C171.89 20.2223 171.835 18.9446 171.835 18.2785C170.569 20.1154 168.67 21.0207 166.881 21.0207Z" fill="white"/>
<path fill-rule="evenodd" clip-rule="evenodd" d="M156.484 21.0208C152.631 21.0208 149.108 18.1459 149.108 13.7534C149.108 9.4669 152.494 6.48535 156.457 6.48535C157.75 6.48535 159.099 6.80524 160.42 7.4974L159.402 9.65361C158.411 9.17415 157.475 8.96107 156.622 8.96107C154.118 8.96107 152.301 10.7983 152.328 13.7534C152.328 16.6816 154.145 18.5185 156.512 18.5185C157.447 18.5185 158.466 18.2258 159.484 17.6131L160.75 19.7701C159.374 20.6221 157.915 21.0208 156.484 21.0208Z" fill="white"/>
<path fill-rule="evenodd" clip-rule="evenodd" d="M142.726 20.7277H145.754V6.75159H142.726V20.7277ZM142.644 5.00861H145.837V2H142.644V5.00861Z" fill="white"/>
<path fill-rule="evenodd" clip-rule="evenodd" d="M132.411 6.75173L132.494 2.99805H135.438V6.75173H139.786V9.04104H135.438V15.6431C135.438 17.6131 136.43 18.5184 137.805 18.5184C138.438 18.5184 139.154 18.332 139.869 17.9595L140.695 20.1687C139.649 20.7017 138.383 21.0209 137.173 21.0209C134.695 21.0209 132.411 19.6894 132.411 16.2021V9.04104H130.154V6.91144L132.411 6.75173Z" fill="white"/>
<path fill-rule="evenodd" clip-rule="evenodd" d="M120.858 18.5184C122.564 18.5184 124.546 17.1609 124.546 14.6053V13.6737C123.115 14.8979 118.464 13.9926 118.464 16.3354C118.464 17.6931 119.592 18.5184 120.858 18.5184ZM119.812 21.0207C117.418 21.0207 115.244 19.4503 115.244 16.6282C115.244 10.6385 124.546 13.487 124.546 10.7719C124.546 9.41422 123.39 8.96107 121.987 8.96107C120.225 8.96107 118.079 9.65361 117.198 10.1328L116.262 7.87012C117.831 7.09784 119.867 6.48535 122.069 6.48535C124.986 6.48535 127.573 7.55031 127.573 10.7719V14.6053C127.573 16.0163 127.711 19.1303 127.931 20.4081L124.931 20.7815C124.821 20.2223 124.766 18.9446 124.766 18.2785C123.5 20.1154 121.601 21.0207 119.812 21.0207Z" fill="white"/>
<path fill-rule="evenodd" clip-rule="evenodd" d="M97.7231 6.51241C99.6493 6.51241 101.439 7.57737 102.291 9.57378C103.64 7.47048 105.594 6.48535 107.41 6.48535C110.052 6.48535 112.447 8.56235 112.447 12.183V20.7279H109.392V12.7148C109.392 10.1856 107.795 8.96107 106.172 8.96107C104.493 8.96107 102.787 10.2662 102.787 12.7148V20.7279H99.7326V12.7148C99.7326 10.1856 98.1362 8.96107 96.5128 8.96107C94.8336 8.96107 93.1276 10.2662 93.1276 12.7148V20.7279H90.0997V12.8745C90.0997 11.4634 89.9619 8.34965 89.7417 7.07176L92.7417 6.69836C92.8521 7.25733 92.9346 8.53529 92.9346 9.20129C94.1732 7.36444 95.9889 6.51241 97.7231 6.51241Z" fill="white"/>
<path fill-rule="evenodd" clip-rule="evenodd" d="M79.0971 18.5184C80.803 18.5184 82.7845 17.1609 82.7845 14.6053V13.6737C81.3532 14.8979 76.7025 13.9926 76.7025 16.3354C76.7025 17.6931 77.8304 18.5184 79.0971 18.5184ZM78.0506 21.0207C75.6568 21.0207 73.4824 19.4503 73.4824 16.6282C73.4824 10.6385 82.7845 13.487 82.7845 10.7719C82.7845 9.41422 81.6285 8.96107 80.225 8.96107C78.4636 8.96107 76.3175 9.65361 75.4366 10.1328L74.5006 7.87012C76.0692 7.09784 78.1058 6.48535 80.3076 6.48535C83.2248 6.48535 85.8116 7.55031 85.8116 10.7719V14.6053C85.8116 16.0163 85.9494 19.1303 86.1696 20.4081L83.1696 20.7815C83.0601 20.2223 83.0048 18.9446 83.0048 18.2785C81.7389 20.1154 79.8399 21.0207 78.0506 21.0207Z" fill="white"/>
<path fill-rule="evenodd" clip-rule="evenodd" d="M63.0311 18.5184C65.7557 18.5184 67.9572 17.1873 67.9572 13.7533C67.9572 10.4521 66.1408 8.96107 64.2698 8.96107C62.2883 8.96107 60.2787 10.4258 60.2787 12.7148V18.1724C61.2146 18.4118 62.1505 18.5184 63.0311 18.5184ZM65.0126 6.48535C68.0948 6.48535 71.1771 9.09441 71.1771 13.7533C71.1771 18.6245 67.0493 21.0207 63.1961 21.0207C62.1776 21.0207 61.1592 20.834 60.2787 20.515V25.0002H57.2516V12.8745C57.2516 11.4634 57.1138 8.3495 56.8936 7.07177L59.8936 6.69836C60.0041 7.25733 60.0865 8.53529 60.0865 9.20122C61.3804 7.36436 63.1961 6.48535 65.0126 6.48535Z" fill="white"/>
<path fill-rule="evenodd" clip-rule="evenodd" d="M50.3764 21.0208C46.523 21.0208 43.0005 18.1459 43.0005 13.7534C43.0005 9.4669 46.3862 6.48535 50.3492 6.48535C51.6421 6.48535 52.9911 6.80524 54.3121 7.4974L53.2939 9.65361C52.3025 9.17415 51.3667 8.96107 50.5141 8.96107C48.0098 8.96107 46.1933 10.7983 46.2205 13.7534C46.2205 16.6816 48.0369 18.5185 50.4037 18.5185C51.3395 18.5185 52.358 18.2258 53.3762 17.6131L54.642 19.7701C53.2659 20.6221 51.8071 21.0208 50.3764 21.0208Z" fill="white"/>
<path d="M47.2509 29.0486H48.0127L50.9195 35.9514H49.9573L49.1153 33.9292H46.1282L45.2963 35.9514H44.334L47.2509 29.0486ZM48.9148 33.2486L47.6318 30.0597L46.3086 33.2486H48.9148Z" fill="white"/>
<path d="M53.6736 35.9514V29.0486H58.3747V29.8264H54.5757V32.1306H57.7733V32.8597H54.5757V35.9514H53.6736Z" fill="white"/>
<path d="M61.3217 35.9514V29.0486H66.0228V29.8264H62.2239V32.1306H65.4214V32.8597H62.2239V35.9514H61.3217Z" fill="white"/>
<path d="M68.9699 35.9514V29.0486H69.872V35.9514H68.9699Z" fill="white"/>
<path d="M73.3779 35.9514V29.0486H74.2801V35.1736H78.2494V35.9514H73.3779Z" fill="white"/>
<path d="M81.0359 35.9514V29.0486H81.938V35.9514H81.0359Z" fill="white"/>
<path d="M87.609 29.0486H88.3708L91.2777 35.9514H90.3154L89.4734 33.9292H86.4864L85.6544 35.9514H84.6921L87.609 29.0486ZM89.273 33.2486L87.9899 30.0597L86.6668 33.2486H89.273Z" fill="white"/>
<path d="M98.4885 29.8264H96.0327V35.9514H95.1305V29.8264H92.6747V29.0486H98.4885V29.8264Z" fill="white"/>
<path d="M106.149 35.1736V35.9514H101.318V29.0486H106.059V29.8264H102.22V32.0625H105.558V32.7917H102.22V35.1736H106.149Z" fill="white"/>
<path d="M114.433 30.6819V35.9514H113.531V29.0486H114.232L118.643 34.425V29.0583H119.545V35.9514H118.783L114.433 30.6819Z" fill="white"/>
<path d="M127.88 35.1736V35.9514H123.048V29.0486H127.79V29.8264H123.95V32.0625H127.288V32.7917H123.95V35.1736H127.88Z" fill="white"/>
<path d="M136.054 29.8264H133.598V35.9514H132.696V29.8264H130.24V29.0486H136.054V29.8264Z" fill="white"/>
<path d="M141.489 29.0875H142.341L143.283 31.4889L144.236 29.0875H145.088L143.855 32.0917L145.078 34.9403L147.483 29.0486H148.466L145.489 35.9514H144.707L143.293 32.6944L141.87 35.9514H141.088L138.121 29.0486H139.093L141.509 34.9403L142.722 32.0917L141.489 29.0875Z" fill="white"/>
<path d="M153.823 36C153.322 36 152.864 35.9028 152.45 35.7083C152.042 35.5074 151.691 35.2449 151.397 34.9208C151.103 34.5903 150.876 34.2144 150.716 33.7931C150.555 33.3718 150.475 32.9407 150.475 32.5C150.475 32.0398 150.558 31.5991 150.726 31.1778C150.899 30.7565 151.136 30.3838 151.437 30.0597C151.738 29.7356 152.092 29.4796 152.5 29.2917C152.914 29.0972 153.362 29 153.843 29C154.344 29 154.798 29.1037 155.206 29.3111C155.614 29.512 155.965 29.7778 156.259 30.1083C156.553 30.4389 156.78 30.8148 156.94 31.2361C157.101 31.6509 157.181 32.0755 157.181 32.5097C157.181 32.9699 157.094 33.4106 156.92 33.8319C156.753 34.2532 156.519 34.6259 156.219 34.95C155.924 35.2676 155.57 35.5236 155.156 35.7181C154.748 35.906 154.304 36 153.823 36ZM151.387 32.5C151.387 32.85 151.444 33.1903 151.557 33.5208C151.678 33.8449 151.845 34.1333 152.059 34.3861C152.273 34.6389 152.53 34.8398 152.83 34.9889C153.131 35.138 153.465 35.2125 153.833 35.2125C154.214 35.2125 154.555 35.1347 154.855 34.9792C155.156 34.8171 155.41 34.6097 155.617 34.3569C155.831 34.0977 155.991 33.806 156.098 33.4819C156.212 33.1579 156.269 32.8306 156.269 32.5C156.269 32.15 156.208 31.813 156.088 31.4889C155.975 31.1583 155.808 30.8699 155.587 30.6236C155.373 30.3708 155.116 30.1699 154.815 30.0208C154.521 29.8718 154.194 29.7972 153.833 29.7972C153.452 29.7972 153.111 29.875 152.81 30.0306C152.51 30.1861 152.252 30.3903 152.039 30.6431C151.831 30.8958 151.671 31.1843 151.557 31.5083C151.444 31.8324 151.387 32.163 151.387 32.5Z" fill="white"/>
<path d="M160.238 35.9514V29.0486H163.286C163.6 29.0486 163.887 29.1134 164.148 29.2431C164.415 29.3662 164.642 29.5347 164.829 29.7486C165.023 29.956 165.173 30.1926 165.28 30.4583C165.387 30.7176 165.441 30.9833 165.441 31.2556C165.441 31.4954 165.404 31.7287 165.33 31.9556C165.264 32.1759 165.163 32.3769 165.03 32.5583C164.903 32.7398 164.746 32.8954 164.559 33.025C164.378 33.1546 164.174 33.2486 163.947 33.3069L165.671 35.9514H164.649L163.025 33.4722H161.141V35.9514H160.238ZM161.141 32.6944H163.296C163.483 32.6944 163.65 32.6556 163.797 32.5778C163.951 32.5 164.081 32.3963 164.188 32.2667C164.295 32.1306 164.378 31.975 164.438 31.8C164.498 31.625 164.529 31.4435 164.529 31.2556C164.529 31.0611 164.492 30.8796 164.418 30.7111C164.351 30.5361 164.258 30.3838 164.138 30.2542C164.024 30.1181 163.887 30.0144 163.727 29.9431C163.573 29.8653 163.409 29.8264 163.236 29.8264H161.141V32.6944Z" fill="white"/>
<path d="M168.631 35.9514V29.0583H169.533V32.8694L173.201 29.0486H174.174L171.317 32.0917L174.334 35.9514H173.352L170.766 32.5972L169.533 33.8417V35.9514H168.631Z" fill="white"/>
<g clip-path="url(#clip0_3007_201)">
<path fill-rule="evenodd" clip-rule="evenodd" d="M24.7399 29.623L33.8335 33.4997L20.9411 39.1105L24.7399 29.623ZM0.699398 19.9688L10.6479 29.9628L7.1463 33.5387L0.699398 19.9688ZM6.21445 6.2946L10.2431 10.2454L0.68031 19.7188L6.21445 6.2946ZM33.3886 6.37658L24.4821 9.96545L20.6728 0.832756L33.3886 6.37658ZM26.3139 14.357L33.4905 7.0277L28.478 19.5451L26.3139 14.357ZM33.7614 32.9259L26.3341 25.6419L28.4837 20.2732L33.7614 32.9259ZM26.2236 25.9175L33.2772 32.8348L24.847 29.3555L26.2236 25.9175ZM15.4324 25.4699L20.4951 20.2995L26.01 25.7081L24.5917 29.25L15.4324 25.4699ZM14.1875 14.1136L1.61727 19.1787L10.4399 10.4385L14.1875 14.1136ZM20.2986 20.1069L15.1581 25.3567L1.25603 19.6191L14.4005 14.3225L20.2986 20.1069ZM26.105 14.5704L28.3321 19.9096L26.1204 25.4323L20.6869 20.1037L26.105 14.5704ZM24.5874 10.2179L33.4969 6.62788L26.1989 14.0812L24.5874 10.2179ZM25.9898 14.2946L20.4904 19.911L14.6779 14.2108L24.3323 10.3207L25.9898 14.2946ZM10.4378 10.0526L6.37399 6.06732L19.7858 0.791947L10.4378 10.0526ZM20.3001 0.670252L24.2269 10.0682L14.4649 14.002L10.6347 10.2456L20.3001 0.670252ZM0.970536 19.8194L14.9388 25.5805L10.8479 29.7584L0.970536 19.8194ZM19.7485 39.105L7.34409 33.7301L10.8421 30.1578L19.7485 39.105ZM11.0419 29.9536L15.2132 25.6937L24.4845 29.5176L20.5801 39.2678L20.3834 39.3534L11.0419 29.9536ZM34.3335 33.5651L28.6296 19.9088L34.0516 6.3672L20.2094 0.333008L6.05791 5.87427L0.333496 19.8345L7.00329 33.8761L20.3466 39.6663L34.3335 33.5651Z" fill="white" stroke="white" stroke-width="0.5"/>
<path fill-rule="evenodd" clip-rule="evenodd" d="M0.667969 19.667L20.2424 39.599L34.2621 33.466L0.667969 19.667Z" fill="white"/>
<path fill-rule="evenodd" clip-rule="evenodd" d="M20.2619 0.5L0.625 19.8162C4.34238 10.7091 6.21685 6.1169 6.24842 6.03956C6.27999 5.96222 10.9435 4.03456 20.2619 0.5Z" fill="white"/>
<path fill-rule="evenodd" clip-rule="evenodd" d="M33.658 6.5L20.4285 20L14.3999 14.1667L33.658 6.5Z" fill="white"/>
</g>
<defs>
<clipPath id="clip0_3007_201">
<rect width="34.6667" height="40" fill="white"/>
</clipPath>
</defs>
</svg>
