<svg width="145" height="50" viewBox="0 0 145 50" fill="none" xmlns="http://www.w3.org/2000/svg">
<path d="M45.1729 34.6005C43.887 33.7779 42.1769 34.1502 41.3544 35.4361C37.7566 41.06 31.6305 44.4152 24.9719 44.4152C14.248 44.4152 5.52863 35.6915 5.52863 24.9719C5.52863 14.248 14.2524 5.52863 24.9719 5.52863C31.4877 5.52863 37.5402 8.77135 41.1639 14.2091C42.0081 15.4776 43.7269 15.8239 44.9954 14.9754C46.2639 14.1268 46.6102 12.4124 45.7617 11.1439C41.1119 4.16487 33.3406 0 24.9719 0C11.2001 0 0 11.2045 0 24.9719C0 38.7394 11.2001 49.9439 24.9719 49.9439C33.5225 49.9439 41.389 45.6318 46.0128 38.4147C46.8354 37.1332 46.4587 35.4231 45.1729 34.6005Z" fill="#E7E3DA"/>
<path d="M30.1802 24.972C30.1802 22.0107 27.7774 19.6078 24.8161 19.6078C21.8548 19.6078 19.452 22.0107 19.452 24.972C19.452 27.9333 21.8548 30.3361 24.8161 30.3361C27.7774 30.3361 30.1802 27.9333 30.1802 24.972Z" fill="#E7E3DA"/>
<path d="M18.573 37.1549C18.1661 38.6268 19.0276 40.1508 20.4996 40.5578C21.9023 40.9474 23.3527 41.1422 24.816 41.1422C33.7346 41.1422 40.9863 33.8862 40.9863 24.9719C40.9863 16.0534 33.7302 8.80167 24.816 8.80167C15.8975 8.80167 8.64575 16.0577 8.64575 24.9719C8.64575 26.6041 8.8882 28.219 9.37309 29.7689C9.82768 31.2279 11.3733 32.0418 12.8323 31.5873C14.2913 31.137 15.1052 29.5871 14.6506 28.1281C14.3346 27.1107 14.1744 26.05 14.1744 24.9719C14.1744 19.1013 18.9497 14.326 24.8204 14.326C30.691 14.326 35.4663 19.1013 35.4663 24.9719C35.4663 30.8426 30.691 35.6179 24.8204 35.6179C23.8549 35.6179 22.9024 35.488 21.9803 35.2326C20.504 34.8213 18.9843 35.6829 18.573 37.1549Z" fill="#E7E3DA"/>
<path d="M65.7851 17.2526C66.8025 16.6638 67.9412 16.3651 69.2053 16.3651C70.634 16.3651 71.8463 16.6942 72.8464 17.3479C73.8638 18.006 74.6171 18.9151 75.1106 20.0797H77.1281C76.5047 18.4216 75.5046 17.1444 74.1279 16.2396C72.7641 15.3217 71.1276 14.8628 69.2053 14.8628C67.6294 14.8628 66.2051 15.2395 64.9236 15.9928C63.6421 16.7331 62.6333 17.7722 61.8973 19.1186C61.157 20.4477 60.789 21.9587 60.789 23.6472C60.789 25.3356 61.157 26.8466 61.8973 28.1757C62.6377 29.5048 63.6464 30.5482 64.9236 31.3015C66.2051 32.0419 67.6294 32.4098 69.2053 32.4098C71.1103 32.4098 72.7468 31.9596 74.1279 31.0547C75.5046 30.1542 76.5047 28.8814 77.1281 27.2406H75.1106C74.6171 28.3878 73.8638 29.2927 72.8464 29.9464C71.8463 30.5872 70.6297 30.9075 69.2053 30.9075C67.9412 30.9075 66.8025 30.6131 65.7851 30.02C64.785 29.4312 63.9971 28.5827 63.4213 27.4873C62.8455 26.3877 62.5597 25.1105 62.5597 23.6472C62.5597 22.1882 62.8455 20.9067 63.4213 19.807C63.9971 18.6987 64.7807 17.8414 65.7851 17.2526Z" fill="#E7E3DA"/>
<path d="M88.2113 15.062H83.0204V32.2626H84.7435V24.9286H88.2113C90.1466 24.9286 91.5969 24.4784 92.5667 23.5735C93.5365 22.673 94.017 21.4824 94.017 20.0061C94.017 18.5125 93.5235 17.3176 92.5407 16.4127C91.5753 15.5122 90.1336 15.062 88.2113 15.062ZM88.2113 23.4523H84.7435V16.5166H88.2113C89.6227 16.5166 90.6488 16.811 91.2852 17.4042C91.9259 17.9929 92.2463 18.8632 92.2463 20.0104C92.2507 22.305 90.9042 23.4523 88.2113 23.4523Z" fill="#E7E3DA"/>
<path d="M103.234 15.2828L96.9611 32.2626H98.7837L100.286 28.1757H108.109L109.612 32.2626H111.434L105.178 15.2828H103.234ZM100.801 26.7513L104.195 17.4475L107.59 26.7513H100.801Z" fill="#E7E3DA"/>
<path d="M126.596 23.2575C127.319 22.37 127.678 21.3049 127.678 20.0581C127.678 18.5644 127.176 17.3609 126.176 16.4387C125.193 15.5209 123.738 15.062 121.82 15.062H116.651V32.2626H118.374V25.0758H121.548L125.803 32.2626H127.869L123.44 24.9546C124.842 24.6948 125.89 24.1277 126.596 23.2575ZM118.379 23.6774V16.5166H121.825C123.236 16.5166 124.271 16.8283 124.925 17.4518C125.583 18.0579 125.907 18.9281 125.907 20.0581C125.907 21.1577 125.561 22.0366 124.873 22.6903C124.202 23.3484 123.193 23.6731 121.846 23.6731H118.379V23.6774Z" fill="#E7E3DA"/>
<path d="M136.882 23.6515L144.926 15.062H142.736L135.281 23.1103V15.062H133.557V32.2626H135.281V24.3139L142.736 32.2626H145L136.882 23.6515Z" fill="#E7E3DA"/>
</svg>
