<svg width="129" height="128" viewBox="0 0 129 128" fill="none" xmlns="http://www.w3.org/2000/svg">
<path fill-rule="evenodd" clip-rule="evenodd" d="M76.7214 63.3052C75.042 69.1893 72.2439 74.2108 68.0532 78.4002C68.2245 78.682 68.4496 78.8659 68.6701 79.0459L68.6702 79.046C68.728 79.0933 68.7856 79.1403 68.8417 79.1887C70.0859 80.2204 71.4286 81.11 72.8686 81.8408C77.7313 84.31 82.8782 85.2431 88.3041 84.6568C91.3543 84.3292 94.2766 83.5394 97.0619 82.262C100.11 80.8642 102.808 78.9788 104.985 76.4047C107.788 73.0895 109.23 69.2636 109.241 64.9103C109.244 63.9528 109.168 63.0044 109.053 62.0546C108.739 59.4895 107.856 57.1407 106.394 55.0146C104.999 52.9845 103.171 51.4306 101.05 50.2056C98.7335 48.8655 96.2324 48.0002 93.6455 47.3717C90.5979 46.6306 87.5067 46.1634 84.3771 45.9317C82.9755 45.8268 81.6007 45.5605 80.2862 45.0383C79.5886 44.7605 78.9396 44.4021 78.3943 43.8748C77.6967 43.1976 77.3383 42.3784 77.3268 41.3992C77.3115 39.9605 77.8708 38.7932 78.9511 37.8664C79.7806 37.1548 80.7598 36.7247 81.8068 36.438C83.4721 35.981 85.1694 35.9439 86.8692 36.1269C88.0315 36.2498 89.1489 36.5762 90.1767 37.1599C91.4452 37.8792 92.3655 38.8943 92.8238 40.2972C92.9915 40.8104 93.09 41.334 93.1182 41.8754C93.1374 42.2479 93.1911 42.2888 93.5329 42.3042C93.6868 42.3108 93.84 42.3098 93.9931 42.3088H93.9932H93.9933H93.9934H93.9935H93.9936H93.9937H93.9938H93.9939H93.994C94.0494 42.3084 94.1047 42.308 94.1601 42.308H107.141C107.206 42.308 107.272 42.3087 107.337 42.3093C107.481 42.3107 107.624 42.312 107.768 42.3068C108.115 42.294 108.195 42.2274 108.191 41.8895C108.181 40.9333 108.122 39.9823 107.984 39.0351C107.467 35.4626 106.097 32.2767 103.714 29.5477C102.045 27.6354 100.046 26.1455 97.7902 24.996C93.9963 23.062 89.9387 22.221 85.7083 22.1519C83.435 22.1135 81.1822 22.3567 78.9601 22.8508C76.0251 23.5048 73.2628 24.5916 70.7451 26.253C67.7959 28.1999 65.4369 30.6959 63.9278 33.91C61.6673 38.7253 61.4523 43.6815 63.1367 48.7106C64.2478 52.0296 66.338 54.6037 69.2846 56.4853C70.4187 57.2085 71.6219 57.7973 72.8788 58.2773C75.9662 59.4549 79.1828 60.0514 82.4494 60.4303C83.2235 60.5203 83.9992 60.5996 84.775 60.6789L84.7751 60.679L84.7754 60.679C85.7208 60.7757 86.6663 60.8724 87.6091 60.9884C88.8238 61.1368 90.0193 61.389 91.1611 61.8536C91.8292 62.1263 92.4577 62.4616 92.9889 62.9557C93.8567 63.7647 94.2036 64.7631 94.0769 65.942C93.9502 67.1183 93.3537 68.0053 92.4193 68.6876C91.7627 69.1688 91.0254 69.4952 90.2497 69.7205C87.9815 70.3797 85.666 70.4732 83.3339 70.2236C82.3239 70.1148 81.3447 69.837 80.4219 69.3916C78.5172 68.4738 77.3435 66.9903 76.9633 64.9013C76.9095 64.6028 76.8661 64.3014 76.8137 63.9367L76.8136 63.9361L76.8136 63.9359L76.8135 63.935L76.8134 63.9347C76.7861 63.7449 76.7564 63.5379 76.7214 63.3052ZM19.7202 46.1136L19.7204 53.4557V82.9943C19.7204 83.1073 19.719 83.2079 19.7178 83.2973C19.7131 83.6451 19.7107 83.8243 19.7991 83.9161C19.893 84.0137 20.0895 84.0125 20.4947 84.0101L20.496 84.0101C20.5642 84.0097 20.6383 84.0093 20.7188 84.0093C22.9614 84.0093 25.2039 84.0101 27.4463 84.011H27.4514H27.4515H27.4516H27.4518H27.4519H27.452H27.4522H27.4523C33.055 84.0131 38.6575 84.0151 44.2605 84.0042C46.7706 84.0003 49.2628 83.7597 51.7178 83.2003C60.7661 81.137 67.3057 75.9159 71.3633 67.5805C72.162 65.9434 72.7713 64.2295 73.2397 62.4682C73.3652 61.9959 73.3498 61.9869 72.9082 61.8282L72.5017 61.6831L72.1551 61.5596L72.155 61.5596L72.1549 61.5595L72.1548 61.5595L72.1541 61.5593C71.5919 61.359 71.0293 61.1586 70.4685 60.9552C68.3949 60.2013 66.5812 59.0199 64.9236 57.5786C60.8468 54.0368 59.1597 49.3533 58.5773 44.177C58.402 42.6128 58.4877 41.0218 58.6823 39.4435C59.1265 35.8237 60.3501 32.5047 62.4033 29.4928C62.4257 29.4595 62.4489 29.4266 62.472 29.3939L62.4721 29.3937C62.5005 29.3536 62.5288 29.3135 62.5556 29.2727C62.809 28.8887 62.8052 28.8669 62.4122 28.5661C62.2818 28.4671 62.1481 28.3734 62.0151 28.2801L61.9757 28.2525C59.7383 26.6819 57.3191 25.4775 54.7258 24.6211C51.3249 23.4999 47.8305 22.9917 44.2541 22.993C41.1273 22.9935 38.0002 22.9932 34.8731 22.9929C30.1826 22.9924 25.4921 22.9919 20.802 22.9943C20.6651 22.9943 20.5452 22.9924 20.4402 22.9909C20.0683 22.9852 19.884 22.9825 19.7946 23.0732C19.7067 23.1622 19.7102 23.3412 19.717 23.6961C19.7191 23.8093 19.7217 23.9406 19.7217 24.0925C19.7197 31.4339 19.72 38.7739 19.7202 46.1136ZM34.6145 68.7415V53.4391V38.2275C34.6145 37.9587 34.6183 37.6899 34.6221 37.4211C34.626 37.2432 34.7271 37.1447 34.8948 37.1319C35.0342 37.1219 35.1735 37.1228 35.3129 37.1237C35.3527 37.1239 35.3926 37.1242 35.4324 37.1242L38.3865 37.1245C40.3555 37.1247 42.324 37.125 44.2925 37.1242C46.3444 37.1216 48.3284 37.4877 50.2202 38.28C53.4573 39.6343 55.8612 41.9178 57.5009 44.9975C59.289 48.3587 59.9418 51.9415 59.4925 55.7264C59.193 58.2455 58.4519 60.6224 57.1053 62.7805C54.6874 66.6551 51.1943 68.904 46.6823 69.5927C45.8823 69.7155 45.0823 69.7693 44.2759 69.7693C42.0597 69.7712 39.8441 69.771 37.6288 69.7707L35.4157 69.7706L35.3682 69.7708L35.3085 69.7713C35.2247 69.7721 35.1407 69.7729 35.0573 69.7693C34.6695 69.7527 34.6285 69.7066 34.6157 69.2791C34.6122 69.1536 34.613 69.0282 34.6138 68.9028V68.9027C34.6141 68.849 34.6145 68.7952 34.6145 68.7415ZM23.0665 101.438V105.855H19.7539V91.0134H23.0665V92.1603C23.8512 91.1824 24.9763 90.8662 26.0809 90.8662C29.7328 90.8662 31.6221 93.7961 31.6016 96.9603C31.5581 100.103 29.7545 102.695 26.0387 102.695C24.9136 102.69 23.8294 102.309 23.0665 101.438ZM23.0665 96.831C23.0665 98.3606 24.2339 99.6124 25.6777 99.6124C27.3776 99.6124 28.2262 98.2531 28.2467 96.872C28.2672 95.4909 27.3981 94.0688 25.6777 94.0688C24.2352 94.07 23.0665 95.3014 23.0665 96.831ZM41.7491 91.0134V92.2012C41.0067 91.2464 39.902 90.8214 38.7769 90.8188C35.0611 90.8188 33.2576 93.4108 33.214 96.5532C33.1936 99.7174 35.0828 102.647 38.7347 102.647C39.8393 102.647 40.9644 102.331 41.7491 101.353V102.5H45.0822V91.0134H41.7491ZM39.1379 93.8998C40.5817 93.8998 41.7491 95.1516 41.7491 96.6812C41.7491 98.2108 40.5817 99.4422 39.1379 99.4435C37.4175 99.4435 36.5484 98.0201 36.5689 96.6403C36.5894 95.2374 37.438 93.8998 39.1379 93.8998ZM50.5392 102.5H47.2061V91.0133H50.2205L50.3472 91.7775C51.0896 91.076 51.9177 90.7791 52.8521 90.7791C53.2553 90.7791 53.7008 90.843 54.1462 90.9493L54.1027 94.0917C53.7635 93.9855 53.3603 93.9214 52.9776 93.9214C51.7667 93.9419 50.5353 94.5794 50.5353 96.1294V102.497H50.5392V102.5ZM56.9709 98.5282C56.9709 101.522 58.521 102.71 61.09 102.689C61.6429 102.689 62.2599 102.627 62.9152 102.522L62.809 99.7609C62.512 99.8236 62.1728 99.8671 61.8541 99.8671C61.0464 99.8671 60.304 99.5484 60.304 98.5295V94.006H62.7028V91.1388H60.304V88.6543L56.9709 88.9513V91.1375H55.4644V94.0047H56.9709V98.5282ZM67.9493 91.0133V92.1601C68.757 91.1413 70.115 90.843 71.3464 90.843C74.6168 90.8865 75.5077 93.3057 75.4872 96.1717V102.499H72.0901V96.1921C72.0901 94.6421 71.2184 93.9406 70.307 93.9406C69.3086 93.9406 68.1208 94.7893 68.1208 96.2549V102.497H64.5752V91.0107L67.9493 91.0133ZM80.7253 98.1686H88.9647C89.0505 97.7449 89.0914 97.32 89.0901 96.8515C89.0901 92.9449 86.1589 90.9904 83.2085 90.9699C80.2146 90.9481 77.2207 92.9027 77.2207 96.8515C77.2207 100.739 80.1097 102.691 83.0178 102.755C85.4396 102.798 87.8601 101.545 88.7522 98.9968H85.1209C84.6319 99.5267 83.9305 99.7827 83.1881 99.7827C82.1692 99.7609 81.1285 99.2297 80.7253 98.1686ZM83.1049 93.8806C84.1865 93.8806 85.1209 94.4105 85.4396 95.5574H80.8533C81.1925 94.4323 82.1065 93.8806 83.1049 93.8806ZM94.5314 102.5H91.1982V91.0133H94.2126L94.3394 91.7775C95.0818 91.076 95.9099 90.7791 96.8443 90.7791C97.2475 90.7791 97.693 90.843 98.1384 90.9493L98.0949 94.0917C97.7557 93.9855 97.3525 93.9214 96.9698 93.9214C95.7589 93.9419 94.5275 94.5794 94.5275 96.1294V102.497H94.5314V102.5ZM109.052 94.6651C109.031 91.9899 106.887 90.7368 104.424 90.7368C101.855 90.7368 99.6884 91.9247 99.6846 94.7099C99.6846 97.2367 101.936 98.0648 104.102 98.2555C104.184 98.2618 104.283 98.2648 104.39 98.2681C105.006 98.2869 105.928 98.3149 105.928 99.0197C105.928 99.4242 105.336 99.7416 104.464 99.7211C103.7 99.7211 102.892 99.4011 102.872 98.637H99.5156C99.5579 101.567 101.64 102.798 104.378 102.798C106.927 102.798 109.285 101.822 109.285 98.9339C109.285 96.2165 106.842 95.1963 104.444 95.1323L104.404 95.1307C103.909 95.1104 103.064 95.0756 103.064 94.4962C103.064 93.8805 103.742 93.7103 104.231 93.7103C104.931 93.7103 105.825 93.773 105.845 94.6651H109.052Z" fill="white"/>
</svg>
