<svg width="180" height="33" viewBox="0 0 180 33" fill="none" xmlns="http://www.w3.org/2000/svg">
<path d="M0.000839233 0H180.002V32.0199H0.000839233V0Z" fill="#FD267E"/>
<path d="M58.2317 15.4159H47.4993V12.3049H60.4745V8.00488H41.2793V24.0148H47.4993V19.7149H58.2317V15.4159Z" fill="#000056"/>
<path d="M92.322 18.6621L86.6279 8.00391H79.4922L88.7315 24.0128H95.8218L105.061 8.00391H98.0161L92.322 18.6621Z" fill="#000056"/>
<path d="M120.246 20.1697H112.798V17.7454H120.246C121.046 17.7454 121.617 18.2486 121.617 18.957C121.617 19.6664 121.046 20.1697 120.246 20.1697ZM112.798 11.8471H119.742C120.543 11.8471 121.115 12.3493 121.115 13.0577C121.115 13.7681 120.543 14.2703 119.742 14.2703H112.798V11.8471ZM124.997 15.8831C126.62 15.0942 127.381 13.8475 127.381 12.44C127.381 9.81052 125.163 8.00391 120.794 8.00391H106.738V24.0128H121.115C125.804 24.0128 127.883 22.1608 127.883 19.485C127.883 17.9877 126.977 16.6296 124.997 15.8831Z" fill="#000056"/>
<path d="M137.054 17.7464H147.765V14.2713H137.054V12.3049H148.894V8.00488H130.834V24.0138H149.176V19.7138H137.054V17.7464Z" fill="#000056"/>
<path d="M151.744 8.00488V12.3049H158.724V24.0138H165.013V12.3049H171.993V8.00488H151.744Z" fill="#000056"/>
<path d="M68.533 17.4947L71.2635 12.341L73.9951 17.4947H68.533ZM67.708 8.00488L58.4688 24.0138H65.0775L66.3273 21.6566H76.2018L77.4505 24.0138H84.3346L75.0943 8.00488H67.708Z" fill="#000056"/>
<path d="M8.04883 14.9697L13.0972 24.1787L20.6454 23.3265L15.5985 14.1178L8.04883 14.9697Z" fill="#000056"/>
<path d="M25.6884 14.1177L20.64 23.3267L28.1901 24.1778L33.237 14.9691L25.6884 14.1177Z" fill="#000056"/>
<path d="M20.6428 4.56836L15.125 14.281H26.1616L20.6428 4.56836Z" fill="#000056"/>
</svg>
