<svg width="390" height="94" viewBox="0 0 390 94" fill="none" xmlns="http://www.w3.org/2000/svg">
<g clip-path="url(#clip0_1_5883)">
<path fill-rule="evenodd" clip-rule="evenodd" d="M29.1326 62.2563L30.8505 64.7694V66.0225L33.7086 67.4146V62.8497L29.5048 61.1058L29.1326 62.2563ZM35.3965 67.3561V62.8497L39.6003 61.1058L40.1111 62.4833L38.2545 64.7694V66.0225L35.3965 67.3561ZM22.2651 50.7677L21.3804 53.5008L31.8481 56.9006L32.2282 55.208L22.2651 50.7677ZM36.5687 55.1491L46.8469 50.7749L47.7237 53.5078L37.263 56.9006L36.5687 55.1491ZM25.1792 83.2929H43.9278L49.8565 76.5076L34.5785 80.9772L20.0625 76.5076L25.1792 83.2929ZM51.8378 72.6386L53.0579 70.8361L44.9444 59.9108L53.5477 56.6136L48.7164 45.2047L34.7769 50.6932H34.3301L20.3908 45.2047L15.5595 56.6136L24.1626 59.9108L16.0493 70.8361L17.5766 72.6386L34.6153 77.6287L51.8378 72.6386ZM3.30992 68.087C1.64707 63.6917 -0.495873 56.3624 0.812148 52.8378C2.29544 48.837 5.36591 36.9738 6.71867 31.5442L12.7114 42.5354V28.4299L20.1313 6.92412L21.7545 26.0413L26.453 34.2637L28.9321 33.36L30.621 30.1373L32.4266 14.9035L28.5162 0.761536L52.3455 16.1492L56.9654 37.2596L55.2995 41.9125L63.2453 31.5442L68.7849 55.0581L65.8739 68.2508L67.5977 71.9573L44.0158 93.207H25.0915L1.51032 71.9573L3.30992 68.087Z" fill="#CCFF00"/>
<path d="M109.531 8.65845H135.577C135.633 8.65065 135.691 8.65591 135.745 8.67424C135.8 8.69238 135.849 8.72299 135.889 8.76336C135.93 8.80392 135.96 8.85325 135.979 8.90746C135.996 8.96167 136.002 9.01939 135.994 9.07594V14.4254C136.002 14.4821 135.996 14.5398 135.979 14.594C135.96 14.6483 135.93 14.6976 135.889 14.738C135.849 14.7785 135.8 14.8091 135.745 14.8273C135.691 14.8454 135.633 14.8509 135.577 14.8431H109.531C107.779 14.846 106.058 15.3105 104.54 16.1897C103.023 17.0692 101.762 18.3326 100.885 19.8538C99.9905 21.3668 99.5256 23.0972 99.5415 24.8565C99.5326 26.1733 99.7829 27.4788 100.28 28.6982C100.776 29.9175 101.508 31.0263 102.434 31.9605C103.358 32.8952 104.46 33.6367 105.673 34.1428C106.885 34.649 108.186 34.9093 109.5 34.9093H129.77V22.1778C129.762 22.121 129.767 22.0635 129.785 22.0093C129.803 21.9549 129.833 21.9058 129.873 21.8652C129.914 21.8246 129.963 21.7942 130.017 21.7761C130.072 21.7578 130.129 21.7525 130.185 21.7603H135.546C135.602 21.7525 135.66 21.7578 135.714 21.7761C135.768 21.7942 135.817 21.8246 135.858 21.8652C135.898 21.9058 135.929 21.9549 135.947 22.0093C135.965 22.0635 135.971 22.121 135.963 22.1778V40.7788C135.968 40.8227 135.966 40.8675 135.952 40.9098C135.938 40.9522 135.914 40.9906 135.883 41.022C135.852 41.0534 135.813 41.077 135.771 41.0908C135.729 41.1047 135.684 41.1084 135.64 41.1017H109.5C106.639 41.1218 103.826 40.3679 101.357 38.9195C98.9221 37.5014 96.8959 35.4734 95.4784 33.0344C94.0398 30.5544 93.2907 27.7331 93.3096 24.8643C93.2866 22.0126 94.0359 19.2079 95.4784 16.7496C96.886 14.2898 98.913 12.2441 101.357 10.8171C103.826 9.36864 106.639 8.61477 109.5 8.63485L109.531 8.65845ZM159.966 8.65845H170.238C173.083 8.64265 175.879 9.39652 178.332 10.8407C180.797 12.257 182.842 14.3043 184.259 16.7732C185.703 19.2307 186.457 22.0354 186.436 24.8881C186.451 27.7407 185.708 30.546 184.284 33.0159C182.859 35.4857 180.805 37.5315 178.332 38.9431C175.879 40.3872 173.083 41.1411 170.238 41.1253H159.966C157.105 41.1454 154.291 40.3915 151.822 38.9431C149.387 37.525 147.362 35.497 145.943 33.058C144.505 30.5782 143.756 27.7567 143.775 24.8881C143.752 22.0362 144.501 19.2315 145.943 16.7732C147.351 14.3136 149.378 12.2679 151.822 10.8407C154.28 9.3895 157.082 8.62764 159.934 8.63485L159.966 8.65845ZM170.238 34.9093C172.218 34.9284 174.159 34.354 175.812 33.2596C177.464 32.1655 178.754 30.6012 179.513 28.7678C180.274 26.9342 180.47 24.9148 180.078 22.9687C179.685 21.0226 178.721 19.2384 177.311 17.8447C176.403 16.8833 175.304 16.1226 174.086 15.6112C172.869 15.0997 171.558 14.8489 170.238 14.8745H159.966C158.213 14.8776 156.491 15.3419 154.974 16.2213C153.457 17.1006 152.196 18.3642 151.319 19.8852C150.427 21.399 149.965 23.1294 149.984 24.8881C149.977 26.2022 150.228 27.5046 150.725 28.7206C151.222 29.9366 151.954 31.0423 152.879 31.9736C153.803 32.9051 154.903 33.644 156.114 34.1476C157.325 34.6515 158.623 34.9105 159.934 34.9093H170.238ZM226.833 28.1181L235.903 41.1017H228.916C228.791 41.1008 228.668 41.085 228.547 41.0545C228.441 41.0138 228.347 40.949 228.272 40.8654C228.201 40.7954 228.122 40.7343 228.036 40.6842C227.981 40.5735 227.921 40.4656 227.855 40.3611C227.801 40.2615 227.737 40.1665 227.666 40.0776C226.865 38.9378 226.003 37.7009 225.08 36.3667C224.153 35.0433 223.163 33.6172 222.118 32.1046L219.571 28.4412L219.248 27.9763H200.74V40.6842C200.748 40.741 200.742 40.7987 200.724 40.8529C200.706 40.9071 200.675 40.9565 200.635 40.9968C200.595 41.0374 200.545 41.0678 200.492 41.0859C200.438 41.1043 200.38 41.1095 200.323 41.1017H194.955C194.899 41.1095 194.841 41.1043 194.787 41.0859C194.733 41.0678 194.684 41.0374 194.644 40.9968C194.603 40.9565 194.573 40.9071 194.554 40.8529C194.536 40.7987 194.531 40.741 194.539 40.6842V9.05235C194.531 8.9956 194.536 8.93788 194.554 8.88367C194.573 8.82946 194.603 8.78013 194.644 8.73976C194.684 8.6994 194.733 8.66878 194.787 8.65065C194.841 8.63232 194.899 8.62705 194.955 8.63485H227.58C229.286 8.62237 230.964 9.07146 232.437 9.93472C233.895 10.7812 235.106 11.9953 235.95 13.4564C236.807 14.9203 237.255 16.5885 237.247 18.286C237.249 19.494 237.014 20.6905 236.556 21.8075C236.135 22.8981 235.523 23.9041 234.748 24.7777C233.947 25.6357 233.009 26.3545 231.974 26.905C230.938 27.4578 229.807 27.8055 228.641 27.9291L226.833 28.1181ZM200.74 14.8509V21.7603H227.619C228.075 21.7677 228.529 21.6815 228.95 21.5066C229.372 21.3319 229.754 21.0723 230.071 20.7439C230.398 20.4323 230.657 20.057 230.832 19.6408C231.008 19.2249 231.097 18.777 231.093 18.3252C231.091 17.4032 230.724 16.5193 230.073 15.868C229.422 15.2167 228.539 14.8509 227.619 14.8509H200.74ZM245.539 41.1017C245.482 41.1095 245.424 41.1043 245.37 41.0859C245.316 41.0678 245.268 41.0374 245.227 40.9968C245.187 40.9565 245.156 40.9071 245.138 40.8529C245.12 40.7987 245.114 40.741 245.122 40.6842V9.05235C245.114 8.9956 245.12 8.93788 245.138 8.88367C245.156 8.82946 245.187 8.78013 245.227 8.73976C245.268 8.6994 245.316 8.66878 245.37 8.65065C245.424 8.63232 245.482 8.62705 245.539 8.63485H250.907C250.963 8.62705 251.021 8.63232 251.075 8.65065C251.129 8.66878 251.178 8.6994 251.218 8.73976C251.259 8.78013 251.289 8.82946 251.308 8.88367C251.326 8.93788 251.331 8.9956 251.323 9.05235V40.6842C251.331 40.741 251.326 40.7987 251.308 40.8529C251.289 40.9071 251.259 40.9565 251.218 40.9968C251.178 41.0374 251.129 41.0678 251.075 41.0859C251.021 41.1043 250.963 41.1095 250.907 41.1017H245.539ZM261.36 41.1017C261.303 41.1095 261.246 41.1043 261.191 41.0859C261.137 41.0678 261.088 41.0374 261.048 40.9968C261.008 40.9565 260.978 40.9071 260.959 40.8529C260.941 40.7987 260.936 40.741 260.944 40.6842V9.05235C260.936 8.9956 260.941 8.93788 260.959 8.88367C260.978 8.82946 261.008 8.78013 261.048 8.73976C261.088 8.6994 261.137 8.66878 261.191 8.65065C261.246 8.63232 261.303 8.62705 261.36 8.63485H266.728C266.785 8.62705 266.842 8.63232 266.896 8.65065C266.95 8.66878 266.999 8.6994 267.04 8.73976C267.08 8.78013 267.111 8.82946 267.129 8.88367C267.147 8.93788 267.153 8.9956 267.145 9.05235V34.9093H292.915C292.972 34.9015 293.029 34.907 293.084 34.9251C293.138 34.9432 293.187 34.9739 293.228 35.0142C293.268 35.0548 293.299 35.1039 293.317 35.1583C293.334 35.2125 293.34 35.2703 293.333 35.327V40.7078C293.34 40.7646 293.334 40.8223 293.317 40.8765C293.299 40.9307 293.268 40.98 293.228 41.0204C293.187 41.061 293.138 41.0914 293.084 41.1097C293.029 41.1279 292.972 41.1333 292.915 41.1253L261.36 41.1017ZM300.657 41.1017C300.601 41.1095 300.543 41.1043 300.489 41.0859C300.434 41.0678 300.385 41.0374 300.346 40.9968C300.305 40.9565 300.275 40.9071 300.256 40.8529C300.238 40.7987 300.233 40.741 300.241 40.6842V9.05235C300.233 8.9956 300.238 8.93788 300.256 8.88367C300.275 8.82946 300.305 8.78013 300.346 8.73976C300.385 8.6994 300.434 8.66878 300.489 8.65065C300.543 8.63232 300.601 8.62705 300.657 8.63485H306.025C306.082 8.62705 306.14 8.63232 306.193 8.65065C306.247 8.66878 306.296 8.6994 306.337 8.73976C306.377 8.78013 306.408 8.82946 306.426 8.88367C306.444 8.93788 306.45 8.9956 306.442 9.05235V34.9093H332.213C332.269 34.9015 332.327 34.907 332.381 34.9251C332.435 34.9432 332.484 34.9739 332.525 35.0142C332.565 35.0548 332.596 35.1039 332.614 35.1583C332.632 35.2125 332.638 35.2703 332.63 35.327V40.7078C332.638 40.7646 332.632 40.8223 332.614 40.8765C332.596 40.9307 332.565 40.98 332.525 41.0204C332.484 41.061 332.435 41.0914 332.381 41.1097C332.327 41.1279 332.269 41.1333 332.213 41.1253L300.657 41.1017ZM367.461 9.65899L389.468 41.1017H382.525C382.405 41.1052 382.276 41.0894 382.156 41.0545C382.056 41.0138 381.956 40.949 381.887 40.8654C381.817 40.7954 381.737 40.7343 381.647 40.6842C381.597 40.5717 381.537 40.4637 381.467 40.3611C381.418 40.2494 381.328 40.1521 381.228 40.0776L377.348 34.468H348.434L344.505 40.0776C344.435 40.1653 344.374 40.2605 344.324 40.3611C344.256 40.4764 344.178 40.5846 344.088 40.6842L343.907 40.8654C343.817 40.9578 343.703 41.0231 343.577 41.0545C343.473 41.0887 343.365 41.1045 343.255 41.1017H336.268L358.275 9.65899C358.769 8.97357 359.186 8.63485 359.525 8.63485H366.234C366.594 8.63485 367.002 8.97357 367.461 9.69838V9.65899ZM352.797 28.252H373.008L362.873 13.8267L361.995 15.0322L352.797 28.252Z" fill="#CCFF00"/>
<path d="M313.645 58.3054C313.864 58.3054 313.973 58.1958 313.973 57.9765V53.7356C313.973 53.5162 313.864 53.4064 313.645 53.4064H281.477C281.258 53.4064 281.149 53.5162 281.149 53.7356V78.669C281.149 78.8884 281.258 78.9982 281.477 78.9982H313.645C313.864 78.9982 313.973 78.8884 313.973 78.669V74.4282C313.973 74.2088 313.864 74.0992 313.645 74.0992H286.036V68.6519H306.679C306.898 68.6519 307.007 68.5421 307.007 68.3227V64.0819C307.007 63.8625 306.898 63.7529 306.679 63.7529H286.036V58.3054H313.645Z" fill="white"/>
<path fill-rule="evenodd" clip-rule="evenodd" d="M93.4672 78.9978H97.698C97.9169 78.9978 98.0262 78.8882 98.0262 78.6689V68.6515H119.18C120.201 68.6515 121.186 68.4505 122.134 68.0482C123.082 67.6461 123.89 67.104 124.559 66.4215C125.228 65.7394 125.769 64.9288 126.182 63.9903C126.595 63.0523 126.802 62.0588 126.802 61.0107C126.802 58.9146 126.055 57.1233 124.559 55.6363C123.064 54.15 121.27 53.4062 119.18 53.4062H93.4672C93.2484 53.4062 93.139 53.5158 93.139 53.7352V78.6689C93.139 78.8882 93.2484 78.9978 93.4672 78.9978ZM98.0262 63.7525V58.3052H119.216C119.97 58.3052 120.614 58.5735 121.149 59.1096C121.684 59.6459 121.951 60.2856 121.951 61.0288C121.951 61.7727 121.684 62.4123 121.149 62.9484C120.614 63.4846 119.97 63.7525 119.216 63.7525H98.0262Z" fill="white"/>
<path fill-rule="evenodd" clip-rule="evenodd" d="M166.045 78.9978L148.685 54.2104C148.32 53.6748 148.004 53.4062 147.737 53.4062H142.449C142.181 53.4062 141.852 53.6748 141.464 54.2104L124.103 78.9978H129.61C129.707 78.9978 129.799 78.9859 129.884 78.9614C129.969 78.9374 130.048 78.8882 130.121 78.8151C130.164 78.7722 130.201 78.7355 130.231 78.7051L130.285 78.6505C130.322 78.6139 130.376 78.5351 130.449 78.4128C130.522 78.2913 130.571 78.2182 130.595 78.1936L133.695 73.7699H156.49L159.554 78.1936C159.602 78.2182 159.663 78.2913 159.736 78.4128C159.809 78.5351 159.863 78.6139 159.9 78.6505L160.064 78.8151C160.137 78.8882 160.21 78.9374 160.283 78.9614C160.356 78.9859 160.453 78.9978 160.575 78.9978H166.045ZM153.062 68.8709H137.124L144.381 58.4515L145.074 57.5009L153.062 68.8709Z" fill="white"/>
<path fill-rule="evenodd" clip-rule="evenodd" d="M194.748 68.7613L201.897 78.9978H196.389C196.292 78.9978 196.201 78.9859 196.116 78.9614C196.03 78.9374 195.952 78.8882 195.879 78.8151L195.715 78.6505C195.678 78.6139 195.623 78.5351 195.55 78.4128C195.477 78.2913 195.428 78.2182 195.405 78.1936C194.772 77.2922 194.092 76.317 193.362 75.2688C192.633 74.2211 191.854 73.0999 191.028 71.9053C190.201 70.7115 189.533 69.7484 189.022 69.0172L188.767 68.6515H174.178V78.6689C174.178 78.8882 174.069 78.9978 173.85 78.9978H169.619C169.4 78.9978 169.291 78.8882 169.291 78.6689V53.7352C169.291 53.5158 169.4 53.4062 169.619 53.4062H195.332C196.718 53.4062 197.994 53.7479 199.161 54.4298C200.328 55.1125 201.252 56.0386 201.933 57.2084C202.613 58.3784 202.954 59.6459 202.954 61.0107C202.954 61.9859 202.778 62.9117 202.425 63.7892C202.073 64.6665 201.592 65.4407 200.985 66.1107C200.377 66.7813 199.653 67.3417 198.815 67.7924C197.976 68.2436 197.094 68.518 196.171 68.6151L194.748 68.7613ZM174.178 58.3052V63.7525H195.368C196.122 63.7525 196.766 63.4846 197.301 62.9484C197.836 62.4123 198.103 61.7727 198.103 61.0288C198.103 60.2856 197.836 59.6459 197.301 59.1096C196.766 58.5735 196.122 58.3052 195.368 58.3052H174.178Z" fill="white"/>
<path d="M238.915 53.7352C238.915 53.5158 238.793 53.4062 238.55 53.4062H205.58C205.361 53.4062 205.252 53.5158 205.252 53.7352V57.9763C205.252 58.1956 205.361 58.3052 205.58 58.3052H219.622V78.6689C219.622 78.8882 219.743 78.9978 219.986 78.9978H224.181C224.399 78.9978 224.509 78.8882 224.509 78.6689V58.3052H238.55C238.793 58.3052 238.915 58.1956 238.915 57.9763V53.7352Z" fill="white"/>
<path d="M270.645 78.9247H270.609V78.8882L247.449 59.9138V78.6689C247.449 78.8882 247.34 78.9978 247.121 78.9978H242.89C242.671 78.9978 242.562 78.8882 242.562 78.6689V53.7352C242.562 53.5158 242.671 53.4062 242.89 53.4062H247.121C247.194 53.4062 247.267 53.4427 247.34 53.5158H247.376L270.499 72.5268V53.7352C270.499 53.5158 270.609 53.4062 270.827 53.4062H275.058C275.277 53.4062 275.386 53.5158 275.386 53.7352V78.6689C275.386 78.8882 275.277 78.9978 275.058 78.9978H270.827C270.754 78.9978 270.693 78.9738 270.645 78.9247Z" fill="white"/>
<path fill-rule="evenodd" clip-rule="evenodd" d="M343.916 68.7613L351.064 78.9978H345.557C345.459 78.9978 345.368 78.9859 345.283 78.9614C345.198 78.9374 345.119 78.8882 345.046 78.8151L344.882 78.6505C344.846 78.6139 344.791 78.5351 344.718 78.4128C344.645 78.2913 344.596 78.2182 344.572 78.1936C343.94 77.2922 343.259 76.317 342.53 75.2688C341.8 74.2211 341.022 73.0999 340.196 71.9053C339.369 70.7115 338.7 69.7484 338.19 69.0172L337.934 68.6515H323.346V78.6689C323.346 78.8882 323.236 78.9978 323.018 78.9978H318.787C318.568 78.9978 318.459 78.8882 318.459 78.6689V53.7352C318.459 53.5158 318.568 53.4062 318.787 53.4062H344.499C345.885 53.4062 347.162 53.7479 348.329 54.4298C349.496 55.1125 350.419 56.0386 351.101 57.2084C351.781 58.3784 352.122 59.6459 352.122 61.0107C352.122 61.9859 351.945 62.9117 351.593 63.7892C351.24 64.6665 350.76 65.4407 350.152 66.1107C349.544 66.7813 348.821 67.3417 347.982 67.7924C347.143 68.2436 346.262 68.518 345.338 68.6151L343.916 68.7613ZM323.346 58.3052V63.7525H344.536C345.289 63.7525 345.934 63.4846 346.469 62.9484C347.003 62.4123 347.271 61.7727 347.271 61.0288C347.271 60.2856 347.003 59.6459 346.469 59.1096C345.934 58.5735 345.289 58.3052 344.536 58.3052H323.346Z" fill="white"/>
<path d="M359.379 67.6278C360.547 68.3105 361.811 68.6515 363.173 68.6515H381.664C382.417 68.6515 383.055 68.92 383.578 69.4559C384.101 69.9922 384.363 70.6319 384.363 71.3751C384.363 72.119 384.101 72.7586 383.578 73.2947C383.055 73.8309 382.417 74.0988 381.664 74.0988H356.462C356.243 74.0988 356.134 74.2086 356.134 74.428V78.6689C356.134 78.8882 356.243 78.9978 356.462 78.9978H381.627C383.718 78.9978 385.511 78.2547 387.007 76.7678C388.502 75.2813 389.25 73.4899 389.25 71.3934C389.25 69.2976 388.502 67.4999 387.007 66.0009C385.511 64.5019 383.718 63.7525 381.627 63.7525H363.173C362.419 63.7525 361.774 63.4846 361.24 62.9482C360.704 62.4123 360.437 61.7727 360.437 61.0288C360.437 60.2856 360.704 59.6459 361.24 59.1094C361.774 58.5735 362.419 58.3052 363.173 58.3052H388.338C388.557 58.3052 388.666 58.1954 388.666 57.9761V53.7352C388.666 53.5158 388.557 53.4062 388.338 53.4062H363.173C361.106 53.4062 359.325 54.15 357.829 55.6363C356.334 57.1233 355.586 58.9146 355.586 61.0105C355.586 62.3998 355.927 63.6794 356.608 64.8492C357.288 66.0192 358.212 66.9457 359.379 67.6278Z" fill="white"/>
</g>
<defs>
<clipPath id="clip0_1_5883">
<rect width="389.06" height="92.4455" fill="white" transform="translate(0.407959 0.792969)"/>
</clipPath>
</defs>
</svg>
