<svg width="30" height="22" viewBox="0 0 30 22" fill="none" xmlns="http://www.w3.org/2000/svg">
<path d="M29.3089 3.98741C29.1543 2.69831 27.9395 1.46139 26.6684 1.29615C18.9175 0.333505 11.0796 0.333505 3.33122 1.29658C2.05908 1.46146 0.844227 2.69831 0.689693 3.98741C0.142498 8.71077 0.142498 13.2917 0.689693 18.0151C0.844227 19.3042 2.05908 20.5415 3.33122 20.7059C11.0796 21.6683 18.9178 21.6683 26.6684 20.7059C27.9395 20.5418 29.1543 19.3042 29.3089 18.0151C29.8561 13.2917 29.8561 8.71077 29.3089 3.98741ZM26.8723 17.7325C26.8447 17.9036 26.5293 18.2341 26.3476 18.2739C22.6086 18.7375 18.7846 18.9745 14.9994 18.9745C11.2141 18.9745 7.39001 18.7372 3.63303 18.2716C3.46779 18.2341 3.1539 17.9036 3.12515 17.7218C2.60146 13.2031 2.60146 8.79954 3.12774 4.2701C3.1539 4.09825 3.46923 3.76812 3.65251 3.72873C7.39001 3.26434 11.214 3.02808 15.0004 3.02808C18.7846 3.02808 22.6085 3.2647 26.3666 3.73132C26.5282 3.76776 26.8447 4.09782 26.8733 4.2811C27.3967 8.79947 27.3967 13.2027 26.8723 17.7325Z" fill="white"/>
<path d="M12.5469 6.09277V15.9064L19.907 10.9998L12.5469 6.09277Z" fill="white"/>
</svg>
