<?xml version="1.0" encoding="UTF-8"?> <svg xmlns="http://www.w3.org/2000/svg" width="193" height="82" viewBox="0 0 193 82" fill="none"> <path d="M79.0097 39.6252C79.0116 39.5764 79.0155 39.5277 79.0175 39.4789C79.035 39.4321 79.0565 39.4321 79.0799 39.475C79.0838 39.514 79.0916 39.5511 79.0916 39.5901C79.0584 40.5944 79.0682 41.6008 79.0994 42.6051C79.1013 42.6559 79.0877 42.7066 79.0818 42.7573C79.0116 42.6637 79.0214 42.5505 79.0097 42.4433C78.9141 42.2697 79.037 42.0669 78.9355 41.8953C78.9355 41.3238 78.9355 40.7505 78.9355 40.179C79.037 40.0055 78.9161 39.8026 79.0097 39.6252Z" fill="white"></path> <path d="M119.191 81.926C119.739 81.926 120.287 81.926 120.833 81.926C120.883 81.9513 120.883 81.9747 120.831 81.9981C120.285 81.9981 119.739 81.9981 119.193 81.9981C119.142 81.9747 119.142 81.9513 119.191 81.926Z" fill="white"></path> <path d="M160.859 41.7449C160.859 41.2203 160.859 40.6977 160.859 40.173C160.889 40.1262 160.912 40.1282 160.933 40.1789C160.933 40.6996 160.933 41.2184 160.933 41.7391C160.912 41.7917 160.887 41.7917 160.859 41.7449Z" fill="white"></path> <path d="M118.882 0C118.685 0.132617 118.465 0.0682557 118.254 0.070206C118.205 0.0429025 118.207 0.0195024 118.258 0C118.465 0 118.673 0 118.882 0Z" fill="white"></path> <path d="M121.696 0.0644258C121.509 0.0702765 121.316 0.12878 121.143 0.00201416C121.324 0.00201416 121.507 0.00201416 121.689 0.00201416C121.718 0.0137156 121.73 0.0254171 121.722 0.0410191C121.714 0.0546708 121.706 0.0644258 121.696 0.0644258Z" fill="white"></path> <path d="M160.865 39.3169C160.865 39.1355 160.867 38.9542 160.867 38.7708C160.893 38.7299 160.914 38.7299 160.933 38.7747C160.933 38.9561 160.933 39.1394 160.933 39.3208C160.906 39.3735 160.885 39.3715 160.865 39.3169Z" fill="white"></path> <path d="M79.0097 39.6252C79.0038 39.8124 79.0584 40.0074 78.9375 40.1791C78.9375 39.9977 78.9375 39.8144 78.9375 39.633C78.9609 39.631 78.9843 39.6291 79.0097 39.6252Z" fill="white"></path> <path d="M78.9355 41.8951C79.0526 42.0648 79.0058 42.2579 79.0097 42.4432C78.9843 42.4432 78.9609 42.4412 78.9355 42.4412C78.9355 42.2598 78.9355 42.0785 78.9355 41.8951Z" fill="white"></path> <path d="M160.867 43.1472C160.867 42.9658 160.865 42.7844 160.865 42.6011C160.885 42.5445 160.906 42.5445 160.933 42.5972C160.933 42.7786 160.933 42.9619 160.933 43.1433C160.914 43.1881 160.893 43.1901 160.867 43.1472Z" fill="white"></path> <path d="M121.697 0.0644258C121.695 0.0429731 121.693 0.0215166 121.689 0.00201416C121.845 0.00201416 122.001 0.00201416 122.158 0.00201416C122.21 0.0215166 122.21 0.0449224 122.161 0.0683253C122.007 0.0663751 121.853 0.0644258 121.697 0.0644258Z" fill="white"></path> <path d="M160.933 38.7748C160.912 38.7709 160.891 38.7709 160.867 38.7709C160.867 38.6149 160.867 38.4588 160.867 38.3048C160.889 38.3028 160.91 38.3048 160.932 38.3067C160.933 38.4627 160.933 38.6188 160.933 38.7748Z" fill="white"></path> <path d="M160.933 40.179C160.908 40.177 160.885 40.177 160.859 40.1731C160.859 40.0171 160.861 39.8611 160.861 39.7051C160.889 39.6563 160.912 39.6582 160.933 39.709C160.933 39.8669 160.933 40.0229 160.933 40.179Z" fill="white"></path> <path d="M160.859 41.7449C160.885 41.743 160.908 41.741 160.933 41.7391C160.933 41.8951 160.933 42.0511 160.933 42.2071C160.912 42.2578 160.889 42.2598 160.861 42.211C160.861 42.057 160.859 41.9009 160.859 41.7449Z" fill="white"></path> <path d="M160.867 43.1472C160.889 43.1472 160.91 43.1472 160.933 43.1432C160.933 43.2993 160.933 43.4553 160.933 43.6113L160.9 43.6152H160.867C160.867 43.4592 160.867 43.3032 160.867 43.1472Z" fill="white"></path> <path d="M117.475 0.0663064C117.477 0.0448537 117.477 0.0214527 117.477 0C117.607 0 117.736 0 117.867 0C117.919 0.0234029 117.919 0.0468068 117.863 0.064359C117.734 0.0663093 117.605 0.0663064 117.475 0.0663064Z" fill="white"></path> <path d="M117.863 0.0663732C117.865 0.0449205 117.865 0.0234669 117.867 0.00201416C117.998 0.00201416 118.127 0.00201416 118.257 0.00201416C118.259 0.0254171 118.257 0.0488219 118.253 0.0722249C118.123 0.0683244 117.992 0.0663732 117.863 0.0663732Z" fill="white"></path> <path d="M122.16 0.0663064C122.158 0.0448537 122.156 0.0214527 122.156 0C122.287 0 122.416 0 122.546 0C122.546 0.0234029 122.546 0.0448556 122.548 0.0682586C122.42 0.0682586 122.291 0.0682567 122.16 0.0663064Z" fill="white"></path> <path d="M160.861 42.213C160.885 42.2111 160.908 42.2091 160.933 42.2091C160.933 42.3398 160.933 42.4685 160.933 42.5992C160.91 42.6011 160.889 42.6011 160.865 42.6031C160.863 42.4724 160.863 42.3417 160.861 42.213Z" fill="white"></path> <path d="M160.933 39.711C160.91 39.711 160.885 39.709 160.861 39.7071C160.863 39.5764 160.863 39.4457 160.865 39.317C160.889 39.319 160.91 39.3209 160.933 39.3209C160.933 39.4516 160.933 39.5822 160.933 39.711Z" fill="white"></path> <path d="M118.414 81.998C118.414 81.9707 118.416 81.9415 118.416 81.9142C118.547 81.883 118.675 81.9025 118.804 81.922C118.855 81.9473 118.857 81.9727 118.804 82C118.673 81.998 118.543 81.998 118.414 81.998Z" fill="white"></path> <path d="M118.805 81.9981C118.805 81.9728 118.805 81.9474 118.805 81.9201C118.933 81.9221 119.064 81.924 119.193 81.926C119.195 81.9494 119.195 81.9728 119.195 81.9981C119.064 81.9981 118.933 81.9981 118.805 81.9981Z" fill="white"></path> <path d="M120.834 81.9981C120.834 81.9747 120.834 81.9494 120.836 81.926C120.965 81.9123 121.095 81.8928 121.224 81.9201C121.275 81.9455 121.275 81.9708 121.224 81.9981C121.093 81.9981 120.963 81.9981 120.834 81.9981Z" fill="white"></path> <path d="M121.223 81.9981C121.223 81.9727 121.223 81.9474 121.223 81.9201C121.351 81.9045 121.48 81.883 121.611 81.9123C121.611 81.9396 121.613 81.9688 121.613 81.9962C121.482 81.9981 121.351 81.9981 121.223 81.9981Z" fill="white"></path> <path d="M120.036 15.3485C126.867 15.2764 133.586 18.151 138.267 22.9798C143.329 28.2045 145.759 34.4882 145.629 41.7607C145.342 48.569 142.809 54.4041 137.992 59.2173C133.738 63.4669 127.174 66.8038 119.217 66.5776C113.278 66.4079 106.741 64.0384 101.7 58.9053C97.3603 54.488 94.1326 47.9566 94.3959 40.1791C94.626 33.3688 97.1925 27.5298 102.008 22.7146C106.591 18.1315 113.149 15.2647 120.036 15.3485Z" fill="#261EE0"></path> <path d="M122.549 81.8518C122.436 81.9357 122.304 81.9221 122.175 81.9221C122.007 81.9221 121.84 81.9142 121.672 81.9103C121.961 81.8284 122.255 81.8401 122.549 81.8518Z" fill="white"></path> <path d="M79.0812 39.4748C79.0597 39.4768 79.0383 39.4787 79.0188 39.4787C79.0246 39.2935 78.9778 39.1023 79.087 38.9307C79.1182 39.1121 79.0987 39.2935 79.0812 39.4748Z" fill="white"></path> <path d="M120.002 55.2076C111.981 55.1589 105.766 48.7114 105.766 40.9552C105.766 33.2518 111.942 26.7184 120.01 26.7204C128.008 26.7223 134.268 33.1796 134.247 41.002C134.226 48.7757 127.981 55.1667 120.002 55.2076Z" fill="#010208"></path> <path d="M11.3887 56.0598C11.3828 55.9896 11.375 55.9175 11.375 55.8473C11.375 45.8971 11.375 35.945 11.375 25.9949C11.375 25.9247 11.375 25.8525 11.375 25.753C11.4491 25.753 11.5115 25.753 11.5739 25.753C13.3682 25.753 15.1624 25.755 16.9547 25.7491C17.0912 25.7491 17.1633 25.7979 17.2355 25.9052C19.4588 29.2498 21.684 32.5926 23.9092 35.9353C24.506 36.8324 25.1047 37.7314 25.7015 38.6286C25.7366 38.6812 25.7756 38.7319 25.8283 38.808C25.8809 38.7319 25.9258 38.6715 25.9667 38.611C28.3792 34.9875 30.7916 31.3639 33.2021 27.7384C33.6117 27.1221 34.0251 26.5078 34.4308 25.8876C34.4952 25.7901 34.5654 25.7511 34.6824 25.7511C36.4883 25.755 38.2962 25.753 40.1021 25.753C40.1528 25.753 40.2035 25.7569 40.2679 25.7608C40.2737 25.8155 40.2796 25.8662 40.2815 25.9149C40.2835 25.9793 40.2815 26.0456 40.2815 26.1099C40.2815 35.9957 40.2815 45.8815 40.2815 55.7673C40.2815 55.8648 40.2854 55.9623 40.2874 56.0598C38.6492 56.0598 37.011 56.0598 35.3728 56.0598C35.3767 55.9701 35.3864 55.8785 35.3864 55.7888C35.3864 48.0931 35.3864 40.3974 35.3864 32.7018C35.3864 32.6569 35.3903 32.6101 35.3845 32.5653C35.3806 32.5262 35.3689 32.4872 35.3572 32.4248C35.3026 32.5048 35.2636 32.5574 35.2284 32.6101C32.2173 37.1542 29.2061 41.7002 26.1949 46.2423C26.0096 46.5212 26.1072 46.4588 25.762 46.4763C25.6157 46.4841 25.5299 46.4354 25.448 46.3106C24.0789 44.2258 22.704 42.1429 21.3291 40.06C19.6908 37.5754 18.0526 35.0908 16.4144 32.6082C16.3774 32.5516 16.3364 32.4989 16.2974 32.4443C16.2857 32.4482 16.2721 32.4521 16.2604 32.456C16.2604 32.5321 16.2604 32.6062 16.2604 32.6823C16.2604 38.2015 16.2604 43.7187 16.2604 49.2379C16.2604 51.5119 16.2604 53.7878 16.2604 56.0618C14.6397 56.0598 13.0132 56.0598 11.3887 56.0598Z" fill="white"></path> <path d="M75.3555 56.0599C75.3516 55.9897 75.3418 55.9176 75.3418 55.8474C75.3418 45.8953 75.3418 35.9432 75.3418 25.9911C75.3418 25.9209 75.3418 25.8506 75.3418 25.7648C75.412 25.7609 75.4686 25.7531 75.5251 25.7531C79.7493 25.7531 83.9755 25.7453 88.1998 25.759C89.7853 25.7648 91.3319 26.0359 92.7945 26.6697C95.5015 27.8399 97.1845 29.8818 97.8535 32.7448C98.2767 34.5526 98.2689 36.3703 97.8008 38.1703C97.128 40.7583 95.5405 42.5857 93.1144 43.6915C92.3674 44.0328 91.5854 44.2707 90.7819 44.4384C90.7175 44.4521 90.6551 44.4657 90.5908 44.4794C90.581 44.4813 90.5732 44.493 90.5537 44.5106C90.5947 44.5652 90.6356 44.6237 90.6785 44.6783C93.598 48.4091 96.5195 52.1399 99.439 55.8727C99.4878 55.9332 99.5307 55.9995 99.5755 56.0619C97.5609 56.0619 95.5444 56.0619 93.5298 56.0619C93.5005 56.0073 93.481 55.9449 93.444 55.8961C90.6298 52.2219 87.8156 48.5495 85.0033 44.8753C84.9331 44.7836 84.859 44.7466 84.7439 44.7466C83.3007 44.7505 81.8576 44.7485 80.4144 44.7485C80.3578 44.7485 80.3013 44.7563 80.2291 44.7602C80.2291 48.5359 80.2291 52.2979 80.2291 56.0599C78.6046 56.0599 76.98 56.0599 75.3555 56.0599ZM80.2389 40.419C80.3383 40.419 80.4163 40.419 80.4943 40.419C82.6591 40.419 84.8219 40.4209 86.9867 40.417C87.408 40.417 87.8312 40.4073 88.2524 40.3761C88.9955 40.3215 89.7171 40.1674 90.4055 39.8768C91.7824 39.2937 92.6795 38.2913 93.0461 36.8325C93.2372 36.068 93.2665 35.2918 93.1495 34.5097C92.896 32.8208 91.9891 31.637 90.4172 30.9681C89.6 30.619 88.738 30.4747 87.8565 30.4357C87.5328 30.422 87.2071 30.424 86.8814 30.424C84.7498 30.424 82.6182 30.424 80.4865 30.424C80.4046 30.424 80.3247 30.4298 80.2408 30.4318C80.2389 33.7706 80.2389 37.0821 80.2389 40.419Z" fill="white"></path> <path d="M172.434 56.06C172.432 55.982 172.43 55.904 172.43 55.8259C172.43 45.8933 172.43 35.9627 172.43 26.0301C172.43 25.9462 172.43 25.8624 172.43 25.7532C172.525 25.7532 172.607 25.7532 172.689 25.7532C175.88 25.7532 179.072 25.7532 182.263 25.7532C185.467 25.7532 188.671 25.7532 191.876 25.7532C191.987 25.7532 192.096 25.7551 192.207 25.7551C192.207 27.3017 192.207 28.8502 192.207 30.3967C192.117 30.4065 192.028 30.424 191.94 30.424C187.17 30.426 182.399 30.426 177.627 30.426C177.569 30.426 177.51 30.424 177.452 30.4279C177.409 30.4299 177.366 30.4416 177.323 30.4494C177.323 33.0529 177.323 35.6429 177.323 38.2601C177.793 38.2601 178.251 38.2601 178.711 38.2601C179.166 38.2601 179.622 38.2601 180.077 38.2601C180.539 38.2601 180.999 38.2601 181.461 38.2601C181.923 38.2601 182.384 38.2601 182.846 38.2601C183.3 38.2601 183.757 38.2601 184.211 38.2601C184.673 38.2601 185.134 38.2601 185.596 38.2601C186.058 38.2601 186.518 38.2601 186.98 38.2601C187.443 38.2601 187.903 38.2601 188.365 38.2601C188.82 38.2601 189.276 38.2601 189.73 38.2601C190.189 38.2601 190.647 38.262 191.101 38.262C191.142 38.5897 191.129 42.7827 191.084 42.9387C186.505 42.9387 181.918 42.9387 177.327 42.9387C177.327 45.7568 177.327 48.5554 177.327 51.3755C177.42 51.3755 177.502 51.3755 177.586 51.3755C182.364 51.3755 187.14 51.3755 191.918 51.3755C192.016 51.3755 192.114 51.3794 192.211 51.3833C192.211 52.9435 192.211 54.5037 192.211 56.0639C185.617 56.06 179.025 56.06 172.434 56.06Z" fill="white"></path> <path d="M46.9609 56.0599C46.957 55.9897 46.9492 55.9176 46.9492 55.8474C46.9492 45.8953 46.9492 35.9432 46.9492 25.9911C46.9492 25.9209 46.9492 25.8506 46.9492 25.7648C47.0194 25.7609 47.076 25.7531 47.1325 25.7531C51.3314 25.7531 55.5303 25.7434 59.7311 25.759C61.4571 25.7648 63.1323 26.0866 64.7042 26.8238C67.3449 28.0622 68.9967 30.1197 69.6969 32.9437C69.9972 34.1587 70.0713 35.3932 69.9777 36.6413C69.8782 37.9773 69.5721 39.2586 68.9792 40.4638C67.9183 42.6247 66.2293 44.0991 64.0022 44.9747C63.0485 45.3492 62.0558 45.5735 61.0378 45.6905C60.4098 45.7626 59.7818 45.7841 59.1499 45.786C56.8038 45.786 54.4557 45.786 52.1096 45.786C52.0257 45.786 51.9438 45.786 51.8365 45.786C51.8365 49.2243 51.8365 52.6431 51.8365 56.0599C50.212 56.0599 48.5874 56.0599 46.9609 56.0599ZM51.8482 30.424C51.8482 34.0027 51.8482 37.5482 51.8482 41.1055C51.9106 41.1094 51.9594 41.1152 52.0101 41.1152C54.4596 41.1152 56.9091 41.1191 59.3606 41.1113C60.1231 41.1094 60.8759 41.006 61.6053 40.7661C63.2416 40.2279 64.3376 39.1533 64.8076 37.4839C65.0884 36.4912 65.104 35.4829 64.9168 34.4727C64.7901 33.7881 64.5424 33.1485 64.1445 32.5731C63.5341 31.6877 62.6896 31.1222 61.6814 30.7867C60.8467 30.5078 59.9847 30.422 59.109 30.424C56.7629 30.4279 54.4167 30.4259 52.0706 30.4259C52.0023 30.424 51.9321 30.424 51.8482 30.424Z" fill="white"></path> <path d="M151.295 56.0599C151.252 55.9176 151.213 55.7733 151.165 55.6328C147.781 45.7607 144.395 35.8905 141.01 26.0184C140.982 25.9404 140.959 25.8584 140.93 25.7648C142.663 25.7648 144.382 25.7648 146.117 25.7648C148.879 33.9578 151.638 42.1566 154.4 50.3555C154.414 50.3535 154.427 50.3516 154.441 50.3516C157.216 42.1547 159.991 33.9598 162.767 25.7648C164.498 25.7648 166.219 25.7648 167.952 25.7648C167.931 25.8409 167.913 25.9014 167.894 25.9618C165.579 32.6843 163.264 39.4088 160.949 46.1312C159.828 49.3862 158.708 52.6392 157.587 55.8942C157.567 55.9488 157.552 56.0053 157.534 56.0619C155.455 56.0599 153.374 56.0599 151.295 56.0599Z" fill="white"></path> <path d="M0 25.7564C1.6304 25.7564 3.26081 25.7564 4.90097 25.7564C4.90877 25.8052 4.91852 25.8481 4.92047 25.891C4.92437 25.9553 4.92242 26.0216 4.92242 26.086C4.92242 35.9874 4.92242 45.8888 4.92242 55.7902C4.92242 55.8818 4.91852 55.9716 4.91462 56.0632C3.27641 56.0632 1.63821 56.0632 0 56.0632C0 45.959 0 35.8587 0 25.7564Z" fill="white"></path> </svg> 