<svg width="160" height="36" viewBox="0 0 160 36" fill="none" xmlns="http://www.w3.org/2000/svg">
<path d="M11.8125 24.7383C8.32894 24.7383 4.58037 22.2197 2.1707 18.2366C-0.322662 14.1002 -0.696124 9.54894 1.19598 6.34759C4.9089 0.0842016 11.0377 -1.12946 14.9195 0.909309C17.7693 2.40782 20.1604 6.17266 17.5183 11.8695C16.6969 13.6373 16.8147 15.6838 16.9294 17.6622C17.0549 19.8434 17.1742 21.9039 15.9252 23.2909C15.1318 24.1749 13.8999 24.6455 12.1596 24.7306C12.045 24.7353 11.9318 24.7383 11.8125 24.7383ZM11.0873 1.60438C8.20651 1.60438 4.88875 3.27627 2.5829 7.17734C0.681499 10.3818 1.83443 14.56 3.54987 17.3991C5.7333 21.023 9.08671 23.2708 12.0868 23.1237C13.3699 23.0665 14.2346 22.7569 14.7212 22.2166C15.5223 21.3265 15.4263 19.6716 15.3162 17.7551C15.1954 15.6807 15.0605 13.3277 16.0508 11.193C18.2202 6.53026 16.4955 3.55956 14.1633 2.33351C13.2121 1.8454 12.1566 1.5952 11.0873 1.60438Z" fill="#FF57C6"/>
<path d="M17.4267 17.9597C15.8992 17.9775 14.3876 17.6488 13.0056 16.9984C10.9446 16.0092 8.34743 13.78 7.68264 8.79221C7.4285 6.88657 7.8376 5.32304 8.87741 4.14808C11.2855 1.42971 16.5341 1.49473 20.0069 1.53498C20.4082 1.53498 20.7817 1.54582 21.1319 1.54582C21.7797 1.54582 22.4475 1.52724 23.1557 1.50866C27.2778 1.39566 31.9576 1.27646 33.498 4.8803C35.0585 8.53524 33.3601 10.8805 25.9187 15.3358C23.0178 17.0743 20.0875 17.9597 17.4267 17.9597ZM18.5595 3.12947C15.5114 3.12947 11.7318 3.34774 10.083 5.20694C9.35005 6.03979 9.08661 7.1389 9.27876 8.58013C9.72971 11.9642 11.2607 14.376 13.7045 15.5463C16.7325 17.0046 20.9878 16.407 25.0912 13.9503C32.9138 9.26591 32.9262 7.63427 32.0165 5.50571C30.9054 2.90655 26.988 3.01027 23.1991 3.11089C22.5126 3.12947 21.8044 3.14804 21.1335 3.14804C20.7801 3.14804 20.3958 3.14804 19.9883 3.13875C19.5389 3.13875 19.0647 3.13256 18.5595 3.13256V3.12947Z" fill="#10E6D9"/>
<path d="M24.5889 28.629C22.4287 28.629 20.4545 28.0918 18.8661 27.0345C16.6377 25.5515 15.3314 23.152 15.0896 20.0977C14.8711 17.3391 16.0799 14.7725 18.4988 12.8715C22.2598 9.9085 28.3034 9.05863 33.5396 10.7584C36.5242 11.7275 38.1699 13.7802 38.173 16.5403C38.173 18.6565 37.1688 21.1349 35.4131 23.3409C33.6961 25.4973 31.4847 27.1352 29.3447 27.8302C27.8116 28.3455 26.2064 28.6151 24.5889 28.629ZM27.9516 11.4937C24.7578 11.4937 21.6802 12.4086 19.489 14.1347C18.0944 15.2369 16.4704 17.1441 16.6997 19.9708C16.9012 22.5158 17.9611 24.4957 19.7633 25.6986C22.0521 27.2234 25.3606 27.4448 28.8426 26.307C32.7415 25.0345 36.5644 20.1984 36.5613 16.545C36.5613 14.4799 35.3743 13.0495 33.0406 12.2909C31.3963 11.7616 29.6792 11.4926 27.9516 11.4937Z" fill="#ED534B"/>
<path d="M25.7435 35.13C25.3861 35.1297 25.0293 35.1033 24.6758 35.0511C23.022 34.7779 21.4791 34.0432 20.2253 32.9318C19.7015 32.4922 19.094 32.0417 18.4525 31.5649C15.2804 29.2072 11.3319 26.2752 11.7131 20.8075C11.9859 16.891 14.0283 13.62 17.1771 12.058C20.1741 10.5703 23.7507 10.849 26.743 12.8026C30.2886 15.1169 32.8966 19.6713 33.3878 24.4036C33.7504 27.8976 32.8718 30.9054 30.9084 32.8575C29.1217 34.6486 27.2435 35.13 25.7435 35.13ZM21.2496 12.7066C20.0844 12.7063 18.9352 12.9772 17.8931 13.4977C15.223 14.8228 13.5541 17.5226 13.3201 20.919C12.9993 25.509 16.407 28.04 19.4132 30.2738C20.0796 30.7692 20.7087 31.2367 21.2728 31.7104L21.2976 31.7321C22.8286 33.1253 26.5664 34.9242 29.7741 31.7197C31.3842 30.1128 32.0985 27.5725 31.7886 24.5693C31.3516 20.3648 28.9714 16.1773 25.8659 14.1494C24.5003 13.2279 22.8943 12.7263 21.2465 12.7066H21.2496Z" fill="#9F72FF"/>
<path d="M12.6608 35.8727C10.8889 35.8971 9.14404 35.4367 7.61524 34.5414C5.05524 33.0166 3.31811 30.2069 2.96634 27.0117C2.66571 24.2686 2.25506 20.5099 7.15035 17.9061C10.9919 15.8627 17.068 16.5129 21.3744 18.0609C22.8001 18.5749 26.2077 19.9944 27.0693 22.0858C27.4223 22.9434 27.5989 23.8631 27.5885 24.7902C27.5781 25.7174 27.381 26.6329 27.0089 27.4823C25.8095 30.34 22.8047 32.8169 18.3185 34.6436C16.146 35.5383 14.2632 35.8727 12.6608 35.8727ZM13.4 18.225C11.0864 18.225 9.17107 18.6631 7.91277 19.3334C4.25098 21.2731 4.21224 23.5611 4.57021 26.8383C4.86464 29.5288 6.31045 31.8927 8.44429 33.1606C10.9098 34.6281 14.1175 34.6281 17.7204 33.1606C22.876 31.0614 24.8146 28.5783 25.5336 26.8662C25.8222 26.2116 25.9759 25.5057 25.9855 24.7905C25.995 24.0754 25.8603 23.3656 25.5894 22.7035C25.1679 21.6787 23.3471 20.4805 20.8382 19.578C18.4554 18.7012 15.9392 18.2409 13.4 18.2173V18.225Z" fill="#FFA800"/>
<path d="M68.3913 12.5913V29.9H63.5874V27.9061C62.3415 29.4057 60.5378 30.156 58.1761 30.157C56.6256 30.1774 55.0956 29.8012 53.7318 29.0641C52.4255 28.3382 51.3532 27.2557 50.6403 25.9432C49.8882 24.5923 49.5126 23.0267 49.5137 21.2464C49.5147 19.4662 49.8902 17.9001 50.6403 16.5481C51.3536 15.2364 52.4259 14.1545 53.7318 13.4288C55.0955 12.6913 56.6255 12.3145 58.1761 12.3344C60.3869 12.3344 62.1153 13.0315 63.3612 14.4258V12.5913H68.3913ZM59.0517 26.0392C60.3193 26.0392 61.3715 25.6104 62.2083 24.7528C63.0451 23.8735 63.464 22.7047 63.465 21.2464C63.466 19.7882 63.0471 18.6297 62.2083 17.7711C61.8053 17.3408 61.3157 17.0008 60.7715 16.7734C60.2274 16.5461 59.6412 16.4366 59.0517 16.4522C57.7644 16.4522 56.7019 16.8918 55.8641 17.7711C55.0273 18.6287 54.6084 19.7872 54.6073 21.2464C54.6063 22.7057 55.0252 23.8745 55.8641 24.7528C56.7009 25.6104 57.7634 26.0392 59.0517 26.0392ZM77.9324 12.9783L82.3767 12.9783V16.8392H78.0672V29.9H73.0433V12.2059C73.0433 10.2326 73.6228 8.66704 74.782 7.5091C75.9628 6.35117 77.6157 5.77168 79.7408 5.77065C80.4576 5.76648 81.172 5.85335 81.8669 6.02917C82.4721 6.14666 83.0501 6.37553 83.5715 6.70412L82.2496 10.3405C81.6552 9.92757 80.945 9.7135 80.2212 9.729C78.6953 9.729 77.9324 10.5639 77.9324 12.2337V12.9783ZM89.7886 12.9783H94.2329V16.8392H89.9234V29.9H84.9057V12.2059C84.9057 10.2326 85.4853 8.66704 86.6444 7.5091C87.8252 6.35117 89.4782 5.77168 91.6032 5.77065C92.32 5.76666 93.0344 5.85353 93.7293 6.02917C94.3344 6.14676 94.9125 6.37563 95.4339 6.70412L94.1105 10.3405C93.5159 9.92786 92.8059 9.71382 92.0821 9.729C90.5572 9.729 89.7948 10.5655 89.7948 12.2384L89.7886 12.9783ZM107.281 12.3344C109.429 12.3344 111.157 12.9778 112.466 14.2648C113.798 15.5517 114.463 17.461 114.462 19.9925V29.9H109.444V20.7666C109.444 19.394 109.144 18.3753 108.542 17.7107C107.942 17.0234 107.073 16.6802 105.934 16.6813C104.668 16.6813 103.659 17.0781 102.908 17.8717C102.157 18.6426 101.781 19.8006 101.78 21.3455V29.9031H96.7557V6.02917H101.78V14.401C102.464 13.7252 103.289 13.2087 104.196 12.8886C105.183 12.5141 106.231 12.3262 107.287 12.3344H107.281ZM136.473 12.5913V29.9H131.712V27.8411C131.053 28.5839 130.24 29.1745 129.329 29.5718C128.379 29.9634 127.361 30.1603 126.334 30.1508C124.061 30.1508 122.258 29.497 120.924 28.1894C119.59 26.8818 118.924 24.9406 118.926 22.3657V12.5913H123.956V21.6319C123.956 24.4184 125.126 25.8116 127.466 25.8116C128.669 25.8116 129.635 25.4257 130.366 24.6537C131.095 23.8601 131.46 22.6908 131.46 21.1458V12.5913H136.473ZM151.368 12.3344C152.902 12.3144 154.413 12.7028 155.747 13.4598C157.067 14.1781 158.152 15.2617 158.871 16.5806C159.623 17.9109 159.999 19.4662 159.998 21.2464C159.997 23.0267 159.621 24.5923 158.871 25.9432C158.14 27.2528 157.058 28.3334 155.747 29.0641C154.407 29.8011 152.898 30.1777 151.368 30.157C148.985 30.157 147.17 29.4067 145.926 27.9061V29.9H141.122V6.02917L146.146 6.02917V14.4258C147.418 13.0315 149.161 12.3344 151.374 12.3344H151.368ZM150.499 26.0392C151.786 26.0392 152.837 25.6104 153.654 24.7528C154.492 23.8735 154.911 22.7047 154.91 21.2464C154.909 19.7882 154.49 18.6297 153.654 17.7711C152.838 16.8918 151.787 16.4522 150.499 16.4522C149.21 16.4522 148.147 16.8918 147.309 17.7711C146.493 18.6287 146.086 19.7872 146.087 21.2464C146.088 22.7057 146.495 23.8745 147.309 24.7528C148.152 25.6104 149.217 26.0392 150.505 26.0392H150.499Z" fill="white"/>
</svg>
