<svg width="164" height="199" viewBox="0 0 164 199" fill="none" xmlns="http://www.w3.org/2000/svg">
<path d="M140.889 147.381L-0.00012207 198.667V71.5793L163.395 12.1067V116.693C163.395 130.2 154.401 142.462 140.885 147.381H140.889Z" fill="#FFCB05"/>
<path d="M142.556 134.672L12.1024 182.157V55.0698L163.395 0.00408936V104.59C163.395 118.097 155.069 130.114 142.556 134.672Z" fill="black"/>
<path d="M146.922 59.8985C144.444 57.65 140.578 56.835 135.323 57.4535C138.784 54.9674 141.414 52.338 143.208 49.5735C145.907 45.4246 147.25 41.1365 147.254 36.7091C147.254 31.4298 145.37 27.6864 141.598 25.483C137.822 23.2795 132.399 23.3983 125.351 25.9622L78.681 42.9508L66.5784 89.7188L54.5331 51.7892L24.2173 62.8351L24.2378 135.381L42.3732 128.791V80.3767L57.5025 123.282L75.6584 116.676L90.7876 62.7573V111.172L105.917 105.655L122.091 99.7777C123.753 99.1715 127.128 97.6029 132.219 95.0677C136.044 93.1632 138.907 91.3038 140.799 89.4935C143.859 86.5734 146.693 83.6778 148.454 79.9344C150.219 76.1909 150.703 73.5943 150.707 69.7158C150.707 64.9444 149.408 62.1593 146.931 59.9067L146.922 59.8985ZM108.931 45.5516L117.974 42.2587C121.398 41.0136 123.802 40.7515 125.183 41.4764C126.563 42.2013 127.251 43.6512 127.251 45.8342C127.251 48.185 126.559 50.2329 125.183 51.9817C123.798 53.7264 121.534 54.5824 118.011 55.8643L108.931 59.1695V45.5516ZM127.747 80.5077C126.149 82.5023 123.405 84.2061 119.514 85.6232L108.931 89.4772V74.2988L119.469 70.4653C123.43 69.0236 126.198 68.6919 127.779 69.4618C129.356 70.2359 130.147 71.7226 130.147 73.9384C130.147 76.322 129.348 78.5132 127.751 80.5118L127.747 80.5077Z" fill="white"/>
<path d="M24.2052 147.492L32.1876 144.588C33.9241 143.957 35.2265 143.965 36.0948 144.617C36.959 145.268 37.3931 146.484 37.3931 148.266C37.3931 150.047 36.9221 151.702 35.9801 153.078C35.0381 154.454 33.5965 155.495 31.6592 156.199L29.0298 157.157V163.895L24.2052 165.652V147.496V147.492ZM29.0298 153.475L30.2053 153.045C31.1309 152.71 31.7821 152.284 32.1548 151.772C32.5275 151.26 32.7159 150.711 32.7159 150.125C32.7159 149.54 32.5521 149.13 32.2285 148.856C31.905 148.577 31.2906 148.602 30.3937 148.929L29.0258 149.429V153.48L29.0298 153.475Z" fill="white"/>
<path d="M47.6157 154.131L42.1644 156.117L41.4067 159.39L36.5043 161.175L42.3446 140.894L47.5829 138.989L53.4233 155.02L48.3939 156.85L47.6157 154.135V154.131ZM46.6205 150.568L44.9044 144.666L43.2047 151.809L46.6164 150.568H46.6205Z" fill="white"/>
<path d="M55.0125 154.438V136.282L63.0154 133.37C64.498 132.829 65.6325 132.563 66.4188 132.575C67.2052 132.588 67.8359 132.907 68.3151 133.538C68.7943 134.169 69.036 135.062 69.036 136.216C69.036 137.224 68.8517 138.162 68.483 139.022C68.1144 139.886 67.6107 140.664 66.9677 141.352C66.5581 141.791 65.997 142.233 65.2803 142.683C65.8536 142.7 66.2673 142.769 66.5294 142.896C66.7055 142.982 66.9595 143.208 67.2994 143.572C67.6352 143.937 67.8605 144.232 67.9711 144.457L70.2974 148.872L64.8707 150.846L62.3027 146.234C61.9792 145.636 61.6884 145.272 61.4345 145.153C61.0904 144.998 60.6973 145.002 60.259 145.161L59.8331 145.317V152.685L55.0084 154.442L55.0125 154.438ZM59.8372 141.885L61.8604 141.148C62.0816 141.07 62.5034 140.832 63.1301 140.435C63.4495 140.247 63.7075 139.96 63.9082 139.583C64.1089 139.206 64.2113 138.817 64.2113 138.42C64.2113 137.834 64.0516 137.441 63.7321 137.244C63.4127 137.048 62.8188 137.105 61.9423 137.425L59.8331 138.191V141.881L59.8372 141.885Z" fill="white"/>
<path d="M70.5513 130.626L85.1481 125.314V129.799L80.2497 131.58V145.251L75.4496 147V133.329L70.5513 135.111V130.626Z" fill="white"/>
<path d="M87.3514 124.511L91.8361 122.877L97.6847 130.79V120.747L102.21 119.101V137.257L97.6847 138.903L91.8648 131.052V141.021L87.3473 142.663V124.507L87.3514 124.511Z" fill="white"/>
<path d="M105.393 117.946L118.261 113.26V117.135L110.205 120.067V122.955L117.68 120.235V123.938L110.205 126.657V130.237L118.495 127.218V131.33L105.393 136.098V117.942V117.946Z" fill="white"/>
<path d="M121.144 130.368V112.212L129.147 109.3C130.63 108.759 131.764 108.493 132.551 108.505C133.337 108.518 133.968 108.837 134.447 109.468C134.926 110.099 135.168 110.991 135.168 112.146C135.168 113.154 134.984 114.092 134.615 114.952C134.246 115.816 133.743 116.594 133.1 117.282C132.69 117.721 132.129 118.163 131.412 118.613C131.986 118.63 132.399 118.699 132.661 118.826C132.837 118.912 133.091 119.138 133.431 119.502C133.767 119.867 133.992 120.162 134.103 120.387L136.429 124.802L131.003 126.776L128.435 122.164C128.111 121.566 127.82 121.202 127.566 121.083C127.222 120.927 126.829 120.932 126.391 121.091L125.965 121.247V128.615L121.14 130.372L121.144 130.368ZM125.969 117.815L127.992 117.078C128.214 117 128.635 116.762 129.262 116.365C129.581 116.177 129.839 115.89 130.04 115.513C130.241 115.136 130.343 114.747 130.343 114.35C130.343 113.764 130.184 113.371 129.864 113.174C129.545 112.978 128.951 113.035 128.074 113.355L125.965 114.121V117.811L125.969 117.815Z" fill="white"/>
<path d="M137.195 118.626L141.766 116.627C141.864 117.459 142.065 118.044 142.372 118.388C142.868 118.941 143.572 119.052 144.494 118.716C145.178 118.466 145.706 118.085 146.079 117.577C146.451 117.065 146.636 116.566 146.636 116.07C146.636 115.599 146.459 115.243 146.107 115.001C145.755 114.759 144.936 114.706 143.646 114.845C141.541 115.058 140.038 114.87 139.141 114.28C138.235 113.695 137.785 112.691 137.785 111.27C137.785 110.336 138.014 109.374 138.481 108.374C138.944 107.375 139.64 106.47 140.57 105.659C141.5 104.848 142.773 104.148 144.391 103.558C146.378 102.837 147.893 102.714 148.933 103.198C149.978 103.681 150.596 104.828 150.793 106.638L146.267 108.596C146.148 107.821 145.894 107.322 145.509 107.088C145.124 106.859 144.592 106.863 143.912 107.113C143.355 107.318 142.933 107.609 142.651 107.985C142.368 108.366 142.229 108.751 142.229 109.148C142.229 109.439 142.343 109.656 142.577 109.8C142.802 109.955 143.339 109.984 144.186 109.882C146.287 109.644 147.791 109.632 148.696 109.845C149.605 110.054 150.264 110.484 150.678 111.135C151.092 111.786 151.296 112.605 151.296 113.596C151.296 114.759 151.022 115.935 150.469 117.114C149.916 118.298 149.146 119.322 148.159 120.19C147.168 121.059 145.923 121.767 144.416 122.312C141.774 123.274 139.943 123.348 138.924 122.529C137.904 121.71 137.33 120.411 137.195 118.626Z" fill="white"/>
</svg>
