<svg width="477" height="60" viewBox="0 0 477 60" fill="none" xmlns="http://www.w3.org/2000/svg">
<g clip-path="url(#clip0_2_4322)">
<path d="M276.68 2.15153V57.8947C276.68 58.2765 276.352 58.6003 275.94 58.6003H262.473C262.072 58.6003 261.732 58.288 261.732 57.8947V2.15153C261.732 1.76981 262.06 1.44592 262.473 1.44592H275.94C276.34 1.44592 276.68 1.75824 276.68 2.15153Z" fill="white"/>
<path d="M328.511 37.4205C328.511 35.2458 328.183 33.0596 327.516 30.989C327.006 29.3696 326.266 27.7849 325.381 26.2695L324.932 25.5639C324.822 25.4251 324.604 25.0781 324.604 25.0781L324.349 24.6848C324.24 24.4766 324.082 24.3031 323.937 24.0949C323.755 23.8751 323.573 23.6322 323.391 23.424L323.245 23.2504C323.087 23.0307 322.942 22.8572 322.76 22.6836L322.651 22.5448L322.396 22.753L322.614 22.4754C322.36 22.1978 322.056 21.9086 321.765 21.631L321.619 21.4922C321.401 21.3187 321.207 21.1336 321.025 20.9601L320.952 20.8907C320.734 20.6825 320.479 20.4743 320.212 20.2545L320.03 20.1157C319.702 19.8728 319.363 19.6299 319.035 19.3754L318.817 19.1672H318.744C318.331 18.9242 317.931 18.6351 317.519 18.3574H317.482C317.082 18.1145 316.414 17.7212 316.014 17.513C315.893 17.4436 315.674 17.3395 315.674 17.3395L315.492 17.6171L315.638 17.2701H315.565C315.383 17.2007 315.201 17.0966 314.971 16.9462H314.861C314.461 16.7727 314.049 16.5992 313.648 16.391H313.539C313.321 16.2869 313.054 16.2175 312.799 16.1134C312.726 16.0671 312.617 15.9977 312.544 15.9977C312.241 15.8936 311.95 15.7895 311.622 15.6854H311.549C311.246 15.5813 310.882 15.5119 310.518 15.4078L310.215 15.3384C309.511 15.188 308.856 15.0492 308.152 14.9104H307.861C307.157 14.8063 306.417 14.7716 305.677 14.7021H302.874C302.619 14.7369 302.328 14.7716 302.061 14.7716H301.77C301.37 14.841 301.03 14.8757 300.703 14.9104H300.63C300.29 14.9798 299.78 15.0492 299.477 15.1533H299.295C299.04 15.188 298.786 15.269 298.519 15.3384H298.446C298.373 15.4078 298.3 15.4078 298.227 15.4078C297.9 15.5119 297.524 15.5813 297.196 15.6854C296.869 15.7895 296.529 15.8936 296.201 15.9977C296.128 16.0324 295.983 16.1134 295.983 16.1134H295.91C295.643 16.1828 295.388 16.2869 295.17 16.391H295.097C295.024 16.391 294.939 16.4604 294.867 16.4604C294.575 16.5992 294.248 16.738 293.908 16.8768C293.617 17.0272 293.289 17.2007 292.986 17.3395C292.913 17.3742 292.768 17.4783 292.768 17.4783H292.695C292.476 17.5824 292.258 17.6865 292.028 17.8253L291.773 17.9757C291.482 18.1492 291.178 18.3227 290.887 18.4962C288.012 20.3239 285.537 22.7877 283.729 25.5639C283.547 25.8531 283.401 26.1307 283.219 26.4083L282.989 26.8016L282.879 27.0098L282.77 27.2181L282.697 27.4031C282.661 27.4725 282.588 27.5419 282.588 27.6113C282.443 27.9237 282.297 28.2013 282.139 28.5252C281.885 29.0457 281.666 29.6125 281.448 30.2487C280.781 32.1805 280.368 34.1816 280.259 36.1943V38.5078C280.295 39.6761 280.453 40.7982 280.708 41.9202C280.781 42.2788 280.853 42.6605 280.962 43.0191C281.072 43.4702 281.217 43.9329 281.411 44.4535C281.775 45.4367 282.176 46.3852 282.625 47.2643C282.661 47.3453 282.734 47.4841 282.734 47.4841L282.807 47.6229C282.916 47.8658 283.025 48.074 283.183 48.3285L283.256 48.4326C283.401 48.6755 283.547 48.8838 283.692 49.1382C285.5 51.9144 287.975 54.3783 290.851 56.2059C291.142 56.3794 291.445 56.5529 291.736 56.7264L291.991 56.8653C292.21 56.9809 292.44 57.1197 292.658 57.2585H292.731C292.804 57.2932 292.877 57.3279 292.95 57.3627C293.289 57.5362 293.581 57.675 293.872 57.8254C294.175 57.9642 294.503 58.103 294.83 58.2418C294.903 58.2765 295.061 58.3459 295.061 58.3459H295.134C295.388 58.4153 295.607 58.5194 295.862 58.6351H295.946C296.019 58.6351 296.092 58.7045 296.165 58.7045C296.492 58.8086 296.832 58.9127 297.16 59.0168C297.451 59.1209 297.827 59.1903 298.191 59.2944C298.264 59.2944 298.409 59.3638 298.409 59.3638H298.482C298.749 59.4332 299.004 59.4679 299.259 59.5489L299.598 59.6183C299.89 59.6877 300.181 59.7224 300.484 59.7918H300.666C300.994 59.8612 301.321 59.8959 301.734 59.9306H302.025C302.292 59.9653 302.583 60 302.838 60H304.282C304.609 60 304.937 59.9653 305.386 59.9653H305.641C306.344 59.9306 307.084 59.8612 307.824 59.7224H308.079C308.747 59.6183 309.438 59.5142 310.142 59.3291L310.433 59.2597C310.846 59.1556 311.173 59.0515 311.513 58.9474H311.586C311.913 58.878 312.204 58.7739 312.508 58.6698L312.799 58.5541C313.054 58.45 313.321 58.3806 313.575 58.2418H313.648C314.012 58.0683 314.425 57.8948 314.861 57.6403H314.971C315.165 57.5709 315.347 57.4668 315.565 57.328H315.638C315.747 57.2585 315.978 57.1544 315.978 57.1544L316.123 57.085C316.56 56.8306 317.045 56.5876 317.482 56.31L317.591 56.2406C317.967 55.9861 318.368 55.7432 318.744 55.4656L318.999 55.2574C319.326 55.0376 319.666 54.7947 319.994 54.5171L319.775 54.2626L320.066 54.4824L320.285 54.2626C320.515 54.0891 320.734 53.9156 320.952 53.7074L321.025 53.638C321.243 53.4644 321.437 53.2794 321.619 53.1059L321.765 52.967C322.056 52.6894 322.36 52.4002 322.614 52.1226L322.76 51.9491C322.942 51.7756 323.087 51.5905 323.282 51.3823L323.427 51.2088C323.5 51.1047 323.682 50.8965 323.682 50.8965L323.828 50.6767C324.082 50.3644 324.349 50.0174 324.64 49.5894C324.895 49.2771 325.089 48.9879 325.271 48.6756L325.49 48.3632C325.672 48.0046 326.048 47.3453 326.303 46.7785C326.521 46.3505 326.266 45.8647 325.781 45.7953L313.575 43.6784C313.321 43.6437 313.054 43.7478 312.872 43.9676C310.7 46.6397 307.594 48.0046 304.318 48.0046C300.448 48.0046 296.941 46.0382 294.988 42.8687C294.685 42.4176 295.061 41.8161 295.607 41.8161H327.516C327.892 41.8161 328.183 41.5732 328.256 41.2146C328.474 39.919 328.62 38.4384 328.62 37.1776L328.511 37.4205ZM313.648 32.2152H296.31C295.862 32.2152 295.534 31.8334 295.607 31.4054C296.238 28.1666 300.484 25.7143 304.973 25.7143C309.923 25.7143 313.83 28.2013 314.388 31.4054C314.461 31.8334 314.097 32.2152 313.648 32.2152Z" fill="white"/>
<path d="M381.495 15.0838H368.768C368.355 15.0838 368.027 15.4077 368.027 15.7894V17.1313C368.027 17.4089 367.724 17.5477 367.469 17.4089C363.817 15.4424 359.729 14.4245 355.482 14.4245C342.124 14.4245 331.277 24.6154 331.277 37.1775C331.277 49.7397 342.124 59.9306 355.482 59.9306C359.692 59.9306 363.817 58.9126 367.469 56.9462C367.724 56.7958 368.027 56.9462 368.027 57.2238V57.86C368.027 58.2417 368.355 58.5541 368.768 58.5541H381.495C381.895 58.5541 382.223 58.2417 382.223 57.86V15.7894C382.223 15.4077 381.895 15.0838 381.495 15.0838ZM357.654 47.6229C351.539 47.6229 346.553 42.9381 346.553 37.1775C346.553 31.417 351.539 26.7322 357.654 26.7322C363.769 26.7322 368.027 31.4054 368.027 37.1775C368.027 42.9497 363.781 47.6229 357.654 47.6229Z" fill="white"/>
<path d="M435.971 1.41119H423.244C422.843 1.41119 422.516 1.72351 422.516 2.10524V17.1313C422.516 17.4089 422.212 17.5477 421.958 17.4089C418.342 15.4424 414.217 14.4245 409.971 14.4245C396.612 14.4245 385.766 24.6154 385.766 37.1775C385.766 49.7397 396.649 59.9306 409.971 59.9306C414.181 59.9306 418.306 58.9126 421.958 56.9462C422.212 56.7958 422.516 56.9462 422.516 57.2238V57.86C422.516 58.2417 422.843 58.554 423.244 58.554H435.971C436.384 58.554 436.711 58.2417 436.711 57.86V2.10524C436.711 1.72351 436.384 1.41119 435.971 1.41119ZM412.142 47.6229C406.027 47.6229 401.041 42.9381 401.041 37.1775C401.041 31.417 406.027 26.7322 412.142 26.7322C418.257 26.7322 422.516 31.4054 422.516 37.1775C422.516 42.9497 418.269 47.6229 412.142 47.6229Z" fill="white"/>
<path d="M469.87 27.218C470.21 27.5419 470.343 28.0162 470.234 28.4673C470.125 28.9647 469.712 29.3464 469.191 29.4621C469.093 29.4852 468.984 29.4968 468.875 29.4968C468.511 29.4968 468.159 29.358 467.892 29.1035C467.553 28.7796 467.407 28.3169 467.516 27.8658C467.638 27.3684 468.038 26.9751 468.56 26.871C469.033 26.7669 469.53 26.8941 469.87 27.218Z" fill="white"/>
<path d="M476.883 45.6217C476.773 47.1255 476.373 48.7449 475.669 50.4338C472.939 55.9514 466.667 59.2597 458.817 59.2597C457.737 59.2597 456.597 59.1903 455.493 59.0862C451.95 58.7044 448.892 57.7906 446.344 56.4141C443.724 54.7253 441.698 52.3308 440.363 49.3464C440.181 48.9184 440.436 48.4673 440.885 48.3979L453.357 45.8299C453.648 45.7605 453.94 45.8993 454.122 46.1076C455.007 47.3453 456.487 47.9699 457.3 48.0393C459.217 48.2591 460.212 47.7617 460.698 47.3453C461.207 46.8826 461.426 46.2811 461.316 45.6217C461.134 44.1064 460.176 43.4008 455.347 41.2146H455.274C454.316 40.7634 453.127 40.1966 451.768 39.572C450.846 39.1787 449.96 38.797 449.111 38.3343H449.038C449.038 38.3343 448.82 38.1608 448.662 38.0914C444.318 35.7316 441.807 32.8513 441.14 29.5084C440.217 24.7542 443.433 20.7519 444.051 19.9768C445.01 18.9242 446.162 18.0104 447.412 17.2701C451.21 14.945 456.087 13.9965 461.171 14.5633C464.24 14.9103 467.007 15.6853 469.397 16.8768C470.537 17.4436 471.617 18.1492 472.539 18.8895C473.352 19.5373 473.971 20.2545 474.432 21.0295C461.377 19.6761 453.151 19.9074 451.489 21.122C451.27 21.2724 451.161 21.4459 451.137 21.631C450.943 23.3892 454.704 27.4378 456.767 29.3811H456.985C457.264 29.3927 457.531 29.4274 457.786 29.4505H457.871C458.526 29.5431 459.06 29.6356 459.545 29.7513C460.649 30.0058 461.729 30.3296 462.736 30.6998C462.978 30.7808 463.233 30.8733 463.524 30.989L464.289 31.2897C464.786 31.5095 465.296 31.7177 465.793 31.9375L466.303 32.1804C466.63 32.3308 466.946 32.4812 467.274 32.6431L468.717 33.3719C468.948 33.4875 469.045 33.7652 468.936 33.9849C468.814 34.2163 468.523 34.3204 468.268 34.2047L466.812 33.5454C466.485 33.4066 466.169 33.2793 465.854 33.1405L465.332 32.9207C464.835 32.7357 464.337 32.539 463.84 32.3539L463.076 32.0995C462.796 31.9953 462.554 31.9259 462.323 31.8565C461.341 31.5442 460.309 31.2782 459.254 31.0815C458.805 31.0006 458.307 30.9312 457.713 30.8849H457.531C457.531 30.8849 457.446 30.908 457.434 30.9196C457.422 30.9427 457.397 30.9774 457.422 31.0237C458.89 33.6611 463.67 37.9988 472.333 41.55C472.345 41.5616 472.357 41.5731 472.369 41.5731C473.825 42.1399 475.33 42.6605 476.701 43.1116C476.701 43.1926 476.701 43.262 476.689 43.343C476.81 44.037 476.858 44.7657 476.81 45.5408L476.883 45.6217Z" fill="white"/>
<path d="M40.3657 20.2428C39.48 19.491 38.5337 18.8085 37.5267 18.1954C37.5267 18.1144 37.5024 18.0566 37.4175 17.9872C30.2713 11.2203 16.1366 -0.138891 1.71072 -8.23941e-05C1.43167 -8.23941e-05 1.21328 0.138726 1.11622 0.358506C0.994888 0.589854 1.04342 0.821202 1.18901 1.04098C3.6641 3.95596 9.06318 11.2897 9.24517 19.3059C6.02999 21.6772 3.46997 24.8004 1.86845 28.3863C0.667303 31.093 0 34.0659 0 37.1775C0 41.041 1.03129 44.6847 2.83907 47.8657C3.27585 48.6408 3.76116 49.3811 4.295 50.0982C8.6628 56.0323 15.9546 59.9305 24.2049 59.9305C24.4111 59.9305 24.6295 59.9305 24.8358 59.9074C26.2311 59.8843 27.5899 59.7454 28.9124 59.491H28.9245C35.2214 58.3342 40.6327 54.864 44.139 50.0635C44.7821 49.1844 45.3644 48.259 45.874 47.2989C47.4998 44.2567 48.4098 40.8212 48.4098 37.1775C48.4098 30.4568 45.3038 24.4071 40.3657 20.2428ZM27.1289 46.6974C26.2068 46.9519 25.224 47.0907 24.2049 47.0907C22.7368 47.0907 21.3415 46.8131 20.0797 46.2926C16.2943 44.7772 13.6494 41.2492 13.6494 37.1775C13.6494 31.7292 18.3812 27.2527 24.2049 27.2527C30.0286 27.2527 34.7604 31.7292 34.7604 37.1775C34.7604 41.6772 31.5331 45.506 27.1289 46.6974Z" fill="white"/>
<path d="M97.1717 48.9532L97.1353 49.1383C96.7713 49.6588 96.2496 50.3991 95.9584 50.7808C95.5095 51.3476 95.0364 51.8797 94.5146 52.4003V52.435C94.2962 52.6547 93.9687 52.9671 93.7745 53.1753L93.6653 53.2794C93.4469 53.4992 93.2286 53.6727 93.0102 53.8809C92.8525 53.985 92.7433 54.0891 92.5977 54.1932C92.5249 54.2626 92.4157 54.3436 92.3065 54.413C88.8001 57.2239 84.5172 59.0515 79.9068 59.653C79.7612 59.653 79.6156 59.6877 79.4336 59.7224C79.2395 59.7224 79.0575 59.7571 78.8755 59.7918C78.5843 59.7918 78.281 59.8265 77.9898 59.8612H76.5945C74.1922 59.8612 71.8749 59.5373 69.691 58.9243C59.6936 56.125 52.3896 47.4031 52.3896 37.1082C52.3896 27.9815 58.1163 20.0926 66.3787 16.472C69.4847 15.107 72.9426 14.3436 76.5945 14.3436H77.9898C78.281 14.3436 78.5843 14.3898 78.8755 14.4245C79.0575 14.4245 79.2395 14.4592 79.4336 14.4939C79.5792 14.4939 79.7248 14.5286 79.9068 14.5633C84.5172 15.1533 88.8001 17.0272 92.3065 19.8034C92.4157 19.8728 92.4885 19.9422 92.5977 20.0116C92.7069 20.1157 92.8525 20.2198 93.0102 20.3586C93.2286 20.5437 93.4469 20.7519 93.6653 20.9601C93.7017 20.9948 93.7381 21.0295 93.7745 21.0642C94.0051 21.2724 94.2234 21.4922 94.4418 21.7351C94.4418 21.7698 94.5146 21.8045 94.551 21.8392C95.0727 22.3713 95.5095 22.8919 95.9948 23.4587C96.4316 24.0255 96.8805 24.6154 97.2809 25.2516C97.4265 25.4945 97.3537 25.8531 97.0625 25.9919L90.6079 29.5431L86.8831 31.579C86.5434 31.764 86.1066 31.6831 85.9246 31.3708C83.8135 28.317 80.8653 26.5934 77.3225 26.5934C74.8353 26.5934 72.6514 27.299 70.8557 28.5252C70.1035 29.0457 69.4119 29.6588 68.8053 30.3528C67.1067 32.1111 66.039 34.4708 66.039 37.0388C66.039 39.6067 67.1067 41.9549 68.8053 43.7132C69.0722 44.0139 69.3634 44.3147 69.6667 44.5807C71.6565 46.3621 74.3621 47.4494 77.3225 47.4494C80.7561 47.4494 83.7771 45.7606 85.9246 42.6605C86.143 42.3482 86.5434 42.2788 86.8831 42.4523L96.9169 47.9699C97.2809 48.1782 97.3901 48.6062 97.1717 48.9532Z" fill="white"/>
<path d="M146.527 37.4205C146.527 35.2458 146.2 33.0596 145.533 30.989C145.023 29.3696 144.283 27.7849 143.397 26.2695L142.948 25.5639C142.839 25.4251 142.621 25.0781 142.621 25.0781L142.366 24.6848C142.257 24.4766 142.111 24.3031 141.953 24.0949C141.771 23.8751 141.589 23.6322 141.407 23.424L141.262 23.2504C141.104 23.0307 140.958 22.8572 140.777 22.6836L140.667 22.5448L140.413 22.753L140.631 22.4754C140.376 22.1978 140.073 21.9086 139.782 21.631L139.636 21.4922C139.418 21.3187 139.224 21.1336 139.042 20.9601L138.969 20.8907C138.75 20.6825 138.496 20.4743 138.229 20.2545L138.047 20.1157C137.719 19.8728 137.379 19.6299 137.052 19.3754L136.833 19.1672H136.761C136.348 18.9242 135.948 18.6351 135.535 18.3574H135.499C135.098 18.1145 134.431 17.7212 134.031 17.513C133.921 17.4436 133.691 17.3395 133.691 17.3395L133.509 17.6171L133.655 17.2701H133.582C133.4 17.2007 133.218 17.0966 132.999 16.9462H132.878C132.478 16.7727 132.077 16.5992 131.665 16.391H131.556C131.337 16.2869 131.07 16.2175 130.815 16.1134C130.743 16.0671 130.634 15.9977 130.561 15.9977C130.27 15.8936 129.966 15.7895 129.639 15.6854H129.566C129.263 15.5813 128.899 15.5119 128.535 15.4078L128.231 15.3384C127.54 15.188 126.872 15.0492 126.169 14.9104H125.877C125.174 14.8063 124.434 14.7716 123.694 14.7021H120.891C120.636 14.7369 120.345 14.7716 120.078 14.7716H119.787C119.386 14.841 119.047 14.8757 118.719 14.9104H118.646C118.307 14.9798 117.797 15.0492 117.494 15.1533H117.312C117.057 15.188 116.802 15.269 116.535 15.3384H116.462C116.39 15.4078 116.317 15.4078 116.244 15.4078C115.916 15.5119 115.54 15.5813 115.213 15.6854C114.885 15.7895 114.545 15.8936 114.218 15.9977C114.145 16.0324 113.999 16.1134 113.999 16.1134H113.927C113.66 16.1828 113.405 16.2869 113.187 16.391H113.114C113.041 16.391 112.956 16.4604 112.883 16.4604C112.592 16.5992 112.264 16.738 111.925 16.8768C111.634 17.0272 111.306 17.2007 111.003 17.3395C110.93 17.3742 110.784 17.4783 110.784 17.4783H110.711C110.493 17.5824 110.275 17.6865 110.044 17.8253L109.789 17.9757C109.498 18.1492 109.195 18.3227 108.904 18.4962C106.028 20.3239 103.553 22.7877 101.745 25.5639C101.563 25.8531 101.418 26.1307 101.236 26.4083L101.005 26.8016L100.896 27.0098L100.787 27.2181L100.714 27.4031C100.678 27.4725 100.605 27.5419 100.605 27.6113C100.459 27.9237 100.314 28.2013 100.156 28.5252C99.9012 29.0457 99.6828 29.6125 99.4644 30.2487C98.7971 32.1805 98.3846 34.1816 98.2754 36.1943V38.5078C98.3118 39.6761 98.4695 40.7982 98.7243 41.9202C98.7971 42.2788 98.8699 42.6605 98.9791 43.0191C99.0883 43.4702 99.2339 43.9329 99.428 44.4535C99.792 45.4367 100.192 46.3852 100.641 47.2643C100.678 47.3453 100.75 47.4841 100.75 47.4841L100.823 47.6229C100.932 47.8658 101.042 48.074 101.199 48.3285L101.272 48.4326C101.418 48.6755 101.563 48.8838 101.709 49.1382C103.517 51.9144 105.992 54.3783 108.867 56.2059C109.158 56.3794 109.462 56.5529 109.753 56.7264L110.008 56.8653C110.226 56.9809 110.457 57.1197 110.675 57.2585H110.748C110.821 57.2932 110.893 57.3279 110.966 57.3627C111.306 57.5362 111.597 57.675 111.888 57.8254C112.192 57.9642 112.519 58.103 112.847 58.2418C112.92 58.2765 113.077 58.3459 113.077 58.3459H113.15C113.405 58.4153 113.623 58.5194 113.89 58.6351H113.963C114.036 58.6351 114.109 58.7045 114.181 58.7045C114.509 58.8086 114.849 58.9127 115.176 59.0168C115.468 59.1209 115.844 59.1903 116.208 59.2944C116.28 59.2944 116.426 59.3638 116.426 59.3638H116.499C116.766 59.4332 117.021 59.4679 117.275 59.5489L117.615 59.6183C117.906 59.6877 118.197 59.7224 118.501 59.7918H118.683C119.01 59.8612 119.35 59.8959 119.75 59.9306H120.042C120.309 59.9653 120.6 60 120.854 60H122.298C122.626 60 122.953 59.9653 123.402 59.9653H123.657C124.361 59.9306 125.101 59.8612 125.841 59.7224H126.096C126.763 59.6183 127.455 59.5142 128.158 59.3291L128.462 59.2597C128.862 59.1556 129.19 59.0515 129.529 58.9474H129.602C129.93 58.878 130.221 58.7739 130.524 58.6698L130.815 58.5541C131.07 58.45 131.337 58.3806 131.592 58.2418H131.665C132.029 58.0683 132.441 57.8948 132.878 57.6403H132.999C133.181 57.5709 133.363 57.4668 133.582 57.328H133.655C133.764 57.2585 133.994 57.1544 133.994 57.1544L134.14 57.085C134.577 56.8306 135.062 56.5876 135.499 56.31L135.608 56.2406C135.984 55.9861 136.384 55.7432 136.761 55.4656L137.015 55.2574C137.343 55.0376 137.683 54.7947 138.01 54.5171L137.792 54.2626L138.083 54.4824L138.301 54.2626C138.532 54.0891 138.75 53.9156 138.969 53.7074L139.042 53.638C139.26 53.4644 139.454 53.2794 139.636 53.1059L139.782 52.967C140.073 52.6894 140.376 52.4002 140.631 52.1226L140.777 51.9491C140.958 51.7756 141.104 51.5905 141.298 51.3823L141.444 51.2088C141.517 51.1047 141.699 50.8965 141.699 50.8965L141.844 50.6767C142.111 50.3644 142.366 50.0174 142.657 49.5894C142.912 49.2771 143.106 48.9879 143.288 48.6756L143.506 48.3632C143.688 48.0046 144.064 47.3453 144.319 46.7785C144.538 46.3505 144.283 45.8647 143.798 45.7953L131.592 43.6784C131.337 43.6437 131.07 43.7478 130.888 43.9676C128.717 46.6397 125.611 48.0046 122.335 48.0046C118.464 48.0046 114.958 46.0382 113.005 42.8687C112.701 42.4176 113.077 41.8161 113.623 41.8161H145.533C145.909 41.8161 146.2 41.5732 146.273 41.2146C146.491 39.919 146.649 38.4384 146.649 37.1776L146.527 37.4205ZM131.665 32.2152H114.327C113.89 32.2152 113.551 31.8334 113.623 31.4054C114.254 28.1666 118.501 25.7143 123.002 25.7143C127.94 25.7143 131.847 28.2013 132.405 31.4054C132.478 31.8334 132.114 32.2152 131.665 32.2152Z" fill="white"/>
<path d="M199.511 15.0838H186.784C186.372 15.0838 186.044 15.4077 186.044 15.7894V17.1313C186.044 17.4089 185.753 17.5477 185.486 17.4089C181.87 15.4424 177.745 14.4245 173.499 14.4245C160.141 14.4245 149.294 24.6154 149.294 37.1775C149.294 49.7397 160.177 59.9306 173.499 59.9306C177.709 59.9306 181.834 58.9126 185.486 56.9462C185.753 56.7958 186.044 56.9462 186.044 57.2238V57.86C186.044 58.2417 186.372 58.5541 186.784 58.5541H199.511C199.912 58.5541 200.239 58.2417 200.239 57.86V15.7894C200.239 15.4077 199.912 15.0838 199.511 15.0838ZM175.671 47.6229C169.556 47.6229 164.569 42.9381 164.569 37.1775C164.569 31.417 169.556 26.7322 175.671 26.7322C181.786 26.7322 186.044 31.4054 186.044 37.1775C186.044 42.9497 181.798 47.6229 175.671 47.6229Z" fill="white"/>
<path d="M247.096 33.4529V57.8948C247.096 58.2765 246.769 58.6004 246.356 58.6004H232.78C232.379 58.6004 232.04 58.2881 232.04 57.8948V34.1238C232.04 32.5044 231.93 30.6767 231.227 29.1614C230.899 28.5252 230.487 28.0047 229.941 27.6114C229.091 26.9752 227.987 26.6628 226.58 26.6628C223.959 26.6628 221.933 27.5073 221.266 28.9185C220.526 30.4338 220.526 32.4697 220.526 34.1238V57.8948C220.526 58.2765 220.198 58.6004 219.785 58.6004H206.209C205.808 58.6004 205.469 58.2881 205.469 57.8948V15.8242C205.469 15.4425 205.796 15.1186 206.209 15.1186H218.936C219.337 15.1186 219.676 15.4309 219.676 15.8242V16.9809C219.676 17.2586 220.004 17.4436 220.234 17.2586C230.487 10.5379 240.484 17.9989 240.593 18.0683C240.957 18.3459 241.297 18.6351 241.624 18.9127C246.271 23.3777 247.048 26.9636 247.048 33.3719L247.084 33.4413L247.096 33.4529Z" fill="white"/>
</g>
<defs>
<clipPath id="clip0_2_4322">
<rect width="477" height="60" fill="white"/>
</clipPath>
</defs>
</svg>
