<svg width="228" height="20" viewBox="0 0 228 20" fill="white" xmlns="http://www.w3.org/2000/svg">
    <linearGradient id="yellow_stroke" gradientTransform="rotate(90)">
        <stop offset="0%" style="stop-color:#FFFEE4"></stop>
        <stop offset="100%" style="stop-color:#FFE592"></stop>
    </linearGradient>
    <linearGradient id="gold_gradient" gradientTransform="rotate(90)">
        <stop offset="20%" style="stop-color:#FFEA7C"></stop>
        <stop offset="54%" style="stop-color:#FFFEE4"></stop>
        <stop offset="62%" style="stop-color:#FED03A"></stop>
        <stop offset="88%" style="stop-color:#C57C05"></stop>
    </linearGradient>
    <path d="M25.3269 2.56258C24.6948 1.92439 23.8367 1.4171 22.7494 1.04073C21.6621 0.667635 20.4143 0.477814 19.006 0.477814H1.17322C0.642658 0.477814 0.213623 0.909822 0.213623 1.44001V17.2018C0.213623 18.5632 1.31732 19.6694 2.68303 19.6694C4.04546 19.6694 5.15243 18.5665 5.15243 17.2018V13.5264H19.006C20.4143 13.5264 21.6621 13.3399 22.7494 12.9635C23.8367 12.5904 24.6981 12.0831 25.3269 11.4416C25.959 10.8035 26.4339 10.1096 26.7515 9.35688C27.0725 8.60742 27.233 7.82195 27.233 7.00048C27.233 6.17901 27.0725 5.39354 26.7515 4.64407C26.4339 3.89788 25.9557 3.20077 25.3269 2.56258ZM21.6228 8.57796C21.1741 8.86269 20.3029 9.00342 19.0027 9.00342H5.14916V5.22008H19.0027C20.3357 5.22008 21.2199 5.33463 21.649 5.56372C22.078 5.79282 22.2942 6.27065 22.2942 7.00375C22.2942 7.76958 22.0715 8.2965 21.6228 8.57796Z" stroke="white"></path>
    <path d="M52.1531 14.9239H35.0506V2.94549C35.0506 1.58402 33.9469 0.477814 32.5812 0.477814C31.2188 0.477814 30.1118 1.58074 30.1118 2.94549V18.7072C30.1118 19.2374 30.5409 19.6662 31.0714 19.6662H52.1531C53.4631 19.6662 54.5242 18.6058 54.5242 17.2967C54.5242 15.9875 53.4631 14.9239 52.1531 14.9239Z" stroke="white"></path>
    <path d="M73.8079 1.02767C73.5164 0.625116 73.1136 0.425476 72.5994 0.425476H70.7883C70.2773 0.425476 69.8745 0.628389 69.583 1.02767L56.6923 18.5174C56.4533 18.8284 56.3943 19.0967 56.5155 19.3258C56.6334 19.5549 56.8954 19.6695 57.2982 19.6695H61.2218C61.7687 19.6695 62.1552 19.4698 62.3746 19.0673L64.7326 15.8043H78.6681L81.0261 19.0673C81.2816 19.4698 81.6648 19.6695 82.179 19.6695H86.1025C86.5053 19.6695 86.7641 19.5549 86.8853 19.3258C87.0032 19.0967 86.9442 18.8284 86.7084 18.5174L73.8079 1.02767ZM67.6376 11.746L71.6987 6.12667L75.7598 11.746H67.6376Z" stroke="white"></path>
    <path d="M155.927 1.02767C155.636 0.625116 155.233 0.425476 154.719 0.425476H152.908C152.397 0.425476 151.994 0.628389 151.702 1.02767L138.812 18.5174C138.573 18.8284 138.514 19.0967 138.635 19.3258C138.753 19.5549 139.015 19.6695 139.418 19.6695H143.335C143.882 19.6695 144.268 19.4698 144.487 19.0673L146.845 15.8043H160.781L163.139 19.0673C163.394 19.4698 163.778 19.6695 164.292 19.6695H168.215C168.618 19.6695 168.877 19.5549 168.998 19.3258C169.116 19.0967 169.057 18.8284 168.821 18.5174L155.927 1.02767ZM149.754 11.746L153.815 6.12667L157.876 11.746H149.754Z" stroke="white"></path>
    <path d="M107.656 0.477814H103.074C102.615 0.477814 102.216 0.625089 101.869 0.916367L94.9548 7.0823L88.0182 0.916367C87.7431 0.625089 87.3403 0.477814 86.813 0.477814H82.2312C81.7923 0.477814 81.527 0.595634 81.4353 0.834547C81.3436 1.07346 81.4615 1.3451 81.7923 1.65602L92.4363 11.0849V17.1985C92.4363 18.56 93.5433 19.6662 94.9057 19.6662C96.2681 19.6662 97.3751 18.5632 97.3751 17.1985V11.1406L108.094 1.65929C108.442 1.34837 108.566 1.07346 108.465 0.83782C108.366 0.598907 108.094 0.477814 107.656 0.477814Z" stroke="white"></path>
    <path d="M225.27 0.477814C223.908 0.477814 222.801 1.58074 222.801 2.94549V8.20813H205.027V2.94549C205.027 1.58402 203.923 0.477814 202.557 0.477814C201.195 0.477814 200.088 1.58074 200.088 2.94549V17.1985C200.088 18.56 201.195 19.6662 202.557 19.6662C203.92 19.6662 205.027 18.5632 205.027 17.1985V12.8686H222.801V17.1985C222.801 18.56 223.908 19.6662 225.27 19.6662C226.632 19.6662 227.739 18.5632 227.739 17.1985V2.94549C227.739 1.58402 226.632 0.477814 225.27 0.477814Z" stroke="white"></path>
    <path d="M124.775 4.70299C129.533 4.70299 133.057 5.6161 133.09 5.62265C134.348 5.95647 135.635 5.21028 135.969 3.9568C136.303 2.70332 135.556 1.41384 134.302 1.08002C134.131 1.0342 130.182 0 124.775 0C114.628 0 108.809 3.64588 108.809 10.0016C108.809 16.3574 114.628 20.0033 124.775 20.0033C130.185 20.0033 134.135 18.9691 134.299 18.9233C135.553 18.5894 136.3 17.3032 135.966 16.0497C135.635 14.7963 134.348 14.0501 133.09 14.3774C133.054 14.3872 129.53 15.297 124.771 15.297C122.128 15.297 113.508 14.9141 113.508 9.99836C113.508 5.08264 122.132 4.70299 124.775 4.70299Z" stroke="white"></path>
    <path d="M195.47 11.0456C195.058 10.6889 194.648 10.378 194.236 10.1129C193.823 9.8478 193.253 9.61216 192.523 9.39943C191.792 9.18997 191.164 9.01651 190.643 8.87906C190.122 8.7416 189.395 8.61396 188.462 8.49614C187.528 8.37832 186.801 8.28996 186.28 8.23432C185.76 8.17868 185.006 8.10668 184.017 8.01504C183.762 7.99868 183.569 7.97904 183.441 7.9594C182.838 7.90377 182.206 7.84486 181.548 7.78267C180.89 7.71722 180.343 7.66813 179.901 7.63213C179.462 7.59613 179 7.55358 178.515 7.50776C178.031 7.46194 177.638 7.42267 177.336 7.38339C177.035 7.34739 176.734 7.30157 176.432 7.24594C176.131 7.1903 175.889 7.13793 175.705 7.0823C175.522 7.02666 175.358 6.96448 175.211 6.8892C175.063 6.8172 174.965 6.73538 174.909 6.64374C174.854 6.55211 174.827 6.4441 174.827 6.31319C174.827 6.16592 174.877 6.02519 174.978 5.88773C175.08 5.75027 175.299 5.603 175.636 5.44918C175.974 5.29536 176.419 5.1579 176.966 5.03681C177.516 4.91899 178.273 4.8208 179.242 4.7488C180.212 4.6768 181.335 4.63753 182.616 4.63753H183.3C183.651 4.63753 183.994 4.64407 184.335 4.65389C184.404 4.66044 184.473 4.67353 184.545 4.67353C184.735 4.67353 184.918 4.6768 185.105 4.68007C189.595 4.7488 192.86 5.58991 192.89 5.59645C193.083 5.64882 193.276 5.67173 193.466 5.67173C193.541 5.67173 193.617 5.66191 193.692 5.65209C194.586 5.56045 195.375 4.93535 195.621 4.0157C195.66 3.86842 195.683 3.72115 195.693 3.57714C195.719 3.15168 195.618 2.73604 195.421 2.37603C195.139 1.85893 194.658 1.4531 194.042 1.28946C193.908 1.25346 191.229 0.553088 187.289 0.304356C186.061 0.196354 184.735 0.140717 183.303 0.140717H182.619C174.041 0.140717 169.754 2.13384 169.754 6.11683C169.754 6.62738 169.813 7.09866 169.931 7.5274C170.049 7.95613 170.206 8.33578 170.4 8.66633C170.593 8.99688 170.884 9.30125 171.277 9.58598C171.67 9.87071 172.054 10.1129 172.43 10.3125C172.804 10.5122 173.318 10.702 173.966 10.8755C174.615 11.0489 175.214 11.1896 175.764 11.3009C176.311 11.4089 177.045 11.53 177.958 11.6577C178.872 11.7853 179.691 11.8867 180.415 11.9588C181.139 12.0308 182.085 12.1224 183.254 12.2337C183.785 12.2893 184.365 12.3384 184.997 12.3842C185.629 12.43 186.143 12.466 186.546 12.4955C186.949 12.5217 187.387 12.5609 187.862 12.6035C188.337 12.6493 188.72 12.6919 189.015 12.7279C189.307 12.7639 189.608 12.8064 189.919 12.8522C190.23 12.898 190.473 12.9537 190.646 13.0159C190.82 13.0813 190.983 13.1533 191.141 13.2351C191.295 13.317 191.406 13.4119 191.471 13.5231C191.537 13.6344 191.566 13.7621 191.566 13.9061C191.566 14.181 191.36 14.4264 190.951 14.6457C190.538 14.865 189.739 15.0614 188.55 15.2348C187.361 15.4083 185.835 15.4966 183.968 15.4966H183.637C183.235 15.4966 182.848 15.4934 182.465 15.4868C182.347 15.4672 182.229 15.4508 182.105 15.4508C179.914 15.4508 177.991 15.2577 176.54 15.0483C174.827 14.7995 173.776 14.5312 173.76 14.5246C172.568 14.2072 171.349 14.9141 171.032 16.1054C170.766 17.097 171.222 18.105 172.07 18.596C172.237 18.6941 172.417 18.7792 172.614 18.8316C172.686 18.8512 173.472 19.0574 174.778 19.2832C174.795 19.2865 174.808 19.2898 174.824 19.2931C177.064 19.7578 180.002 19.9934 183.644 19.9934H183.975C186.536 19.9934 188.73 19.7971 190.558 19.4043C192.385 19.0116 193.859 18.344 194.972 17.4047C196.089 16.4621 196.646 15.2708 196.646 13.8275C196.646 13.2613 196.554 12.7442 196.371 12.2795C196.188 11.8147 195.88 11.4024 195.47 11.0456Z" stroke="white"></path>
</svg>