<svg width="170" height="19" viewBox="0 0 170 19" fill="none" xmlns="http://www.w3.org/2000/svg"><path d="M0 9.5029C0 14.7495 4.2645 19 9.51535 19C13.7973 19 17.4235 16.1798 18.613 12.2941H10.6003C10.5945 12.2941 10.5945 12.2941 10.5945 12.2941C9.05119 12.2941 7.79215 11.0433 7.79215 9.5029C7.79215 7.96251 9.04539 6.70588 10.5945 6.70588H18.6188C17.4235 2.82597 13.8031 0 9.52116 0C4.2645 0 0 4.25632 0 9.5029ZM39.5641 9.4971C39.5641 4.25053 35.2996 0 30.0488 0C25.7669 0 22.1464 2.82597 20.9512 6.70588H27.6235V4.11155L35.4389 9.42761L27.6235 14.8942V12.2941H20.9512C22.1464 16.1798 25.7669 19 30.0488 19C35.2996 19 39.5641 14.7553 39.5641 9.50869C39.5699 14.7553 43.8286 19 49.0853 19C54.342 19 58.6007 14.7495 58.6007 9.5029C58.6065 4.25632 54.342 0 49.0853 0C43.8344 0 39.5699 4.25053 39.5641 9.4971Z" fill="#7AB341"></path><path d="M61.6178 14.3963L63.3526 12.3173C64.5537 13.3076 65.8185 13.9388 67.3444 13.9388C68.5513 13.9388 69.2707 13.464 69.2707 12.6822V12.6474C69.2707 11.9004 68.8124 11.5182 66.5786 10.9507C63.8864 10.2674 62.1458 9.52613 62.1458 6.87389V6.83335C62.1458 4.41275 64.0953 2.81445 66.8223 2.81445C68.7659 2.81445 70.4311 3.4225 71.783 4.51119L70.2571 6.71753C69.0734 5.90101 67.9072 5.40299 66.7816 5.40299C65.656 5.40299 65.0642 5.91839 65.0642 6.56697V6.6075C65.0642 7.48193 65.6386 7.76569 67.9479 8.35636C70.6574 9.05706 72.1891 10.0357 72.1891 12.3579V12.3926C72.1891 15.0449 70.1642 16.5331 67.2806 16.5331C65.2615 16.5331 63.2192 15.8266 61.6178 14.3963Z" fill="white" class="filled"></path><path d="M79.0762 12.7402V12.2248C78.5773 11.9932 77.9332 11.8426 77.2254 11.8426C75.9837 11.8426 75.2179 12.3406 75.2179 13.2498V13.2846C75.2179 14.0663 75.8677 14.5238 76.8018 14.5238C78.1595 14.5296 79.0762 13.7884 79.0762 12.7402ZM72.4155 13.4062V13.3656C72.4155 11.1361 74.1155 10.1053 76.5407 10.1053C77.5735 10.1053 78.3162 10.2791 79.0414 10.5223V10.3543C79.0414 9.14984 78.293 8.48388 76.8482 8.48388C75.7401 8.48388 74.9568 8.69236 74.0227 9.03402L73.2974 6.82768C74.423 6.32966 75.5312 6.00537 77.266 6.00537C78.85 6.00537 79.9988 6.42232 80.724 7.15197C81.4899 7.91637 81.8322 9.03981 81.8322 10.4123V16.3364H79.024V15.2303C78.3162 16.0121 77.3414 16.5275 75.9315 16.5275C73.9994 16.5333 72.4155 15.4272 72.4155 13.4062Z" fill="white" class="filled"></path><path d="M85.3191 2.43213H82.4181V16.3477H85.3191V2.43213Z" fill="white" class="filled"></path><path d="M92.9604 10.4351C92.7864 9.13792 92.0263 8.2635 90.8021 8.2635C89.6011 8.2635 88.8178 9.12055 88.5857 10.4351H92.9604ZM85.7427 11.2921V11.2516C85.7427 8.33878 87.8198 5.93555 90.8021 5.93555C94.2195 5.93555 95.786 8.582 95.786 11.4832C95.786 11.7091 95.7628 11.9755 95.7454 12.2476H88.6263C88.9106 13.5622 89.8273 14.2513 91.127 14.2513C92.1017 14.2513 92.8096 13.9444 93.6103 13.2031L95.2696 14.6682C94.3181 15.8496 92.943 16.5735 91.0864 16.5735C88.0113 16.5677 85.7427 14.4192 85.7427 11.2921Z" fill="white" class="filled"></path><path d="M95.4263 14.9867L96.668 13.0815C97.7762 13.8865 98.9366 14.3034 99.8939 14.3034C100.735 14.3034 101.118 13.9965 101.118 13.539V13.4985C101.118 12.8673 100.126 12.6588 98.9946 12.3171C97.5615 11.9002 95.9427 11.2342 95.9427 9.25373V9.2132C95.9427 7.13426 97.6253 5.97607 99.685 5.97607C100.985 5.97607 102.395 6.41039 103.503 7.15742L102.395 9.16108C101.385 8.5704 100.375 8.20558 99.6328 8.20558C98.925 8.20558 98.5652 8.5125 98.5652 8.91207V8.95261C98.5652 9.52591 99.54 9.79229 100.648 10.1745C102.081 10.6493 103.741 11.3385 103.741 13.2031V13.2379C103.741 15.5079 102.041 16.5387 99.8243 16.5387C98.3854 16.5329 96.784 16.0581 95.4263 14.9867Z" fill="white" class="filled"></path><path d="M109.583 13.6954C111.985 13.6954 113.61 12.0739 113.61 9.71704V9.67072C113.61 7.30802 111.991 5.65182 109.583 5.65182H107.309V13.6896H109.583V13.6954ZM104.367 3.00537H109.583C113.784 3.00537 116.685 5.88346 116.685 9.63597V9.67651C116.685 13.429 113.784 16.3476 109.583 16.3476H104.367V3.00537Z" fill="#7AB341"></path><path d="M125.057 11.2921V11.2516C125.057 9.74597 123.967 8.43143 122.365 8.43143C120.706 8.43143 119.714 9.71123 119.714 11.2169V11.2516C119.714 12.7572 120.799 14.0718 122.406 14.0718C124.059 14.0718 125.057 12.7978 125.057 11.2921ZM116.848 11.2921V11.2516C116.848 8.31561 119.215 5.93555 122.4 5.93555C125.568 5.93555 127.918 8.27508 127.918 11.2111V11.2458C127.918 14.1818 125.551 16.5619 122.359 16.5619C119.192 16.5677 116.848 14.2281 116.848 11.2921Z" fill="#7AB341"></path><path d="M128.324 12.7398V6.13232H131.225V11.8248C131.225 13.203 131.875 13.9037 132.977 13.9037C134.085 13.9037 134.793 13.203 134.793 11.8248V6.13232H137.7V16.3417H134.793V14.894C134.126 15.751 133.267 16.5328 131.799 16.5328C129.606 16.5328 128.324 15.0851 128.324 12.7398Z" fill="#7AB341"></path><path d="M146.136 11.2516V11.2169C146.136 9.52014 144.993 8.3967 143.641 8.3967C142.284 8.3967 141.158 9.52014 141.158 11.2169V11.2516C141.158 12.9484 142.284 14.0718 143.641 14.0718C144.993 14.0718 146.136 12.9657 146.136 11.2516ZM141.193 15.0099V16.3418H138.292V2.42627H141.193V7.59177C141.901 6.64206 142.87 5.93557 144.384 5.93557C146.769 5.93557 149.037 7.80024 149.037 11.2169V11.2516C149.037 14.6625 146.809 16.5329 144.384 16.5329C142.835 16.5329 141.883 15.8265 141.193 15.0099Z" fill="#7AB341"></path><path d="M152.629 2.43213H149.728V16.3477H152.629V2.43213Z" fill="#7AB341"></path><path d="M160.461 10.4351C160.293 9.13792 159.527 8.2635 158.309 8.2635C157.108 8.2635 156.319 9.12055 156.093 10.4351H160.461ZM153.244 11.2921V11.2516C153.244 8.33878 155.321 5.93555 158.303 5.93555C161.721 5.93555 163.287 8.582 163.287 11.4832C163.287 11.7091 163.264 11.9755 163.246 12.2476H156.127C156.412 13.5622 157.328 14.2513 158.634 14.2513C159.609 14.2513 160.311 13.9444 161.111 13.2031L162.771 14.6682C161.819 15.8496 160.444 16.5735 158.593 16.5735C155.518 16.5677 153.244 14.4192 153.244 11.2921Z" fill="#7AB341"></path><path d="M163.832 6.13246H166.733V8.18823C167.325 6.77525 168.283 5.86607 170 5.94136V8.97001H169.843C167.917 8.97001 166.733 10.1282 166.733 12.572V16.3476H163.832V6.13246Z" fill="#7AB341"></path></svg>