<svg width="210" height="147" viewBox="0 0 210 147" fill="none" xmlns="http://www.w3.org/2000/svg">
<path d="M180.524 80.4441C183.548 76.6374 189.096 76.0112 192.916 79.0454C196.735 82.0796 197.38 87.6253 194.356 91.432C191.332 95.2388 185.784 95.865 181.965 92.8307C178.145 89.7965 177.5 84.2508 180.524 80.4441Z" fill="#FFC700"/>
<path d="M44.6157 108.449C45.8757 106.097 48.7921 105.206 51.1296 106.458C53.4671 107.71 54.3405 110.632 53.0805 112.984C51.8204 115.336 48.904 116.227 46.5665 114.975C44.2291 113.723 43.3556 110.801 44.6157 108.449Z" fill="#FFC700"/>
<path d="M99.4842 41.6203C101.386 40.424 103.294 39.2408 105.207 38.0724C110.704 34.7141 116.163 31.5241 121.536 28.5254C122.635 29.4635 123.576 30.5704 124.322 31.799C118.075 35.1645 111.663 38.8496 105.189 42.8046C104.759 43.0668 104.33 43.3299 103.902 43.5938H100.08C99.832 42.9558 99.6323 42.2964 99.4842 41.6203Z" fill="#5AC727"/>
<path d="M98.6288 45.7226C98.7767 46.0177 98.9337 46.3078 99.0996 46.5925C93.3707 50.221 87.7155 53.9854 82.2061 57.833L84.5631 51.3691C87.3736 49.4636 90.2112 47.5797 93.069 45.7226H98.6288Z" fill="#5AC727"/>
<path d="M128.464 38.6938C128.459 37.0651 128.199 35.4807 127.716 33.9847C143.786 25.7616 157.998 20.3455 168.223 18.5962C180.051 16.5726 185.711 19.5983 184.115 27.0923C183.193 31.4199 179.89 37.0613 174.528 43.5938H165.939C167.986 40.4969 169.289 37.7563 169.777 35.4654C171.083 29.3307 166.45 26.8538 156.768 28.5103C149.443 29.7635 139.619 33.3151 128.464 38.6938Z" fill="#5AC727"/>
<path d="M125.737 35.007C126.179 36.5219 126.358 38.1352 126.229 39.7868C123.831 40.9768 121.376 42.2473 118.875 43.5938H117.676L120.029 38.0561C121.953 37.0034 123.857 35.9866 125.737 35.007Z" fill="#5AC727"/>
<path d="M126.256 30.7647C139.555 23.7028 152.054 18.1293 162.757 14.5335C178.976 9.08421 190.066 8.51387 194.137 12.9197C198.208 17.3256 195.009 26.4349 185.084 38.6958L197.519 33.325C208.987 19.1586 212.683 8.63345 207.979 3.54288C203.275 -1.54772 190.462 -0.888737 171.722 5.40749C157.761 10.0981 141.154 17.7012 123.558 27.4035C124.608 28.3962 125.516 29.5283 126.256 30.7647Z" fill="#5AC727"/>
<path d="M67.9635 68.2137C71.5988 65.4466 75.3367 62.6977 79.1526 59.9846L81.5415 53.4333C76.001 57.2469 70.5768 61.1392 65.3226 65.071C66.3614 65.9644 67.2433 67.0145 67.9635 68.2137Z" fill="#5AC727"/>
<path d="M39.4782 98.4419C39.9314 97.9418 40.3941 97.4385 40.8661 96.9322H48.7087C41.6458 105.382 38.8132 111.923 40.7323 115.497C42.8771 119.492 50.806 119.498 62.9965 115.514C75.187 111.531 90.7797 103.839 106.781 93.9155C122.782 83.9919 138.063 72.5363 149.69 61.7482C150.194 61.2804 150.69 60.8154 151.177 60.3531H158.324C144.285 73.1915 126.137 86.7248 107.16 98.4939C87.6133 110.616 68.5654 120.013 53.6737 124.879C38.782 129.745 29.0962 129.737 26.4762 124.858C23.8561 119.978 28.4865 110.571 39.4782 98.4419Z" fill="#5AC727"/>
<path d="M29.8188 94.8034C32.5883 92.1562 35.5288 89.454 38.6307 86.7083C40.2512 85.2739 41.9071 83.8353 43.5957 82.3943H49.7007C50.0436 82.3943 50.3316 82.3563 50.5646 82.2803C49.5512 83.1544 48.5521 84.0273 47.568 84.8984C43.7407 88.2862 40.1971 91.5975 36.9619 94.8034H29.8188Z" fill="#5AC727"/>
<path d="M64.806 130.276C87.2151 119.695 112.161 104.866 135.393 88.3172L131.315 86.2908C111.208 100.614 89.6171 113.448 70.2223 122.606C50.8275 131.764 34.8283 136.68 24.9509 136.516C15.0735 136.351 11.9289 131.117 16.053 121.705C18.9893 115.004 25.4813 106.479 34.8438 96.9322H27.6164C14.8105 109.452 5.98351 120.641 2.21771 129.236C-2.54733 140.111 1.08595 146.158 12.4985 146.348C23.9111 146.538 42.3968 140.858 64.806 130.276Z" fill="#5AC727"/>
<path d="M50.542 94.8034H42.8883C49.7015 87.7593 58.1971 80.204 67.8012 72.6221C67.9711 73.0907 68.1197 73.5699 68.2469 74.0598C68.5504 75.2289 68.7475 76.3372 68.8381 77.3848C62.018 83.0887 56.0737 88.689 51.3759 93.8729C51.0928 94.1853 50.8148 94.4955 50.542 94.8034Z" fill="#5AC727"/>
<path d="M74.4789 72.8017C73.2238 73.7933 71.9919 74.7843 70.7851 75.7731C70.6678 75.0389 70.5089 74.2895 70.3106 73.5257C70.1075 72.7433 69.8558 71.9834 69.5554 71.2466C72.0185 69.3281 74.5503 67.4097 77.1416 65.4994L74.4789 72.8017Z" fill="#5AC727"/>
<path d="M63.5712 66.3878C59.1452 69.7313 54.8458 73.1002 50.7059 76.4703C50.964 76.5947 51.1544 76.8407 51.2771 77.2084C51.4626 77.7023 51.5553 78.1962 51.5553 78.6901V79.8014C51.5553 80.4187 51.4626 81.0052 51.2771 81.5609C51.2659 81.6111 51.2515 81.6591 51.2337 81.7048C55.9648 77.6468 61 73.5649 66.2625 69.5154C66.244 69.4868 66.2254 69.4581 66.2068 69.4296C65.509 68.2351 64.6305 67.2212 63.5712 66.3878Z" fill="#5AC727"/>
<path d="M77.6472 70.3352L80.2326 63.2449C82.137 61.8706 84.0704 60.5021 86.0295 59.1423L89.4833 61.7018C85.3852 64.5463 81.4238 67.4376 77.6472 70.3352Z" fill="#5AC727"/>
<path d="M164.456 45.7226C161.704 49.4886 157.975 53.7043 153.381 58.2243H160.621C165.302 53.8263 169.361 49.6313 172.735 45.7226H164.456Z" fill="#5AC727"/>
<path d="M125.916 40.3996C126.962 33.052 121.853 26.2476 114.506 25.2016C107.158 24.1556 100.354 29.2641 99.3077 36.6118C98.9725 38.9667 99.2694 41.2658 100.07 43.3374H125.154C125.511 42.4089 125.77 41.4261 125.916 40.3996Z" fill="#FFC700"/>
<path d="M124.114 45.4614H101.113C103.129 48.7889 106.566 51.2187 110.718 51.8097C116.215 52.5924 121.409 49.9296 124.114 45.4614Z" fill="#FFC700"/>
<path d="M51.2921 78.9738V78.4171C51.2921 77.9223 51.1989 77.4275 51.0125 76.9327C50.8261 76.3761 50.4843 76.0978 49.9872 76.0978H31.3453C29.4811 76.0978 27.8033 75.6648 26.3119 74.7989C24.8206 73.8712 23.5157 72.727 22.3971 71.3663C21.3408 69.9438 20.5329 68.3975 19.9737 66.7276C19.4144 65.0577 19.1348 63.4186 19.1348 61.8106C19.1348 60.3262 19.5698 58.6562 20.4397 56.8008C21.3097 54.8834 22.4282 53.0898 23.7953 51.4198C25.1624 49.6881 26.7159 48.2655 28.4558 47.1522C30.1957 45.9771 31.9356 45.3895 33.6755 45.3895H81.2124C79.7832 47.4924 78.1365 49.5953 76.2723 51.6982C74.4703 53.8011 72.4507 55.9039 70.2137 58.0068H39.4545C38.771 58.0068 38.1806 58.4707 37.6835 59.3984C37.1864 60.3262 36.9378 61.0684 36.9378 61.625V62.0889C36.9378 62.1507 37.0621 62.3054 37.3107 62.5527C37.5592 62.7383 37.7457 62.8929 37.8699 63.0166C38.1185 63.264 38.4603 63.5114 38.8952 63.7588C39.3924 63.9444 39.672 64.0371 39.7341 64.0371H57.444C59.4324 64.0371 61.1413 64.5319 62.5705 65.5215C63.9997 66.4493 65.1493 67.6553 66.0193 69.1397C66.9514 70.5623 67.6349 72.1085 68.0699 73.7784C68.5048 75.4484 68.7223 76.9946 68.7223 78.4171V78.9738C68.7223 80.5819 68.3495 82.3137 67.6038 84.1691C66.8581 85.9628 65.8639 87.6327 64.6211 89.1789C63.4405 90.7252 62.0423 92.024 60.4267 93.0755C58.8732 94.065 57.2576 94.5598 55.5798 94.5598H8.04285C8.35355 93.9414 8.97494 92.9518 9.90704 91.5911C10.9013 90.2304 11.9266 88.8697 12.983 87.509C14.1015 86.0865 15.1268 84.8495 16.0589 83.798C16.991 82.6847 17.5502 82.1281 17.7367 82.1281H49.4279C50.36 82.1281 50.8882 81.8498 51.0125 81.2931C51.1989 80.7365 51.2921 80.1489 51.2921 79.5304V78.9738Z" fill="white"/>
<path d="M68.5505 94.5598H86.4467L92.9714 76.7472H119.163C121.276 76.7472 123.482 76.3143 125.781 75.4484C128.08 74.5825 130.193 73.3764 132.119 71.8302C134.046 70.2221 135.63 68.3357 136.873 66.1709C138.116 64.0062 138.737 61.625 138.737 59.0273C138.737 57.7903 138.582 56.3987 138.271 54.8525C138.023 53.2444 137.526 51.76 136.78 50.3993C136.096 48.9768 135.133 47.8017 133.89 46.8739C132.71 45.8843 131.187 45.3895 129.323 45.3895H86.5399L68.5505 94.5598ZM99.7757 58.0068H118.884C119.008 58.0068 119.288 58.2851 119.723 58.8418C120.22 59.3366 120.561 59.7386 120.748 60.0478C120.748 60.0478 120.748 60.1097 120.748 60.2334C120.81 60.3571 120.872 60.4499 120.934 60.5117L120.748 60.9756C120.686 61.1611 120.53 61.4395 120.282 61.8106C120.095 62.1198 119.878 62.46 119.629 62.8311C119.381 63.2022 119.132 63.5423 118.884 63.8516C118.697 64.099 118.573 64.2227 118.511 64.2227H103.597L94.6492 72.1085L99.7757 58.0068Z" fill="white"/>
<path d="M148.599 94.5598H166.496L179.918 57.914H190.917C191.414 57.914 192.19 57.4192 193.247 56.4297C194.365 55.4401 195.484 54.2649 196.602 52.9042C197.783 51.5435 198.87 50.1829 199.865 48.8222C200.921 47.3996 201.667 46.2554 202.102 45.3895H155.404C154.534 45.9462 153.477 46.8739 152.235 48.1728C151.054 49.4097 149.873 50.7086 148.693 52.0693C147.574 53.43 146.58 54.6669 145.71 55.7802C144.902 56.8935 144.467 57.5739 144.405 57.8213V57.914H162.022L148.599 94.5598Z" fill="white"/>
</svg>
