<svg width="1920" height="341" viewBox="0 0 1920 341" fill="none" xmlns="http://www.w3.org/2000/svg">
<path d="M742.748 0V48.3061H713.354C702.417 48.3061 696.948 54.914 696.948 65.3956V93.6501H742.292V93.6795H746.293V93.6501H783.662V59.4712C783.662 22.3302 807.132 0 846.779 0H898.731V48.3061H869.337C858.4 48.3061 852.931 54.914 852.931 65.3956V93.6501H898.275V145.83H852.931V334.041H783.662V145.83H696.948V334.041H627.679V145.83H590.31V93.6501H627.679V59.4712C627.679 22.3302 651.148 0 690.796 0H742.748Z" fill="#DAE0C4"/>
<path d="M157.223 333.13C147.425 336.092 133.981 338.143 119.398 338.143C72.0035 338.143 40.1032 318.319 40.1032 264.544V145.83H0V93.6501H5.46862C35.3182 93.6501 49.4454 81.5735 51.0404 45.1161L52.1797 21.6466H109.145V74.2821C109.145 81.3457 105.727 84.7636 98.663 84.7636H85.675C71.5478 84.7636 60.8384 95.2451 60.8384 108.689C60.8384 122.816 71.5478 133.525 85.675 133.525C98.8908 133.525 109.6 122.816 109.6 108.689V103.448C109.6 97.2958 113.246 93.6501 119.854 93.6501H161.096V145.83H109.145V255.658C109.145 276.849 120.765 283.685 138.31 283.685C144.918 283.685 151.298 283.001 157.223 281.634V333.13Z" fill="#DAE0C4"/>
<path d="M255.33 137.399C266.039 107.777 291.332 89.5486 325.738 89.5486C330.068 89.5486 334.625 90.0043 337.815 90.6879V157.451C331.663 155.856 325.283 155.172 318.447 155.172C282.673 155.172 257.836 177.047 257.836 220.795V334.041H188.795V93.6501H255.33V137.399Z" fill="#DAE0C4"/>
<path fill-rule="evenodd" clip-rule="evenodd" d="M567.396 178.642C567.396 121.905 531.167 87.0422 462.581 87.0422C396.73 87.0422 354.348 121.221 352.525 169.755H423.845C424.985 148.564 440.023 135.348 463.948 135.348C486.962 135.348 498.127 148.564 498.127 162.919C498.127 177.73 488.557 183.427 464.86 186.844L423.162 192.769C375.767 199.605 346.145 221.023 346.145 267.734C346.145 313.078 379.868 340.649 424.757 340.649C460.303 340.649 486.051 324.699 500.178 303.736C501.089 315.129 502.912 325.383 504.963 334.041H576.739V326.294C570.131 321.053 567.396 298.04 567.396 278.9V178.642ZM513.622 227.403C505.875 227.403 501.089 231.277 500.178 238.341L499.722 241.986C496.304 269.785 480.126 290.065 450.277 290.065C431.365 290.065 417.009 279.583 417.009 262.266C417.009 244.265 429.542 235.378 452.1 230.821L481.494 224.897C491.747 222.846 495.621 218.061 495.621 209.175V203.022C495.621 189.123 506.558 178.869 520.23 178.869C533.673 178.869 544.383 189.123 544.383 203.022C544.383 217.15 533.445 227.403 520.23 227.403H513.622Z" fill="#DAE0C4"/>
<path d="M1131.5 241.531C1126.49 306.698 1081.37 340.649 1019.62 340.649C949.443 340.649 903.188 295.533 903.188 214.871C903.188 134.437 950.81 87.0422 1020.08 87.0422C1082.74 87.0422 1127.63 120.765 1131.5 185.705H1060.87C1059.5 154.944 1044.23 139.905 1020.99 139.905C992.736 139.905 974.28 163.147 974.28 213.504C974.28 264.089 991.825 287.786 1020.76 287.786C1042.87 287.786 1058.82 273.203 1060.87 241.531H1131.5Z" fill="#DAE0C4"/>
<path fill-rule="evenodd" clip-rule="evenodd" d="M1266.98 340.649C1338.75 340.649 1385.92 291.66 1385.92 213.732C1385.92 135.804 1338.75 87.0422 1266.98 87.0422C1194.98 87.0422 1147.81 135.804 1147.81 213.732C1147.81 291.66 1194.98 340.649 1266.98 340.649ZM1266.98 287.786C1237.13 287.786 1218.9 262.722 1218.9 213.732C1218.9 164.742 1237.13 139.905 1266.98 139.905C1296.83 139.905 1314.83 164.514 1314.83 213.732C1314.83 262.949 1296.83 287.786 1266.98 287.786Z" fill="#DAE0C4"/>
<path d="M1482.43 137.399C1493.14 107.777 1518.43 89.5486 1552.84 89.5486C1557.17 89.5486 1561.73 90.0043 1564.92 90.6879V157.451C1558.77 155.856 1552.39 155.172 1545.55 155.172C1509.78 155.172 1484.94 177.047 1484.94 220.795V334.041H1415.9V93.6501H1482.43V137.399Z" fill="#DAE0C4"/>
<path d="M1644.34 208.491C1644.34 221.707 1653.91 230.821 1668.04 230.821H1809.31C1809.54 224.441 1809.54 217.605 1809.54 210.542C1809.54 130.563 1761.92 87.0422 1695.15 87.0422C1626.11 87.0422 1574.62 133.07 1574.62 213.96C1574.62 299.407 1623.38 340.649 1695.15 340.649C1759.86 340.649 1801.79 308.065 1808.4 254.519H1738.9C1735.48 278.216 1719.99 291.432 1696.52 291.432C1668.49 291.432 1649.81 272.975 1647.3 239.024C1646.85 233.1 1643.88 230.593 1638.42 230.593H1633.4C1619.73 230.593 1609.48 221.479 1609.48 208.035C1609.48 194.364 1619.73 185.249 1633.4 185.249H1637.73C1644.11 185.249 1647.07 182.971 1648.21 177.274C1653.45 151.071 1671 135.576 1695.15 135.576C1721.13 135.576 1736.62 150.843 1738.9 185.933H1668.04C1653.91 185.933 1644.34 195.047 1644.34 208.491Z" fill="#DAE0C4"/>
<path fill-rule="evenodd" clip-rule="evenodd" d="M1878.03 321.01V303.355H1886.26L1897.45 321.01H1903.18L1891.34 303.355C1892.7 303.108 1893.96 302.739 1895.13 302.246C1896.37 301.691 1897.45 300.982 1898.37 300.12C1899.29 299.195 1900 298.086 1900.5 296.792C1901.05 295.498 1901.33 293.988 1901.33 292.262C1901.33 288.688 1900.28 285.977 1898.19 284.128C1896.15 282.218 1892.89 281.262 1888.39 281.262H1873.13V321.01H1878.03ZM1884.5 299.195H1878.03V285.422H1887C1888.23 285.422 1889.4 285.515 1890.51 285.699C1891.62 285.884 1892.61 286.254 1893.47 286.809C1894.4 287.302 1895.1 287.98 1895.6 288.842C1896.15 289.705 1896.43 290.845 1896.43 292.262C1896.43 293.926 1896.09 295.251 1895.41 296.237C1894.73 297.162 1893.84 297.839 1892.73 298.271C1891.62 298.702 1890.33 298.979 1888.85 299.103C1887.43 299.164 1885.98 299.195 1884.5 299.195Z" fill="#DAE0C4"/>
<path fill-rule="evenodd" clip-rule="evenodd" d="M1885.61 266.75C1880.75 266.75 1876.22 267.643 1872.03 269.431C1867.84 271.156 1864.2 273.59 1861.12 276.733C1858.04 279.814 1855.6 283.45 1853.82 287.641C1852.09 291.831 1851.23 296.33 1851.23 301.136C1851.23 306.005 1852.09 310.534 1853.82 314.725C1855.6 318.853 1858.04 322.458 1861.12 325.54C1864.2 328.621 1867.84 331.055 1872.03 332.842C1876.22 334.568 1880.75 335.43 1885.61 335.43C1890.48 335.43 1895.01 334.568 1899.2 332.842C1903.39 331.055 1907.03 328.621 1910.11 325.54C1913.19 322.458 1915.59 318.853 1917.32 314.725C1919.11 310.534 1920 306.005 1920 301.136C1920 296.33 1919.11 291.831 1917.32 287.641C1915.59 283.45 1913.19 279.814 1910.11 276.733C1907.03 273.59 1903.39 271.156 1899.2 269.431C1895.01 267.643 1890.48 266.75 1885.61 266.75ZM1885.61 271.649C1889.74 271.649 1893.56 272.419 1897.08 273.96C1900.65 275.501 1903.73 277.596 1906.32 280.246C1908.91 282.896 1910.94 286.008 1912.42 289.582C1913.9 293.156 1914.64 297.008 1914.64 301.136C1914.64 305.265 1913.9 309.117 1912.42 312.691C1910.94 316.265 1908.91 319.377 1906.32 322.027C1903.73 324.677 1900.65 326.772 1897.08 328.313C1893.56 329.853 1889.74 330.624 1885.61 330.624C1881.42 330.624 1877.54 329.853 1873.97 328.313C1870.45 326.772 1867.4 324.677 1864.82 322.027C1862.23 319.377 1860.19 316.265 1858.71 312.691C1857.3 309.117 1856.59 305.265 1856.59 301.136C1856.59 297.008 1857.3 293.156 1858.71 289.582C1860.19 286.008 1862.23 282.896 1864.82 280.246C1867.4 277.596 1870.45 275.501 1873.97 273.96C1877.54 272.419 1881.42 271.649 1885.61 271.649Z" fill="#DAE0C4"/>
</svg>
