<svg width="128" height="51" viewBox="0 0 128 51" fill="none" xmlns="http://www.w3.org/2000/svg">
<g filter="url(#filter0_dd_48_48)">
<path d="M34.5153 4.48182L39.471 31.2896L21.6075 46.1569L3.74397 31.2896L8.69698 4.48182L21.6047 14.3463L34.5153 4.48182ZM36.242 0L32.9881 2.4862L21.6075 11.181L10.2242 2.4862L6.97022 0L6.22463 4.02726L1.26885 30.835L1 32.2818L2.13085 33.2242L19.9944 48.0916L21.602 49.4303L23.2095 48.0916L41.0731 33.2242L42.2039 32.2818L41.9351 30.835L36.9793 4.02726L36.242 0ZM18.3397 26.0899L8.68312 24.0998L15.6096 30.0673L18.3397 26.0899ZM34.5291 24.0998L24.8726 26.0899L27.6027 30.0673L34.5291 24.0998Z" fill="#FF2A00"/>
<path d="M53.3183 22.3342H55.8821V12.0818H59.0419L59.0225 9.71198H50.1614V12.0818H53.3183V22.3342Z" fill="#FF2A00"/>
<path d="M76.9692 18.0104H81.6228L83.369 22.3342H86.1157L80.9216 9.79513L80.8883 9.71198H77.7397L72.5871 22.1485L72.5095 22.3342H75.2369L76.9692 18.0104ZM78.7652 13.4759C78.9287 13.0325 79.1255 12.4948 79.2946 12.0014C79.4997 12.6056 79.6882 13.1572 79.8406 13.5674L80.7553 15.8901H77.8007L78.732 13.5646L78.7652 13.4759Z" fill="#FF2A00"/>
<path d="M95.2261 14.9173H90.7969V12.0818L95.3841 12.0652V9.73145H88.2498V22.3537H90.7969V17.2538H95.2261V14.9173Z" fill="#FF2A00"/>
<path d="M100.888 17.2538H105.318V14.9173H100.888V12.0818L105.476 12.0652V9.73145H98.3413V22.3537H100.888V17.2538Z" fill="#FF2A00"/>
<path d="M111.116 9.71198H108.552V22.3342H111.116V9.71198Z" fill="#FF2A00"/>
<path d="M58.4152 31.2924L56.3004 31.0096C55.1945 30.8433 54.7205 30.483 54.7205 29.8012C54.7205 28.9946 55.4301 28.4708 56.5277 28.4708C57.6308 28.4708 58.3681 28.9974 58.5482 29.9148L58.5704 30.0257L61.2645 30.0063L61.2506 29.8594C61.0511 27.7058 59.255 26.3671 56.5637 26.3671C53.8364 26.3671 52.1401 27.764 52.1401 30.0146C52.1401 31.8633 53.3125 32.9637 55.6269 33.288L57.8858 33.6067C59.1026 33.7869 59.6236 34.2525 59.6236 35.1672C59.6236 36.3673 58.6342 37.1157 57.0404 37.1157C56.0371 37.1157 55.2167 36.8191 54.6651 36.2592C54.144 35.7298 53.8779 34.9676 53.8918 34.0613L53.8946 33.9227H51.0453V34.0557C51.037 35.4915 51.5275 36.7498 52.4616 37.6894C53.537 38.7704 55.1003 39.3441 56.985 39.3441H57.0016C60.1918 39.3441 62.254 37.6506 62.254 35.0286C62.2568 32.8972 60.9651 31.6416 58.4152 31.2924Z" fill="#FF2A00"/>
<path d="M77.6204 32.8556C77.6204 29.1665 74.7184 26.3865 70.8685 26.3865C67.0187 26.3865 64.1167 29.1831 64.1167 32.8916C64.1167 36.6001 67.0187 39.3968 70.8685 39.3968C72.2627 39.3968 73.5848 39.0254 74.6962 38.3214L76.8692 40.4944L78.4491 38.8341L76.3565 36.7415C77.1824 35.6467 77.6204 34.3052 77.6204 32.8556ZM72.9916 36.6001C72.3625 36.93 71.6474 37.0963 70.8658 37.0963C68.5126 37.0963 66.7747 35.4887 66.6195 33.227L66.6251 33.2325V32.9083C66.6251 32.1239 66.808 31.3811 67.1545 30.7463L72.9916 36.6001ZM75.1425 32.7724H75.1258V32.9083C75.1258 33.6816 74.9485 34.3967 74.5965 35.0341L68.7593 29.197C69.3884 28.8671 70.1035 28.7008 70.8852 28.7008C73.3076 28.7008 75.076 30.4054 75.1425 32.7724Z" fill="#FF2A00"/>
<path d="M88.0088 34.3717C88.0088 35.9432 87.1219 36.9189 85.6917 36.9189C84.2615 36.9189 83.3745 35.9349 83.3745 34.355V26.525H80.7581V34.3883C80.7581 37.3956 82.6899 39.3413 85.6806 39.3413H85.6917C88.6574 39.3413 90.5726 37.4039 90.5726 34.4077V26.5444H88.0088V34.3717Z" fill="#FF2A00"/>
<path d="M100.567 26.5445H97.4213L92.2688 38.9811L92.1912 39.1668H94.9185L96.648 34.8429H101.302L103.048 39.1668H105.795L100.6 26.6276L100.567 26.5445ZM98.4469 30.3084C98.6104 29.865 98.8072 29.3273 98.9763 28.8339C99.1342 29.3051 99.3366 29.8982 99.5223 30.3999L100.437 32.7226H97.4823L98.4164 30.3971L98.4469 30.3084Z" fill="#FF2A00"/>
<path d="M111.889 26.5445H108.048V39.1668H111.889C115.781 39.1668 118.5 36.578 118.5 32.8723C118.503 29.1471 115.784 26.5445 111.889 26.5445ZM115.831 32.8917C115.831 35.2337 114.204 36.869 111.873 36.869H110.595V28.9143H111.873C114.204 28.9143 115.831 30.5496 115.831 32.8917Z" fill="#FF2A00"/>
<path d="M71.786 22.3343L67.124 17.0404H67.404C69.4217 17.0404 71.0044 15.4467 71.0044 13.4122C71.0044 11.2115 69.4051 9.73145 67.0215 9.73145H61.6804V22.3537H64.1916V17.2788L68.4239 22.3371H71.786V22.3343ZM66.5281 15.1473H64.1916V11.8518H66.5281C67.6534 11.8518 68.3519 12.4837 68.3519 13.4982C68.3519 14.5126 67.6534 15.1473 66.5281 15.1473Z" fill="#FF2A00"/>
<path d="M127.594 16.0259L127.588 15.8984H124.919L124.922 16.0342C124.941 17.2399 124.562 18.2737 123.822 19.0248C123.093 19.7649 122.087 20.1585 120.914 20.1585C118.47 20.1585 116.762 18.4428 116.762 15.9871C116.762 13.584 118.456 11.9044 120.881 11.9044C122.353 11.9044 123.625 12.5807 124.201 13.6672L124.24 13.7392H127.062L127.009 13.5646C126.269 11.1643 123.808 9.55121 120.881 9.55121C116.937 9.55121 114.076 12.273 114.076 16.0203C114.076 19.7732 116.967 22.4978 120.953 22.5061H120.97C122.993 22.5005 124.775 21.7965 125.995 20.516C127.106 19.3519 127.677 17.7582 127.594 16.0259Z" fill="#FF2A00"/>
</g>
<defs>
<filter id="filter0_dd_48_48" x="0.676926" y="0" width="127.248" height="50.0764" filterUnits="userSpaceOnUse" color-interpolation-filters="sRGB">
<feFlood flood-opacity="0" result="BackgroundImageFix"/>
<feColorMatrix in="SourceAlpha" type="matrix" values="0 0 0 0 0 0 0 0 0 0 0 0 0 0 0 0 0 0 127 0" result="hardAlpha"/>
<feOffset dy="0.323074"/>
<feGaussianBlur stdDeviation="0.161537"/>
<feComposite in2="hardAlpha" operator="out"/>
<feColorMatrix type="matrix" values="0 0 0 0 0 0 0 0 0 0 0 0 0 0 0 0 0 0 0.25 0"/>
<feBlend mode="normal" in2="BackgroundImageFix" result="effect1_dropShadow_48_48"/>
<feColorMatrix in="SourceAlpha" type="matrix" values="0 0 0 0 0 0 0 0 0 0 0 0 0 0 0 0 0 0 127 0" result="hardAlpha"/>
<feOffset dy="0.323074"/>
<feGaussianBlur stdDeviation="0.161537"/>
<feComposite in2="hardAlpha" operator="out"/>
<feColorMatrix type="matrix" values="0 0 0 0 0 0 0 0 0 0 0 0 0 0 0 0 0 0 0.25 0"/>
<feBlend mode="normal" in2="effect1_dropShadow_48_48" result="effect2_dropShadow_48_48"/>
<feBlend mode="normal" in="SourceGraphic" in2="effect2_dropShadow_48_48" result="shape"/>
</filter>
</defs>
</svg>
