<svg width="136" height="52" viewBox="0 0 136 52" fill="none" xmlns="http://www.w3.org/2000/svg">
<g clip-path="url(#clip0_117_206)">
<path d="M7.0957 19.2031C7.0957 19.2031 18.3657 20.4545 25.5924 20.4545C32.819 20.4545 44.089 19.2031 44.089 19.2031V33.1076C44.089 33.1076 32.819 31.8562 25.5924 31.8562C18.3657 31.8562 7.0957 33.1076 7.0957 33.1076V19.2031Z" fill="url(#paint0_linear_117_206)"/>
<path d="M7.0957 19.2031C7.0957 19.2031 18.3657 20.4545 25.5924 20.4545C32.819 20.4545 44.089 19.2031 44.089 19.2031V33.1076C44.089 33.1076 32.819 31.8562 25.5924 31.8562C18.3657 31.8562 7.0957 33.1076 7.0957 33.1076V19.2031Z" fill="black" fill-opacity="0.2"/>
<path d="M7.02958 19.1776C13.762 19.1381 19.1877 13.6495 19.1482 6.91845C19.1482 3.14254 22.2092 0.0815617 25.9851 0.0815572L26.3246 0.0815568C30.0553 0.0815524 33.0797 3.10594 33.0797 6.83671C33.1643 21.2604 21.5379 33.0217 7.1113 33.1063L7.02958 19.1776Z" fill="#F4BC05"/>
<path d="M32.8251 45.2477C32.7856 49.002 29.7184 52.0221 25.9592 52.0001L25.623 51.9981C21.8981 51.9763 18.8962 48.9395 18.9181 45.2154C18.9181 30.8169 30.594 19.1769 44.9954 19.1769L44.9942 19.1769C44.9946 19.1769 44.995 19.1769 44.9954 19.1769C48.7203 19.1551 51.7577 22.1563 51.7795 25.8805L51.7815 26.2166C51.8036 29.9858 48.7654 33.0592 44.9954 33.0813C38.2748 33.0813 32.8266 38.5284 32.8266 45.2477H32.8251Z" fill="#008CE1"/>
<ellipse cx="7.09622" cy="26.1554" rx="6.95364" ry="6.95223" fill="#00AF44"/>
</g>
<path d="M74.0087 7.5228V10.4696H69.1518V24.7127H65.4137V10.4696H60.666V7.5228H74.0087Z" fill="#fff"/>
<path d="M76.1318 7.5228H82.6531C83.6172 7.5228 84.463 7.66832 85.1906 7.95937C85.9364 8.23222 86.5549 8.61422 87.046 9.10536C87.5372 9.57831 87.901 10.1422 88.1375 10.7971C88.3921 11.4337 88.5195 12.125 88.5195 12.8708C88.5195 13.562 88.4103 14.1805 88.192 14.7262C87.9919 15.2537 87.7282 15.7176 87.4008 16.1178C87.0915 16.4997 86.7368 16.8272 86.3366 17.1C85.9546 17.3547 85.5817 17.5639 85.2179 17.7276L89.4199 24.7127H85.1361L81.8345 18.3825H79.8427V24.7127H76.1318V7.5228ZM79.8427 15.5175H81.3161C82.2984 15.5175 83.0987 15.3174 83.7172 14.9172C84.3539 14.517 84.6722 13.853 84.6722 12.9253C84.6722 12.1068 84.4175 11.4792 83.9082 11.0426C83.4171 10.5879 82.6894 10.3605 81.7254 10.3605H79.8427V15.5175Z" fill="#fff"/>
<path d="M91.2655 7.5228H95.0036V17.8095C95.0036 19.2283 95.2856 20.3106 95.8495 21.0564C96.4316 21.7841 97.3229 22.1479 98.5235 22.1479C99.7058 22.1479 100.561 21.775 101.088 21.0292C101.616 20.2833 101.88 19.3193 101.88 18.1369V7.5228H105.618V17.864C105.618 20.2652 105.017 22.0569 103.817 23.2393C102.634 24.4217 100.87 25.0128 98.5235 25.0128C96.2678 25.0128 94.4943 24.4217 93.2028 23.2393C91.9113 22.0569 91.2655 20.2197 91.2655 17.7276V7.5228Z" fill="#fff"/>
<path d="M114.926 7.22266C116.035 7.22266 117.018 7.3318 117.873 7.55008C118.727 7.76837 119.491 8.05032 120.165 8.39594L119.319 11.1791C118.573 10.8153 117.854 10.5424 117.163 10.3605C116.472 10.1604 115.799 10.0604 115.144 10.0604C114.271 10.0604 113.589 10.2332 113.098 10.5788C112.625 10.9244 112.388 11.3883 112.388 11.9703C112.388 12.5706 112.597 13.0254 113.016 13.3346C113.434 13.6439 114.107 13.944 115.035 14.235L116.672 14.7535C118.036 15.2082 119.1 15.854 119.864 16.6907C120.647 17.5275 121.038 18.5553 121.038 19.774C121.038 20.5016 120.901 21.1838 120.628 21.8204C120.356 22.4571 119.946 23.0119 119.401 23.4849C118.855 23.9578 118.173 24.3307 117.354 24.6036C116.536 24.8764 115.581 25.0128 114.489 25.0128C112.434 25.0128 110.551 24.5945 108.841 23.7577L109.687 20.9746C110.469 21.3566 111.233 21.6567 111.979 21.875C112.725 22.0751 113.507 22.1751 114.325 22.1751C115.29 22.1751 116.017 22.0023 116.508 21.6567C116.999 21.2929 117.245 20.7927 117.245 20.156C117.245 19.9377 117.199 19.7285 117.109 19.5284C117.036 19.3102 116.89 19.1101 116.672 18.9282C116.454 18.7281 116.154 18.5371 115.772 18.3552C115.408 18.1551 114.926 17.9641 114.325 17.7822L112.879 17.291C112.243 17.0727 111.661 16.8181 111.133 16.527C110.605 16.236 110.151 15.8995 109.769 15.5175C109.405 15.1355 109.114 14.6898 108.896 14.1805C108.695 13.653 108.595 13.0436 108.595 12.3523C108.595 11.6065 108.732 10.9244 109.005 10.3059C109.278 9.66926 109.678 9.12355 110.205 8.66879C110.751 8.21403 111.415 7.85932 112.197 7.60465C112.998 7.34999 113.907 7.22266 114.926 7.22266Z" fill="#fff"/>
<path d="M135.721 7.5228V10.4696H130.864V24.7127H127.126V10.4696H122.378V7.5228H135.721Z" fill="#fff"/>
<path d="M73.5659 33.2223C72.3666 32.6532 71.2079 32.3686 70.0899 32.3686C69.3378 32.3686 68.7585 32.5007 68.3519 32.765C67.9657 33.0292 67.7726 33.3951 67.7726 33.8627C67.7726 34.2692 67.925 34.6046 68.2299 34.8689C68.5552 35.1331 69.2158 35.4076 70.2119 35.6921L71.1266 35.9666C72.4073 36.3528 73.383 36.8813 74.0538 37.5521C74.7246 38.2229 75.06 39.1072 75.06 40.2049C75.06 41.6075 74.5315 42.7255 73.4745 43.5589C72.4174 44.372 70.964 44.7786 69.1142 44.7786C67.1831 44.7786 65.5467 44.4533 64.2051 43.8029L65.0283 41.1196C65.6178 41.4042 66.2378 41.638 66.8883 41.8209C67.5591 42.0039 68.2401 42.0953 68.9312 42.0953C70.6388 42.0953 71.4925 41.5567 71.4925 40.4793C71.4925 39.9914 71.2893 39.6255 70.8827 39.3816C70.4761 39.1377 69.7952 38.8734 68.8398 38.5888L67.8945 38.2839C66.6342 37.8774 65.7093 37.359 65.1198 36.7288C64.5303 36.0784 64.2356 35.1941 64.2356 34.0761C64.2356 33.4459 64.3677 32.8666 64.632 32.3381C64.8962 31.7892 65.2621 31.3217 65.7296 30.9355C66.2175 30.5493 66.7968 30.2545 67.4677 30.0512C68.1588 29.8276 68.9211 29.7158 69.7545 29.7158C70.5676 29.7158 71.3706 29.7971 72.1633 29.9598C72.9561 30.102 73.6777 30.3256 74.3282 30.6306L73.5659 33.2223Z" fill="#fff"/>
<path d="M80.1971 44.4737V29.9902H83.7036V35.5397H89.497V29.9902H93.034V44.4737H89.497V38.2839H83.7036V44.4737H80.1971Z" fill="#fff"/>
<path d="M112.869 37.1252C112.869 38.3246 112.676 39.4019 112.289 40.3573C111.923 41.3127 111.405 42.1157 110.734 42.7661C110.063 43.4166 109.281 43.9147 108.386 44.2602C107.492 44.6058 106.526 44.7786 105.49 44.7786C104.453 44.7786 103.487 44.616 102.593 44.2907C101.719 43.9655 100.957 43.4979 100.306 42.8881C99.6557 42.258 99.1475 41.4855 98.7816 40.5708C98.4157 39.656 98.2328 38.6091 98.2328 37.4301C98.2328 36.2105 98.4157 35.123 98.7816 34.1676C99.1679 33.1918 99.6964 32.3787 100.367 31.7283C101.038 31.0778 101.821 30.5797 102.715 30.2342C103.609 29.8886 104.575 29.7158 105.612 29.7158C106.648 29.7158 107.604 29.8784 108.478 30.2037C109.372 30.5086 110.145 30.9761 110.795 31.6063C111.446 32.2364 111.954 33.0089 112.32 33.9236C112.686 34.8384 112.869 35.9056 112.869 37.1252ZM109.149 37.2777C109.149 36.4036 109.047 35.6616 108.844 35.0518C108.641 34.4217 108.366 33.9135 108.021 33.5272C107.695 33.141 107.309 32.8564 106.862 32.6735C106.435 32.4905 105.988 32.3991 105.52 32.3991C105.053 32.3991 104.605 32.4804 104.179 32.643C103.752 32.7853 103.376 33.0495 103.05 33.4358C102.725 33.8017 102.461 34.2997 102.258 34.9299C102.054 35.56 101.953 36.3426 101.953 37.2777C101.953 38.1315 102.054 38.8632 102.258 39.4731C102.461 40.0626 102.725 40.5606 103.05 40.9672C103.396 41.3534 103.782 41.638 104.209 41.8209C104.656 42.0039 105.114 42.0953 105.581 42.0953C106.028 42.0953 106.465 42.014 106.892 41.8514C107.34 41.6888 107.726 41.4245 108.051 41.0586C108.376 40.6927 108.641 40.2049 108.844 39.595C109.047 38.9649 109.149 38.1924 109.149 37.2777Z" fill="#fff"/>
<path d="M118.736 29.9902H124.56C125.292 29.9902 125.993 30.0919 126.664 30.2952C127.335 30.4984 127.914 30.8033 128.402 31.2099C128.91 31.5961 129.306 32.0738 129.591 32.643C129.896 33.1918 130.048 33.8322 130.048 34.564C130.048 35.6007 129.845 36.4443 129.439 37.0947C129.052 37.7452 128.534 38.2534 127.884 38.6193C127.253 38.9649 126.542 39.2088 125.749 39.3511C124.977 39.4731 124.204 39.5341 123.432 39.5341H122.334V44.4737H118.736V29.9902ZM122.304 36.8508H123.523C123.849 36.8508 124.184 36.8203 124.529 36.7593C124.875 36.6984 125.18 36.5866 125.444 36.4239C125.729 36.2613 125.952 36.0377 126.115 35.7531C126.298 35.4685 126.389 35.1026 126.389 34.6554C126.389 34.2489 126.308 33.9135 126.146 33.6492C125.983 33.385 125.769 33.1817 125.505 33.0394C125.241 32.8971 124.936 32.8056 124.59 32.765C124.265 32.704 123.94 32.6735 123.615 32.6735H122.304V36.8508Z" fill="#fff"/>
<defs>
<linearGradient id="paint0_linear_117_206" x1="15.7877" y1="19.8288" x2="31.0832" y2="32.5544" gradientUnits="userSpaceOnUse">
<stop stop-color="#043C5F"/>
<stop offset="0.556921" stop-color="#0182D0"/>
<stop offset="1" stop-color="#026099"/>
</linearGradient>
<clipPath id="clip0_117_206">
<rect width="52" height="52" fill="white"/>
</clipPath>
</defs>
</svg>
