<?xml version="1.0" encoding="utf-8"?>
<!-- Generator: Adobe Illustrator 24.2.3, SVG Export Plug-In . SVG Version: 6.00 Build 0)  -->
<svg version="1.1" id="Layer_1" xmlns="http://www.w3.org/2000/svg" xmlns:xlink="http://www.w3.org/1999/xlink" x="0px" y="0px"
	 viewBox="0 0 158 41" style="enable-background:new 0 0 158 41;" xml:space="preserve">
<style type="text/css">
	.st0{fill:#FFFFFF;}
	.st1{fill:#2B50F1;}
	.st2{fill:#FF4E20;}
</style>
<g>
	<g>
		<path class="st0" d="M31.51,30.91c-0.21,0-0.38-0.07-0.51-0.2c-0.13-0.13-0.2-0.3-0.2-0.51V27c0-0.21,0.07-0.38,0.2-0.51
			c0.13-0.13,0.3-0.2,0.51-0.2h3.2c0.21,0,0.38,0.07,0.51,0.2c0.13,0.13,0.2,0.3,0.2,0.51v3.2c0,0.21-0.07,0.38-0.2,0.51
			c-0.13,0.13-0.3,0.2-0.51,0.2H31.51z"/>
	</g>
	<path class="st0" d="M39.8,36.34c-0.21,0-0.38-0.07-0.51-0.2c-0.13-0.13-0.2-0.3-0.2-0.51V16.78c0-0.21,0.07-0.38,0.2-0.51
		c0.13-0.13,0.3-0.2,0.51-0.2h2.71c0.21,0,0.38,0.07,0.51,0.2c0.13,0.13,0.2,0.3,0.2,0.51v1.08c0.46-0.61,1.05-1.11,1.77-1.5
		c0.72-0.39,1.63-0.59,2.71-0.59c0.99,0,1.85,0.16,2.58,0.47c0.73,0.31,1.35,0.76,1.86,1.34c0.5,0.58,0.89,1.28,1.17,2.1
		c0.28,0.82,0.43,1.74,0.47,2.77c0.02,0.36,0.03,0.7,0.03,1.03c0,0.32-0.01,0.68-0.03,1.06c-0.02,0.97-0.17,1.87-0.44,2.68
		c-0.28,0.82-0.67,1.52-1.18,2.11c-0.51,0.59-1.14,1.05-1.87,1.37c-0.73,0.32-1.59,0.49-2.58,0.49c-0.97,0-1.81-0.18-2.53-0.53
		c-0.71-0.35-1.3-0.83-1.76-1.44v6.4c0,0.21-0.07,0.38-0.2,0.51c-0.13,0.13-0.3,0.2-0.49,0.2H39.8z M46.42,27.77
		c0.72,0,1.29-0.16,1.71-0.47c0.42-0.31,0.72-0.73,0.9-1.24c0.18-0.51,0.29-1.08,0.33-1.68c0.04-0.59,0.04-1.18,0-1.77
		c-0.04-0.61-0.15-1.17-0.33-1.68c-0.18-0.51-0.48-0.93-0.9-1.24c-0.42-0.31-0.99-0.47-1.71-0.47c-0.7,0-1.28,0.16-1.71,0.49
		c-0.44,0.32-0.75,0.73-0.94,1.23c-0.19,0.5-0.3,1.03-0.34,1.6c-0.02,0.34-0.03,0.7-0.03,1.06c0,0.36,0.01,0.72,0.03,1.08
		c0.02,0.53,0.14,1.03,0.36,1.5c0.22,0.47,0.54,0.85,0.97,1.16C45.18,27.62,45.74,27.77,46.42,27.77z"/>
	<path class="st0" d="M60.79,31.2c-1.01,0-1.91-0.2-2.71-0.59c-0.8-0.39-1.44-0.92-1.91-1.58c-0.48-0.67-0.71-1.41-0.71-2.23
		c0-1.35,0.55-2.42,1.64-3.2c1.09-0.78,2.54-1.31,4.33-1.6l3.74-0.54v-0.51c0-0.74-0.17-1.31-0.51-1.71c-0.34-0.4-0.94-0.6-1.8-0.6
		c-0.63,0-1.13,0.12-1.51,0.37c-0.38,0.25-0.68,0.57-0.88,0.97c-0.15,0.25-0.37,0.37-0.66,0.37h-2.71c-0.21,0-0.37-0.06-0.49-0.19
		c-0.11-0.12-0.16-0.27-0.14-0.44c0-0.32,0.12-0.7,0.37-1.14c0.25-0.44,0.63-0.87,1.14-1.3c0.51-0.43,1.17-0.79,1.97-1.07
		c0.8-0.29,1.78-0.43,2.94-0.43c1.2,0,2.23,0.14,3.08,0.43c0.86,0.29,1.54,0.69,2.06,1.2c0.51,0.51,0.89,1.11,1.14,1.78
		c0.25,0.68,0.37,1.4,0.37,2.18v8.82c0,0.21-0.07,0.38-0.2,0.51c-0.13,0.13-0.3,0.2-0.51,0.2h-2.8c-0.19,0-0.35-0.07-0.49-0.2
		c-0.13-0.13-0.2-0.3-0.2-0.51v-1.06c-0.25,0.36-0.58,0.7-1,1.01c-0.42,0.31-0.92,0.57-1.5,0.76C62.25,31.1,61.57,31.2,60.79,31.2z
		 M61.93,28.23c0.63,0,1.19-0.13,1.68-0.4c0.49-0.27,0.88-0.68,1.17-1.23c0.29-0.55,0.43-1.25,0.43-2.08v-0.49l-2.66,0.43
		c-1.03,0.17-1.78,0.43-2.26,0.77c-0.48,0.34-0.71,0.76-0.71,1.26c0,0.36,0.11,0.68,0.33,0.94c0.22,0.27,0.51,0.47,0.87,0.6
		C61.15,28.16,61.53,28.23,61.93,28.23z"/>
	<path class="st0" d="M83.29,16.07v-4.71c0-0.21,0.07-0.38,0.21-0.51c0.14-0.13,0.31-0.2,0.5-0.2h2.8c0.21,0,0.38,0.07,0.51,0.2
		c0.13,0.13,0.2,0.3,0.2,0.51v4.71h3.57c0.19,0,0.35,0.07,0.49,0.2c0.13,0.13,0.2,0.3,0.2,0.51v1.94c0,0.21-0.07,0.38-0.2,0.51
		c-0.13,0.13-0.3,0.2-0.49,0.2h-3.57v5.65c0,0.72,0.13,1.29,0.39,1.7c0.26,0.41,0.71,0.61,1.36,0.61h2.08c0.19,0,0.35,0.07,0.49,0.2
		c0.13,0.13,0.2,0.3,0.2,0.49v2.11c0,0.21-0.07,0.38-0.2,0.51c-0.13,0.13-0.3,0.2-0.49,0.2h-2.48c-1.18,0-2.19-0.2-3.03-0.59
		c-0.84-0.39-1.47-0.99-1.9-1.81c-0.43-0.82-0.64-1.85-0.64-3.08v-6V16.07z"/>
	<path class="st0" d="M94.81,30.91c-0.19,0-0.35-0.07-0.49-0.2c-0.13-0.13-0.2-0.3-0.2-0.51V16.78c0-0.21,0.07-0.38,0.2-0.51
		c0.13-0.13,0.29-0.2,0.49-0.2h2.8c0.21,0,0.38,0.07,0.51,0.2c0.13,0.13,0.2,0.3,0.2,0.51v1.11c0.49-0.61,1.13-1.11,1.91-1.51
		c0.78-0.4,1.73-0.6,2.85-0.6s2.11,0.25,2.95,0.76c0.85,0.5,1.51,1.24,2,2.2c0.49,0.96,0.73,2.13,0.73,3.5v7.96
		c0,0.21-0.07,0.38-0.21,0.51c-0.14,0.13-0.31,0.2-0.5,0.2h-3.03c-0.21,0-0.38-0.07-0.51-0.2c-0.13-0.13-0.2-0.3-0.2-0.51V22.4
		c0-1.01-0.24-1.79-0.73-2.36c-0.49-0.56-1.19-0.84-2.13-0.84c-0.89,0-1.61,0.28-2.14,0.84c-0.53,0.56-0.8,1.35-0.8,2.36v7.79
		c0,0.21-0.07,0.38-0.2,0.51c-0.13,0.13-0.3,0.2-0.49,0.2H94.81z"/>
	<path class="st0" d="M117.96,31.2c-2.19,0-3.93-0.61-5.21-1.83c-1.28-1.22-1.97-2.99-2.04-5.31c0-0.15,0-0.36,0-0.61
		c0-0.26,0-0.46,0-0.61c0.08-1.47,0.41-2.73,1-3.78c0.59-1.06,1.42-1.87,2.48-2.43c1.07-0.56,2.31-0.84,3.74-0.84
		c1.6,0,2.94,0.33,4.01,0.99c1.08,0.66,1.88,1.55,2.43,2.68c0.54,1.13,0.81,2.43,0.81,3.9V24c0,0.19-0.07,0.35-0.21,0.49
		c-0.14,0.13-0.31,0.2-0.5,0.2h-9.34c0,0.02,0,0.05,0,0.1c0,0.05,0,0.09,0,0.13c0.02,0.61,0.14,1.17,0.36,1.67
		c0.22,0.5,0.53,0.91,0.94,1.21c0.41,0.3,0.9,0.46,1.47,0.46c0.48,0,0.87-0.07,1.17-0.2c0.3-0.13,0.56-0.29,0.76-0.49
		c0.2-0.19,0.35-0.35,0.44-0.49c0.17-0.19,0.31-0.31,0.41-0.36c0.1-0.05,0.27-0.07,0.5-0.07h2.97c0.19,0,0.35,0.05,0.47,0.16
		c0.12,0.11,0.18,0.25,0.16,0.44c-0.02,0.3-0.18,0.68-0.47,1.13c-0.3,0.45-0.73,0.89-1.3,1.31c-0.57,0.43-1.28,0.79-2.13,1.07
		C120.04,31.05,119.06,31.2,117.96,31.2z M115.13,22.09h5.6v-0.06c0-0.69-0.11-1.28-0.33-1.78c-0.22-0.5-0.54-0.9-0.96-1.18
		c-0.42-0.29-0.92-0.43-1.51-0.43c-0.59,0-1.09,0.14-1.51,0.43c-0.42,0.29-0.74,0.68-0.96,1.18c-0.22,0.5-0.33,1.1-0.33,1.78V22.09z
		"/>
	<path class="st0" d="M127.99,30.91c-0.19,0-0.35-0.07-0.49-0.2c-0.13-0.13-0.2-0.3-0.2-0.51V16.78c0-0.19,0.07-0.36,0.2-0.5
		c0.13-0.14,0.29-0.21,0.49-0.21h2.8c0.19,0,0.36,0.07,0.5,0.21c0.14,0.14,0.21,0.31,0.21,0.5v1.14c0.48-0.59,1.06-1.05,1.76-1.37
		c0.69-0.32,1.5-0.49,2.41-0.49h0.69c0.19,0,0.35,0.07,0.49,0.2c0.13,0.13,0.2,0.3,0.2,0.51v2.46c0,0.21-0.07,0.38-0.2,0.51
		c-0.13,0.13-0.29,0.2-0.49,0.2h-1.97c-0.84,0-1.49,0.23-1.97,0.7c-0.48,0.47-0.71,1.13-0.71,1.98v7.57c0,0.21-0.07,0.38-0.2,0.51
		c-0.13,0.13-0.3,0.2-0.51,0.2H127.99z"/>
	<path class="st0" d="M72.51,30.91c-0.19,0-0.35-0.07-0.49-0.2c-0.13-0.13-0.2-0.3-0.2-0.51V16.78c0-0.19,0.07-0.36,0.2-0.5
		c0.13-0.14,0.29-0.21,0.49-0.21h2.8c0.19,0,0.36,0.07,0.5,0.21c0.14,0.14,0.21,0.31,0.21,0.5v1.14c0.48-0.59,1.06-1.05,1.76-1.37
		c0.69-0.32,1.5-0.49,2.41-0.49h0.69c0.19,0,0.35,0.07,0.49,0.2c0.13,0.13,0.2,0.3,0.2,0.51v2.46c0,0.21-0.07,0.38-0.2,0.51
		c-0.13,0.13-0.29,0.2-0.49,0.2h-1.97c-0.84,0-1.49,0.23-1.97,0.7c-0.48,0.47-0.71,1.13-0.71,1.98v7.57c0,0.21-0.07,0.38-0.2,0.51
		c-0.13,0.13-0.3,0.2-0.51,0.2H72.51z"/>
	<path class="st0" d="M144.61,31.2c-1.18,0-2.19-0.14-3.04-0.41c-0.85-0.28-1.53-0.61-2.06-1.01c-0.52-0.4-0.91-0.8-1.17-1.21
		c-0.26-0.41-0.4-0.76-0.41-1.04c-0.02-0.21,0.05-0.38,0.2-0.51c0.15-0.13,0.3-0.2,0.46-0.2h2.77c0.06,0,0.11,0.01,0.17,0.03
		c0.06,0.02,0.11,0.07,0.17,0.14c0.25,0.17,0.5,0.37,0.77,0.59c0.27,0.22,0.58,0.4,0.93,0.56c0.35,0.15,0.79,0.23,1.33,0.23
		c0.63,0,1.16-0.13,1.6-0.39c0.44-0.26,0.66-0.62,0.66-1.1c0-0.34-0.1-0.63-0.3-0.86c-0.2-0.23-0.58-0.44-1.13-0.63
		c-0.55-0.19-1.37-0.4-2.45-0.63c-1.03-0.23-1.9-0.53-2.63-0.91c-0.72-0.38-1.27-0.86-1.63-1.44c-0.36-0.58-0.54-1.28-0.54-2.1
		c0-0.74,0.23-1.46,0.7-2.14c0.47-0.69,1.16-1.25,2.07-1.7c0.91-0.45,2.06-0.67,3.43-0.67c1.05,0,1.96,0.13,2.75,0.39
		c0.79,0.26,1.45,0.58,1.98,0.97c0.53,0.39,0.94,0.79,1.21,1.2c0.28,0.41,0.42,0.77,0.44,1.07c0.02,0.19-0.04,0.35-0.17,0.49
		c-0.13,0.13-0.29,0.2-0.46,0.2h-2.54c-0.1,0-0.18-0.01-0.26-0.04c-0.08-0.03-0.14-0.07-0.2-0.13c-0.23-0.15-0.46-0.33-0.7-0.53
		c-0.24-0.2-0.52-0.38-0.84-0.53c-0.32-0.15-0.74-0.23-1.26-0.23c-0.63,0-1.11,0.14-1.44,0.41c-0.33,0.28-0.5,0.62-0.5,1.04
		c0,0.27,0.09,0.51,0.26,0.74c0.17,0.23,0.52,0.44,1.06,0.63c0.53,0.19,1.34,0.39,2.43,0.6c1.29,0.23,2.32,0.57,3.08,1.03
		c0.76,0.46,1.31,0.99,1.64,1.58c0.33,0.6,0.5,1.24,0.5,1.93c0,0.89-0.27,1.69-0.8,2.38c-0.53,0.7-1.31,1.24-2.33,1.63
		C147.35,31,146.1,31.2,144.61,31.2z"/>
	<path class="st2" d="M36.15,6.12c-0.2-0.3-0.54-0.49-0.91-0.49h-8.92c-0.43,0-0.82,0.26-1,0.65l-9.9,22.93
		c-0.14,0.33-0.11,0.72,0.09,1.02s0.54,0.49,0.91,0.49h8.92c0.43,0,0.82-0.26,1-0.65l9.9-22.93C36.39,6.81,36.35,6.42,36.15,6.12z"
		/>
	<path class="st0" d="M24.36,30.11l-8.22-17.42l0,0l-0.43-0.92c-0.18-0.38-0.56-0.62-0.98-0.62H7.86H5.22
		c-0.37,0-0.72,0.19-0.92,0.5c-0.2,0.31-0.22,0.71-0.06,1.04l8.22,17.42c0.18,0.38,0.56,0.62,0.98,0.62h2.64h6.86h2.4
		C24.92,30.73,24.54,30.49,24.36,30.11z"/>
</g>
</svg>
