<svg width="190" height="50" viewBox="0 0 190 50" fill="none" xmlns="http://www.w3.org/2000/svg">
<path d="M112.504 40.9176C111.471 41.9775 110.17 42.5007 108.587 42.5007C107.003 42.5007 105.716 41.9775 104.696 40.9445C103.676 39.898 103.167 38.637 103.167 37.121C103.167 35.605 103.676 34.3708 104.709 33.311C105.742 32.2646 107.044 31.7413 108.627 31.7413C110.21 31.7413 111.498 32.2646 112.517 33.2976C113.537 34.344 114.047 35.605 114.047 37.121C114.047 38.637 113.537 39.8712 112.504 40.931V40.9176ZM106.091 39.7371C106.762 40.4615 107.607 40.8103 108.627 40.8103C109.646 40.8103 110.492 40.4481 111.149 39.7371C111.806 39.026 112.142 38.1406 112.142 37.1076C112.142 36.0746 111.806 35.2026 111.135 34.4915C110.465 33.7671 109.62 33.4183 108.6 33.4183C107.58 33.4183 106.735 33.7805 106.078 34.4915C105.42 35.2026 105.085 36.088 105.085 37.121C105.085 38.154 105.42 39.026 106.091 39.7505V39.7371Z" fill="white"/>
<path d="M116.274 42.3263V31.9157H124.028V33.5793H118.112V36.4234H123.357V38.0869H118.112V42.3263H116.287H116.274Z" fill="white"/>
<path d="M126.027 42.3263V31.9157H133.781V33.5793H127.865V36.4234H133.11V38.0869H127.865V42.3263H126.04H126.027Z" fill="white"/>
<path d="M135.78 42.3263V31.9157H143.494V33.5525H137.605V36.2624H142.823V37.8991H137.605V40.6896H143.574V42.3263H135.78Z" fill="white"/>
<path d="M145.748 42.3263V31.9157H150.39C151.597 31.9157 152.55 32.2109 153.234 32.8146C153.918 33.4183 154.267 34.2232 154.267 35.2294C154.267 36.0478 154.039 36.732 153.596 37.2552C153.153 37.7918 152.55 38.1674 151.785 38.3821L154.602 42.3263H152.442L149.853 38.704H147.586V42.3263H145.761H145.748ZM147.572 37.0673H150.242C150.899 37.0673 151.423 36.9064 151.798 36.5978C152.187 36.2758 152.375 35.8465 152.375 35.2965C152.375 34.7464 152.187 34.3171 151.812 34.022C151.436 33.7269 150.899 33.5793 150.215 33.5793H147.559V37.0808L147.572 37.0673Z" fill="white"/>
<path d="M160.143 42.4738C158.479 42.4738 157.044 41.9238 155.796 40.8103L156.896 39.4956C157.943 40.3944 159.029 40.8505 160.183 40.8505C160.746 40.8505 161.203 40.7298 161.524 40.4883C161.86 40.2468 162.021 39.9249 162.021 39.509C162.021 39.1199 161.86 38.8114 161.551 38.5833C161.243 38.3552 160.612 38.1272 159.673 37.9125C158.466 37.6308 157.58 37.2552 157.03 36.8259C156.48 36.3966 156.212 35.7124 156.212 34.8001C156.212 33.8878 156.547 33.1768 157.205 32.6268C157.875 32.0633 158.721 31.7816 159.767 31.7816C161.189 31.7816 162.45 32.2243 163.55 33.0963L162.571 34.4781C161.605 33.7671 160.666 33.4049 159.74 33.4049C159.217 33.4049 158.801 33.5256 158.493 33.7671C158.184 34.0086 158.036 34.3037 158.036 34.6794C158.036 35.0818 158.197 35.4038 158.533 35.6185C158.868 35.8331 159.526 36.0746 160.505 36.3161C161.659 36.5978 162.504 36.96 163.04 37.4296C163.577 37.8991 163.845 38.5431 163.845 39.3882C163.845 40.3542 163.51 41.1054 162.826 41.6689C162.142 42.2324 161.243 42.5007 160.129 42.5007L160.143 42.4738Z" fill="white"/>
<path d="M122.941 19.1575L119.654 9.43118C119.614 9.29702 119.493 9.21653 119.359 9.21653H114.557C114.422 9.21653 114.302 9.29702 114.261 9.43118L110.84 19.1038C110.733 19.3856 110.331 19.3856 110.237 19.1038L106.99 9.44459C106.95 9.31044 106.829 9.22994 106.695 9.22994H101.517C101.302 9.22994 101.141 9.44459 101.221 9.65924L107.245 26.7642C107.285 26.8849 107.406 26.9788 107.54 26.9788H113.134C113.269 26.9788 113.389 26.8983 113.43 26.7642L116.515 18.1379C116.623 17.8562 117.012 17.8562 117.119 18.1379L120.084 26.7507C120.124 26.8849 120.245 26.9654 120.379 26.9654H125.933C126.067 26.9654 126.188 26.8849 126.228 26.7507L132.305 9.64583C132.372 9.44459 132.225 9.21653 132.01 9.21653H127.234C127.1 9.21653 126.979 9.29702 126.939 9.43118L123.558 19.1575C123.464 19.4392 123.049 19.4392 122.955 19.1575H122.941Z" fill="white"/>
<path d="M140.865 9.21653H135.297C135.119 9.21653 134.975 9.36068 134.975 9.5385V26.6434C134.975 26.8212 135.119 26.9654 135.297 26.9654H140.865C141.042 26.9654 141.187 26.8212 141.187 26.6434V9.5385C141.187 9.36068 141.042 9.21653 140.865 9.21653Z" fill="white"/>
<path d="M162.477 12.3558C161.833 11.202 160.961 10.3434 159.848 9.76657C158.734 9.20311 157.5 8.92139 156.118 8.92139C154.642 8.92139 153.314 9.25678 152.134 9.91414C151.53 10.2495 151.007 10.6788 150.537 11.1752V9.84706C150.537 9.84706 150.564 9.60558 150.39 9.40435C150.229 9.22995 149.934 9.21653 149.934 9.21653H144.903C144.728 9.21653 144.581 9.3641 144.581 9.53851V26.6434C144.581 26.8178 144.728 26.9654 144.903 26.9654H150.484C150.658 26.9654 150.806 26.8178 150.806 26.6434V18.4331C150.806 17.4269 150.953 16.6219 151.262 16.0182C151.57 15.4145 151.986 14.9584 152.536 14.6633C153.073 14.3681 153.69 14.2206 154.361 14.2206C155.233 14.2206 155.917 14.5023 156.44 15.0792C156.95 15.656 157.205 16.5817 157.205 17.8428V26.6434C157.205 26.8178 157.352 26.9654 157.527 26.9654H163.134C163.309 26.9654 163.456 26.8178 163.456 26.6434V16.8366C163.456 15.0121 163.134 13.5095 162.491 12.3558H162.477Z" fill="white"/>
<path d="M77.5696 25.3958C77.5696 25.3958 77.4489 19.949 81.3126 14.6633C84.3848 10.4508 85.78 7.76764 85.0421 3.20633C85.0421 3.20633 88.6509 8.0762 87.2289 13.5095C85.4044 20.4588 80.8565 20.5527 77.5696 25.3823V25.3958Z" fill="url(#paint0_linear_2001_620)"/>
<path d="M73.7596 34.0086C75.128 31.1242 76.4964 29.3131 82.3859 25.4494C88.6241 21.3577 90.2206 17.883 90.5962 12.1277C93.816 22.6724 88.1144 28.7228 83.1237 30.8559C80.3601 32.0365 76.7379 32.278 73.7596 34.022V34.0086Z" fill="url(#paint1_linear_2001_620)"/>
<path d="M69.3995 40.5286C69.3995 40.5286 72.74 36.4234 79.0454 35.7258C85.0019 35.0684 90.3011 31.5535 91.106 28.1057C92.9708 37.2417 82.7347 46.3509 74.578 42.769C69.6142 40.5822 69.3995 40.5286 69.3995 40.5286Z" fill="url(#paint2_linear_2001_620)"/>
<path d="M39.9657 25.3958C39.9657 25.3958 40.0864 19.949 36.2227 14.6633C33.1506 10.4508 31.7553 7.76764 32.4932 3.20633C32.4932 3.20633 28.8844 8.0762 30.3064 13.5095C32.131 20.4588 36.6789 20.5527 39.9657 25.3823V25.3958Z" fill="url(#paint3_linear_2001_620)"/>
<path d="M43.7757 34.0086C42.4073 31.1242 41.0389 29.3131 35.1495 25.4494C28.9112 21.3442 27.3013 17.883 26.9391 12.1143C23.7193 22.659 29.421 28.7094 34.4116 30.8425C37.1752 32.0231 40.7974 32.2646 43.7757 34.0086Z" fill="url(#paint4_linear_2001_620)"/>
<path d="M48.1223 40.5286C48.1223 40.5286 44.7818 36.4234 38.4765 35.7258C32.52 35.0684 27.2208 31.5535 26.4159 28.1057C24.5511 37.2417 34.7872 46.3509 42.9439 42.769C47.9077 40.5822 48.1223 40.5286 48.1223 40.5286Z" fill="url(#paint5_linear_2001_620)"/>
<path d="M72.1631 14.0864C71.2374 13.1205 69.641 11.9801 69.641 11.9801L65.4687 28.0252L60.7464 13.2949H56.7888L52.0665 28.0252L47.8943 11.9801C47.8943 11.9801 46.2978 13.1205 45.3721 14.0864C44.272 15.2401 43.2659 16.7024 43.2659 16.7024C43.2659 16.7024 44.0306 18.4599 46.5661 28.1325C49.0882 37.8052 53.5959 38.1406 53.5959 38.1406L58.7609 24.014L63.9259 38.1406C63.9259 38.1406 68.4336 37.8052 70.9557 28.1325C73.4778 18.4599 74.2559 16.7024 74.2559 16.7024C74.2559 16.7024 73.2632 15.2401 72.1497 14.0864H72.1631Z" fill="url(#paint6_linear_2001_620)"/>
<path d="M58.8012 0C58.8012 0 58.7878 0 58.7744 0C58.7744 0 58.761 0 58.7476 0C50.4567 0 43.0915 3.79662 38.3424 9.64583C38.8522 10.4776 40.8243 13.2815 41.1194 13.7778C44.9295 8.3311 51.4092 4.70888 58.7744 4.70888C66.1396 4.70888 72.6193 8.3311 76.4293 13.7778C76.7245 13.2815 77.0465 12.7851 77.4087 12.2887C78.1063 11.3362 78.6966 10.4776 79.2064 9.64583C74.4438 3.79662 67.0787 0 58.8012 0Z" fill="url(#paint7_linear_2001_620)"/>
<path d="M67.3067 43.5605C64.6772 44.674 61.7928 45.3045 58.7341 45.3045C55.6753 45.3045 52.8312 44.6874 50.2152 43.5873C49.0748 44.0703 46.271 45.2777 44.6208 45.9619C48.6858 48.5109 53.5288 50 58.7207 50C63.9125 50 68.7958 48.4974 72.8741 45.9351C71.1838 45.224 68.3665 44.03 67.2932 43.5605H67.3067Z" fill="url(#paint8_linear_2001_620)"/>
<defs>
<linearGradient id="paint0_linear_2001_620" x1="96.1771" y1="14.301" x2="71.2509" y2="14.301" gradientUnits="userSpaceOnUse">
<stop stop-color="#3BC4ED"/>
<stop offset="0.29" stop-color="#3BC4ED"/>
<stop offset="1" stop-color="#2D63AD"/>
</linearGradient>
<linearGradient id="paint1_linear_2001_620" x1="96.1503" y1="23.0614" x2="71.2912" y2="23.0614" gradientUnits="userSpaceOnUse">
<stop stop-color="#3BC4ED"/>
<stop offset="0.29" stop-color="#3BC4ED"/>
<stop offset="1" stop-color="#2D63AD"/>
</linearGradient>
<linearGradient id="paint2_linear_2001_620" x1="97.4382" y1="35.8331" x2="71.4119" y2="35.8331" gradientUnits="userSpaceOnUse">
<stop stop-color="#3BC4ED"/>
<stop offset="0.29" stop-color="#3BC4ED"/>
<stop offset="1" stop-color="#2D63AD"/>
</linearGradient>
<linearGradient id="paint3_linear_2001_620" x1="21.3582" y1="14.301" x2="46.2844" y2="14.301" gradientUnits="userSpaceOnUse">
<stop stop-color="#3BC4ED"/>
<stop offset="0.29" stop-color="#3BC4ED"/>
<stop offset="1" stop-color="#2D63AD"/>
</linearGradient>
<linearGradient id="paint4_linear_2001_620" x1="21.385" y1="23.0614" x2="46.2442" y2="23.0614" gradientUnits="userSpaceOnUse">
<stop stop-color="#3BC4ED"/>
<stop offset="0.29" stop-color="#3BC4ED"/>
<stop offset="1" stop-color="#2D63AD"/>
</linearGradient>
<linearGradient id="paint5_linear_2001_620" x1="20.0971" y1="35.8331" x2="46.1234" y2="35.8331" gradientUnits="userSpaceOnUse">
<stop stop-color="#3BC4ED"/>
<stop offset="0.29" stop-color="#3BC4ED"/>
<stop offset="1" stop-color="#2D63AD"/>
</linearGradient>
<linearGradient id="paint6_linear_2001_620" x1="58.7609" y1="8.69332" x2="58.7609" y2="41.4006" gradientUnits="userSpaceOnUse">
<stop stop-color="#3BC4ED"/>
<stop offset="0.29" stop-color="#3BC4ED"/>
<stop offset="1" stop-color="#2D63AD"/>
</linearGradient>
<linearGradient id="paint7_linear_2001_620" x1="58.761" y1="-19.6136" x2="58.761" y2="118.755" gradientUnits="userSpaceOnUse">
<stop stop-color="#3BC4ED"/>
<stop offset="0.29" stop-color="#3BC4ED"/>
<stop offset="1" stop-color="#2D63AD"/>
</linearGradient>
<linearGradient id="paint8_linear_2001_620" x1="58.7609" y1="-5.55406" x2="58.7609" y2="51.9989" gradientUnits="userSpaceOnUse">
<stop stop-color="#3AC5EE"/>
<stop offset="0.29" stop-color="#3BC4ED"/>
<stop offset="1" stop-color="#2D63AD"/>
</linearGradient>
</defs>
</svg>
