<svg width="137" height="38" viewBox="0 0 137 38" fill="none" xmlns="http://www.w3.org/2000/svg">    <path d="M71.698 14.96L66.838 24.36V29H63.418V24.36L58.558 14.96H62.438L65.158 20.84L67.858 14.96H71.698ZM83.5959 23.24C83.5959 23.56 83.5759 23.8933 83.5359 24.24H75.7959C75.8493 24.9333 76.0693 25.4667 76.4559 25.84C76.8559 26.2 77.3426 26.38 77.9159 26.38C78.7693 26.38 79.3626 26.02 79.6959 25.3H83.3359C83.1493 26.0333 82.8093 26.6933 82.3159 27.28C81.8359 27.8667 81.2293 28.3267 80.4959 28.66C79.7626 28.9933 78.9426 29.16 78.0359 29.16C76.9426 29.16 75.9693 28.9267 75.1159 28.46C74.2626 27.9933 73.5959 27.3267 73.1159 26.46C72.6359 25.5933 72.3959 24.58 72.3959 23.42C72.3959 22.26 72.6293 21.2467 73.0959 20.38C73.5759 19.5133 74.2426 18.8467 75.0959 18.38C75.9493 17.9133 76.9293 17.68 78.0359 17.68C79.1159 17.68 80.0759 17.9067 80.9159 18.36C81.7559 18.8133 82.4093 19.46 82.8759 20.3C83.3559 21.14 83.5959 22.12 83.5959 23.24ZM80.0959 22.34C80.0959 21.7533 79.8959 21.2867 79.4959 20.94C79.0959 20.5933 78.5959 20.42 77.9959 20.42C77.4226 20.42 76.9359 20.5867 76.5359 20.92C76.1493 21.2533 75.9093 21.7267 75.8159 22.34H80.0959ZM88.8202 14.2V29H85.4002V14.2H88.8202ZM94.7186 14.2V29H91.2986V14.2H94.7186ZM96.517 23.4C96.517 22.2533 96.7304 21.2467 97.157 20.38C97.597 19.5133 98.1904 18.8467 98.937 18.38C99.6837 17.9133 100.517 17.68 101.437 17.68C102.224 17.68 102.91 17.84 103.497 18.16C104.097 18.48 104.557 18.9 104.877 19.42V17.84H108.297V29H104.877V27.42C104.544 27.94 104.077 28.36 103.477 28.68C102.89 29 102.204 29.16 101.417 29.16C100.51 29.16 99.6837 28.9267 98.937 28.46C98.1904 27.98 97.597 27.3067 97.157 26.44C96.7304 25.56 96.517 24.5467 96.517 23.4ZM104.877 23.42C104.877 22.5667 104.637 21.8933 104.157 21.4C103.69 20.9067 103.117 20.66 102.437 20.66C101.757 20.66 101.177 20.9067 100.697 21.4C100.23 21.88 99.997 22.5467 99.997 23.4C99.997 24.2533 100.23 24.9333 100.697 25.44C101.177 25.9333 101.757 26.18 102.437 26.18C103.117 26.18 103.69 25.9333 104.157 25.44C104.637 24.9467 104.877 24.2733 104.877 23.42ZM117.571 17.72C118.878 17.72 119.918 18.1467 120.691 19C121.478 19.84 121.871 21 121.871 22.48V29H118.471V22.94C118.471 22.1933 118.278 21.6133 117.891 21.2C117.505 20.7867 116.985 20.58 116.331 20.58C115.678 20.58 115.158 20.7867 114.771 21.2C114.385 21.6133 114.191 22.1933 114.191 22.94V29H110.771V17.84H114.191V19.32C114.538 18.8267 115.005 18.44 115.591 18.16C116.178 17.8667 116.838 17.72 117.571 17.72ZM123.568 23.4C123.568 22.2533 123.781 21.2467 124.208 20.38C124.648 19.5133 125.241 18.8467 125.988 18.38C126.734 17.9133 127.568 17.68 128.488 17.68C129.274 17.68 129.961 17.84 130.548 18.16C131.148 18.48 131.608 18.9 131.928 19.42V17.84H135.348V29H131.928V27.42C131.594 27.94 131.128 28.36 130.528 28.68C129.941 29 129.254 29.16 128.468 29.16C127.561 29.16 126.734 28.9267 125.988 28.46C125.241 27.98 124.648 27.3067 124.208 26.44C123.781 25.56 123.568 24.5467 123.568 23.4ZM131.928 23.42C131.928 22.5667 131.688 21.8933 131.208 21.4C130.741 20.9067 130.168 20.66 129.488 20.66C128.808 20.66 128.228 20.9067 127.748 21.4C127.281 21.88 127.048 22.5467 127.048 23.4C127.048 24.2533 127.281 24.9333 127.748 25.44C128.228 25.9333 128.808 26.18 129.488 26.18C130.168 26.18 130.741 25.9333 131.208 25.44C131.688 24.9467 131.928 24.2733 131.928 23.42Z" fill="white"/>    <circle cx="9.5" cy="28.5" r="9.5" fill="#FFA500"/>    <circle cx="26" cy="19" r="19" fill="white"/>    <circle cx="43.5" cy="9.5" r="9.5" fill="#0085FF"/></svg>